<svg width="732" height="604" viewBox="0 0 732 604" fill="none" xmlns="http://www.w3.org/2000/svg">
<g clip-path="url(#clip0_24_161)">
<path d="M203.205 354.474H58.9448V489.427H203.205V354.474Z" fill="#3F3D56"/>
<path d="M262.15 536.35H0V307.551H262.15V536.35ZM1.55118 534.799H260.598V309.102H1.55118V534.799Z" fill="#3F3D56"/>
<path d="M621.575 220.85C599.735 220.85 578.385 214.374 560.226 202.24C542.066 190.107 527.913 172.861 519.555 152.683C511.197 132.505 509.01 110.303 513.271 88.8822C517.532 67.4618 528.049 47.7859 543.492 32.3427C558.936 16.8995 578.611 6.38249 600.032 2.12171C621.452 -2.13907 643.655 0.0477304 663.833 8.40556C684.01 16.7634 701.256 30.9169 713.39 49.0762C725.524 67.2355 732 88.5851 732 110.425C731.967 139.702 720.322 167.769 699.621 188.471C678.919 209.173 650.851 220.817 621.575 220.85V220.85ZM621.575 1.63586C600.058 1.63586 579.025 8.01623 561.135 19.9701C543.244 31.9241 529.301 48.9146 521.067 68.7933C512.833 88.6719 510.678 110.546 514.876 131.649C519.073 152.752 529.435 172.136 544.649 187.351C559.863 202.565 579.248 212.926 600.351 217.124C621.454 221.322 643.328 219.167 663.206 210.933C683.085 202.699 700.076 188.756 712.03 170.865C723.984 152.975 730.364 131.942 730.364 110.425C730.331 81.5824 718.859 53.9303 698.464 33.5354C678.07 13.1405 650.417 1.66837 621.575 1.63589V1.63586Z" fill="#3F3D56"/>
<path d="M618.303 163.593C647.667 163.593 671.471 139.789 671.471 110.425C671.471 81.0614 647.667 57.2574 618.303 57.2574C588.939 57.2574 565.135 81.0614 565.135 110.425C565.135 139.789 588.939 163.593 618.303 163.593Z" fill="#3F3D56"/>
<path d="M706.916 271.644L675.333 289.878L693.568 321.461L725.151 303.227L706.916 271.644Z" fill="#FF6584"/>
<path d="M224.916 94.6441L193.333 112.878L211.568 144.461L243.151 126.227L224.916 94.6441Z" fill="#3F3D56"/>
<path d="M662.916 470.644L631.333 488.878L649.568 520.461L681.151 502.227L662.916 470.644Z" fill="#E5E5E5"/>
<path d="M144.26 408.766H117.89V435.136H144.26V408.766Z" fill="#FF5F00"/>
<path d="M618.303 123.513C625.531 123.513 631.39 117.653 631.39 110.425C631.39 103.197 625.531 97.3378 618.303 97.3378C611.075 97.3378 605.215 103.197 605.215 110.425C605.215 117.653 611.075 123.513 618.303 123.513Z" fill="#FF5F00"/>
<path d="M573.559 288.122L505.811 327.236L544.925 394.984L612.673 355.869L573.559 288.122Z" fill="#FF5F00"/>
<path d="M599 601.793H179V603.793H599V601.793Z" fill="#CBCBCB"/>
<path d="M338.39 332.043C337.173 330.479 336.313 328.667 335.872 326.736C335.431 324.804 335.419 322.799 335.837 320.862C336.254 318.925 337.092 317.103 338.29 315.524C339.488 313.946 341.017 312.65 342.77 311.726L339.94 280.882L358.264 274.591L361.649 318.204C363.005 321.252 363.196 324.692 362.185 327.871C361.175 331.051 359.033 333.749 356.166 335.455C353.299 337.161 349.906 337.755 346.629 337.126C343.353 336.498 340.421 334.689 338.39 332.043V332.043Z" fill="#FFB8B8"/>
<path d="M358.061 155.018C358.061 155.018 370.636 128.628 381.81 137.911C392.984 147.194 366.491 225.223 366.491 225.223L362.461 300.971L341.225 298.849L335.221 225.049L358.061 155.018Z" fill="#CCCCCC"/>
<path d="M189.39 545.442L205.154 558.203L261.875 503.472L238.609 484.639L189.39 545.442Z" fill="#FFB8B8"/>
<path d="M189.535 537.041L220.58 562.171L220.582 562.172C225.828 566.419 229.173 572.577 229.879 579.291C230.586 586.004 228.597 592.724 224.35 597.971L223.829 598.614L173 557.468L189.535 537.041Z" fill="#2F2E41"/>
<path d="M408.471 580.865L428.753 580.864L438.401 502.636L408.468 502.637L408.471 580.865Z" fill="#FFB8B8"/>
<path d="M403.298 574.243L443.239 574.242H443.241C449.991 574.242 456.465 576.924 461.239 581.697C466.012 586.471 468.694 592.944 468.695 599.695V600.522L403.299 600.525L403.298 574.243Z" fill="#2F2E41"/>
<path d="M444.06 214.124C444.06 214.124 482.108 260.444 473.837 306.764C465.565 353.084 458.948 387.825 458.948 387.825L445.714 492.045C445.714 492.045 450.677 520.429 444.06 527.743C444.06 527.743 453.985 544.983 435.788 551.6C417.591 558.217 407.772 549.314 407.772 549.314C407.772 549.314 394.431 530.094 402.702 525.131L406.187 320.601L273.667 493.699C273.667 493.699 271.231 514.755 254.252 514.98L233.964 530.094L210.804 516.86L222.384 501.971C222.384 501.971 215.767 485.428 230.656 482.119L316.679 369.627L338.185 311.727C338.185 311.727 349.765 267.061 381.196 248.864V229.501L444.06 214.124Z" fill="#2F2E41"/>
<path d="M378.715 133.891C383.723 127.971 390.735 124.101 398.413 123.016C406.091 121.932 413.9 123.71 420.352 128.012L421.726 128.928C436.41 145.557 446.279 165.876 450.271 187.698L456.466 221.568L378.715 238.411L360.487 175.547C358.173 167.568 358.73 159.03 362.061 151.42C365.391 143.809 371.284 137.606 378.715 133.891V133.891Z" fill="#CCCCCC"/>
<path d="M506.456 339.244C504.3 338.539 502.326 337.371 500.671 335.82C499.016 334.27 497.721 332.375 496.877 330.27C496.033 328.165 495.661 325.901 495.787 323.637C495.914 321.372 496.535 319.163 497.607 317.165L475.178 289.715L488.535 272.016L519.665 311.226C522.902 313.25 525.285 316.391 526.361 320.054C527.438 323.717 527.133 327.648 525.505 331.102C523.877 334.555 521.038 337.292 517.528 338.792C514.017 340.293 510.077 340.454 506.456 339.244V339.244Z" fill="#FFB8B8"/>
<path d="M411.8 158.705C411.8 158.705 406.838 125.619 423.381 127.273C439.923 128.928 464.738 219.914 464.738 219.914L509.404 294.357L487.898 305.937L434.961 239.765L411.8 158.705Z" fill="#CCCCCC"/>
<path d="M442.094 110.335H363.318C361.698 110.333 360.144 109.688 358.998 108.543C357.852 107.397 357.208 105.843 357.206 104.223V70.2675C357.206 58.2001 362 46.627 370.533 38.094C379.066 29.5611 390.639 24.7673 402.706 24.7673C414.774 24.7673 426.347 29.5611 434.88 38.094C443.413 46.627 448.206 58.2001 448.206 70.2675V104.223C448.204 105.843 447.56 107.397 446.414 108.543C445.268 109.688 443.715 110.333 442.094 110.335V110.335Z" fill="#2F2E41"/>
<path d="M441.327 92.1862C450.165 76.0202 444.223 55.7513 428.057 46.9141C411.891 38.077 391.622 44.0182 382.785 60.1842C373.948 76.3502 379.889 96.6192 396.055 105.456C412.221 114.293 432.49 108.352 441.327 92.1862Z" fill="#FFB8B8"/>
<path d="M458.971 73.663H416.989L416.558 66.7472L414.406 73.663H407.941L407.088 59.9561L402.822 73.663H390.314V72.9839C390.314 53.1372 404.386 36.9912 421.683 36.9912H427.602C444.899 36.9912 458.971 53.1372 458.971 72.9839L458.971 73.663Z" fill="#2F2E41"/>
<path d="M418.726 116.673C418.213 116.673 417.701 116.633 417.194 116.555L367.225 108.859V56.812C367.225 54.1794 367.743 51.5726 368.751 49.1404C369.758 46.7082 371.235 44.4982 373.096 42.6366C374.958 40.7751 377.168 39.2985 379.6 38.291C382.032 37.2835 384.639 36.765 387.272 36.765H422.231L420.87 38.1511C401.922 57.4417 416.197 88.7216 426.392 105.65C427.14 106.867 427.479 108.292 427.357 109.715C427.234 111.138 426.659 112.485 425.714 113.557C424.847 114.553 423.772 115.349 422.565 115.887C421.358 116.425 420.048 116.694 418.726 116.673Z" fill="#2F2E41"/>
</g>
<defs>
<clipPath id="clip0_24_161">
<rect width="732" height="603.793" fill="white"/>
</clipPath>
</defs>
</svg>
