<svg width="1121" height="868" viewBox="0 0 1121 868" fill="none" xmlns="http://www.w3.org/2000/svg">
<g clip-path="url(#clip0_24_635)">
<path d="M555 698.627C483.974 698.626 415.146 673.999 360.242 628.94C305.338 583.882 267.757 521.181 253.9 451.519C240.044 381.858 250.77 309.548 284.252 246.909C317.733 184.269 371.898 135.177 437.517 107.997C503.137 80.8167 576.151 77.2298 644.118 97.8476C712.085 118.465 770.801 162.012 810.261 221.068C849.721 280.124 867.483 351.035 860.521 421.719C853.56 492.402 822.305 558.486 772.082 608.709C743.641 637.306 709.81 659.977 672.548 675.412C635.285 690.846 595.332 698.737 555 698.627V698.627ZM555 86.6266C386.822 86.6266 250 223.449 250 391.627C250 559.804 386.822 696.627 555 696.627C723.178 696.627 860 559.804 860 391.627C860 223.449 723.178 86.6266 555 86.6266Z" fill="#3F3D56"/>
<path d="M580.859 664.727C575.174 685.742 555.702 698.757 555.702 698.757C555.702 698.757 545.446 677.7 551.131 656.685C556.816 635.669 576.289 622.654 576.289 622.654C576.289 622.654 586.544 643.711 580.859 664.727Z" fill="#FF5F00"/>
<path d="M529.141 664.727C534.826 685.742 554.298 698.757 554.298 698.757C554.298 698.757 564.554 677.7 558.869 656.685C553.184 635.669 533.711 622.654 533.711 622.654C533.711 622.654 523.456 643.711 529.141 664.727Z" fill="#FF5F00"/>
<path d="M537.495 660.21C553.095 675.396 555 698.74 555 698.74C555 698.74 531.613 697.463 516.013 682.277C500.413 667.092 498.508 643.747 498.508 643.747C498.508 643.747 521.895 645.024 537.495 660.21Z" fill="#3F3D56"/>
<path d="M572.505 660.21C556.905 675.396 555 698.74 555 698.74C555 698.74 578.387 697.463 593.987 682.277C609.587 667.092 611.492 643.747 611.492 643.747C611.492 643.747 588.105 645.024 572.505 660.21Z" fill="#3F3D56"/>
<path d="M529.141 119.685C534.826 98.6692 554.298 85.6538 554.298 85.6538C554.298 85.6538 564.554 106.711 558.869 127.727C553.184 148.742 533.711 161.757 533.711 161.757C533.711 161.757 523.456 140.7 529.141 119.685Z" fill="#FF5F00"/>
<path d="M580.859 119.685C575.174 98.6692 555.702 85.6538 555.702 85.6538C555.702 85.6538 545.446 106.711 551.131 127.727C556.816 148.742 576.289 161.757 576.289 161.757C576.289 161.757 586.544 140.7 580.859 119.685Z" fill="#FF5F00"/>
<path d="M572.505 124.201C556.905 109.015 555 85.6709 555 85.6709C555 85.6709 578.387 86.9478 593.987 102.134C609.587 117.32 611.492 140.664 611.492 140.664C611.492 140.664 588.105 139.387 572.505 124.201Z" fill="#3F3D56"/>
<path d="M537.495 124.201C553.095 109.015 555 85.6709 555 85.6709C555 85.6709 531.613 86.9478 516.013 102.134C500.413 117.32 498.508 140.664 498.508 140.664C498.508 140.664 521.895 139.387 537.495 124.201Z" fill="#3F3D56"/>
<path d="M412.083 12.6768H14.6279V416.843H412.083V12.6768Z" fill="#FF5F00"/>
<path d="M397.065 22.9351H43.0031H22.9351V44.4371V401.365H43.0031V44.4371H397.065V22.9351Z" fill="#3F3D56"/>
<path opacity="0.3" d="M397.065 22.9351H43.0031H22.9351V44.4371V401.365H43.0031V44.4371H397.065V22.9351Z" fill="black"/>
<path opacity="0.1" d="M339.727 44.437H323.959H43.0029V96.041H323.959V401.365H397.065V44.437H339.727Z" fill="black"/>
<path d="M0 0V424.3H420V0H0ZM397.065 401.365H22.9352V22.9352H397.065V401.365Z" fill="#3F3D56"/>
<path d="M294.75 439.943C294.75 439.943 313.742 476.74 324.425 485.049C335.108 493.358 307.213 503.447 307.213 503.447L274.571 452.407L294.75 439.943Z" fill="#A0616A"/>
<path d="M179.612 350.326C179.612 350.326 268.043 373.472 275.758 388.903C283.473 404.334 307.213 441.724 307.213 441.724L272.197 469.618L237.774 417.984L142.815 375.252L179.612 350.326Z" fill="#2F2E41"/>
<path d="M304.246 488.61C304.246 488.61 295.937 481.488 293.563 486.236C291.189 490.984 284.067 515.317 284.067 515.317C284.067 515.317 294.156 524.813 314.929 518.878C314.929 518.878 320.27 514.723 328.579 518.878C336.888 523.032 367.749 514.723 366.562 501.073C365.376 487.423 333.92 488.61 333.92 488.61C333.92 488.61 320.672 473.767 318.987 479.408C317.303 485.049 319.677 485.642 319.677 485.642C319.677 485.642 308.994 496.919 304.246 488.61Z" fill="#2F2E41"/>
<path d="M202.758 476.146L196.823 526H225.904C225.904 526 223.53 487.423 224.124 482.675C224.717 477.927 202.758 476.146 202.758 476.146Z" fill="#A0616A"/>
<path d="M219.376 366.35C219.376 366.35 235.401 390.09 225.905 391.87C216.409 393.651 208.693 366.35 208.693 366.35H219.376Z" fill="#A0616A"/>
<path d="M98.3035 363.976C98.3035 363.976 86.4337 398.992 133.32 408.488C180.206 417.984 194.449 425.7 194.449 425.7L200.384 486.236L241.335 488.61C241.335 488.61 260.921 396.618 235.4 384.749C209.88 372.879 155.872 359.228 155.872 359.228L98.3035 363.976Z" fill="#2F2E41"/>
<path d="M200.384 518.284C200.384 518.284 208.693 514.13 209.88 514.13C209.88 514.13 215.097 502.098 224.655 503.366L245.49 533.715C245.49 533.715 276.945 556.268 254.986 562.203C233.027 568.138 215.815 563.39 215.815 563.39L206.913 556.861C206.913 556.861 208.1 550.333 200.384 551.52C200.384 551.52 184.36 544.992 184.954 540.244C185.547 535.496 198.153 514.829 198.153 514.829L200.384 518.284Z" fill="#2F2E41"/>
<path d="M205.429 248.542C218.54 248.542 229.169 237.913 229.169 224.802C229.169 211.691 218.54 201.062 205.429 201.062C192.318 201.062 181.689 211.691 181.689 224.802C181.689 237.913 192.318 248.542 205.429 248.542Z" fill="#A0616A"/>
<path d="M186.14 217.383C186.14 217.383 164.775 232.814 160.62 233.408C156.466 234.001 180.206 263.082 180.206 263.082C180.206 263.082 191.482 244.684 198.604 242.31C205.726 239.936 186.14 217.383 186.14 217.383Z" fill="#A0616A"/>
<path d="M170.116 236.968C170.116 236.968 161.214 225.099 155.872 225.099C150.531 225.099 102.458 230.44 98.3034 270.204C94.1489 309.968 96.5229 379.407 96.5229 379.407C96.5229 379.407 92.9619 362.196 132.726 369.318C132.726 369.318 180.205 359.228 188.514 359.228C196.823 359.228 200.384 274.359 200.384 274.359L186.871 253.407C186.871 253.407 180.799 264.863 170.116 236.968Z" fill="#D0CDE1"/>
<path d="M191.482 269.611L200.384 274.359L211.067 339.643L225.905 373.472C225.905 373.472 209.88 367.956 208.693 374.572L184.954 340.237L191.482 269.611Z" fill="#D0CDE1"/>
<path d="M200.092 205.333L213.007 206.946C212.76 209.574 212.829 212.83 215.157 214.073C216.252 214.658 217.641 214.628 218.612 215.401C220.945 217.262 218.662 221.263 219.98 223.941L223.757 224.941C224.211 225.79 224.828 226.541 225.573 227.15C226.318 227.76 227.177 228.216 228.099 228.493C229.021 228.769 229.989 228.861 230.946 228.762C231.904 228.663 232.833 228.376 233.679 227.916C236.217 226.392 237.51 223.48 238.652 220.749C240.017 217.486 241.409 213.979 240.726 210.509C239.992 206.78 236.946 203.682 236.808 199.884C236.746 198.185 237.105 196.067 235.673 195.151C235.014 194.841 234.304 194.653 233.578 194.595C230.279 193.906 228.442 190.491 225.981 188.188C220.825 183.36 212.906 183.487 205.855 183.908C203.837 183.915 201.834 184.264 199.932 184.94C197.782 186.019 195.882 187.534 194.352 189.39C190.57 193.423 186.889 197.648 184.394 202.581C181.9 207.515 180.671 213.28 182.027 218.64C181.893 218.124 186.381 214.749 186.94 214.208C188.694 212.51 188.853 211.699 189.803 209.744C192.015 205.188 195.092 204.708 200.092 205.333Z" fill="#2F2E41"/>
<path opacity="0.1" d="M162.104 281.777L163.885 323.322L190.284 354.281L166.259 319.761L162.104 281.777Z" fill="black"/>
<path opacity="0.1" d="M114.625 293.054L135.397 341.127L162.104 363.086L133.616 343.501L114.625 293.054Z" fill="black"/>
<path d="M227.458 332.019L240.009 340.652C240.634 341.145 241.071 341.838 241.245 342.614C241.42 343.391 241.322 344.203 240.968 344.916L239.289 348.38L239.678 348.648L237.771 352.584L237.382 352.317L223.557 380.847C223.413 381.222 223.187 381.56 222.895 381.836C222.603 382.111 222.253 382.318 221.871 382.44C221.488 382.562 221.083 382.597 220.685 382.541C220.288 382.485 219.908 382.341 219.574 382.119L207.778 374.005C207.06 373.439 206.558 372.642 206.357 371.749C206.156 370.856 206.269 369.922 206.676 369.102L224.131 333.08C224.251 332.767 224.44 332.485 224.684 332.255C224.927 332.024 225.22 331.852 225.539 331.75C225.859 331.648 226.197 331.619 226.529 331.666C226.861 331.712 227.179 331.833 227.458 332.019Z" fill="#3F3D56"/>
<path d="M207.976 368.787L221.485 378.08L239.108 341.713L225.598 332.42L207.976 368.787Z" fill="white"/>
<path d="M202.11 360.782C202.11 360.782 225.652 377.096 217.448 382.198C209.244 387.301 192.154 364.655 192.154 364.655L202.11 360.782Z" fill="#A0616A"/>
<path d="M132.133 239.936C132.133 239.936 101.271 248.838 110.174 276.139C112.321 282.725 114.917 289.794 117.621 296.73C126.126 318.548 135.694 339.049 135.694 339.049L162.519 363.304L198.604 373.472L202.759 369.911C202.759 369.911 203.946 358.635 198.604 357.448C193.263 356.261 184.954 351.513 184.954 351.513L163.588 320.058C163.588 320.058 162.994 241.717 132.133 239.936Z" fill="#D0CDE1"/>
<path d="M718.728 707.41H1106.72V312.867L718.728 312.867V707.41Z" fill="#FF5F00"/>
<path d="M733.389 322.881H1079.02H1098.61V343.871V692.301H1079.02V343.871H733.389V322.881Z" fill="#3F3D56"/>
<path opacity="0.3" d="M733.389 322.881H1079.02H1098.61V343.871V692.301H1079.02V343.871H733.389V322.881Z" fill="black"/>
<path opacity="0.1" d="M789.362 343.871H804.754H1079.02V394.246H804.754V692.301H733.389V343.871H789.362Z" fill="black"/>
<path d="M711 300.492V714.69H1121V300.492H711ZM733.389 322.881H1098.61V692.301H733.389V322.881Z" fill="#3F3D56"/>
<path d="M950.575 495.769C941.746 480.851 924.279 480.156 924.279 480.156C924.279 480.156 907.258 477.979 896.339 500.699C886.162 521.877 872.117 542.324 894.078 547.281L898.045 534.934L900.502 548.2C903.629 548.425 906.765 548.479 909.898 548.361C933.417 547.601 955.815 548.583 955.094 540.143C954.135 528.924 959.07 510.123 950.575 495.769Z" fill="#2F2E41"/>
<path d="M886.939 616.17L885.081 649.604L939.565 655.176L941.423 620.504L922.848 608.741L886.939 616.17Z" fill="#A0616A"/>
<path d="M1033.36 689.538C1031.73 673.743 966.865 666.574 951.276 665.077L945.447 661.677L943.59 641.864C943.59 641.864 886.01 636.911 881.676 636.292C877.342 635.673 873.627 643.722 873.627 645.579C873.627 646.922 872.817 656.508 869.564 662.19C862.54 667.834 841.123 685.595 841.123 692.324C841.123 700.373 858.149 801.602 858.149 801.602L860.006 822.652L877.342 825.748L876.104 760.12C876.104 760.12 882.295 722.352 873.627 711.827V707.493C873.627 707.493 899.05 700.869 908.011 693.657C910.607 693.1 917.903 691.725 921.933 692.92C922.485 693.246 923.122 693.58 923.831 693.92C923.922 694.002 924.007 694.089 924.087 694.181L924.157 694.074C935.748 699.5 965.482 706.343 977.642 704.397C987.021 702.965 996.61 704.709 1004.88 709.35C998.074 718.018 1003.03 742.784 1003.03 742.784L1003.65 796.03L1012.31 806.555H1024.08V777.455C1024.08 777.455 1035.22 707.493 1033.36 689.538Z" fill="#2F2E41"/>
<path d="M918.824 536.611C930.108 536.611 939.256 527.464 939.256 516.18C939.256 504.896 930.108 495.748 918.824 495.748C907.54 495.748 898.393 504.896 898.393 516.18C898.393 527.464 907.54 536.611 918.824 536.611Z" fill="#A0616A"/>
<path d="M906.441 529.182C906.441 529.182 909.537 542.803 905.203 544.041C901.774 545.177 898.458 546.628 895.297 548.375L890.344 564.472V580.57L950.4 587.381L952.257 581.808V573.76L945.447 561.377L942.351 558.281C942.351 558.281 928.73 543.422 931.826 529.182H906.441Z" fill="#A0616A"/>
<path d="M959.997 578.403C959.997 578.403 961.854 600.073 959.997 609.979C958.14 619.885 958.759 634.745 958.759 634.745L945.138 632.268V598.835L948.233 580.88L959.997 578.403Z" fill="#A0616A"/>
<path d="M926.417 492.861C933.392 492.861 939.046 487.207 939.046 480.232C939.046 473.257 933.392 467.602 926.417 467.602C919.442 467.602 913.787 473.257 913.787 480.232C913.787 487.207 919.442 492.861 926.417 492.861Z" fill="#2F2E41"/>
<path d="M912.458 476.908C912.458 473.789 913.613 470.78 915.699 468.461C917.785 466.142 920.656 464.678 923.758 464.349C923.316 464.303 922.873 464.279 922.428 464.278C919.079 464.278 915.866 465.609 913.498 467.977C911.129 470.346 909.799 473.558 909.799 476.908C909.799 480.258 911.129 483.47 913.498 485.838C915.866 488.207 919.079 489.538 922.428 489.538C922.873 489.537 923.316 489.513 923.758 489.467C920.656 489.138 917.785 487.674 915.699 485.355C913.613 483.036 912.458 480.027 912.458 476.908V476.908Z" fill="#2F2E41"/>
<path d="M946.671 494.331L929.415 485.292L905.584 488.99L900.654 510.766L912.927 510.294L916.356 502.294V510.162L922.019 509.944L925.306 497.207L927.36 510.766L947.493 510.355L946.671 494.331Z" fill="#2F2E41"/>
<path d="M876.378 801.861C876.378 801.861 885.164 805.995 887.748 807.546C890.332 809.096 900.668 805.995 898.601 815.298C896.534 824.6 887.748 833.386 887.748 833.386C887.748 833.386 883.614 838.037 883.614 841.138C883.614 844.238 873.278 868.011 860.874 866.978C848.471 865.944 850.538 853.541 850.538 853.541L853.122 840.104C853.122 840.104 858.29 817.365 859.324 817.882C860.358 818.398 862.942 822.016 862.942 822.016C862.942 822.016 875.862 816.848 876.378 801.861Z" fill="#D0CDE1"/>
<path d="M1005.23 786.383C1005.23 786.383 996.443 790.517 993.859 792.067C991.275 793.618 980.939 790.517 983.006 799.819C985.073 809.122 993.859 817.907 993.859 817.907C993.859 817.907 997.993 822.559 997.993 825.659C997.993 828.76 1008.33 852.533 1020.73 851.499C1033.14 850.466 1031.07 838.063 1031.07 838.063L1028.48 824.626C1028.48 824.626 1023.32 801.887 1022.28 802.403C1021.25 802.92 1018.66 806.538 1018.66 806.538C1018.66 806.538 1005.75 801.37 1005.23 786.383Z" fill="#D0CDE1"/>
<path d="M937.11 639.075V634.161H936.018V631.977C936.018 631.476 935.919 630.979 935.727 630.515C935.535 630.051 935.254 629.63 934.899 629.275C934.544 628.92 934.123 628.639 933.659 628.447C933.195 628.255 932.698 628.156 932.197 628.156H919.094C918.08 628.156 917.108 628.558 916.391 629.275C915.675 629.992 915.272 630.964 915.272 631.977V668.556C915.272 669.57 915.675 670.542 916.391 671.259C917.108 671.975 918.08 672.378 919.094 672.378H932.197C933.21 672.378 934.182 671.975 934.899 671.259C935.616 670.542 936.018 669.57 936.018 668.556V645.626H937.11V640.713H936.018V639.075H937.11Z" fill="#D0CDE1"/>
<path d="M926.191 641.259C927.397 641.259 928.375 640.281 928.375 639.075C928.375 637.869 927.397 636.891 926.191 636.891C924.985 636.891 924.007 637.869 924.007 639.075C924.007 640.281 924.985 641.259 926.191 641.259Z" fill="#3F3D56"/>
<path d="M871.46 567.878L860.316 613.694C860.316 613.694 855.982 623.6 865.888 629.791C875.794 635.983 898.083 644.032 898.083 644.032C898.083 644.032 917.896 671.274 920.372 660.129C922.849 648.985 905.513 634.745 905.513 634.745L875.175 615.551L886.939 583.356L871.46 567.878Z" fill="#A0616A"/>
<path d="M951.948 625.458C951.948 625.458 961.235 624.219 960.616 634.745C959.997 645.27 947.614 646.508 947.614 646.508C947.614 646.508 942.042 670.035 933.993 665.701C925.944 661.367 938.327 637.84 938.327 637.84L948.852 629.792L951.948 625.458Z" fill="#A0616A"/>
<path d="M892.201 563.853L902.108 543.422L882.295 550.232C882.295 550.232 871.151 555.805 870.532 568.806C869.912 581.808 884.772 588.619 884.772 588.619C884.772 588.619 887.248 607.193 886.01 609.669C884.772 612.146 886.01 622.052 886.01 622.052C886.01 622.052 909.847 615.551 921.61 623.6C933.374 631.649 942.971 627.005 942.971 627.005C942.971 627.005 942.351 611.527 947.305 609.05C952.258 606.574 956.592 594.81 952.258 587.38C952.258 587.38 962.164 588.619 961.545 579.332C960.926 570.045 955.972 561.996 947.924 558.281C939.875 554.566 938.985 553.973 938.985 553.973L950.4 574.998V580.57C950.4 580.57 930.192 567.671 910.199 566.596C903.677 566.298 897.272 568.406 892.202 572.521L892.201 572.521V563.853Z" fill="#2F2E41"/>
</g>
<defs>
<clipPath id="clip0_24_635">
<rect width="1121" height="867.011" fill="white"/>
</clipPath>
</defs>
</svg>
