<svg width="845" height="596" viewBox="0 0 845 596" fill="none" xmlns="http://www.w3.org/2000/svg">
<g clip-path="url(#clip0_24_689)">
<path d="M431.393 594C456.798 594 477.393 573.405 477.393 548C477.393 522.595 456.798 502 431.393 502C405.987 502 385.393 522.595 385.393 548C385.393 573.405 405.987 594 431.393 594Z" fill="#FF5F00"/>
<path d="M706.199 591.416C731.934 583.687 759.293 575.628 779.703 557.255C797.94 540.836 810.253 515.766 802.697 491.143C795.157 466.571 772.573 450.187 749.256 442.038C736.031 437.416 722.195 434.852 708.364 432.837C693.329 430.648 678.228 428.854 663.134 427.127C602.016 420.137 540.668 415.867 479.09 414.316C448.706 413.551 418.327 413.57 387.938 414.011C360.798 414.405 332.216 414.395 307.039 402.86C287.46 393.89 269.691 377.571 264.235 356.127C257.938 331.372 269.553 306.163 286.215 288.235C294.998 278.784 305.263 270.831 315.852 263.517C327.339 255.583 339.227 248.211 351.372 241.329C375.293 227.782 400.302 216.252 426.139 206.861C438.885 202.226 451.82 198.228 464.867 194.539C475.884 191.424 486.935 188.305 497.583 184.062C518.166 175.858 537.744 161.962 542.977 139.18C547.937 117.589 539.574 94.1495 524.912 78.1096C507.949 59.5526 482.373 51.4178 457.852 50.1016C430.324 48.624 403.43 55.5136 377.555 64.2575C349.959 73.5835 322.957 84.3067 294.777 91.8607C266.833 99.3441 238.348 104.639 209.581 107.697C195.499 109.197 180.991 110.89 166.825 109.742C154.953 108.78 143.141 105.288 134.391 96.8623C126.888 89.6376 122.419 79.7083 123.956 69.23C124.235 67.3268 127.126 68.1359 126.849 70.0275C124.978 82.7826 133.648 94.5361 144.333 100.557C156.681 107.515 171.707 107.525 185.454 106.729C215.263 104.928 244.871 100.648 273.969 93.9332C302.561 87.4026 330.133 78.0668 357.673 68.0941C383.829 58.6226 410.57 49.3783 438.513 47.3268C462.759 45.5467 488.265 49.079 509.387 61.7499C527.951 72.8859 541.602 91.4572 545.952 112.768C550.202 133.593 544.315 154.553 528.552 169.085C512.23 184.132 489.851 190.564 468.995 196.489C442.543 204.003 416.658 212.787 391.603 224.192C366.206 235.72 341.85 249.413 318.803 265.12C296.556 280.322 274.602 299.451 267.566 326.571C264.289 339.204 264.894 352.603 270.378 364.536C275.254 375.146 283.284 384.071 292.639 390.954C314.96 407.379 343.092 410.751 370.054 411.087C400.335 411.463 430.617 410.441 460.909 410.939C522.641 411.952 584.247 415.709 645.727 422.211C661.133 423.842 676.518 425.644 691.885 427.618C705.706 429.394 719.575 431.159 733.163 434.313C757.326 439.921 780.837 450.705 795.855 471.191C802.52 480.071 806.65 490.594 807.802 501.637C808.854 513.161 806.032 524.706 800.822 534.958C789.29 557.648 767.688 572.081 744.749 581.562C732.462 586.641 719.717 590.488 706.997 594.309C705.144 594.865 704.352 591.97 706.2 591.416L706.199 591.416Z" fill="#F2F2F2"/>
<path d="M125.893 93.5C139.147 93.5 149.893 82.7548 149.893 69.5C149.893 56.2452 139.147 45.5 125.893 45.5C112.638 45.5 101.893 56.2452 101.893 69.5C101.893 82.7548 112.638 93.5 125.893 93.5Z" fill="#F2F2F2"/>
<path d="M292.393 139C305.647 139 316.393 128.255 316.393 115C316.393 101.745 305.647 91 292.393 91C279.138 91 268.393 101.745 268.393 115C268.393 128.255 279.138 139 292.393 139Z" fill="#F2F2F2"/>
<path d="M433.393 48C446.647 48 457.393 37.2548 457.393 24C457.393 10.7452 446.647 0 433.393 0C420.138 0 409.393 10.7452 409.393 24C409.393 37.2548 420.138 48 433.393 48Z" fill="#F2F2F2"/>
<path d="M521.393 150C534.647 150 545.393 139.255 545.393 126C545.393 112.745 534.647 102 521.393 102C508.138 102 497.393 112.745 497.393 126C497.393 139.255 508.138 150 521.393 150Z" fill="#F2F2F2"/>
<path d="M402.393 268C415.647 268 426.393 257.255 426.393 244C426.393 230.745 415.647 220 402.393 220C389.138 220 378.393 230.745 378.393 244C378.393 257.255 389.138 268 402.393 268Z" fill="#F2F2F2"/>
<path d="M251.393 325C264.647 325 275.393 314.255 275.393 301C275.393 287.745 264.647 277 251.393 277C238.138 277 227.393 287.745 227.393 301C227.393 314.255 238.138 325 251.393 325Z" fill="#F2F2F2"/>
<path d="M411.393 414C424.647 414 435.393 403.255 435.393 390C435.393 376.745 424.647 366 411.393 366C398.138 366 387.393 376.745 387.393 390C387.393 403.255 398.138 414 411.393 414Z" fill="#F2F2F2"/>
<path d="M583.393 464C596.647 464 607.393 453.255 607.393 440C607.393 426.745 596.647 416 583.393 416C570.138 416 559.393 426.745 559.393 440C559.393 453.255 570.138 464 583.393 464Z" fill="#F2F2F2"/>
<path d="M784.393 453C797.647 453 808.393 442.255 808.393 429C808.393 415.745 797.647 405 784.393 405C771.138 405 760.393 415.745 760.393 429C760.393 442.255 771.138 453 784.393 453Z" fill="#F2F2F2"/>
<path d="M426.465 68.0035C354.574 68.5113 295.709 126.933 294.688 198.82C294.679 199.484 294.674 204.15 294.675 210.254C294.675 219.204 298.231 227.786 304.559 234.115C310.887 240.443 319.469 243.999 328.419 244H328.419C332.855 243.999 337.248 243.124 341.346 241.425C345.444 239.725 349.167 237.235 352.302 234.097C355.438 230.958 357.924 227.232 359.619 223.132C361.313 219.032 362.184 214.639 362.18 210.202C362.176 206.05 362.174 203.176 362.174 203C362.172 191.89 365.062 180.971 370.56 171.316C376.057 161.662 383.974 153.605 393.53 147.938C403.086 142.271 413.952 139.189 425.06 138.996C436.169 138.803 447.136 141.504 456.883 146.835C466.631 152.166 474.823 159.942 480.653 169.399C486.484 178.856 489.752 189.668 490.137 200.771C490.521 211.875 488.009 222.887 482.847 232.725C477.684 242.563 470.05 250.887 460.695 256.879L460.706 256.894C460.706 256.894 412.678 287.813 398.036 330.229L398.048 330.232C395.473 338.921 394.169 347.937 394.174 357C394.174 360.725 394.394 393.321 394.817 419.778C394.965 428.906 398.696 437.611 405.204 444.013C411.713 450.415 420.477 454.002 429.607 454H429.607C434.195 454 438.737 453.093 442.972 451.33C447.208 449.568 451.053 446.986 454.286 443.732C457.52 440.478 460.079 436.617 461.814 432.371C463.55 428.124 464.429 423.577 464.401 418.989C464.254 394.76 464.174 366.548 464.174 364.5C464.174 338.455 489.3 312.505 509.938 295.583C533.704 276.096 550.806 249.54 557.675 219.584C559.195 213.416 560.033 207.1 560.174 200.75C560.174 183.236 556.709 165.896 549.977 149.727C543.246 133.559 533.382 118.882 520.953 106.543C508.524 94.2039 493.777 84.446 477.56 77.8316C461.344 71.2171 443.979 67.8769 426.465 68.0035V68.0035Z" fill="#FF5F00"/>
<path d="M843.485 595.262H1.19066C0.875467 595.261 0.573504 595.135 0.350952 594.912C0.1284 594.688 0.00341797 594.386 0.00341797 594.071C0.00341797 593.756 0.1284 593.453 0.350952 593.23C0.573504 593.007 0.875467 592.881 1.19066 592.88H843.485C843.8 592.88 844.103 593.006 844.327 593.229C844.55 593.452 844.675 593.755 844.675 594.071C844.675 594.387 844.55 594.689 844.327 594.913C844.103 595.136 843.8 595.262 843.485 595.262V595.262Z" fill="#3F3D56"/>
<path d="M628.449 272.996C645.017 272.996 658.449 259.564 658.449 242.996C658.449 226.427 645.017 212.996 628.449 212.996C611.88 212.996 598.449 226.427 598.449 242.996C598.449 259.564 611.88 272.996 628.449 272.996Z" fill="#2F2E41"/>
<path d="M573.012 582.129H560.753L554.92 534.841H573.015L573.012 582.129Z" fill="#A0616A"/>
<path d="M551.996 578.625H575.64V593.512H537.109C537.109 591.557 537.494 589.622 538.242 587.815C538.99 586.009 540.087 584.368 541.469 582.986C542.851 581.603 544.493 580.507 546.299 579.759C548.105 579.011 550.041 578.625 551.996 578.625Z" fill="#2F2E41"/>
<path d="M668.012 582.129H655.753L649.92 534.841H668.015L668.012 582.129Z" fill="#A0616A"/>
<path d="M646.996 578.625H670.64V593.512H632.109C632.109 591.557 632.494 589.622 633.242 587.815C633.99 586.009 635.087 584.368 636.469 582.986C637.851 581.603 639.493 580.507 641.299 579.759C643.105 579.011 645.041 578.625 646.996 578.625V578.625Z" fill="#2F2E41"/>
<path d="M623.89 273.171C637.454 273.171 648.451 262.175 648.451 248.61C648.451 235.045 637.454 224.049 623.89 224.049C610.325 224.049 599.329 235.045 599.329 248.61C599.329 262.175 610.325 273.171 623.89 273.171Z" fill="#A0616A"/>
<path d="M638.529 352.406L649.519 327.156C652.188 321.233 652.953 314.627 651.708 308.25C650.463 301.874 647.27 296.041 642.569 291.556C641.604 290.601 640.578 289.71 639.499 288.886C634.076 284.644 627.394 282.332 620.509 282.316C615.88 282.334 611.31 283.35 607.109 285.296C606.749 285.456 606.399 285.626 606.039 285.796C605.349 286.126 604.669 286.486 604.009 286.856C599.704 289.328 596.04 292.777 593.313 296.925C590.586 301.073 588.872 305.804 588.309 310.736L583.459 351.376C582.239 354.566 538.719 469.766 553.939 557.716C554.101 558.655 554.559 559.518 555.246 560.178C555.934 560.839 556.814 561.262 557.759 561.386L573.189 563.486C574.316 563.64 575.459 563.362 576.389 562.707C577.318 562.052 577.965 561.069 578.199 559.956L604.089 436.546C604.251 435.779 604.664 435.089 605.264 434.585C605.864 434.081 606.616 433.792 607.399 433.766C608.182 433.739 608.951 433.976 609.584 434.439C610.217 434.901 610.676 435.562 610.889 436.316L647.469 566.096C647.73 567.039 648.292 567.87 649.071 568.463C649.849 569.055 650.801 569.376 651.779 569.376C652.071 569.374 652.362 569.347 652.649 569.296L671.499 565.666C672.595 565.461 673.575 564.854 674.246 563.964C674.918 563.075 675.233 561.966 675.129 560.856C672.359 529.966 657.639 375.236 638.529 352.406Z" fill="#2F2E41"/>
<path d="M528.439 269.05C528.269 270.51 528.421 271.99 528.884 273.385C529.347 274.78 530.111 276.057 531.121 277.125C532.131 278.193 533.363 279.027 534.73 279.567C536.097 280.108 537.566 280.342 539.034 280.253L552.763 313.246L563.148 297.851L548.518 268.881C548.206 266.426 547.004 264.171 545.14 262.542C543.276 260.914 540.879 260.026 538.404 260.047C535.929 260.068 533.548 260.996 531.711 262.655C529.875 264.314 528.71 266.59 528.439 269.05L528.439 269.05Z" fill="#A0616A"/>
<path d="M622.528 385.626C623.988 385.452 625.391 384.959 626.64 384.184C627.889 383.408 628.953 382.368 629.756 381.137C630.559 379.906 631.083 378.513 631.29 377.058C631.497 375.603 631.383 374.119 630.954 372.713L659.84 351.675L642.449 345.162L617.686 366.139C615.371 367.015 613.457 368.71 612.308 370.902C611.159 373.094 610.854 375.632 611.451 378.034C612.048 380.436 613.505 382.535 615.547 383.935C617.588 385.334 620.072 385.936 622.528 385.626V385.626Z" fill="#A0616A"/>
<path d="M575.44 335.241C574.332 335.24 573.228 335.131 572.141 334.916C569.514 334.416 567.05 333.277 564.966 331.6C562.883 329.923 561.244 327.759 560.194 325.3L540.959 301.846C540.553 301.351 540.257 300.773 540.091 300.154C539.926 299.534 539.895 298.887 540 298.254C540.105 297.622 540.344 297.019 540.701 296.486C541.059 295.953 541.525 295.503 542.071 295.166L555.755 286.695C556.26 286.382 556.822 286.173 557.409 286.078C557.996 285.984 558.595 286.006 559.173 286.145C559.751 286.284 560.296 286.535 560.776 286.885C561.256 287.236 561.662 287.677 561.97 288.185L575.527 310.519L601.488 291.333C603.555 290.249 605.943 289.945 608.216 290.476C610.488 291.008 612.494 292.339 613.866 294.227C615.238 296.115 615.886 298.434 615.689 300.76C615.493 303.085 614.467 305.263 612.798 306.894L586.886 330.531C583.841 333.549 579.727 335.242 575.44 335.241Z" fill="#2F2E41"/>
<path d="M645.59 370.514C645.554 370.514 645.519 370.514 645.484 370.513C644.853 370.497 644.232 370.349 643.662 370.079C643.091 369.808 642.584 369.421 642.173 368.942L630.007 354.749C629.592 354.265 629.285 353.7 629.106 353.089C628.926 352.478 628.879 351.836 628.966 351.205C629.053 350.575 629.272 349.97 629.611 349.43C629.949 348.891 630.398 348.429 630.927 348.076L653.709 332.888L633.07 308.076C631.87 306.075 631.429 303.708 631.83 301.408C632.23 299.109 633.444 297.03 635.25 295.552C637.056 294.074 639.334 293.295 641.667 293.358C644 293.421 646.233 294.321 647.958 295.893L673.041 320.406C675.015 322.21 676.522 324.465 677.433 326.979C678.343 329.493 678.63 332.191 678.269 334.84C677.907 337.49 676.908 340.012 675.358 342.19C673.807 344.368 671.751 346.138 669.366 347.346L648.865 369.1C648.444 369.546 647.936 369.902 647.373 370.145C646.81 370.388 646.203 370.513 645.59 370.514Z" fill="#2F2E41"/>
<path d="M617.645 318.214C617.45 318.214 617.255 318.202 617.061 318.177C616.214 318.074 615.414 317.73 614.756 317.186C614.098 316.643 613.61 315.921 613.35 315.108L604.208 287.079C603.979 286.371 604.014 285.603 604.307 284.918C604.6 284.234 605.131 283.678 605.802 283.355L606.099 283.214C606.368 283.086 606.634 282.96 606.906 282.839C611.169 280.862 615.81 279.831 620.509 279.816C626.61 279.827 632.574 281.619 637.67 284.973C638.354 285.427 638.831 286.132 639 286.935C639.168 287.739 639.015 288.576 638.572 289.267L621.422 316.135C621.02 316.773 620.462 317.298 619.802 317.662C619.141 318.026 618.399 318.216 617.645 318.214V318.214Z" fill="#E6E6E6"/>
<path d="M652.101 229.603C657.522 229.603 661.918 225.208 661.918 219.786C661.918 214.365 657.522 209.969 652.101 209.969C646.679 209.969 642.284 214.365 642.284 219.786C642.284 225.208 646.679 229.603 652.101 229.603Z" fill="#2F2E41"/>
<path d="M618.449 208.996C611.553 208.996 604.94 211.735 600.064 216.611C595.188 221.487 592.449 228.1 592.449 234.996V245.996H605.978L612.449 234.996L614.39 245.996H655.449L644.449 234.996C644.449 228.1 641.709 221.487 636.833 216.611C631.958 211.735 625.344 208.996 618.449 208.996V208.996Z" fill="#2F2E41"/>
<path d="M657.146 213.062C658.232 209.667 660.48 206.764 663.494 204.863C666.508 202.962 670.096 202.184 673.627 202.666C679.883 203.712 684.83 208.741 687.777 214.357C690.724 219.974 692.085 226.26 694.066 232.285C696.047 238.311 698.857 244.369 703.859 248.269C708.861 252.17 716.536 253.228 721.449 249.215C720.888 253.397 719.026 257.296 716.127 260.362C713.228 263.427 709.439 265.504 705.296 266.298C701.152 267.092 696.863 266.563 693.037 264.786C689.21 263.009 686.039 260.075 683.972 256.397C681.38 251.785 680.711 246.38 679.942 241.146C679.173 235.911 678.174 230.496 675.08 226.205C671.985 221.915 666.192 219.112 661.276 221.067L657.146 213.062Z" fill="#2F2E41"/>
<path d="M337.946 228.038C328.997 228.037 320.414 224.482 314.086 218.153C307.758 211.825 304.203 203.242 304.202 194.292C304.202 188.189 304.206 183.522 304.215 182.858C304.5 161.952 309.765 141.414 319.574 122.949C303.458 145.012 294.596 171.539 294.215 198.858C294.206 199.522 294.202 204.189 294.202 210.292C294.203 219.242 297.758 227.825 304.086 234.153C310.414 240.482 318.997 244.037 327.946 244.038V244.038C335.3 244.036 342.452 241.633 348.316 237.194C354.18 232.756 358.435 226.525 360.434 219.448C354.255 224.989 346.246 228.048 337.946 228.038V228.038Z" fill="#3F3D56"/>
<path d="M428.752 139.109C439.099 139.603 449.17 142.601 458.103 147.845C467.035 153.089 474.561 160.423 480.035 169.216C485.509 178.01 488.767 188 489.529 198.33C490.292 208.66 488.535 219.021 484.412 228.522C490.377 221.517 494.761 213.308 497.265 204.454C499.77 195.601 500.336 186.312 498.925 177.22C497.515 168.128 494.16 159.447 489.09 151.769C484.02 144.091 477.354 137.596 469.547 132.728C461.74 127.86 452.974 124.732 443.849 123.558C434.723 122.385 425.451 123.193 416.666 125.927C407.881 128.661 399.789 133.258 392.941 139.403C386.094 145.548 380.651 153.098 376.986 161.537C383.321 154.084 391.283 148.186 400.259 144.298C409.234 140.409 418.983 138.634 428.752 139.109V139.109Z" fill="#3F3D56"/>
<path d="M439.135 438.038C430.005 438.04 421.241 434.453 414.732 428.051C408.224 421.649 404.493 412.944 404.345 403.816C403.921 377.36 403.702 344.764 403.702 341.038C403.696 331.976 405.001 322.96 407.576 314.27L407.563 314.267C409.084 309.906 410.92 305.661 413.058 301.566C406.496 310.311 401.274 319.984 397.563 330.267L397.576 330.27C395.001 338.96 393.696 347.976 393.702 357.038C393.702 360.764 393.921 393.36 394.345 419.816C394.493 428.944 398.224 437.649 404.732 444.051C411.241 450.453 420.005 454.04 429.135 454.038V454.038C436.662 454.037 443.987 451.595 450.009 447.079C456.031 442.563 460.427 436.216 462.537 428.99C456.14 434.823 447.792 438.05 439.135 438.038V438.038Z" fill="#3F3D56"/>
<path d="M126.541 582.585L138.8 582.584L144.633 535.296L126.538 535.297L126.541 582.585Z" fill="#FFB8B8"/>
<path d="M162.445 593.968L123.914 593.969L123.913 579.082L147.557 579.081C151.506 579.081 155.292 580.649 158.084 583.441C160.876 586.233 162.445 590.019 162.445 593.967V593.967L162.445 593.968Z" fill="#2F2E41"/>
<path d="M82.5411 582.585L94.8001 582.584L100.633 535.296L82.5381 535.297L82.5411 582.585Z" fill="#FFB8B8"/>
<path d="M118.445 593.968L79.9141 593.969L79.9134 579.082L103.557 579.081C107.506 579.081 111.292 580.649 114.084 583.441C116.876 586.233 118.445 590.019 118.445 593.967V593.967L118.445 593.968Z" fill="#2F2E41"/>
<path d="M93.2542 568.041L81.2792 567.411C80.6617 567.379 80.0568 567.224 79.4995 566.956C78.9423 566.688 78.4437 566.313 78.0327 565.851C77.6218 565.389 77.3066 564.85 77.1054 564.265C76.9042 563.68 76.821 563.062 76.8607 562.444L91.1734 403.979L157.084 421.764L163.435 420.032L143.576 560.317C143.407 561.372 142.883 562.338 142.091 563.055C141.298 563.772 140.285 564.198 139.218 564.261L126.309 564.863C125.664 564.898 125.018 564.8 124.412 564.573C123.807 564.347 123.255 563.997 122.792 563.547C122.328 563.096 121.963 562.554 121.72 561.955C121.476 561.356 121.36 560.713 121.378 560.067L123.717 475.871C123.728 475.481 123.592 475.102 123.338 474.807C123.083 474.513 122.727 474.324 122.34 474.279C121.953 474.234 121.563 474.335 121.248 474.563C120.932 474.791 120.713 475.129 120.634 475.51L98.0766 564.323C97.8637 565.377 97.2919 566.324 96.4587 567.003C95.6255 567.683 94.5825 568.052 93.5075 568.048C93.4236 568.048 93.3392 568.046 93.2542 568.041Z" fill="#2F2E41"/>
<path d="M128.742 274.32C142.307 274.32 153.303 263.323 153.303 249.759C153.303 236.194 142.307 225.198 128.742 225.198C115.177 225.198 104.181 236.194 104.181 249.759C104.181 263.323 115.177 274.32 128.742 274.32Z" fill="#FFB8B8"/>
<path d="M87.8497 321.918L90.5503 380.185L91.5265 401.384C91.5654 402.307 91.8787 403.197 92.4264 403.941C92.974 404.684 93.7311 405.248 94.6008 405.559L157.937 428.503C158.448 428.693 158.991 428.788 159.536 428.783C160.16 428.786 160.778 428.663 161.354 428.422C161.929 428.181 162.45 427.826 162.885 427.379C163.32 426.933 163.661 426.402 163.887 425.821C164.113 425.239 164.219 424.618 164.2 423.995L161.603 319.228C161.433 310.632 158.269 302.365 152.657 295.853C147.044 289.34 139.336 284.989 130.86 283.551C130.247 283.457 129.624 283.364 129.001 283.28C123.745 282.628 118.41 283.135 113.371 284.766C108.332 286.398 103.712 289.113 99.8356 292.722C95.8216 296.414 92.6675 300.942 90.5964 305.987C88.5253 311.032 87.5876 316.47 87.8497 321.918L87.8497 321.918Z" fill="#CCCCCC"/>
<path d="M188.192 416.876C186.694 416.411 185.325 415.602 184.195 414.515C183.065 413.427 182.205 412.09 181.684 410.611C181.162 409.132 180.994 407.551 181.191 405.995C181.389 404.439 181.948 402.951 182.823 401.649L161.345 373.089L179.879 371.942L197.434 399.239C199.313 400.692 200.621 402.76 201.128 405.081C201.634 407.402 201.308 409.827 200.205 411.931C199.103 414.035 197.295 415.684 195.098 416.588C192.901 417.492 190.456 417.594 188.192 416.876H188.192Z" fill="#FFB8B8"/>
<path d="M173.091 396.481C172.522 396.25 172.004 395.908 171.568 395.476C171.132 395.044 170.786 394.529 170.55 393.962L138.192 316.868C137.557 315.359 137.226 313.739 137.217 312.101C137.208 310.464 137.522 308.841 138.141 307.325C138.76 305.809 139.672 304.429 140.824 303.266C141.977 302.102 143.347 301.177 144.857 300.543C146.367 299.91 147.987 299.58 149.624 299.572C151.262 299.565 152.885 299.88 154.4 300.501C155.916 301.121 157.294 302.033 158.457 303.187C159.62 304.34 160.544 305.711 161.176 307.221L193.534 384.316C194.013 385.46 194.018 386.746 193.549 387.893C193.08 389.04 192.176 389.954 191.034 390.435L176.668 396.464C176.103 396.703 175.496 396.828 174.881 396.831C174.267 396.834 173.659 396.715 173.091 396.481L173.091 396.481Z" fill="#CCCCCC"/>
<path d="M120.846 393.762L151.925 334.253C152.524 333.108 153.553 332.248 154.786 331.862C156.018 331.475 157.354 331.593 158.5 332.189L203.611 355.749C204.756 356.349 205.616 357.378 206.003 358.61C206.389 359.843 206.272 361.179 205.675 362.324L174.595 421.833C173.996 422.978 172.967 423.838 171.735 424.225C170.502 424.611 169.166 424.493 168.021 423.897L122.909 400.337C121.765 399.737 120.905 398.708 120.518 397.476C120.131 396.243 120.249 394.907 120.846 393.762Z" fill="#3F3D56"/>
<path d="M141.688 366.573C141.136 365.106 140.248 363.787 139.095 362.723C137.943 361.659 136.557 360.88 135.05 360.447C133.543 360.013 131.955 359.938 130.413 360.228C128.872 360.517 127.419 361.163 126.171 362.113L96.3929 342.359L96.3423 360.929L124.628 376.841C126.19 378.631 128.331 379.814 130.678 380.183C133.025 380.552 135.426 380.083 137.462 378.858C139.497 377.633 141.036 375.731 141.809 373.484C142.582 371.238 142.539 368.791 141.688 366.573V366.573Z" fill="#FFB8B8"/>
<path d="M104.038 370.75L79.7014 351.472C77.0687 350.588 74.6898 349.078 72.7689 347.072C70.848 345.067 69.4426 342.625 68.6732 339.956C67.9038 337.288 67.7935 334.472 68.3517 331.752C68.9099 329.031 70.12 326.487 71.878 324.337L93.9752 295.377C95.5107 293.501 97.6703 292.24 100.059 291.824C102.448 291.409 104.906 291.867 106.985 293.115C109.064 294.363 110.624 296.318 111.381 298.622C112.137 300.925 112.039 303.424 111.105 305.662L93.6209 334.262L119.315 346.448C119.912 346.732 120.443 347.139 120.872 347.642C121.3 348.146 121.617 348.735 121.801 349.37C121.985 350.005 122.032 350.672 121.94 351.327C121.847 351.981 121.616 352.609 121.263 353.168L110.891 369.582C110.541 370.136 110.078 370.61 109.532 370.974C108.987 371.338 108.371 371.583 107.725 371.693C107.699 371.698 107.673 371.702 107.647 371.705C107.012 371.801 106.364 371.766 105.744 371.602C105.123 371.437 104.542 371.147 104.038 370.75V370.75Z" fill="#CCCCCC"/>
<path d="M110.183 266.205C110.078 265.897 110.044 265.569 110.085 265.245C110.126 264.922 110.241 264.613 110.42 264.341C110.599 264.068 110.838 263.841 111.119 263.676C111.4 263.51 111.715 263.411 112.039 263.386C112.705 263.422 113.356 263.593 113.953 263.888C114.551 264.182 115.082 264.595 115.516 265.101C116.404 266.126 117.439 267.014 118.587 267.738C119.775 268.337 121.386 268.252 122.064 267.11C122.7 266.038 122.264 264.602 121.879 263.356C120.899 260.188 120.351 256.902 120.249 253.586C120.138 249.886 120.66 246.024 122.709 243.138C125.352 239.414 130.08 238 134.554 238.102C139.028 238.205 143.429 239.586 147.861 240.459C149.391 240.76 151.189 240.914 152.213 239.729C153.301 238.468 152.901 236.427 152.438 234.725C151.237 230.307 149.963 225.74 147.173 222.173C144.156 218.465 139.846 216.039 135.112 215.382C130.567 214.819 125.953 215.343 121.65 216.911C114.639 219.121 108.469 223.418 103.967 229.229C99.3257 235.409 97.3202 243.175 98.3889 250.83C99.433 257.496 102.966 263.519 108.275 267.684L110.183 266.205Z" fill="#2F2E41"/>
<path d="M421.258 582.78C414.724 579.934 408.94 575.608 404.364 570.144C399.787 564.68 396.543 558.227 394.888 551.294C393.232 544.362 393.211 537.139 394.825 530.197C396.439 523.255 399.644 516.783 404.188 511.291C398.92 515.138 394.53 520.061 391.31 525.733C388.09 531.406 386.113 537.699 385.511 544.194C384.909 550.689 385.695 557.237 387.817 563.405C389.939 569.573 393.349 575.219 397.82 579.969C402.291 584.718 407.721 588.463 413.75 590.953C419.779 593.443 426.268 594.623 432.788 594.414C439.307 594.204 445.708 592.611 451.564 589.739C457.421 586.867 462.6 582.782 466.757 577.755C460.273 582.494 452.66 585.452 444.677 586.334C436.695 587.215 428.62 585.99 421.258 582.78V582.78Z" fill="#3F3D56"/>
</g>
<defs>
<clipPath id="clip0_24_689">
<rect width="844.675" height="595.262" fill="white"/>
</clipPath>
</defs>
</svg>
