<svg width="770" height="772" viewBox="0 0 770 772" fill="none" xmlns="http://www.w3.org/2000/svg">
<g clip-path="url(#clip0_24_607)">
<path d="M769.001 0H310.286C306.762 21.4871 304.994 43.2257 305.001 65C305.001 284.809 483.192 463 703.001 463C725.114 463.008 747.19 461.185 769.001 457.55V0Z" fill="#2F2E41"/>
<path d="M574.849 248.809C567.964 248.815 561.135 247.582 554.687 245.17C554.318 245.032 553.98 244.822 553.692 244.553C553.404 244.284 553.172 243.961 553.009 243.603C552.846 243.244 552.755 242.857 552.741 242.463C552.728 242.07 552.792 241.677 552.93 241.308C553.069 240.939 553.278 240.601 553.547 240.313C553.816 240.025 554.139 239.793 554.498 239.63C554.856 239.467 555.243 239.376 555.637 239.363C556.031 239.349 556.423 239.414 556.792 239.552C565.341 242.711 574.566 243.586 583.556 242.09C592.547 240.594 600.991 236.779 608.056 231.021C586.018 231.255 564.461 220.84 553.737 204.129C546.842 193.385 544.588 180.744 547.216 167.57C549.228 158.017 553.36 149.037 559.305 141.294C547.953 144.905 538.184 152.302 531.628 162.248C525.072 172.194 522.126 184.087 523.282 195.943C523.322 196.336 523.284 196.733 523.171 197.111C523.057 197.489 522.87 197.841 522.621 198.147C522.371 198.453 522.063 198.706 521.715 198.893C521.367 199.08 520.986 199.196 520.593 199.235C520.2 199.274 519.804 199.235 519.426 199.12C519.048 199.005 518.696 198.817 518.392 198.566C518.087 198.316 517.834 198.007 517.649 197.659C517.463 197.31 517.348 196.928 517.311 196.535C515.854 181.619 520.223 166.716 529.503 154.948C538.784 143.18 552.257 135.457 567.103 133.398C567.724 133.311 568.356 133.421 568.911 133.713C569.465 134.004 569.915 134.462 570.197 135.022C570.478 135.582 570.577 136.216 570.48 136.835C570.382 137.454 570.093 138.027 569.654 138.473C554.31 154.059 544.998 179.402 558.785 200.888C569.663 217.837 593.069 227.532 615.714 224.468C616.322 224.386 616.94 224.491 617.485 224.771C618.031 225.051 618.477 225.491 618.765 226.032C619.053 226.574 619.168 227.19 619.095 227.799C619.022 228.407 618.764 228.979 618.356 229.437C612.872 235.542 606.164 240.422 598.667 243.76C591.171 247.098 583.055 248.818 574.849 248.809V248.809Z" fill="#FF5F00"/>
<path d="M527.001 250C522.65 250 518.397 248.71 514.779 246.292C511.161 243.875 508.341 240.439 506.676 236.419C505.011 232.399 504.575 227.976 505.424 223.708C506.273 219.44 508.368 215.52 511.445 212.444C514.522 209.367 518.442 207.272 522.709 206.423C526.977 205.574 531.401 206.01 535.421 207.675C539.441 209.34 542.876 212.16 545.294 215.777C547.711 219.395 549.001 223.649 549.001 228C548.995 233.833 546.675 239.425 542.551 243.549C538.426 247.673 532.834 249.993 527.001 250V250ZM527.001 212C523.837 212 520.744 212.938 518.112 214.697C515.481 216.455 513.43 218.953 512.219 221.877C511.008 224.801 510.692 228.018 511.309 231.121C511.926 234.225 513.45 237.076 515.688 239.314C517.925 241.551 520.776 243.075 523.88 243.693C526.984 244.31 530.201 243.993 533.124 242.782C536.048 241.571 538.547 239.52 540.305 236.889C542.063 234.258 543.001 231.165 543.001 228C542.997 223.758 541.309 219.691 538.31 216.692C535.31 213.692 531.243 212.005 527.001 212V212Z" fill="#FF5F00"/>
<path d="M8.69073 567.078C7.24545 566.852 5.86504 566.321 4.64181 565.518C3.41859 564.716 2.38076 563.662 1.5977 562.427C0.814645 561.191 0.304416 559.802 0.10115 558.354C-0.102116 556.905 0.00626749 555.43 0.419036 554.026L8.20737 527.546L20.042 529.765L20.5508 556.732C20.5791 558.232 20.2788 559.719 19.6709 561.091C19.063 562.462 18.1623 563.683 17.032 564.669C15.9017 565.655 14.5693 566.382 13.1283 566.798C11.6873 567.214 10.1727 567.31 8.69073 567.078V567.078Z" fill="#9F616A"/>
<path d="M76.996 736.132L62.203 733.913L65.901 589.678L45.191 651.81L34.096 739.091L20.042 735.393L17.083 644.414L33.356 537.162L114.719 555.654L76.996 736.132Z" fill="#2F2E41"/>
<path d="M70.2044 771.636C67.3207 771.636 64.5552 770.491 62.5161 768.452C60.4771 766.413 59.3315 763.647 59.3315 760.763C59.3315 760.408 59.349 760.053 59.3838 759.699L61.6809 736.345C61.7363 735.787 61.9279 735.25 62.2389 734.783C62.5499 734.316 62.9707 733.933 63.4645 733.667C67.8252 731.315 72.3095 731.885 76.8992 734.955C77.3064 735.229 77.6495 735.588 77.905 736.007C78.1605 736.426 78.3225 736.896 78.3797 737.384L81.0015 759.482C81.1825 761.008 81.0383 762.554 80.5783 764.019C80.1183 765.485 79.3531 766.836 78.333 767.985C77.3129 769.133 76.0611 770.052 74.66 770.681C73.2589 771.311 71.7404 771.636 70.2044 771.636H70.2044Z" fill="#2F2E41"/>
<path d="M9.82071 769.898C8.42662 769.387 7.16701 768.565 6.13713 767.496C5.10725 766.426 4.33406 765.136 3.87603 763.724C3.41801 762.311 3.28714 760.813 3.49331 759.343C3.69949 757.872 4.23732 756.468 5.06613 755.236L20.8462 731.779C26.5347 727.697 29.9656 729.685 31.2994 737.313L34.4897 729.32L36.8935 731.942C38.1132 733.273 38.8229 734.992 38.897 736.795C38.971 738.599 38.4047 740.37 37.2983 741.796L20.9303 766.706C19.6565 768.348 17.8937 769.542 15.8965 770.116C13.8994 770.689 11.7716 770.613 9.82071 769.898V769.898Z" fill="#2F2E41"/>
<path d="M109.542 398.105C121.797 398.105 131.732 388.17 131.732 375.915C131.732 363.659 121.797 353.725 109.542 353.725C97.2864 353.725 87.3516 363.659 87.3516 375.915C87.3516 388.17 97.2864 398.105 109.542 398.105Z" fill="#9F616A"/>
<path d="M123.596 416.596L85.8726 409.199C90.7315 398.836 94.6227 395.329 90.3105 384.051H120.637C117.962 395.733 120.547 406.698 123.596 416.596Z" fill="#9F616A"/>
<path d="M119.157 566.009L30.3975 540.86C48.1762 501.73 51.9001 458.769 46.6288 413.356C46.5035 412.284 46.5905 411.198 46.8849 410.16C47.1792 409.122 47.6752 408.152 48.3444 407.306C49.0137 406.459 49.8431 405.753 50.7853 405.227C51.7276 404.701 52.7642 404.366 53.836 404.24C53.9358 404.229 54.0357 404.219 54.1359 404.211C65.7138 403.257 77.7845 402.033 90.3105 400.323L104.364 409.939L120.637 406.241C125.858 408.772 131.118 410.876 135.864 412.975C140.192 414.893 143.649 418.354 145.563 422.683C147.476 427.012 147.709 431.898 146.215 436.389C131.752 480.066 122.071 523.329 119.157 566.009Z" fill="#E6E6E6"/>
<path d="M22.2609 532.724L5.24854 530.505L45.5507 414.38C47.6007 408.473 52.6847 405.276 58.8744 404.392L64.7917 405.132L60.3537 473.921L22.2609 532.724Z" fill="#E6E6E6"/>
<path d="M155.525 510.524C152.692 510.742 149.863 510.06 147.441 508.574C145.019 507.089 143.128 504.877 142.038 502.253L125.814 463.195L139.128 415.117L142.648 417.357C142.987 417.572 143.322 417.794 143.652 418.02C148.593 421.481 152.442 426.283 154.746 431.858C157.049 437.434 157.712 443.552 156.654 449.491L153.182 469.852L167.505 500.605C166.777 503.294 165.235 505.69 163.089 507.466C160.944 509.243 158.302 510.311 155.525 510.524V510.524Z" fill="#E6E6E6"/>
<path d="M111.248 343.027C115.04 343.201 118.733 344.288 122.014 346.196C122.769 346.636 122.42 348.219 123.117 348.736C123.995 349.386 125.902 348.991 126.68 349.753C129.19 352.203 131.123 355.182 132.338 358.474C133.552 361.765 134.019 365.285 133.702 368.779L132.464 381.09L129.543 377.896C124.306 372.089 117.035 368.519 109.238 367.927C108.906 367.904 108.575 367.887 108.242 367.874L110.489 363.941L106.584 367.847C104.802 367.866 103.024 368.011 101.263 368.28L104.251 363.05L98.5172 368.784L98.5168 368.785C96.1717 369.3 93.9806 370.36 92.1199 371.877C90.2592 373.395 88.781 375.328 87.8043 377.522L87.1676 378.933L86.4543 367.188C86.3179 360.911 88.6806 354.837 93.0227 350.302C97.3649 345.767 103.331 343.142 109.608 343.006C110.155 342.994 110.702 343.001 111.248 343.027Z" fill="#2F2E41"/>
<path d="M131.877 384.438C132.861 384.438 133.659 382.542 133.659 380.205C133.659 377.867 132.861 375.972 131.877 375.972C130.892 375.972 130.094 377.867 130.094 380.205C130.094 382.542 130.892 384.438 131.877 384.438Z" fill="#9F616A"/>
<path d="M87.3194 383.101C88.3037 383.101 89.1017 381.206 89.1017 378.868C89.1017 376.53 88.3037 374.635 87.3194 374.635C86.3351 374.635 85.5371 376.53 85.5371 378.868C85.5371 381.206 86.3351 383.101 87.3194 383.101Z" fill="#9F616A"/>
<path d="M174.034 435.419C175.455 435.767 176.785 436.414 177.936 437.317C179.086 438.22 180.031 439.358 180.706 440.656C181.382 441.954 181.772 443.38 181.852 444.841C181.931 446.302 181.698 447.763 181.168 449.126L171.16 474.85L159.556 471.634L161.338 444.721C161.437 443.225 161.863 441.768 162.585 440.453C163.307 439.138 164.308 437.998 165.518 437.111C166.728 436.225 168.117 435.614 169.588 435.322C171.059 435.029 172.577 435.062 174.034 435.419H174.034Z" fill="#9F616A"/>
<path d="M160.579 509.055L142.087 497.22L157.62 465.414L176.851 472.811L167.236 500.918L160.579 509.055Z" fill="#E6E6E6"/>
<path d="M173.001 409.101V284H171.001V409.101C169.787 409.349 168.709 410.039 167.974 411.037C167.24 412.035 166.902 413.27 167.027 414.503C167.151 415.735 167.729 416.878 168.648 417.709C169.567 418.54 170.762 419 172.001 419C173.241 419 174.435 418.54 175.355 417.709C176.274 416.878 176.852 415.735 176.976 414.503C177.101 413.27 176.763 412.035 176.029 411.037C175.294 410.039 174.216 409.349 173.001 409.101V409.101ZM172.001 417C171.408 417 170.828 416.824 170.335 416.494C169.841 416.165 169.457 415.696 169.23 415.148C169.003 414.6 168.943 413.997 169.059 413.415C169.175 412.833 169.461 412.298 169.88 411.879C170.3 411.459 170.834 411.173 171.416 411.058C171.998 410.942 172.601 411.001 173.15 411.228C173.698 411.455 174.166 411.84 174.496 412.333C174.826 412.827 175.001 413.407 175.001 414C175.001 414.795 174.684 415.558 174.122 416.12C173.559 416.683 172.797 416.999 172.001 417V417Z" fill="#3F3D56"/>
<path d="M170.434 164.569C169.29 164.569 168.193 164.115 167.384 163.306C166.575 162.497 166.121 161.399 166.121 160.255V147.314C166.122 146.171 166.578 145.075 167.386 144.268C168.195 143.46 169.291 143.007 170.434 143.007C171.577 143.007 172.674 143.46 173.482 144.268C174.291 145.075 174.747 146.171 174.748 147.314V160.255C174.748 160.822 174.637 161.383 174.42 161.906C174.203 162.43 173.885 162.905 173.485 163.306C173.084 163.706 172.609 164.024 172.085 164.241C171.562 164.458 171.001 164.569 170.434 164.569V164.569Z" fill="#FF5F00"/>
<path d="M170.434 263.787C169.868 263.787 169.307 263.676 168.784 263.459C168.26 263.242 167.785 262.925 167.384 262.524C166.983 262.123 166.666 261.648 166.449 261.124C166.232 260.601 166.121 260.04 166.121 259.474V246.532C166.12 245.965 166.231 245.403 166.447 244.879C166.663 244.355 166.981 243.879 167.382 243.477C167.782 243.076 168.258 242.758 168.782 242.541C169.306 242.323 169.867 242.212 170.434 242.212C171.001 242.212 171.563 242.323 172.087 242.541C172.611 242.758 173.086 243.076 173.487 243.477C173.888 243.879 174.205 244.355 174.422 244.879C174.638 245.403 174.749 245.965 174.748 246.532V259.474C174.748 260.04 174.637 260.601 174.42 261.124C174.203 261.648 173.885 262.123 173.485 262.524C173.084 262.925 172.609 263.242 172.085 263.459C171.562 263.676 171.001 263.787 170.434 263.787V263.787Z" fill="#FF5F00"/>
<path d="M200.939 177.203C200.086 177.203 199.252 176.95 198.542 176.476C197.833 176.002 197.28 175.329 196.953 174.54C196.627 173.752 196.541 172.885 196.708 172.048C196.874 171.211 197.285 170.442 197.888 169.839L207.039 160.688C207.848 159.88 208.945 159.426 210.089 159.427C211.233 159.427 212.33 159.882 213.138 160.69C213.947 161.499 214.401 162.596 214.402 163.739C214.402 164.883 213.948 165.98 213.14 166.789L203.989 175.94C203.589 176.341 203.113 176.659 202.59 176.876C202.066 177.093 201.505 177.204 200.939 177.203V177.203Z" fill="#FF5F00"/>
<path d="M130.78 247.362C129.926 247.362 129.092 247.109 128.383 246.635C127.674 246.161 127.121 245.488 126.794 244.699C126.468 243.911 126.382 243.044 126.549 242.207C126.715 241.37 127.126 240.602 127.729 239.998L136.88 230.848C137.689 230.039 138.786 229.584 139.93 229.584C141.074 229.584 142.172 230.038 142.981 230.847C143.79 231.656 144.244 232.754 144.244 233.898C144.244 235.042 143.79 236.139 142.981 236.948L133.83 246.099C133.43 246.5 132.954 246.818 132.431 247.035C131.907 247.252 131.346 247.363 130.78 247.362V247.362Z" fill="#FF5F00"/>
<path d="M226.514 207.708H213.573C212.43 207.706 211.334 207.25 210.527 206.442C209.719 205.633 209.266 204.537 209.266 203.394C209.266 202.251 209.719 201.154 210.527 200.346C211.334 199.537 212.43 199.082 213.573 199.08H226.514C227.081 199.079 227.643 199.19 228.167 199.406C228.691 199.623 229.168 199.94 229.569 200.341C229.97 200.742 230.289 201.218 230.506 201.741C230.723 202.265 230.835 202.827 230.835 203.394C230.835 203.961 230.723 204.522 230.506 205.046C230.289 205.57 229.97 206.046 229.569 206.446C229.168 206.847 228.691 207.165 228.167 207.381C227.643 207.597 227.081 207.708 226.514 207.708V207.708Z" fill="#FF5F00"/>
<path d="M127.296 207.708H114.355C113.788 207.708 113.226 207.597 112.702 207.381C112.178 207.165 111.701 206.847 111.3 206.446C110.899 206.046 110.58 205.57 110.363 205.046C110.146 204.522 110.034 203.961 110.034 203.394C110.034 202.827 110.146 202.265 110.363 201.741C110.58 201.218 110.899 200.742 111.3 200.341C111.701 199.94 112.178 199.623 112.702 199.406C113.226 199.19 113.788 199.079 114.355 199.08H127.296C128.439 199.082 129.535 199.537 130.342 200.346C131.15 201.154 131.603 202.251 131.603 203.394C131.603 204.537 131.15 205.633 130.342 206.442C129.535 207.25 128.439 207.706 127.296 207.708H127.296Z" fill="#FF5F00"/>
<path d="M210.09 247.363C209.523 247.363 208.962 247.252 208.438 247.035C207.915 246.818 207.439 246.5 207.039 246.099L197.888 236.948C197.487 236.548 197.169 236.072 196.951 235.549C196.734 235.025 196.622 234.464 196.622 233.897C196.621 233.33 196.733 232.769 196.949 232.245C197.166 231.721 197.484 231.245 197.885 230.844C198.286 230.443 198.762 230.126 199.286 229.909C199.809 229.692 200.371 229.58 200.938 229.581C201.505 229.581 202.066 229.693 202.589 229.911C203.113 230.128 203.589 230.446 203.989 230.848L213.14 239.999C213.743 240.602 214.154 241.37 214.32 242.207C214.487 243.044 214.401 243.911 214.075 244.7C213.748 245.488 213.196 246.162 212.486 246.636C211.777 247.11 210.943 247.363 210.09 247.363V247.363Z" fill="#FF5F00"/>
<path d="M139.93 177.203C139.364 177.204 138.803 177.093 138.279 176.876C137.756 176.659 137.28 176.341 136.88 175.94L127.729 166.789C127.329 166.389 127.011 165.913 126.794 165.39C126.577 164.866 126.466 164.305 126.466 163.739C126.466 163.172 126.577 162.611 126.794 162.088C127.011 161.564 127.329 161.089 127.729 160.688C128.13 160.288 128.605 159.97 129.129 159.753C129.652 159.536 130.213 159.425 130.78 159.425C131.346 159.425 131.907 159.536 132.431 159.753C132.954 159.97 133.43 160.288 133.83 160.688L142.981 169.839C143.584 170.442 143.995 171.211 144.161 172.048C144.328 172.885 144.242 173.752 143.916 174.54C143.589 175.328 143.036 176.002 142.327 176.476C141.618 176.95 140.784 177.203 139.93 177.203V177.203Z" fill="#FF5F00"/>
<path d="M170.435 229.277C165.316 229.277 160.311 227.759 156.055 224.915C151.798 222.071 148.481 218.028 146.522 213.299C144.563 208.569 144.05 203.365 145.049 198.344C146.048 193.323 148.513 188.712 152.133 185.092C155.753 181.472 160.364 179.007 165.385 178.008C170.406 177.009 175.61 177.522 180.34 179.481C185.069 181.44 189.112 184.757 191.956 189.014C194.8 193.27 196.318 198.275 196.318 203.394C196.31 210.256 193.581 216.835 188.728 221.687C183.876 226.54 177.297 229.269 170.435 229.277V229.277ZM170.435 186.138C167.022 186.138 163.686 187.15 160.848 189.046C158.011 190.942 155.799 193.637 154.493 196.79C153.187 199.943 152.845 203.413 153.511 206.76C154.177 210.107 155.82 213.182 158.233 215.595C160.647 218.008 163.721 219.652 167.068 220.318C170.416 220.983 173.885 220.642 177.038 219.336C180.191 218.03 182.886 215.818 184.782 212.98C186.678 210.143 187.69 206.807 187.69 203.394C187.685 198.819 185.865 194.433 182.63 191.198C179.396 187.963 175.01 186.144 170.435 186.138V186.138Z" fill="#FF5F00"/>
</g>
<defs>
<clipPath id="clip0_24_607">
<rect width="769.001" height="771.636" fill="white"/>
</clipPath>
</defs>
</svg>
