<?xml version="1.0" standalone="no"?>
<!DOCTYPE svg PUBLIC "-//W3C//DTD SVG 1.1//EN" "http://www.w3.org/Graphics/SVG/1.1/DTD/svg11.dtd" >
<svg xmlns="http://www.w3.org/2000/svg" xmlns:xlink="http://www.w3.org/1999/xlink" version="1.1">
<metadata>
Created by FontForge 20200427 at Sat Jun 25 22:00:51 2016
 By www
Copyright (c) 2015 by Mattox Shuler. All rights reserved.
</metadata>
<defs>
<font id="TerminaW05-Black" horiz-adv-x="845" >
  <font-face 
    font-family="TerminaW05-Black"
    font-weight="900"
    font-stretch="normal"
    units-per-em="1000"
    panose-1="1 0 0 0 0 0 0 0 0 0"
    ascent="800"
    descent="-200"
    x-height="560"
    cap-height="700"
    bbox="-463 -497 1661 1100"
    underline-thickness="50"
    underline-position="-125"
    unicode-range="U+0020-FB02"
  />
<missing-glyph horiz-adv-x="505" 
d="M414 770v-1010h-320v1010h320zM336 702h-166v-33h65v-37h-66v-34h167v34h-66v37h66v33zM270 572h-101v-105h167v34h-66v71zM235 538v-37h-33v37h33zM336 440h-167v-34h66v-37h-66v-33h101v70h66v34zM336 379h-33v-67h-134v-34h167v101zM336 256h-101v-57h35v24h33v-48
h-101v81h-33v-114h167v114zM336 81h-167v-114h167v114zM303 48v-48h-101v48h101zM336 -56h-167v-34h70l-70 -47v-33h167v33h-103l71 47h32v34z" />
    <glyph glyph-name="uniFB01" unicode="fi" horiz-adv-x="950" 
d="M762 597q-31 0 -66.5 11t-59 39.5t-23.5 68.5q0 27 13.5 54t50.5 46t85 19q31 0 66.5 -11t59 -39.5t23.5 -68.5q0 -27 -13.5 -54t-50.5 -46t-85 -19zM459 611q-40 0 -63 -14.5t-27 -36.5h193v-180h-185v-380h-270v380h-90v180h92q12 99 85 150.5t187 51.5q45 0 98.5 -7
t88.5 -21l-23 -137q-51 14 -86 14zM627 0v560h270v-560h-270z" />
    <glyph glyph-name="uniFB02" unicode="fl" horiz-adv-x="950" 
d="M459 611q-40 0 -63 -14.5t-27 -36.5h193v-180h-185v-380h-270v380h-90v180h92q12 99 85 150.5t187 51.5q45 0 98.5 -7t88.5 -21l-23 -137q-51 14 -86 14zM627 740h270v-740h-270v740z" />
    <glyph glyph-name=".notdef" horiz-adv-x="505" 
d="M414 770v-1010h-320v1010h320zM336 702h-166v-33h65v-37h-66v-34h167v34h-66v37h66v33zM270 572h-101v-105h167v34h-66v71zM235 538v-37h-33v37h33zM336 440h-167v-34h66v-37h-66v-33h101v70h66v34zM336 379h-33v-67h-134v-34h167v101zM336 256h-101v-57h35v24h33v-48
h-101v81h-33v-114h167v114zM336 81h-167v-114h167v114zM303 48v-48h-101v48h101zM336 -56h-167v-34h70l-70 -47v-33h167v33h-103l71 47h32v34z" />
    <glyph glyph-name=".null" horiz-adv-x="0" 
 />
    <glyph glyph-name="nonmarkingreturn" horiz-adv-x="333" 
 />
    <glyph glyph-name="space" unicode=" " horiz-adv-x="234" 
 />
    <glyph glyph-name="exclam" unicode="!" horiz-adv-x="402" 
d="M42 700h318l-42 -414h-234zM201 -16q-32 0 -58.5 9.5t-47.5 26.5t-32 41.5t-11 50.5q0 19 7.5 41t25 41t47 32.5t69.5 13.5q32 0 58.5 -9.5t47.5 -26.5t32 -41.5t11 -50.5q0 -19 -7.5 -41t-25 -41t-47 -32.5t-69.5 -13.5z" />
    <glyph glyph-name="quotedbl" unicode="&#x22;" horiz-adv-x="646" 
d="M57 740h228v-341h-228v341zM361 740h228v-341h-228v341z" />
    <glyph glyph-name="numbersign" unicode="#" horiz-adv-x="982" 
d="M948 410h-163l-30 -107h157v-150h-200l-44 -153h-214l44 153h-130l-44 -153h-214l44 153h-121v150h164l30 107h-158v150h201l40 140h214l-40 -140h130l40 140h214l-40 -140h120v-150zM541 303l30 107h-130l-30 -107h130z" />
    <glyph glyph-name="dollar" unicode="$" horiz-adv-x="932" 
d="M891 248q0 -112 -97.5 -179t-271.5 -73v-100h-98v102q-117 7 -219.5 40t-178.5 88l132 148q49 -34 119.5 -58.5t146.5 -32.5v75q-194 21 -280 76.5t-86 148.5q0 39 19 77.5t64 68.5t115.5 50t167.5 24v91h98v-91q93 -5 183 -30.5t157 -67.5l-125 -149q-92 55 -215 66v-64
q142 -13 215.5 -33.5t113.5 -62.5t40 -114zM331 495q0 -10 16 -17t77 -12v57q-93 -4 -93 -28zM522 179q49 2 72.5 9t23.5 23q0 15 -20.5 23t-75.5 14v-69z" />
    <glyph glyph-name="percent" unicode="%" horiz-adv-x="912" 
d="M213 358q-43 0 -81 13.5t-65.5 38t-43 58t-15.5 71.5t15.5 71.5t43 58t65.5 38t81 13.5t81 -13.5t65.5 -38t43 -58t15.5 -71.5t-15.5 -71.5t-43 -58t-65.5 -38t-81 -13.5zM645 700h170l-548 -700h-170zM213 480q28 0 46.5 15.5t18.5 43.5t-18.5 43.5t-46.5 15.5
t-46.5 -15.5t-18.5 -43.5t18.5 -43.5t46.5 -15.5zM699 -20q-43 0 -81 13.5t-65.5 38t-43 58t-15.5 71.5t15.5 71.5t43 58t65.5 38t81 13.5t81 -13.5t65.5 -38t43 -58t15.5 -71.5t-15.5 -71.5t-43 -58t-65.5 -38t-81 -13.5zM699 102q28 0 46.5 15.5t18.5 43.5t-18.5 43.5
t-46.5 15.5t-46.5 -15.5t-18.5 -43.5t18.5 -43.5t46.5 -15.5z" />
    <glyph glyph-name="ampersand" unicode="&#x26;" horiz-adv-x="950" 
d="M957 0h-294l-23 19q-97 -39 -213 -39q-83 0 -155.5 18t-125.5 50.5t-82.5 77t-29.5 95.5q0 56 37 99.5t106 69.5q-62 62 -62 128q0 40 19.5 77t58.5 65t98 44t132 16q127 0 222.5 -44.5t165.5 -144.5l-219 -81q-31 46 -72.5 72t-88.5 26q-26 0 -44.5 -9.5t-18.5 -27.5
q0 -11 10 -27t58 -56l204 -167q19 37 25 82h225q-6 -60 -29.5 -115t-61.5 -98zM440 155l27 1l-158 126q-7 -15 -7 -33q0 -29 21 -52.5t54 -32.5t63 -9z" />
    <glyph glyph-name="quotesingle" unicode="'" horiz-adv-x="342" 
d="M57 740h228v-341h-228v341z" />
    <glyph glyph-name="parenleft" unicode="(" horiz-adv-x="498" 
d="M264 290q0 -54 13.5 -94t35 -72t59.5 -62t90 -47l-76 -161q-69 11 -134 47.5t-115 94.5t-78.5 133.5t-28.5 160.5t28.5 160.5t78.5 133.5t115 94.5t134 47.5l76 -161q-41 -14 -77 -38t-63 -58t-42.5 -79.5t-15.5 -99.5z" />
    <glyph glyph-name="parenright" unicode=")" horiz-adv-x="498" 
d="M234 290q0 54 -13.5 94t-35 72t-59.5 62t-90 47l76 161q69 -11 134 -47.5t115 -94.5t78.5 -133.5t28.5 -160.5t-28.5 -160.5t-78.5 -133.5t-115 -94.5t-134 -47.5l-76 161q41 14 77 38t63 58t42.5 79.5t15.5 99.5z" />
    <glyph glyph-name="asterisk" unicode="*" horiz-adv-x="672" 
d="M383 129l-47 206l-47 -206l-191 110l148 134l-195 -52v220l195 -52l-148 134l191 110l47 -206l47 206l191 -110l-148 -134l195 52v-220l-195 52l148 -134z" />
    <glyph glyph-name="plus" unicode="+" horiz-adv-x="732" 
d="M682 406v-200h-211v-174h-210v174h-211v200h211v174h210v-174h211z" />
    <glyph glyph-name="comma" unicode="," horiz-adv-x="365" 
d="M176 240q45 0 83 -22.5t56.5 -62.5t18.5 -80q0 -52 -25.5 -106.5t-70 -100t-107.5 -76.5l-48 76q94 53 121 126q-10 -10 -35 -10q-27 0 -59 12.5t-55.5 44.5t-23.5 71q0 33 16.5 60.5t50 47.5t78.5 20z" />
    <glyph glyph-name="hyphen" unicode="-" horiz-adv-x="620" 
d="M565 206h-510v200h510v-200z" />
    <glyph glyph-name="period" unicode="." horiz-adv-x="360" 
d="M180 -16q-32 0 -58.5 9.5t-47.5 26.5t-32 41.5t-11 50.5q0 19 7.5 41t25 41t47 32.5t69.5 13.5q32 0 58.5 -9.5t47.5 -26.5t32 -41.5t11 -50.5q0 -19 -7.5 -41t-25 -41t-47 -32.5t-69.5 -13.5z" />
    <glyph glyph-name="slash" unicode="/" horiz-adv-x="824" 
d="M305 -100h-286l500 880h286z" />
    <glyph glyph-name="zero" unicode="0" horiz-adv-x="972" 
d="M486 -24q-102 0 -186.5 24.5t-145 72.5t-92.5 118.5t-32 158.5t32 158.5t92.5 118.5t145 72.5t186.5 24.5t186.5 -24.5t145 -72.5t92.5 -118.5t32 -158.5t-32 -158.5t-92.5 -118.5t-145 -72.5t-186.5 -24.5zM486 190q82 0 127 42.5t45 117.5t-45 117.5t-127 42.5
t-127 -42.5t-45 -117.5t45 -117.5t127 -42.5z" />
    <glyph glyph-name="one" unicode="1" horiz-adv-x="566" 
d="M224 0v431q-72 -38 -203 -61v209q70 10 146.5 44t125.5 77h211v-700h-280z" />
    <glyph glyph-name="two" unicode="2" horiz-adv-x="849" 
d="M31 580q65 62 172.5 102t229.5 40q68 0 124 -11t98 -28t74 -43t50.5 -61.5t18.5 -78.5t-21 -84t-76 -80.5t-156 -67.5q-65 -18 -123.5 -39t-73.5 -33h462v-196h-779v118q11 109 100 191.5t244 123.5q93 24 117 36t24 26q0 16 -29 26.5t-69 10.5q-44 0 -92.5 -14.5
t-88 -38t-66.5 -46.5z" />
    <glyph glyph-name="three" unicode="3" horiz-adv-x="848" 
d="M175 254q101 -84 216 -84q36 0 65.5 6t46.5 18.5t17 32.5q0 22 -25.5 34.5t-96.5 12.5h-123v166h123q31 0 57 5.5t37 16.5t11 22q0 14 -13 24.5t-40.5 16t-61.5 5.5q-113 0 -207 -84l-160 122q59 72 162.5 113t224.5 41q73 0 150.5 -13t132 -43.5t76 -67.5t21.5 -75
q0 -35 -17.5 -72t-55.5 -61t-86 -31q37 -7 81.5 -24t74.5 -53t30 -86q0 -25 -10.5 -55t-38.5 -58.5t-76 -52.5t-122.5 -38t-159.5 -14q-122 0 -227 41t-166 113z" />
    <glyph glyph-name="four" unicode="4" horiz-adv-x="919" 
d="M896 302v-186h-123v-116h-270v116h-491v150l511 434h250v-398h123zM327 302h176v151z" />
    <glyph glyph-name="five" unicode="5" horiz-adv-x="868" 
d="M148 253q46 -29 123.5 -50.5t160.5 -21.5q45 0 74.5 6.5t40.5 19t11 26.5q0 55 -126 55q-45 0 -94.5 -8.5t-89.5 -27.5l-194 69l60 379h656v-190h-447l-17 -103q43 30 105.5 47.5t128.5 17.5q54 0 108 -14.5t98 -44t70.5 -76t26.5 -106.5q0 -52 -22 -98t-70 -81
t-128.5 -55.5t-190.5 -20.5q-243 0 -411 111z" />
    <glyph glyph-name="six" unicode="6" horiz-adv-x="919" 
d="M541 471q56 0 115.5 -11.5t112 -37.5t85.5 -72t33 -110q0 -56 -26 -104.5t-77.5 -84t-128.5 -55.5t-173 -20q-101 0 -185.5 25.5t-144 74.5t-91 119t-31.5 155t31.5 155t91 119t144 74.5t185.5 25.5q129 0 228.5 -31.5t162.5 -81.5l-135 -142q-45 32 -104.5 51t-117.5 19
q-87 0 -134 -30t-62 -87q35 19 91 34t130 15zM482 161q58 0 91 17.5t33 53.5q0 17 -11 34.5t-40.5 27t-72.5 9.5q-39 0 -83.5 -9.5t-77.5 -25.5q16 -59 58 -83t103 -24z" />
    <glyph glyph-name="seven" unicode="7" horiz-adv-x="795" 
d="M112 0l341 495h-433v205h762v-157l-359 -543h-311z" />
    <glyph glyph-name="eight" unicode="8" horiz-adv-x="912" 
d="M693 363q51 -10 95.5 -31.5t67.5 -57.5t23 -78q0 -51 -31 -92.5t-87.5 -69.5t-135 -43t-169.5 -15t-169.5 15t-135 43t-87.5 69.5t-31 92.5q0 42 21 75t62 56.5t103 35.5q-48 7 -86 30t-55.5 59t-17.5 71q0 24 10.5 53t39 55t76 47.5t119 33.5t151.5 12q58 0 124 -8
t118 -26.5t84.5 -42t51 -55.5t18.5 -69q0 -35 -17.5 -71t-55.5 -59t-86 -30zM341 493q0 -12 11.5 -25.5t40.5 -22.5t63 -9t63 9t40.5 22.5t11.5 25.5t-11.5 25.5t-40.5 22.5t-63 9t-63 -9t-40.5 -22.5t-11.5 -25.5zM456 150q54 0 93 17.5t39 50.5t-39 50.5t-93 17.5
t-93 -17.5t-39 -50.5t39 -50.5t93 -17.5z" />
    <glyph glyph-name="nine" unicode="9" horiz-adv-x="919" 
d="M437 724q101 0 185.5 -25.5t144 -74.5t91 -119t31.5 -155t-31.5 -155t-91 -119t-144 -74.5t-185.5 -25.5q-129 0 -228.5 31.5t-162.5 81.5l135 142q45 -32 104.5 -51t117.5 -19q87 0 134 30t62 87q-35 -19 -91 -34t-130 -15q-56 0 -115.5 11.5t-112 37.5t-85.5 72
t-33 110q0 56 26 104.5t77.5 84t128.5 55.5t173 20zM313 468q0 -17 11 -34.5t40.5 -27t72.5 -9.5q39 0 83.5 9.5t77.5 25.5q-16 59 -58 83t-103 24q-58 0 -91 -17.5t-33 -53.5z" />
    <glyph glyph-name="colon" unicode=":" horiz-adv-x="360" 
d="M180 320q-32 0 -58.5 9.5t-47.5 26.5t-32 41.5t-11 50.5q0 19 7.5 41t25 41t47 32.5t69.5 13.5q32 0 58.5 -9.5t47.5 -26.5t32 -41.5t11 -50.5q0 -19 -7.5 -41t-25 -41t-47 -32.5t-69.5 -13.5zM180 -16q-32 0 -58.5 9.5t-47.5 26.5t-32 41.5t-11 50.5q0 19 7.5 41t25 41
t47 32.5t69.5 13.5q32 0 58.5 -9.5t47.5 -26.5t32 -41.5t11 -50.5q0 -19 -7.5 -41t-25 -41t-47 -32.5t-69.5 -13.5z" />
    <glyph glyph-name="semicolon" unicode=";" horiz-adv-x="365" 
d="M180 320q-32 0 -58.5 9.5t-47.5 26.5t-32 41.5t-11 50.5q0 19 7.5 41t25 41t47 32.5t69.5 13.5q32 0 58.5 -9.5t47.5 -26.5t32 -41.5t11 -50.5q0 -19 -7.5 -41t-25 -41t-47 -32.5t-69.5 -13.5zM176 240q45 0 83 -22.5t56.5 -62.5t18.5 -80q0 -52 -25.5 -106.5t-70 -100
t-107.5 -76.5l-48 76q94 53 121 126q-10 -10 -35 -10q-27 0 -59 12.5t-55.5 44.5t-23.5 71q0 33 16.5 60.5t50 47.5t78.5 20z" />
    <glyph glyph-name="less" unicode="&#x3c;" horiz-adv-x="732" 
d="M645 583l-580 -176v-220l580 -176v212l-364 74l364 74v212z" />
    <glyph glyph-name="equal" unicode="=" horiz-adv-x="732" 
d="M682 360h-632v200h632v-200zM682 80h-632v200h632v-200z" />
    <glyph glyph-name="greater" unicode="&#x3e;" horiz-adv-x="732" 
d="M87 583v-212l364 -74l-364 -74v-212l580 176v220z" />
    <glyph glyph-name="question" unicode="?" horiz-adv-x="786" 
d="M289 259v154q93 14 134.5 32.5t41.5 44.5q0 12 -9.5 23t-33 17t-51.5 6q-117 0 -218 -90l-132 142q86 74 172.5 104t188.5 30q87 0 157.5 -18t119 -48.5t70 -71.5t21.5 -84q0 -54 -28.5 -93.5t-84.5 -65t-140 -31.5v-51h-208zM390 -16q-32 0 -58.5 9.5t-47.5 26.5
t-32 41.5t-11 50.5q0 19 7.5 41t25 41t47 32.5t69.5 13.5q32 0 58.5 -9.5t47.5 -26.5t32 -41.5t11 -50.5q0 -19 -7.5 -41t-25 -41t-47 -32.5t-69.5 -13.5z" />
    <glyph glyph-name="at" unicode="@" horiz-adv-x="1144" 
d="M570 700q156 0 278 -49.5t190 -147t68 -223.5q0 -50 -9.5 -96t-33 -79t-64 -51.5t-104.5 -18.5q-34 0 -77 8t-82.5 30.5t-64.5 54.5q-32 -42 -85 -67.5t-122 -25.5q-54 0 -102.5 17.5t-84.5 50.5t-56 78.5t-20 99.5t20 100t56 78.5t84.5 50t102.5 17.5q59 0 109.5 -22.5
t87.5 -70.5l40 77h180v-285q0 -56 16.5 -80.5t41.5 -24.5q37 0 59 46t22 113q0 87 -35 153t-96.5 107.5t-143.5 61.5t-175 20t-175 -20t-143.5 -61.5t-96.5 -107.5t-35 -153t35 -153t96.5 -107.5t143.5 -61.5t175 -20q96 0 173 16.5t125 48.5l41 -65q-23 -19 -66 -37.5
t-114 -29.5t-159 -11q-156 0 -278 49.5t-190 147t-68 223.5t68 223.5t190 147t278 49.5zM535 185q72 0 119 64v60q-47 64 -119 64q-50 0 -78.5 -27t-28.5 -67t28.5 -67t78.5 -27z" />
    <glyph glyph-name="A" unicode="A" horiz-adv-x="970" 
d="M691 0l-49 110h-318l-49 -110h-290l348 700h304l348 -700h-294zM400 280h166l-83 186z" />
    <glyph glyph-name="B" unicode="B" horiz-adv-x="955" 
d="M722 362q42 -3 80 -15.5t66.5 -34.5t45 -53t16.5 -68q0 -42 -20.5 -77.5t-59 -61t-93.5 -39t-120 -13.5h-575v700h535q65 0 120 -13.5t93.5 -38t59 -58.5t20.5 -74q0 -21 -7.5 -45.5t-26.5 -47.5t-52.5 -40.5t-81.5 -20.5zM338 530v-100h212q27 0 45 13t18 37t-18 37
t-45 13h-212zM577 170q30 0 48 15t18 40t-18 40t-48 15h-239v-110h239z" />
    <glyph glyph-name="C" unicode="C" horiz-adv-x="906" 
d="M492 190q57 0 104 23.5t78 71.5l225 -119q-48 -85 -158.5 -137.5t-254.5 -52.5q-98 0 -182.5 25t-145.5 72.5t-94.5 118.5t-33.5 158q0 42 11 93t41.5 99.5t84.5 90t140.5 66.5t188.5 25q136 0 244.5 -53t154.5 -135l-225 -119q-30 46 -76 69.5t-102 23.5q-80 0 -129 -43
t-49 -117t49 -117t129 -43z" />
    <glyph glyph-name="D" unicode="D" horiz-adv-x="968" 
d="M486 700q102 0 186 -23.5t143.5 -68.5t91 -111t31.5 -147t-31.5 -147t-91 -111t-143.5 -68.5t-186 -23.5h-424v700h424zM462 208q90 0 140 37.5t50 104.5t-50 104.5t-140 37.5h-120v-284h120z" />
    <glyph glyph-name="E" unicode="E" horiz-adv-x="889" 
d="M336 194h516v-194h-790v700h779v-194h-505v-65h406v-174h-406v-73z" />
    <glyph glyph-name="F" unicode="F" horiz-adv-x="858" 
d="M837 498h-495v-82h406v-195h-406v-221h-280v700h775v-202z" />
    <glyph glyph-name="G" unicode="G" horiz-adv-x="963" 
d="M922 422v-306q-63 -68 -166.5 -104t-238.5 -36q-110 0 -200.5 24.5t-146.5 66t-87 90t-42 100t-11 93.5t11 93.5t42 100t78.5 84t110 58t127.5 30.5t117 8q126 0 223.5 -33.5t160.5 -88.5l-189 -143q-44 33 -86 47t-97 14q-106 0 -160 -45t-54 -125q0 -81 54.5 -127.5
t159.5 -46.5q73 0 136 26v55h-176v165h434z" />
    <glyph glyph-name="H" unicode="H" horiz-adv-x="1004" 
d="M662 700h280v-700h-280v248h-320v-248h-280v700h280v-238h320v238z" />
    <glyph glyph-name="I" unicode="I" horiz-adv-x="404" 
d="M342 0h-280v700h280v-700z" />
    <glyph glyph-name="J" unicode="J" horiz-adv-x="776" 
d="M159 272q35 -41 73 -60.5t84 -19.5q130 0 130 150v358h280v-380q0 -77 -27 -141t-79 -109.5t-128 -69.5t-170 -24q-218 0 -340 136z" />
    <glyph glyph-name="K" unicode="K" horiz-adv-x="929" 
d="M946 0h-324l-173 248l-107 -105v-143h-280v700h280v-271l256 271h332l-287 -283z" />
    <glyph glyph-name="L" unicode="L" horiz-adv-x="787" 
d="M342 208h430v-208h-710v700h280v-492z" />
    <glyph glyph-name="M" unicode="M" horiz-adv-x="1144" 
d="M786 700h296v-700h-276v379l-230 -287h-14l-230 287v-379h-270v700h306l208 -277z" />
    <glyph glyph-name="N" unicode="N" horiz-adv-x="1004" 
d="M672 700h270v-700h-246l-364 381v-381h-270v700h296l314 -337v337z" />
    <glyph glyph-name="O" unicode="O" horiz-adv-x="1012" 
d="M506 -24q-78 0 -160 16.5t-151.5 58.5t-106 98.5t-47.5 107.5t-11 93q0 65 19.5 122t56.5 101.5t89 76t117.5 49.5t119.5 21.5t74 3.5q78 0 160 -16.5t151.5 -58.5t106 -98.5t47.5 -107.5t11 -93q0 -65 -19.5 -122t-56.5 -101.5t-89 -76t-117.5 -49.5t-119.5 -21.5
t-74 -3.5zM506 190q90 0 141 42.5t51 117.5t-51 117.5t-141 42.5t-141 -42.5t-51 -117.5t51 -117.5t141 -42.5z" />
    <glyph glyph-name="P" unicode="P" horiz-adv-x="925" 
d="M558 700q79 0 143.5 -16t110.5 -48t71 -81.5t25 -113.5q0 -48 -16.5 -94.5t-57.5 -83t-109 -59t-167 -22.5h-216v-182h-280v700h496zM535 358q30 0 52 10t30.5 28t8.5 37t-8.5 37t-30.5 28t-52 10h-193v-150h193z" />
    <glyph glyph-name="Q" unicode="Q" horiz-adv-x="1012" 
d="M982 350q0 -41 -11 -92t-41.5 -99.5t-75.5 -83.5l81 -86l-116 -96l-105 111q-96 -28 -208 -28q-78 0 -160 16.5t-151.5 58.5t-106 98.5t-47.5 107.5t-11 93q0 65 19.5 122t56.5 101.5t89 76t117.5 49.5t119.5 21.5t74 3.5q78 0 160 -16.5t151.5 -58.5t106 -98.5
t47.5 -107.5t11 -93zM506 190l31 1l-69 73l116 96l91 -96q23 37 23 86q0 75 -51 117.5t-141 42.5t-141 -42.5t-51 -117.5t51 -117.5t141 -42.5z" />
    <glyph glyph-name="R" unicode="R" horiz-adv-x="954" 
d="M938 0h-316l-157 192h-125v-192h-278v700h503q73 0 137 -15.5t112 -47t75 -80.5t27 -111q0 -52 -20 -98t-60 -77.5t-88 -49.5zM340 508v-140h201q92 0 92 70t-92 70h-201z" />
    <glyph glyph-name="S" unicode="S" horiz-adv-x="908" 
d="M471 467q149 -12 234 -38t130 -73.5t45 -123.5q0 -58 -26 -105.5t-76.5 -81t-126 -51.5t-171.5 -18q-136 0 -257.5 34t-207.5 96l134 154q61 -41 150.5 -68t184.5 -27q121 0 121 37q0 18 -29.5 28t-114.5 17q-217 19 -315.5 76.5t-98.5 157.5q0 57 30 103t84 77t128.5 47
t160.5 16q81 0 162.5 -14.5t141.5 -38t97 -46.5l-127 -155q-112 68 -273 68q-54 0 -91.5 -7.5t-37.5 -25.5q0 -12 24.5 -21t124.5 -17z" />
    <glyph glyph-name="T" unicode="T" horiz-adv-x="836" 
d="M822 700v-205h-264v-495h-280v495h-264v205h808z" />
    <glyph glyph-name="U" unicode="U" horiz-adv-x="960" 
d="M630 700h280v-370q0 -81 -29 -147t-84 -112t-136 -70.5t-181 -24.5t-181 24.5t-136 70.5t-84 112t-29 147v370h280v-348q0 -43 15.5 -81t51 -58.5t83.5 -20.5t83.5 20.5t51 58.5t15.5 81v348z" />
    <glyph glyph-name="V" unicode="V" horiz-adv-x="910" 
d="M-15 700h298l174 -441l174 441h294l-324 -700h-292z" />
    <glyph glyph-name="W" unicode="W" horiz-adv-x="1300" 
d="M1028 700h274l-254 -700h-272l-126 415l-126 -415h-272l-254 700h278l120 -418l133 418h246l133 -418z" />
    <glyph glyph-name="X" unicode="X" horiz-adv-x="903" 
d="M909 700l-301 -339l311 -361h-330l-147 179l-147 -179h-311l310 357l-300 343h330l137 -167l137 167h311z" />
    <glyph glyph-name="Y" unicode="Y" horiz-adv-x="878" 
d="M-15 700h306l149 -256l148 256h305l-314 -470v-230h-280v230z" />
    <glyph glyph-name="Z" unicode="Z" horiz-adv-x="902" 
d="M849 700v-160l-414 -344h430v-196h-830v160l414 344h-396v196h796z" />
    <glyph glyph-name="bracketleft" unicode="[" horiz-adv-x="489" 
d="M453 530h-167v-480h167v-170h-391v820h391v-170z" />
    <glyph glyph-name="backslash" unicode="\" horiz-adv-x="824" 
d="M519 -100l-500 880h286l500 -880h-286z" />
    <glyph glyph-name="bracketright" unicode="]" horiz-adv-x="489" 
d="M36 530v170h391v-820h-391v170h167v480h-167z" />
    <glyph glyph-name="asciicircum" unicode="^" horiz-adv-x="732" 
d="M56 260h214l96 247l96 -247h214l-210 440h-200z" />
    <glyph glyph-name="underscore" unicode="_" horiz-adv-x="694" 
d="M694 -210h-694v176h694v-176z" />
    <glyph glyph-name="grave" unicode="`" horiz-adv-x="620" 
d="M86 960h314l120 -180h-187z" />
    <glyph glyph-name="a" unicode="a" horiz-adv-x="790" 
d="M379 582q84 0 152 -17.5t114.5 -52t71 -84.5t24.5 -113v-211q0 -58 23 -104h-270q-17 19 -17 42v3q-31 -30 -83.5 -47.5t-114.5 -17.5q-45 0 -90 10t-82.5 31.5t-60.5 58t-23 85.5q0 37 15.5 72t50 60t83.5 39t107 14q62 0 114.5 -17.5t83.5 -47.5v34q0 40 -41 64
t-114 24q-102 0 -196 -39l-45 165q58 23 141.5 36t156.5 13zM481 162v6q-16 17 -45.5 30t-69.5 13q-24 0 -44.5 -6t-29.5 -17.5t-9 -22.5t9 -22.5t29.5 -17.5t44.5 -6q31 0 62 10t53 33z" />
    <glyph glyph-name="b" unicode="b" 
d="M530 580q64 0 117.5 -20.5t92 -59t59 -95t20.5 -125.5t-20.5 -125.5t-59 -95t-92 -59t-117.5 -20.5q-63 0 -116 21t-91 66v-67h-270v740h270v-247q38 45 91 66t116 21zM448 170q26 0 54 10t45.5 37t17.5 63t-17.5 63t-45.5 37t-54 10q-78 0 -125 -60v-100q47 -60 125 -60
z" />
    <glyph glyph-name="c" unicode="c" horiz-adv-x="743" 
d="M735 149q-28 -56 -75.5 -94t-112 -58.5t-146.5 -20.5q-84 0 -154 21t-119 61t-75.5 96.5t-26.5 125.5t26.5 125.5t75.5 96.5t119 61t154 21q66 0 133 -17t118.5 -58.5t78.5 -95.5l-215 -88q-31 63 -112 63q-26 0 -55.5 -9.5t-49 -36t-19.5 -62.5t19.5 -62.5t49 -36
t55.5 -9.5q83 0 116 65z" />
    <glyph glyph-name="d" unicode="d" 
d="M315 580q63 0 116 -21t91 -66v247h270v-740h-270v67q-38 -45 -91 -66t-116 -21q-64 0 -117.5 20.5t-92 59t-59 95t-20.5 125.5t20.5 125.5t59 95t92 59t117.5 20.5zM397 170q78 0 125 60v100q-47 60 -125 60q-26 0 -54 -10t-45.5 -37t-17.5 -63t17.5 -63t45.5 -37t54 -10
z" />
    <glyph glyph-name="e" unicode="e" horiz-adv-x="780" 
d="M281 225q14 -39 52 -56t103 -17q42 0 81.5 8.5t88.5 41.5l128 -129q-28 -25 -73 -48.5t-107 -36t-133 -12.5q-92 0 -166 20.5t-125 60t-77.5 96.5t-26.5 127q0 69 26 126t75 96.5t118.5 60.5t154.5 21q74 0 139.5 -18.5t114 -56t75.5 -93.5t27 -127q0 -37 -8 -64h-467z
M402 412q-43 0 -73.5 -16.5t-44.5 -50.5h231q-26 67 -113 67z" />
    <glyph glyph-name="f" unicode="f" horiz-adv-x="574" 
d="M459 611q-40 0 -63 -14.5t-27 -36.5h193v-180h-185v-380h-270v380h-90v180h92q12 99 85 150.5t187 51.5q45 0 98.5 -7t88.5 -21l-23 -137q-51 14 -86 14z" />
    <glyph glyph-name="g" unicode="g" 
d="M792 560v-439q0 -85 -28 -147t-79 -104t-127.5 -66t-170.5 -24q-79 0 -166.5 16.5t-143.5 43.5l62 161q32 -18 94.5 -32t119.5 -14q33 0 65 6t58 22.5t36 40.5t10 45v38q-38 -45 -91.5 -66t-115.5 -21q-64 0 -117.5 19t-92 55t-59 88.5t-20.5 117.5t20.5 118t59 89
t92 54.5t117.5 18.5q63 0 116 -21t91 -66v67h270zM392 204q76 0 130 66v60q-54 66 -130 66q-25 0 -52 -9t-43.5 -32.5t-16.5 -54.5q0 -42 30 -69t82 -27z" />
    <glyph glyph-name="h" unicode="h" horiz-adv-x="820" 
d="M529 580q56 0 102 -18t78 -50.5t48.5 -77.5t16.5 -97v-337h-270v321q0 30 -20.5 49.5t-53.5 19.5q-57 0 -107 -66v-324h-270v560v180h270v-200v-54q76 94 206 94z" />
    <glyph glyph-name="i" unicode="i" horiz-adv-x="376" 
d="M188 597q-31 0 -66.5 11t-59 39.5t-23.5 68.5q0 27 13.5 54t50.5 46t85 19q31 0 66.5 -11t59 -39.5t23.5 -68.5q0 -27 -13.5 -54t-50.5 -46t-85 -19zM323 560v-560h-270v560h270z" />
    <glyph glyph-name="j" unicode="j" horiz-adv-x="376" 
d="M188 597q-31 0 -66.5 11t-59 39.5t-23.5 68.5q0 27 13.5 54t50.5 46t85 19q31 0 66.5 -11t59 -39.5t23.5 -68.5q0 -27 -13.5 -54t-50.5 -46t-85 -19zM53 560h270v-522q0 -59 -18.5 -107.5t-53.5 -82.5t-84.5 -52t-108.5 -18q-35 0 -79.5 7.5t-82.5 20.5l34 157
q36 -11 60 -11q19 0 34.5 8t22 23t6.5 30v547z" />
    <glyph glyph-name="k" unicode="k" horiz-adv-x="787" 
d="M517 0l-120 181l-74 -74v-107h-270v740h270v-381l179 201h287l-215 -232l226 -328h-283z" />
    <glyph glyph-name="l" unicode="l" horiz-adv-x="376" 
d="M323 0h-270v740h270v-740z" />
    <glyph glyph-name="m" unicode="m" horiz-adv-x="1239" 
d="M956 580q57 0 102 -18t75 -50.5t45 -77.5t15 -98v-336h-270v321q0 30 -17.5 49.5t-48.5 19.5q-56 0 -99 -70v-320h-270v321q0 30 -17.5 49.5t-48.5 19.5q-56 0 -99 -70v-320h-270v560h270v-76q71 96 198 96q30 0 62 -6t64 -23t55.5 -45.5t35.5 -56.5q20 42 56.5 74
t79 44.5t82.5 12.5z" />
    <glyph glyph-name="n" unicode="n" horiz-adv-x="820" 
d="M323 0h-270v560h270v-74q76 94 206 94q56 0 102 -18t78 -50.5t48.5 -77.5t16.5 -97v-337h-270v321q0 30 -20.5 49.5t-53.5 19.5q-57 0 -107 -66v-324z" />
    <glyph glyph-name="o" unicode="o" horiz-adv-x="812" 
d="M406 -24q-85 0 -155.5 21t-120.5 60.5t-77 96.5t-27 126t27 126t77 96.5t120.5 60.5t155.5 21t155.5 -21t120.5 -60.5t77 -96.5t27 -126t-27 -126t-77 -96.5t-120.5 -60.5t-155.5 -21zM406 172q56 0 91 29.5t35 78.5t-35 78.5t-91 29.5q-55 0 -90.5 -29.5t-35.5 -78.5
t35.5 -78.5t90.5 -29.5z" />
    <glyph glyph-name="p" unicode="p" 
d="M530 -20q-63 0 -116 21t-91 66v-267h-270v760h270v-67q38 45 91 66t116 21q64 0 117.5 -20.5t92 -59t59 -95t20.5 -125.5t-20.5 -125.5t-59 -95t-92 -59t-117.5 -20.5zM448 390q-78 0 -125 -60v-100q47 -60 125 -60q26 0 54 10t45.5 37t17.5 63t-17.5 63t-45.5 37t-54 10
z" />
    <glyph glyph-name="q" unicode="q" 
d="M315 -20q-64 0 -117.5 20.5t-92 59t-59 95t-20.5 125.5t20.5 125.5t59 95t92 59t117.5 20.5q63 0 116 -21t91 -66v67h270v-760h-270v267q-38 -45 -91 -66t-116 -21zM397 390q-26 0 -54 -10t-45.5 -37t-17.5 -63t17.5 -63t45.5 -37t54 -10q78 0 125 60v100q-47 60 -125 60
z" />
    <glyph glyph-name="r" unicode="r" horiz-adv-x="546" 
d="M323 0h-270v560h270v-84q16 24 44.5 47.5t71.5 37t92 13.5v-218q-86 0 -139.5 -31t-68.5 -91v-234z" />
    <glyph glyph-name="s" unicode="s" horiz-adv-x="744" 
d="M395 378q70 -3 138 -17.5t113 -43t62 -62t17 -67.5q0 -43 -21.5 -81.5t-65 -68t-110.5 -46t-153 -16.5q-109 0 -201.5 26t-160.5 67l105 131q119 -64 265 -64q47 0 67.5 5t20.5 18t-22 18.5t-81 8.5q-47 3 -101.5 12t-98 27t-72 40t-44.5 52t-16 65q0 44 25 82t71 64.5
t109.5 41t137.5 14.5q94 0 179 -17.5t146 -49.5l-107 -136q-83 43 -219 43q-91 0 -91 -22q0 -9 16 -14.5t92 -9.5z" />
    <glyph glyph-name="t" unicode="t" horiz-adv-x="593" 
d="M541 204l33 -168q-39 -27 -100.5 -42.5t-117.5 -15.5q-54 0 -100 15t-79 44.5t-51.5 73t-18.5 98.5v171h-90v180h90v129h270v-129h191v-180h-191v-128q0 -30 21 -49.5t58 -19.5q33 0 85 21z" />
    <glyph glyph-name="u" unicode="u" horiz-adv-x="820" 
d="M497 560h270v-560h-270v74q-76 -94 -206 -94q-56 0 -102 18t-78 50.5t-48.5 77.5t-16.5 97v337h270v-321q0 -30 20.5 -49.5t53.5 -19.5q58 0 107 66v324z" />
    <glyph glyph-name="v" unicode="v" horiz-adv-x="784" 
d="M791 560l-262 -560h-274l-262 560h277l124 -318l124 318h273z" />
    <glyph glyph-name="w" unicode="w" horiz-adv-x="1084" 
d="M832 560h250l-190 -560h-251l-99 312l-99 -312h-251l-190 560h254l84 -294l90 294h228l90 -294z" />
    <glyph glyph-name="x" unicode="x" horiz-adv-x="774" 
d="M773 560l-237 -271l245 -289h-297l-104 134l-105 -134h-282l245 285l-237 275h297l97 -125l97 125h281z" />
    <glyph glyph-name="y" unicode="y" horiz-adv-x="768" 
d="M506 560h269l-365 -760h-269l116 227l-264 533h273l124 -296z" />
    <glyph glyph-name="z" unicode="z" horiz-adv-x="738" 
d="M692 560v-154l-294 -218h306v-188h-672v154l294 218h-280v188h646z" />
    <glyph glyph-name="braceleft" unicode="{" horiz-adv-x="560" 
d="M404 431q0 -39 -17.5 -71t-49 -50t-74.5 -19q35 -2 68.5 -17.5t53 -51t19.5 -73.5q0 -51 28.5 -75t61.5 -24h30v-170h-65q-148 0 -214 49.5t-66 148.5q0 86 -45 124.5t-135 38.5v99q90 0 135 38.5t45 124.5q0 99 65.5 148t214.5 49h65v-170h-30q-23 0 -44 -11
t-33.5 -32.5t-12.5 -55.5z" />
    <glyph glyph-name="bar" unicode="|" horiz-adv-x="384" 
d="M67 -120v820h250v-820h-250z" />
    <glyph glyph-name="braceright" unicode="}" horiz-adv-x="560" 
d="M156 431q0 34 -12.5 55.5t-33.5 32.5t-44 11h-30v170h65q149 0 214.5 -49t65.5 -148q0 -86 45 -124.5t135 -38.5v-99q-90 0 -135 -38.5t-45 -124.5q0 -99 -66 -148.5t-214 -49.5h-65v170h30q33 0 61.5 24t28.5 75q0 25 11.5 57.5t44.5 57t85 27.5q-43 1 -74.5 19t-49 50
t-17.5 71z" />
    <glyph glyph-name="asciitilde" unicode="~" horiz-adv-x="732" 
d="M587 433l89 -194q-29 -28 -72 -43t-93 -15q-51 0 -132 20.5t-116 20.5q-28 0 -54 -7.5t-64 -34.5l-89 194q29 28 72 43t94 15q50 0 131 -20.5t117 -20.5q75 0 117 42z" />
    <glyph glyph-name="exclamdown" unicode="&#xa1;" horiz-adv-x="402" 
d="M201 516q32 0 58.5 -9.5t47.5 -26.5t32 -41.5t11 -50.5q0 -19 -7.5 -41t-25 -41t-47 -32.5t-69.5 -13.5q-32 0 -58.5 9.5t-47.5 26.5t-32 41.5t-11 50.5q0 19 7.5 41t25 41t47 32.5t69.5 13.5zM42 -200l42 414h234l42 -414h-318z" />
    <glyph glyph-name="cent" unicode="&#xa2;" horiz-adv-x="737" 
d="M440 246q53 15 78 59l190 -78q-13 -28 -43.5 -63t-89.5 -63t-135 -35v-66h-100v66q-68 5 -124.5 26t-96.5 57t-61.5 87t-21.5 114q0 47 14.5 95t50 87.5t94.5 67t145 34.5v66h100v-66q64 -6 120 -28.5t93 -58.5t55 -74l-190 -78q-25 44 -78 59v-208zM270 350
q0 -36 19 -62.5t51 -38.5v202q-32 -12 -51 -38.5t-19 -62.5z" />
    <glyph glyph-name="sterling" unicode="&#xa3;" horiz-adv-x="798" 
d="M441 180h321v-180h-591h-133v180h133v92h-133v152h133v26q0 52 22.5 102t65.5 89t106 62t139 23q60 0 114 -13.5t87 -31.5t49 -31l-87 -167q-49 33 -109 33q-40 0 -67.5 -12.5t-38 -34.5t-11.5 -45h263v-152h-263v-92z" />
    <glyph glyph-name="currency" unicode="&#xa4;" horiz-adv-x="793" 
d="M712 356q0 -90 -46 -157l91 -91l-114 -104l-105 97q-64 -25 -141 -25t-141 25l-105 -97l-114 104l91 91q-46 67 -46 157q0 37 10 75.5t27 66.5l-82 82l114 104l88 -80q32 15 74 23.5t84 8.5t84 -8.5t74 -23.5l88 80l114 -104l-82 -82q17 -28 27 -66.5t10 -75.5zM397 251
q22 0 49 9.5t45.5 35.5t18.5 60q0 22 -11 47t-39 41.5t-63 16.5q-22 0 -49 -9.5t-45.5 -35.5t-18.5 -60q0 -22 11 -47t39 -41.5t63 -16.5z" />
    <glyph glyph-name="yen" unicode="&#xa5;" horiz-adv-x="914" 
d="M891 700l-216 -330h114v-99h-178l-14 -21v-33h192v-99h-192v-118h-280v118h-192v99h192v33l-14 21h-178v99h114l-216 330h302l133 -256l132 256h301z" />
    <glyph glyph-name="brokenbar" unicode="&#xa6;" horiz-adv-x="384" 
d="M67 368v332h250v-332h-250zM317 218v-338h-250v338h250z" />
    <glyph glyph-name="section" unicode="&#xa7;" horiz-adv-x="767" 
d="M663 184q60 -41 60 -117q0 -44 -21 -82.5t-63 -68t-107 -46t-148 -16.5q-52 0 -116 9t-125.5 31.5t-111.5 50.5l103 133q119 -66 257 -66q42 0 68 8t26 22q0 12 -26.5 19t-82.5 11q-319 22 -319 195q0 80 66 138q-66 43 -66 122q0 47 24 84.5t68.5 63t106.5 38.5t135 13
q91 0 173.5 -18.5t142.5 -52.5l-106 -132q-41 22 -95.5 33.5t-113.5 11.5q-29 0 -54 -3.5t-35.5 -10t-10.5 -12.5q0 -24 115 -30q169 -11 242.5 -55.5t73.5 -125.5q0 -41 -15 -79t-45 -68zM296 292q0 -21 29.5 -35.5t80.5 -16.5h9q33 4 50.5 19t17.5 33q0 20 -24 34.5
t-69 16.5l-11 1q-35 -3 -59 -17.5t-24 -34.5z" />
    <glyph glyph-name="dieresis" unicode="&#xa8;" horiz-adv-x="620" 
d="M162 770q-25 0 -53 9t-47.5 33.5t-19.5 57.5q0 46 33.5 72.5t86.5 26.5t86.5 -26.5t33.5 -72.5q0 -33 -19.5 -57.5t-47.5 -33.5t-53 -9zM458 770q-25 0 -53 9t-47.5 33.5t-19.5 57.5q0 46 33.5 72.5t86.5 26.5t86.5 -26.5t33.5 -72.5q0 -33 -19.5 -57.5t-47.5 -33.5
t-53 -9z" />
    <glyph glyph-name="copyright" unicode="&#xa9;" horiz-adv-x="1000" 
d="M500 -24q-130 0 -237.5 43.5t-170 130t-62.5 200.5t62.5 200.5t170 130t237.5 43.5t237.5 -43.5t170 -130t62.5 -200.5t-62.5 -200.5t-170 -130t-237.5 -43.5zM500 34q87 0 162 21t130 62t85.5 100.5t30.5 132.5t-30.5 132.5t-85.5 100.5t-130 62t-162 21t-162 -21
t-130 -62t-85.5 -100.5t-30.5 -132.5t30.5 -132.5t85.5 -100.5t130 -62t162 -21zM793 222q-47 -65 -125.5 -99t-171.5 -34q-67 0 -125 17.5t-100.5 51t-65.5 83t-23 110.5t23 110.5t65.5 83t100.5 51t125 17.5q54 0 112 -13.5t105 -46.5t70 -73l-164 -78q-18 22 -42.5 38.5
t-63.5 16.5q-26 0 -54 -10t-45.5 -36t-17.5 -60t17.5 -60t45.5 -36t54 -10q31 0 56.5 12.5t49.5 42.5z" />
    <glyph glyph-name="ordfeminine" unicode="&#xaa;" horiz-adv-x="597" 
d="M281 720q121 0 189 -50t68 -141v-151q0 -43 22 -75h-196q-15 12 -15 30v2q-21 -21 -58.5 -33.5t-81.5 -12.5q-48 0 -90 14.5t-66.5 44t-24.5 73.5t24.5 74t66.5 44.5t90 14.5q44 0 81.5 -12.5t58.5 -34.5v25q0 28 -29 45.5t-80 17.5q-29 0 -67 -7t-72 -21l-32 118
q20 8 57 17.5t83 13.5t72 4zM352 419v4q-11 13 -31 22t-49 9q-23 0 -40.5 -8t-17.5 -25q0 -12 14 -22.5t44 -10.5q19 0 41.5 7t38.5 24z" />
    <glyph glyph-name="guillemotleft" unicode="&#xab;" horiz-adv-x="838" 
d="M235 537l-210 -230l210 -230h241l-210 230l210 230h-241zM563 537l-210 -230l210 -230h241l-210 230l210 230h-241z" />
    <glyph glyph-name="logicalnot" unicode="&#xac;" horiz-adv-x="732" 
d="M30 386h660v-339h-220v149h-440v190z" />
    <glyph glyph-name="registered" unicode="&#xae;" horiz-adv-x="588" 
d="M294 710q49 0 101.5 -17t89.5 -52.5t51.5 -74.5t14.5 -77t-14.5 -77t-51.5 -74.5t-89.5 -52.5t-101.5 -17t-101.5 17t-89.5 52.5t-51.5 74.5t-14.5 77t14.5 77t51.5 74.5t89.5 52.5t101.5 17zM294 306q42 0 81 11.5t69 35t47.5 58t17.5 78.5q0 33 -12 65.5t-39 58.5
t-69 42.5t-95 16.5q-42 0 -81 -11.5t-69 -35t-47.5 -58t-17.5 -78.5q0 -33 12 -65.5t39 -58.5t69 -42.5t95 -16.5zM435 529q0 -52 -53 -72l60 -71h-103l-51 61h-32v-61h-92v223h159q35 0 62.5 -11.5t38.5 -30.5t11 -38zM256 546v-41h56q29 0 29 20q0 21 -29 21h-56z" />
    <glyph glyph-name="macron" unicode="&#xaf;" horiz-adv-x="620" 
d="M52 960h516v-172h-516v172z" />
    <glyph glyph-name="degree" unicode="&#xb0;" horiz-adv-x="426" 
d="M213 418q-82 0 -134.5 40.5t-52.5 110.5t52.5 110.5t134.5 40.5t134.5 -40.5t52.5 -110.5t-52.5 -110.5t-134.5 -40.5zM213 514q27 0 44 15.5t17 39.5t-17 39.5t-44 15.5t-44 -15.5t-17 -39.5t17 -39.5t44 -15.5z" />
    <glyph glyph-name="plusminus" unicode="&#xb1;" horiz-adv-x="732" 
d="M466 550h216v-180h-216v-150h-200v150h-216v180h216v150h200v-150zM50 0v180h632v-180h-632z" />
    <glyph glyph-name="uni00B2" unicode="&#xb2;" horiz-adv-x="494" 
d="M25 798q39 37 99 61t128 24q35 0 73.5 -7t69.5 -23.5t49 -42.5t18 -60q0 -95 -142 -139q-35 -11 -66.5 -23.5t-40.5 -18.5h256v-119h-448v72q6 65 56.5 114t138.5 75q52 15 63.5 21.5t11.5 14.5q0 9 -14 15t-34 6q-62 0 -133 -59z" />
    <glyph glyph-name="uni00B3" unicode="&#xb3;" horiz-adv-x="493" 
d="M108 603q61 -50 118 -50q34 0 50 10t16 24q0 27 -61 27h-72v100h72q27 0 39 8t12 18q0 27 -58 27q-57 0 -114 -50l-96 68q16 22 47 45.5t78 38t98 14.5q38 0 89.5 -8.5t90 -37t38.5 -73.5q0 -26 -12 -49t-33.5 -35t-42.5 -15q48 -9 76 -33.5t28 -63.5q0 -15 -6 -33.5
t-22 -35t-40 -29t-64.5 -23t-101.5 -10.5q-51 0 -98.5 14.5t-79 38t-48.5 45.5z" />
    <glyph glyph-name="acute" unicode="&#xb4;" horiz-adv-x="620" 
d="M534 960l-247 -180h-187l120 180h314z" />
    <glyph glyph-name="paragraph" unicode="&#xb6;" horiz-adv-x="989" 
d="M927 700v-700h-220v518h-74v-518h-220v188h-72q-107 0 -178.5 31.5t-108.5 87.5t-37 137q0 63 24 111.5t68 80.5t103.5 48t128.5 16h586zM413 364v154h-77q-36 0 -60 -19.5t-24 -57.5t24 -57.5t60 -19.5h77z" />
    <glyph glyph-name="periodcentered" unicode="&#xb7;" horiz-adv-x="360" 
d="M180 161q-32 0 -58.5 9.5t-47.5 26.5t-32 41.5t-11 50.5q0 19 7.5 41t25 41t47 32.5t69.5 13.5q32 0 58.5 -9.5t47.5 -26.5t32 -41.5t11 -50.5q0 -19 -7.5 -41t-25 -41t-47 -32.5t-69.5 -13.5z" />
    <glyph glyph-name="cedilla" unicode="&#xb8;" horiz-adv-x="620" 
d="M416 -64l-165 -166l-159 43l99 153z" />
    <glyph glyph-name="uni00B9" unicode="&#xb9;" horiz-adv-x="350" 
d="M131 450v257q-43 -24 -115 -36v126q40 6 84.5 26.5t72.5 46.5h128v-420h-170z" />
    <glyph glyph-name="ordmasculine" unicode="&#xba;" horiz-adv-x="594" 
d="M298 286q-124 0 -197.5 58.5t-73.5 159.5q0 100 73.5 159t197.5 59q123 0 196.5 -59t73.5 -159q0 -101 -73.5 -159.5t-196.5 -58.5zM298 426q38 0 63 21t25 57q0 35 -25 56t-63 21q-39 0 -64 -21t-25 -56q0 -36 25 -57t64 -21z" />
    <glyph glyph-name="guillemotright" unicode="&#xbb;" horiz-adv-x="838" 
d="M275 537h-241l210 -230l-210 -230h241l210 230zM603 537h-241l210 -230l-210 -230h241l210 230z" />
    <glyph glyph-name="onequarter" unicode="&#xbc;" horiz-adv-x="1093" 
d="M131 280v257q-43 -24 -115 -36v126q40 6 84.5 26.5t72.5 46.5h128v-420h-170zM350 0h-184l470 700h184zM1075 182v-113h-69v-69h-164v69h-276v91l288 260h152v-238h69zM757 182h85v88z" />
    <glyph glyph-name="onehalf" unicode="&#xbd;" horiz-adv-x="1125" 
d="M131 280v257q-43 -24 -115 -36v126q40 6 84.5 26.5t72.5 46.5h128v-420h-170zM350 0h-184l470 700h184zM656 348q39 37 99 61t128 24q35 0 73.5 -7t69.5 -23.5t49 -42.5t18 -60q0 -95 -142 -139q-35 -11 -66.5 -23.5t-40.5 -18.5h256v-119h-448v72q6 65 56.5 114
t138.5 75q52 15 63.5 21.5t11.5 14.5q0 9 -14 15t-34 6q-62 0 -133 -59z" />
    <glyph glyph-name="threequarters" unicode="&#xbe;" horiz-adv-x="1230" 
d="M108 433q61 -50 118 -50q34 0 50 10t16 24q0 27 -61 27h-72v100h72q27 0 39 8t12 18q0 27 -58 27q-57 0 -114 -50l-96 68q16 22 47 45.5t78 38t98 14.5q38 0 89.5 -8.5t90 -37t38.5 -73.5q0 -26 -12 -49t-33.5 -35t-42.5 -15q48 -9 76 -33.5t28 -63.5q0 -15 -6 -33.5
t-22 -35t-40 -29t-64.5 -23t-101.5 -10.5q-51 0 -98.5 14.5t-79 38t-48.5 45.5zM487 0h-184l470 700h184zM1212 182v-113h-69v-69h-164v69h-276v91l288 260h152v-238h69zM894 182h85v88z" />
    <glyph glyph-name="questiondown" unicode="&#xbf;" horiz-adv-x="786" 
d="M396 576q32 0 58.5 -9.5t47.5 -26.5t32 -41.5t11 -50.5q0 -19 -7.5 -41t-25 -41t-47 -32.5t-69.5 -13.5q-32 0 -58.5 9.5t-47.5 26.5t-32 41.5t-11 50.5q0 19 7.5 41t25 41t47 32.5t69.5 13.5zM497 301v-154q-93 -14 -134.5 -32.5t-41.5 -44.5q0 -12 9.5 -23t33 -17
t51.5 -6q117 0 218 90l132 -142q-86 -74 -172.5 -104t-188.5 -30q-87 0 -157.5 18t-119 48.5t-70 71.5t-21.5 84q0 54 28.5 93.5t84.5 65t140 31.5v51h208z" />
    <glyph glyph-name="Agrave" unicode="&#xc0;" horiz-adv-x="970" 
d="M618 780h-187l-247 180h314zM691 0l-49 110h-318l-49 -110h-290l348 700h304l348 -700h-294zM400 280h166l-83 186z" />
    <glyph glyph-name="Aacute" unicode="&#xc1;" horiz-adv-x="970" 
d="M786 960l-247 -180h-187l120 180h314zM691 0l-49 110h-318l-49 -110h-290l348 700h304l348 -700h-294zM400 280h166l-83 186z" />
    <glyph glyph-name="Acircumflex" unicode="&#xc2;" horiz-adv-x="970" 
d="M484 860l-64 -80h-221l146 180h280l146 -180h-223zM691 0l-49 110h-318l-49 -110h-290l348 700h304l348 -700h-294zM400 280h166l-83 186z" />
    <glyph glyph-name="Atilde" unicode="&#xc3;" horiz-adv-x="970" 
d="M391 802q-22 0 -46 -7.5t-61 -34.5l-89 173q29 28 72 43t94 15q52 0 112 -18t79 -20.5t28 -2.5q23 0 52.5 9t53.5 33l89 -173q-29 -28 -72 -43t-93 -15q-31 0 -59.5 5.5t-80 20.5t-79.5 15zM691 0l-49 110h-318l-49 -110h-290l348 700h304l348 -700h-294zM400 280h166
l-83 186z" />
    <glyph glyph-name="Adieresis" unicode="&#xc4;" horiz-adv-x="970" 
d="M337 770q-25 0 -53 9t-47.5 33.5t-19.5 57.5q0 46 33.5 72.5t86.5 26.5t86.5 -26.5t33.5 -72.5q0 -33 -19.5 -57.5t-47.5 -33.5t-53 -9zM633 770q-25 0 -53 9t-47.5 33.5t-19.5 57.5q0 46 33.5 72.5t86.5 26.5t86.5 -26.5t33.5 -72.5q0 -33 -19.5 -57.5t-47.5 -33.5
t-53 -9zM691 0l-49 110h-318l-49 -110h-290l348 700h304l348 -700h-294zM400 280h166l-83 186z" />
    <glyph glyph-name="Aring" unicode="&#xc5;" horiz-adv-x="970" 
d="M485 766q-86 0 -135 34t-49 95t49.5 96t134.5 35t134.5 -35t49.5 -96t-49 -95t-135 -34zM485 938q-21 0 -33 -12t-12 -31t12 -31t33 -12t33 12t12 31t-12 31t-33 12zM691 0l-49 110h-318l-49 -110h-290l348 700h304l348 -700h-294zM400 280h166l-83 186z" />
    <glyph glyph-name="AE" unicode="&#xc6;" horiz-adv-x="1493" 
d="M940 194h516v-194h-790v119h-291l-93 -119h-305l587 700h124h757v-194h-505v-65h406v-174h-406v-73zM507 289h159v204z" />
    <glyph glyph-name="Ccedilla" unicode="&#xc7;" horiz-adv-x="906" 
d="M492 190q57 0 104 23.5t78 71.5l225 -119q-48 -85 -158.5 -137.5t-254.5 -52.5q-98 0 -182.5 25t-145.5 72.5t-94.5 118.5t-33.5 158q0 42 11 93t41.5 99.5t84.5 90t140.5 66.5t188.5 25q136 0 244.5 -53t154.5 -135l-225 -119q-30 46 -76 69.5t-102 23.5q-80 0 -129 -43
t-49 -117t49 -117t129 -43zM605 -64l-165 -166l-159 43l99 153z" />
    <glyph glyph-name="Egrave" unicode="&#xc8;" horiz-adv-x="889" 
d="M148 960h314l120 -180h-187zM336 194h516v-194h-790v700h779v-194h-505v-65h406v-174h-406v-73z" />
    <glyph glyph-name="Eacute" unicode="&#xc9;" horiz-adv-x="889" 
d="M750 960l-247 -180h-187l120 180h314zM336 194h516v-194h-790v700h779v-194h-505v-65h406v-174h-406v-73z" />
    <glyph glyph-name="Ecircumflex" unicode="&#xca;" horiz-adv-x="889" 
d="M163 780h221l64 80l64 -80h223l-146 180h-280zM336 194h516v-194h-790v700h779v-194h-505v-65h406v-174h-406v-73z" />
    <glyph glyph-name="Edieresis" unicode="&#xcb;" horiz-adv-x="889" 
d="M301 770q-25 0 -53 9t-47.5 33.5t-19.5 57.5q0 46 33.5 72.5t86.5 26.5t86.5 -26.5t33.5 -72.5q0 -33 -19.5 -57.5t-47.5 -33.5t-53 -9zM597 770q-25 0 -53 9t-47.5 33.5t-19.5 57.5q0 46 33.5 72.5t86.5 26.5t86.5 -26.5t33.5 -72.5q0 -33 -19.5 -57.5t-47.5 -33.5
t-53 -9zM336 194h516v-194h-790v700h779v-194h-505v-65h406v-174h-406v-73z" />
    <glyph glyph-name="Igrave" unicode="&#xcc;" horiz-adv-x="404" 
d="M-99 960h314l120 -180h-187zM342 0h-280v700h280v-700z" />
    <glyph glyph-name="Iacute" unicode="&#xcd;" horiz-adv-x="404" 
d="M503 960l-247 -180h-187l120 180h314zM342 0h-280v700h280v-700z" />
    <glyph glyph-name="Icircumflex" unicode="&#xce;" horiz-adv-x="404" 
d="M-84 780h221l64 80l64 -80h223l-146 180h-280zM342 0h-280v700h280v-700z" />
    <glyph glyph-name="Idieresis" unicode="&#xcf;" horiz-adv-x="404" 
d="M54 770q-25 0 -53 9t-47.5 33.5t-19.5 57.5q0 46 33.5 72.5t86.5 26.5t86.5 -26.5t33.5 -72.5q0 -33 -19.5 -57.5t-47.5 -33.5t-53 -9zM350 770q-25 0 -53 9t-47.5 33.5t-19.5 57.5q0 46 33.5 72.5t86.5 26.5t86.5 -26.5t33.5 -72.5q0 -33 -19.5 -57.5t-47.5 -33.5
t-53 -9zM342 0h-280v700h280v-700z" />
    <glyph glyph-name="Eth" unicode="&#xd0;" horiz-adv-x="1011" 
d="M535 700q103 0 186.5 -23.5t141 -68.5t88 -110.5t30.5 -147.5t-30.5 -147.5t-88 -110.5t-141 -68.5t-186.5 -23.5h-430v286h-90v140h90v274h430zM507 203q90 0 139 38.5t49 108.5t-49 108.5t-139 38.5h-124v-71h158v-140h-158v-83h124z" />
    <glyph glyph-name="Ntilde" unicode="&#xd1;" horiz-adv-x="1004" 
d="M703 992l89 -173q-29 -28 -72 -43t-93 -15q-31 0 -59.5 5.5t-80 20.5t-79.5 15q-22 0 -46 -7.5t-61 -34.5l-89 173q29 28 72 43t94 15q52 0 112 -18t79 -20.5t28 -2.5q23 0 52.5 9t53.5 33zM672 700h270v-700h-246l-364 381v-381h-270v700h296l314 -337v337z" />
    <glyph glyph-name="Ograve" unicode="&#xd2;" horiz-adv-x="1012" 
d="M205 960h314l120 -180h-187zM506 -24q-78 0 -160 16.5t-151.5 58.5t-106 98.5t-47.5 107.5t-11 93q0 65 19.5 122t56.5 101.5t89 76t117.5 49.5t119.5 21.5t74 3.5q78 0 160 -16.5t151.5 -58.5t106 -98.5t47.5 -107.5t11 -93q0 -65 -19.5 -122t-56.5 -101.5t-89 -76
t-117.5 -49.5t-119.5 -21.5t-74 -3.5zM506 190q90 0 141 42.5t51 117.5t-51 117.5t-141 42.5t-141 -42.5t-51 -117.5t51 -117.5t141 -42.5z" />
    <glyph glyph-name="Oacute" unicode="&#xd3;" horiz-adv-x="1012" 
d="M807 960l-247 -180h-187l120 180h314zM506 -24q-78 0 -160 16.5t-151.5 58.5t-106 98.5t-47.5 107.5t-11 93q0 65 19.5 122t56.5 101.5t89 76t117.5 49.5t119.5 21.5t74 3.5q78 0 160 -16.5t151.5 -58.5t106 -98.5t47.5 -107.5t11 -93q0 -65 -19.5 -122t-56.5 -101.5
t-89 -76t-117.5 -49.5t-119.5 -21.5t-74 -3.5zM506 190q90 0 141 42.5t51 117.5t-51 117.5t-141 42.5t-141 -42.5t-51 -117.5t51 -117.5t141 -42.5z" />
    <glyph glyph-name="Ocircumflex" unicode="&#xd4;" horiz-adv-x="1012" 
d="M220 780h221l64 80l64 -80h223l-146 180h-280zM506 -24q-78 0 -160 16.5t-151.5 58.5t-106 98.5t-47.5 107.5t-11 93q0 65 19.5 122t56.5 101.5t89 76t117.5 49.5t119.5 21.5t74 3.5q78 0 160 -16.5t151.5 -58.5t106 -98.5t47.5 -107.5t11 -93q0 -65 -19.5 -122
t-56.5 -101.5t-89 -76t-117.5 -49.5t-119.5 -21.5t-74 -3.5zM506 190q90 0 141 42.5t51 117.5t-51 117.5t-141 42.5t-141 -42.5t-51 -117.5t51 -117.5t141 -42.5z" />
    <glyph glyph-name="Otilde" unicode="&#xd5;" horiz-adv-x="1012" 
d="M707 992l89 -173q-29 -28 -72 -43t-93 -15q-31 0 -59.5 5.5t-80 20.5t-79.5 15q-22 0 -46 -7.5t-61 -34.5l-89 173q29 28 72 43t94 15q52 0 112 -18t79 -20.5t28 -2.5q23 0 52.5 9t53.5 33zM506 -24q-78 0 -160 16.5t-151.5 58.5t-106 98.5t-47.5 107.5t-11 93
q0 65 19.5 122t56.5 101.5t89 76t117.5 49.5t119.5 21.5t74 3.5q78 0 160 -16.5t151.5 -58.5t106 -98.5t47.5 -107.5t11 -93q0 -65 -19.5 -122t-56.5 -101.5t-89 -76t-117.5 -49.5t-119.5 -21.5t-74 -3.5zM506 190q90 0 141 42.5t51 117.5t-51 117.5t-141 42.5t-141 -42.5
t-51 -117.5t51 -117.5t141 -42.5z" />
    <glyph glyph-name="Odieresis" unicode="&#xd6;" horiz-adv-x="1012" 
d="M358 770q-25 0 -53 9t-47.5 33.5t-19.5 57.5q0 46 33.5 72.5t86.5 26.5t86.5 -26.5t33.5 -72.5q0 -33 -19.5 -57.5t-47.5 -33.5t-53 -9zM654 770q-25 0 -53 9t-47.5 33.5t-19.5 57.5q0 46 33.5 72.5t86.5 26.5t86.5 -26.5t33.5 -72.5q0 -33 -19.5 -57.5t-47.5 -33.5
t-53 -9zM506 -24q-78 0 -160 16.5t-151.5 58.5t-106 98.5t-47.5 107.5t-11 93q0 65 19.5 122t56.5 101.5t89 76t117.5 49.5t119.5 21.5t74 3.5q78 0 160 -16.5t151.5 -58.5t106 -98.5t47.5 -107.5t11 -93q0 -65 -19.5 -122t-56.5 -101.5t-89 -76t-117.5 -49.5t-119.5 -21.5
t-74 -3.5zM506 190q90 0 141 42.5t51 117.5t-51 117.5t-141 42.5t-141 -42.5t-51 -117.5t51 -117.5t141 -42.5z" />
    <glyph glyph-name="multiply" unicode="&#xd7;" horiz-adv-x="732" 
d="M659 461l-153 -153l153 -153l-140 -140l-153 153l-153 -153l-140 140l153 153l-153 153l140 140l153 -153l153 153z" />
    <glyph glyph-name="Oslash" unicode="&#xd8;" horiz-adv-x="1012" 
d="M812 653q81 -47 125.5 -124.5t44.5 -178.5q0 -65 -19.5 -122t-56.5 -101.5t-89 -76t-117.5 -49.5t-119.5 -21.5t-74 -3.5q-101 0 -187 23l-74 -99h-155l110 147q-81 47 -125.5 124.5t-44.5 178.5q0 65 19.5 122t56.5 101.5t89 76t117.5 49.5t119.5 21.5t74 3.5
q101 0 187 -23l74 99h155zM314 350q0 -32 10.5 -59t26.5 -45l196 261q-19 3 -41 3q-90 0 -141 -42.5t-51 -117.5zM506 190q90 0 141 42.5t51 117.5q0 32 -10.5 59t-26.5 45l-196 -261q20 -3 41 -3z" />
    <glyph glyph-name="Ugrave" unicode="&#xd9;" horiz-adv-x="960" 
d="M179 960h314l120 -180h-187zM630 700h280v-370q0 -81 -29 -147t-84 -112t-136 -70.5t-181 -24.5t-181 24.5t-136 70.5t-84 112t-29 147v370h280v-348q0 -43 15.5 -81t51 -58.5t83.5 -20.5t83.5 20.5t51 58.5t15.5 81v348z" />
    <glyph glyph-name="Uacute" unicode="&#xda;" horiz-adv-x="960" 
d="M781 960l-247 -180h-187l120 180h314zM630 700h280v-370q0 -81 -29 -147t-84 -112t-136 -70.5t-181 -24.5t-181 24.5t-136 70.5t-84 112t-29 147v370h280v-348q0 -43 15.5 -81t51 -58.5t83.5 -20.5t83.5 20.5t51 58.5t15.5 81v348z" />
    <glyph glyph-name="Ucircumflex" unicode="&#xdb;" horiz-adv-x="960" 
d="M194 780h221l64 80l64 -80h223l-146 180h-280zM630 700h280v-370q0 -81 -29 -147t-84 -112t-136 -70.5t-181 -24.5t-181 24.5t-136 70.5t-84 112t-29 147v370h280v-348q0 -43 15.5 -81t51 -58.5t83.5 -20.5t83.5 20.5t51 58.5t15.5 81v348z" />
    <glyph glyph-name="Udieresis" unicode="&#xdc;" horiz-adv-x="960" 
d="M332 770q-25 0 -53 9t-47.5 33.5t-19.5 57.5q0 46 33.5 72.5t86.5 26.5t86.5 -26.5t33.5 -72.5q0 -33 -19.5 -57.5t-47.5 -33.5t-53 -9zM628 770q-25 0 -53 9t-47.5 33.5t-19.5 57.5q0 46 33.5 72.5t86.5 26.5t86.5 -26.5t33.5 -72.5q0 -33 -19.5 -57.5t-47.5 -33.5
t-53 -9zM630 700h280v-370q0 -81 -29 -147t-84 -112t-136 -70.5t-181 -24.5t-181 24.5t-136 70.5t-84 112t-29 147v370h280v-348q0 -43 15.5 -81t51 -58.5t83.5 -20.5t83.5 20.5t51 58.5t15.5 81v348z" />
    <glyph glyph-name="Yacute" unicode="&#xdd;" horiz-adv-x="878" 
d="M741 960l-247 -180h-187l120 180h314zM-15 700h306l149 -256l148 256h305l-314 -470v-230h-280v230z" />
    <glyph glyph-name="Thorn" unicode="&#xde;" horiz-adv-x="925" 
d="M558 614q77 0 141.5 -15.5t111 -47.5t72 -80.5t25.5 -111.5q0 -65 -25.5 -115.5t-72 -83t-111 -48.5t-141.5 -16h-216v-96h-280v700h280v-86h216zM535 279q41 0 66 19t25 57t-25 57t-66 19h-193v-152h193z" />
    <glyph glyph-name="germandbls" unicode="&#xdf;" horiz-adv-x="856" 
d="M386 165q32 -11 66 -11q25 0 49.5 8t38.5 27t14 42t-14 42t-39.5 27t-51.5 8h-46v146h28q42 0 66.5 20t24.5 51t-25 51t-64 20q-38 0 -64.5 -19.5t-36 -49.5t-9.5 -57v-470h-270v432q0 69 23.5 129.5t71 104.5t120 69t165.5 25q78 0 145 -17.5t114.5 -48.5t72.5 -70.5
t25 -80.5q0 -35 -20.5 -71.5t-62.5 -58.5t-91 -25q66 -5 114.5 -31.5t74.5 -65t26 -85.5q0 -42 -21 -81.5t-60.5 -69.5t-96.5 -47.5t-126 -17.5q-78 0 -162 20z" />
    <glyph glyph-name="agrave" unicode="&#xe0;" horiz-adv-x="790" 
d="M101 820h314l120 -180h-187zM379 582q84 0 152 -17.5t114.5 -52t71 -84.5t24.5 -113v-211q0 -58 23 -104h-270q-17 19 -17 42v3q-31 -30 -83.5 -47.5t-114.5 -17.5q-45 0 -90 10t-82.5 31.5t-60.5 58t-23 85.5q0 37 15.5 72t50 60t83.5 39t107 14q62 0 114.5 -17.5
t83.5 -47.5v34q0 40 -41 64t-114 24q-102 0 -196 -39l-45 165q58 23 141.5 36t156.5 13zM481 162v6q-16 17 -45.5 30t-69.5 13q-24 0 -44.5 -6t-29.5 -17.5t-9 -22.5t9 -22.5t29.5 -17.5t44.5 -6q31 0 62 10t53 33z" />
    <glyph glyph-name="aacute" unicode="&#xe1;" horiz-adv-x="790" 
d="M703 820l-247 -180h-187l120 180h314zM379 582q84 0 152 -17.5t114.5 -52t71 -84.5t24.5 -113v-211q0 -58 23 -104h-270q-17 19 -17 42v3q-31 -30 -83.5 -47.5t-114.5 -17.5q-45 0 -90 10t-82.5 31.5t-60.5 58t-23 85.5q0 37 15.5 72t50 60t83.5 39t107 14
q62 0 114.5 -17.5t83.5 -47.5v34q0 40 -41 64t-114 24q-102 0 -196 -39l-45 165q58 23 141.5 36t156.5 13zM481 162v6q-16 17 -45.5 30t-69.5 13q-24 0 -44.5 -6t-29.5 -17.5t-9 -22.5t9 -22.5t29.5 -17.5t44.5 -6q31 0 62 10t53 33z" />
    <glyph glyph-name="acircumflex" unicode="&#xe2;" horiz-adv-x="790" 
d="M116 640h221l64 80l64 -80h223l-146 180h-280zM379 582q84 0 152 -17.5t114.5 -52t71 -84.5t24.5 -113v-211q0 -58 23 -104h-270q-17 19 -17 42v3q-31 -30 -83.5 -47.5t-114.5 -17.5q-45 0 -90 10t-82.5 31.5t-60.5 58t-23 85.5q0 37 15.5 72t50 60t83.5 39t107 14
q62 0 114.5 -17.5t83.5 -47.5v34q0 40 -41 64t-114 24q-102 0 -196 -39l-45 165q58 23 141.5 36t156.5 13zM481 162v6q-16 17 -45.5 30t-69.5 13q-24 0 -44.5 -6t-29.5 -17.5t-9 -22.5t9 -22.5t29.5 -17.5t44.5 -6q31 0 62 10t53 33z" />
    <glyph glyph-name="atilde" unicode="&#xe3;" horiz-adv-x="790" 
d="M603 852l89 -173q-29 -28 -72 -43t-93 -15q-31 0 -59.5 5.5t-80 20.5t-79.5 15q-22 0 -46 -7.5t-61 -34.5l-89 173q29 28 72 43t94 15q52 0 112 -18t79 -20.5t28 -2.5q23 0 52.5 9t53.5 33zM379 582q84 0 152 -17.5t114.5 -52t71 -84.5t24.5 -113v-211q0 -58 23 -104
h-270q-17 19 -17 42v3q-31 -30 -83.5 -47.5t-114.5 -17.5q-45 0 -90 10t-82.5 31.5t-60.5 58t-23 85.5q0 37 15.5 72t50 60t83.5 39t107 14q62 0 114.5 -17.5t83.5 -47.5v34q0 40 -41 64t-114 24q-102 0 -196 -39l-45 165q58 23 141.5 36t156.5 13zM481 162v6
q-16 17 -45.5 30t-69.5 13q-24 0 -44.5 -6t-29.5 -17.5t-9 -22.5t9 -22.5t29.5 -17.5t44.5 -6q31 0 62 10t53 33z" />
    <glyph glyph-name="adieresis" unicode="&#xe4;" horiz-adv-x="790" 
d="M254 630q-25 0 -53 9t-47.5 33.5t-19.5 57.5q0 46 33.5 72.5t86.5 26.5t86.5 -26.5t33.5 -72.5q0 -33 -19.5 -57.5t-47.5 -33.5t-53 -9zM550 630q-25 0 -53 9t-47.5 33.5t-19.5 57.5q0 46 33.5 72.5t86.5 26.5t86.5 -26.5t33.5 -72.5q0 -33 -19.5 -57.5t-47.5 -33.5
t-53 -9zM379 582q84 0 152 -17.5t114.5 -52t71 -84.5t24.5 -113v-211q0 -58 23 -104h-270q-17 19 -17 42v3q-31 -30 -83.5 -47.5t-114.5 -17.5q-45 0 -90 10t-82.5 31.5t-60.5 58t-23 85.5q0 37 15.5 72t50 60t83.5 39t107 14q62 0 114.5 -17.5t83.5 -47.5v34q0 40 -41 64
t-114 24q-102 0 -196 -39l-45 165q58 23 141.5 36t156.5 13zM481 162v6q-16 17 -45.5 30t-69.5 13q-24 0 -44.5 -6t-29.5 -17.5t-9 -22.5t9 -22.5t29.5 -17.5t44.5 -6q31 0 62 10t53 33z" />
    <glyph glyph-name="aring" unicode="&#xe5;" horiz-adv-x="790" 
d="M402 626q-86 0 -135 34t-49 95t49.5 96t134.5 35t134.5 -35t49.5 -96t-49 -95t-135 -34zM357 755q0 -19 12 -31t33 -12t33 12t12 31t-12 31t-33 12t-33 -12t-12 -31zM379 582q84 0 152 -17.5t114.5 -52t71 -84.5t24.5 -113v-211q0 -58 23 -104h-270q-17 19 -17 42v3
q-31 -30 -83.5 -47.5t-114.5 -17.5q-45 0 -90 10t-82.5 31.5t-60.5 58t-23 85.5q0 37 15.5 72t50 60t83.5 39t107 14q62 0 114.5 -17.5t83.5 -47.5v34q0 40 -41 64t-114 24q-102 0 -196 -39l-45 165q58 23 141.5 36t156.5 13zM481 162v6q-16 17 -45.5 30t-69.5 13
q-24 0 -44.5 -6t-29.5 -17.5t-9 -22.5t9 -22.5t29.5 -17.5t44.5 -6q31 0 62 10t53 33z" />
    <glyph glyph-name="ae" unicode="&#xe6;" horiz-adv-x="1232" 
d="M732 225q14 -39 52.5 -56t103.5 -17q42 0 81.5 8.5t87.5 41.5l130 -129q-113 -97 -314 -97q-48 0 -106 8t-112.5 30t-90.5 55q-23 -21 -66 -42.5t-102.5 -34t-111.5 -12.5q-47 0 -93 10t-84 31.5t-61 58t-23 85.5q0 37 15.5 72t50 60t83.5 39t107 14q62 0 115 -17.5
t84 -47.5v34q0 42 -42.5 65t-113.5 23q-102 0 -197 -39l-44 165q58 23 141 36t157 13q146 0 232 -54q96 56 241 56q74 0 139.5 -18.5t114 -56t75.5 -93.5t27 -127q0 -37 -8 -64h-468zM854 412q-44 0 -75.5 -18t-44.5 -53h235q-25 71 -115 71zM482 162v6q-16 17 -45.5 30
t-70.5 13q-23 0 -44 -6t-30 -17.5t-9 -22.5t9 -22.5t30 -17.5t44 -6q31 0 62.5 10t53.5 33z" />
    <glyph glyph-name="ccedilla" unicode="&#xe7;" horiz-adv-x="743" 
d="M735 149q-28 -56 -75.5 -94t-112 -58.5t-146.5 -20.5q-84 0 -154 21t-119 61t-75.5 96.5t-26.5 125.5t26.5 125.5t75.5 96.5t119 61t154 21q66 0 133 -17t118.5 -58.5t78.5 -95.5l-215 -88q-31 63 -112 63q-26 0 -55.5 -9.5t-49 -36t-19.5 -62.5t19.5 -62.5t49 -36
t55.5 -9.5q83 0 116 65zM522 -64l-165 -166l-159 43l99 153z" />
    <glyph glyph-name="egrave" unicode="&#xe8;" horiz-adv-x="780" 
d="M533 640h-187l-247 180h314zM281 225q14 -39 52 -56t103 -17q42 0 81.5 8.5t88.5 41.5l128 -129q-28 -25 -73 -48.5t-107 -36t-133 -12.5q-92 0 -166 20.5t-125 60t-77.5 96.5t-26.5 127q0 69 26 126t75 96.5t118.5 60.5t154.5 21q74 0 139.5 -18.5t114 -56t75.5 -93.5
t27 -127q0 -37 -8 -64h-467zM402 412q-43 0 -73.5 -16.5t-44.5 -50.5h231q-26 67 -113 67z" />
    <glyph glyph-name="eacute" unicode="&#xe9;" horiz-adv-x="780" 
d="M701 820l-247 -180h-187l120 180h314zM281 225q14 -39 52 -56t103 -17q42 0 81.5 8.5t88.5 41.5l128 -129q-28 -25 -73 -48.5t-107 -36t-133 -12.5q-92 0 -166 20.5t-125 60t-77.5 96.5t-26.5 127q0 69 26 126t75 96.5t118.5 60.5t154.5 21q74 0 139.5 -18.5t114 -56
t75.5 -93.5t27 -127q0 -37 -8 -64h-467zM402 412q-43 0 -73.5 -16.5t-44.5 -50.5h231q-26 67 -113 67z" />
    <glyph glyph-name="ecircumflex" unicode="&#xea;" horiz-adv-x="780" 
d="M399 720l-64 -80h-221l146 180h280l146 -180h-223zM281 225q14 -39 52 -56t103 -17q42 0 81.5 8.5t88.5 41.5l128 -129q-28 -25 -73 -48.5t-107 -36t-133 -12.5q-92 0 -166 20.5t-125 60t-77.5 96.5t-26.5 127q0 69 26 126t75 96.5t118.5 60.5t154.5 21q74 0 139.5 -18.5
t114 -56t75.5 -93.5t27 -127q0 -37 -8 -64h-467zM402 412q-43 0 -73.5 -16.5t-44.5 -50.5h231q-26 67 -113 67z" />
    <glyph glyph-name="edieresis" unicode="&#xeb;" horiz-adv-x="780" 
d="M252 630q-25 0 -53 9t-47.5 33.5t-19.5 57.5q0 46 33.5 72.5t86.5 26.5t86.5 -26.5t33.5 -72.5q0 -33 -19.5 -57.5t-47.5 -33.5t-53 -9zM548 630q-25 0 -53 9t-47.5 33.5t-19.5 57.5q0 46 33.5 72.5t86.5 26.5t86.5 -26.5t33.5 -72.5q0 -33 -19.5 -57.5t-47.5 -33.5
t-53 -9zM281 225q14 -39 52 -56t103 -17q42 0 81.5 8.5t88.5 41.5l128 -129q-28 -25 -73 -48.5t-107 -36t-133 -12.5q-92 0 -166 20.5t-125 60t-77.5 96.5t-26.5 127q0 69 26 126t75 96.5t118.5 60.5t154.5 21q74 0 139.5 -18.5t114 -56t75.5 -93.5t27 -127q0 -37 -8 -64
h-467zM402 412q-43 0 -73.5 -16.5t-44.5 -50.5h231q-26 67 -113 67z" />
    <glyph glyph-name="igrave" unicode="&#xec;" horiz-adv-x="376" 
d="M-113 820h314l120 -180h-187zM323 560v-560h-270v560h270z" />
    <glyph glyph-name="iacute" unicode="&#xed;" horiz-adv-x="376" 
d="M489 820l-247 -180h-187l120 180h314zM323 560v-560h-270v560h270z" />
    <glyph glyph-name="icircumflex" unicode="&#xee;" horiz-adv-x="376" 
d="M-98 640h221l64 80l64 -80h223l-146 180h-280zM323 560v-560h-270v560h270z" />
    <glyph glyph-name="idieresis" unicode="&#xef;" horiz-adv-x="376" 
d="M40 630q-25 0 -53 9t-47.5 33.5t-19.5 57.5q0 46 33.5 72.5t86.5 26.5t86.5 -26.5t33.5 -72.5q0 -33 -19.5 -57.5t-47.5 -33.5t-53 -9zM336 630q-25 0 -53 9t-47.5 33.5t-19.5 57.5q0 46 33.5 72.5t86.5 26.5t86.5 -26.5t33.5 -72.5q0 -33 -19.5 -57.5t-47.5 -33.5
t-53 -9zM323 560v-560h-270v560h270z" />
    <glyph glyph-name="eth" unicode="&#xf0;" horiz-adv-x="812" 
d="M590 654q99 -66 147.5 -159.5t48.5 -194.5q0 -80 -27.5 -142t-78 -102.5t-120.5 -61t-154 -20.5q-83 0 -153.5 18t-121 53t-78 87.5t-27.5 117.5q0 51 19 97t65.5 83t121.5 52l-37 58l62 32q-37 7 -85 10l33 185q175 -12 299 -66l131 68l44 -69zM303 489
q64 0 132.5 -19.5t100.5 -55.5q-20 35 -63 68.5t-102 57.5l-100 -52zM406 164q42 0 72.5 12.5t42 33t11.5 40.5t-11.5 40.5t-42 33t-72.5 12.5t-72.5 -12.5t-42 -33t-11.5 -40.5t11.5 -40.5t42 -33t72.5 -12.5z" />
    <glyph glyph-name="ntilde" unicode="&#xf1;" horiz-adv-x="820" 
d="M614 852l89 -173q-29 -28 -72 -43t-93 -15q-31 0 -59.5 5.5t-80 20.5t-79.5 15q-22 0 -46 -7.5t-61 -34.5l-89 173q29 28 72 43t94 15q52 0 112 -18t79 -20.5t28 -2.5q23 0 52.5 9t53.5 33zM323 0h-270v560h270v-74q76 94 206 94q56 0 102 -18t78 -50.5t48.5 -77.5
t16.5 -97v-337h-270v321q0 30 -20.5 49.5t-53.5 19.5q-57 0 -107 -66v-324z" />
    <glyph glyph-name="ograve" unicode="&#xf2;" horiz-adv-x="812" 
d="M105 820h314l120 -180h-187zM406 -24q-85 0 -155.5 21t-120.5 60.5t-77 96.5t-27 126t27 126t77 96.5t120.5 60.5t155.5 21t155.5 -21t120.5 -60.5t77 -96.5t27 -126t-27 -126t-77 -96.5t-120.5 -60.5t-155.5 -21zM406 172q56 0 91 29.5t35 78.5t-35 78.5t-91 29.5
q-55 0 -90.5 -29.5t-35.5 -78.5t35.5 -78.5t90.5 -29.5z" />
    <glyph glyph-name="oacute" unicode="&#xf3;" horiz-adv-x="812" 
d="M707 820l-247 -180h-187l120 180h314zM406 -24q-85 0 -155.5 21t-120.5 60.5t-77 96.5t-27 126t27 126t77 96.5t120.5 60.5t155.5 21t155.5 -21t120.5 -60.5t77 -96.5t27 -126t-27 -126t-77 -96.5t-120.5 -60.5t-155.5 -21zM406 172q56 0 91 29.5t35 78.5t-35 78.5
t-91 29.5q-55 0 -90.5 -29.5t-35.5 -78.5t35.5 -78.5t90.5 -29.5z" />
    <glyph glyph-name="ocircumflex" unicode="&#xf4;" horiz-adv-x="812" 
d="M120 640h221l64 80l64 -80h223l-146 180h-280zM406 -24q-85 0 -155.5 21t-120.5 60.5t-77 96.5t-27 126t27 126t77 96.5t120.5 60.5t155.5 21t155.5 -21t120.5 -60.5t77 -96.5t27 -126t-27 -126t-77 -96.5t-120.5 -60.5t-155.5 -21zM406 172q56 0 91 29.5t35 78.5
t-35 78.5t-91 29.5q-55 0 -90.5 -29.5t-35.5 -78.5t35.5 -78.5t90.5 -29.5z" />
    <glyph glyph-name="otilde" unicode="&#xf5;" horiz-adv-x="812" 
d="M607 852l89 -173q-29 -28 -72 -43t-93 -15q-31 0 -59.5 5.5t-80 20.5t-79.5 15q-22 0 -46 -7.5t-61 -34.5l-89 173q29 28 72 43t94 15q52 0 112 -18t79 -20.5t28 -2.5q23 0 52.5 9t53.5 33zM406 -24q-85 0 -155.5 21t-120.5 60.5t-77 96.5t-27 126t27 126t77 96.5
t120.5 60.5t155.5 21t155.5 -21t120.5 -60.5t77 -96.5t27 -126t-27 -126t-77 -96.5t-120.5 -60.5t-155.5 -21zM406 172q56 0 91 29.5t35 78.5t-35 78.5t-91 29.5q-55 0 -90.5 -29.5t-35.5 -78.5t35.5 -78.5t90.5 -29.5z" />
    <glyph glyph-name="odieresis" unicode="&#xf6;" horiz-adv-x="812" 
d="M258 630q-25 0 -53 9t-47.5 33.5t-19.5 57.5q0 46 33.5 72.5t86.5 26.5t86.5 -26.5t33.5 -72.5q0 -33 -19.5 -57.5t-47.5 -33.5t-53 -9zM554 630q-25 0 -53 9t-47.5 33.5t-19.5 57.5q0 46 33.5 72.5t86.5 26.5t86.5 -26.5t33.5 -72.5q0 -33 -19.5 -57.5t-47.5 -33.5
t-53 -9zM406 -24q-85 0 -155.5 21t-120.5 60.5t-77 96.5t-27 126t27 126t77 96.5t120.5 60.5t155.5 21t155.5 -21t120.5 -60.5t77 -96.5t27 -126t-27 -126t-77 -96.5t-120.5 -60.5t-155.5 -21zM406 172q56 0 91 29.5t35 78.5t-35 78.5t-91 29.5q-55 0 -90.5 -29.5
t-35.5 -78.5t35.5 -78.5t90.5 -29.5z" />
    <glyph glyph-name="divide" unicode="&#xf7;" horiz-adv-x="732" 
d="M363 442q-44 0 -76 16.5t-43.5 39.5t-11.5 41q0 41 35.5 69t95.5 28q44 0 76 -16.5t43.5 -39.5t11.5 -41q0 -41 -35.5 -69t-95.5 -28zM682 206h-632v200h632v-200zM363 -24q-44 0 -76 16.5t-43.5 39.5t-11.5 41q0 41 35.5 69t95.5 28q44 0 76 -16.5t43.5 -39.5t11.5 -41
q0 -41 -35.5 -69t-95.5 -28z" />
    <glyph glyph-name="oslash" unicode="&#xf8;" horiz-adv-x="812" 
d="M625 539q77 -38 119 -104.5t42 -154.5q0 -69 -27 -126t-77 -96.5t-120.5 -60.5t-155.5 -21q-80 0 -146 18l-63 -94h-111l86 129q-32 18 -66.5 50.5t-57 84.5t-22.5 116q0 69 27 126t77 96.5t120.5 60.5t155.5 21q68 0 129 -14l60 90h111zM280 280q0 -35 19 -62l114 170
h-7q-55 0 -90.5 -29.5t-35.5 -78.5zM406 172q56 0 91 29.5t35 78.5q0 22 -8 42t-22 33l-122 -181z" />
    <glyph glyph-name="ugrave" unicode="&#xf9;" horiz-adv-x="820" 
d="M96 820h314l120 -180h-187zM497 560h270v-560h-270v74q-76 -94 -206 -94q-56 0 -102 18t-78 50.5t-48.5 77.5t-16.5 97v337h270v-321q0 -30 20.5 -49.5t53.5 -19.5q58 0 107 66v324z" />
    <glyph glyph-name="uacute" unicode="&#xfa;" horiz-adv-x="820" 
d="M698 820l-247 -180h-187l120 180h314zM497 560h270v-560h-270v74q-76 -94 -206 -94q-56 0 -102 18t-78 50.5t-48.5 77.5t-16.5 97v337h270v-321q0 -30 20.5 -49.5t53.5 -19.5q58 0 107 66v324z" />
    <glyph glyph-name="ucircumflex" unicode="&#xfb;" horiz-adv-x="820" 
d="M111 640h221l64 80l64 -80h223l-146 180h-280zM497 560h270v-560h-270v74q-76 -94 -206 -94q-56 0 -102 18t-78 50.5t-48.5 77.5t-16.5 97v337h270v-321q0 -30 20.5 -49.5t53.5 -19.5q58 0 107 66v324z" />
    <glyph glyph-name="udieresis" unicode="&#xfc;" horiz-adv-x="820" 
d="M249 630q-25 0 -53 9t-47.5 33.5t-19.5 57.5q0 46 33.5 72.5t86.5 26.5t86.5 -26.5t33.5 -72.5q0 -33 -19.5 -57.5t-47.5 -33.5t-53 -9zM545 630q-25 0 -53 9t-47.5 33.5t-19.5 57.5q0 46 33.5 72.5t86.5 26.5t86.5 -26.5t33.5 -72.5q0 -33 -19.5 -57.5t-47.5 -33.5
t-53 -9zM497 560h270v-560h-270v74q-76 -94 -206 -94q-56 0 -102 18t-78 50.5t-48.5 77.5t-16.5 97v337h270v-321q0 -30 20.5 -49.5t53.5 -19.5q58 0 107 66v324z" />
    <glyph glyph-name="yacute" unicode="&#xfd;" horiz-adv-x="768" 
d="M687 820l-247 -180h-187l120 180h314zM506 560h269l-365 -760h-269l116 227l-264 533h273l124 -296z" />
    <glyph glyph-name="thorn" unicode="&#xfe;" 
d="M530 580q64 0 117.5 -20.5t92 -59t59 -95t20.5 -125.5t-20.5 -125.5t-59 -95t-92 -59t-117.5 -20.5q-63 0 -116 21t-91 66v-267h-270v940h270v-247q38 45 91 66t116 21zM448 170q26 0 54 10t45.5 37t17.5 63t-17.5 63t-45.5 37t-54 10q-78 0 -125 -60v-100
q47 -60 125 -60z" />
    <glyph glyph-name="ydieresis" unicode="&#xff;" horiz-adv-x="768" 
d="M238 630q-25 0 -53 9t-47.5 33.5t-19.5 57.5q0 46 33.5 72.5t86.5 26.5t86.5 -26.5t33.5 -72.5q0 -33 -19.5 -57.5t-47.5 -33.5t-53 -9zM534 630q-25 0 -53 9t-47.5 33.5t-19.5 57.5q0 46 33.5 72.5t86.5 26.5t86.5 -26.5t33.5 -72.5q0 -33 -19.5 -57.5t-47.5 -33.5
t-53 -9zM506 560h269l-365 -760h-269l116 227l-264 533h273l124 -296z" />
    <glyph glyph-name="Amacron" unicode="&#x100;" horiz-adv-x="970" 
d="M743 960v-172h-516v172h516zM691 0l-49 110h-318l-49 -110h-290l348 700h304l348 -700h-294zM400 280h166l-83 186z" />
    <glyph glyph-name="amacron" unicode="&#x101;" horiz-adv-x="790" 
d="M144 820h516v-172h-516v172zM379 582q84 0 152 -17.5t114.5 -52t71 -84.5t24.5 -113v-211q0 -58 23 -104h-270q-17 19 -17 42v3q-31 -30 -83.5 -47.5t-114.5 -17.5q-45 0 -90 10t-82.5 31.5t-60.5 58t-23 85.5q0 37 15.5 72t50 60t83.5 39t107 14q62 0 114.5 -17.5
t83.5 -47.5v34q0 40 -41 64t-114 24q-102 0 -196 -39l-45 165q58 23 141.5 36t156.5 13zM481 162v6q-16 17 -45.5 30t-69.5 13q-24 0 -44.5 -6t-29.5 -17.5t-9 -22.5t9 -22.5t29.5 -17.5t44.5 -6q31 0 62 10t53 33z" />
    <glyph glyph-name="Abreve" unicode="&#x102;" horiz-adv-x="970" 
d="M485 770q-58 0 -101 18.5t-69 47.5t-38 62t-12 62h150q4 -24 22.5 -41t47.5 -17t47.5 17t22.5 41h150q0 -29 -12 -62t-38 -62t-69 -47.5t-101 -18.5zM691 0l-49 110h-318l-49 -110h-290l348 700h304l348 -700h-294zM400 280h166l-83 186z" />
    <glyph glyph-name="abreve" unicode="&#x103;" horiz-adv-x="790" 
d="M622 820q0 -29 -12 -62t-38 -62t-69 -47.5t-101 -18.5t-101 18.5t-69 47.5t-38 62t-12 62h150q4 -24 22.5 -41t47.5 -17t47.5 17t22.5 41h150zM379 582q84 0 152 -17.5t114.5 -52t71 -84.5t24.5 -113v-211q0 -58 23 -104h-270q-17 19 -17 42v3q-31 -30 -83.5 -47.5
t-114.5 -17.5q-45 0 -90 10t-82.5 31.5t-60.5 58t-23 85.5q0 37 15.5 72t50 60t83.5 39t107 14q62 0 114.5 -17.5t83.5 -47.5v34q0 40 -41 64t-114 24q-102 0 -196 -39l-45 165q58 23 141.5 36t156.5 13zM481 162v6q-16 17 -45.5 30t-69.5 13q-24 0 -44.5 -6t-29.5 -17.5
t-9 -22.5t9 -22.5t29.5 -17.5t44.5 -6q31 0 62 10t53 33z" />
    <glyph glyph-name="Aogonek" unicode="&#x104;" horiz-adv-x="970" 
d="M1001 -136l40 -48q-13 -20 -37.5 -38.5t-58.5 -26.5t-65 -8q-33 0 -74.5 10.5t-72 41t-30.5 76.5q0 30 15.5 58t42.5 45.5t54 25.5h-124l-49 110h-318l-49 -110h-290l348 700h304l348 -700q-29 -12 -56 -32.5t-38.5 -41.5t-11.5 -37q0 -23 16.5 -38t43.5 -15q17 0 33 7
t29 21zM400 280h166l-83 186z" />
    <glyph glyph-name="aogonek" unicode="&#x105;" horiz-adv-x="790" 
d="M780 -136l40 -48q-13 -20 -37.5 -38.5t-58.5 -26.5t-65 -8q-33 0 -74.5 10.5t-72 41t-30.5 76.5q0 30 15.5 58t42.5 45.5t54 25.5h-100q-17 19 -17 42v3q-31 -30 -83.5 -47.5t-114.5 -17.5q-45 0 -90 10t-82.5 31.5t-60.5 58t-23 85.5q0 37 15.5 72t50 60t83.5 39t107 14
q62 0 114.5 -17.5t83.5 -47.5v34q0 40 -41 64t-114 24q-102 0 -196 -39l-45 165q58 23 141.5 36t156.5 13q84 0 152 -17.5t114.5 -52t71 -84.5t24.5 -113v-211q0 -58 23 -104q-29 -12 -56 -32.5t-38.5 -41.5t-11.5 -37q0 -23 16.5 -38t43.5 -15q17 0 33 7t29 21zM481 162v6
q-16 17 -45.5 30t-69.5 13q-24 0 -44.5 -6t-29.5 -17.5t-9 -22.5t9 -22.5t29.5 -17.5t44.5 -6q31 0 62 10t53 33z" />
    <glyph glyph-name="Cacute" unicode="&#x106;" horiz-adv-x="906" 
d="M777 960l-247 -180h-187l120 180h314zM492 190q57 0 104 23.5t78 71.5l225 -119q-48 -85 -158.5 -137.5t-254.5 -52.5q-98 0 -182.5 25t-145.5 72.5t-94.5 118.5t-33.5 158q0 42 11 93t41.5 99.5t84.5 90t140.5 66.5t188.5 25q136 0 244.5 -53t154.5 -135l-225 -119
q-30 46 -76 69.5t-102 23.5q-80 0 -129 -43t-49 -117t49 -117t129 -43z" />
    <glyph glyph-name="cacute" unicode="&#x107;" horiz-adv-x="743" 
d="M694 820l-247 -180h-187l120 180h314zM735 149q-28 -56 -75.5 -94t-112 -58.5t-146.5 -20.5q-84 0 -154 21t-119 61t-75.5 96.5t-26.5 125.5t26.5 125.5t75.5 96.5t119 61t154 21q66 0 133 -17t118.5 -58.5t78.5 -95.5l-215 -88q-31 63 -112 63q-26 0 -55.5 -9.5t-49 -36
t-19.5 -62.5t19.5 -62.5t49 -36t55.5 -9.5q83 0 116 65z" />
    <glyph glyph-name="Ccircumflex" unicode="&#x108;" horiz-adv-x="906" 
d="M190 780h221l64 80l64 -80h223l-146 180h-280zM492 190q57 0 104 23.5t78 71.5l225 -119q-48 -85 -158.5 -137.5t-254.5 -52.5q-98 0 -182.5 25t-145.5 72.5t-94.5 118.5t-33.5 158q0 42 11 93t41.5 99.5t84.5 90t140.5 66.5t188.5 25q136 0 244.5 -53t154.5 -135
l-225 -119q-30 46 -76 69.5t-102 23.5q-80 0 -129 -43t-49 -117t49 -117t129 -43z" />
    <glyph glyph-name="ccircumflex" unicode="&#x109;" horiz-adv-x="743" 
d="M107 640h221l64 80l64 -80h223l-146 180h-280zM735 149q-28 -56 -75.5 -94t-112 -58.5t-146.5 -20.5q-84 0 -154 21t-119 61t-75.5 96.5t-26.5 125.5t26.5 125.5t75.5 96.5t119 61t154 21q66 0 133 -17t118.5 -58.5t78.5 -95.5l-215 -88q-31 63 -112 63q-26 0 -55.5 -9.5
t-49 -36t-19.5 -62.5t19.5 -62.5t49 -36t55.5 -9.5q83 0 116 65z" />
    <glyph glyph-name="Cdotaccent" unicode="&#x10a;" horiz-adv-x="906" 
d="M476 770q-25 0 -53 9t-47.5 33.5t-19.5 57.5q0 46 33.5 72.5t86.5 26.5t86.5 -26.5t33.5 -72.5q0 -33 -19.5 -57.5t-47.5 -33.5t-53 -9zM492 190q57 0 104 23.5t78 71.5l225 -119q-48 -85 -158.5 -137.5t-254.5 -52.5q-98 0 -182.5 25t-145.5 72.5t-94.5 118.5t-33.5 158
q0 42 11 93t41.5 99.5t84.5 90t140.5 66.5t188.5 25q136 0 244.5 -53t154.5 -135l-225 -119q-30 46 -76 69.5t-102 23.5q-80 0 -129 -43t-49 -117t49 -117t129 -43z" />
    <glyph glyph-name="cdotaccent" unicode="&#x10b;" horiz-adv-x="743" 
d="M393 630q-25 0 -53 9t-47.5 33.5t-19.5 57.5q0 46 33.5 72.5t86.5 26.5t86.5 -26.5t33.5 -72.5q0 -33 -19.5 -57.5t-47.5 -33.5t-53 -9zM735 149q-28 -56 -75.5 -94t-112 -58.5t-146.5 -20.5q-84 0 -154 21t-119 61t-75.5 96.5t-26.5 125.5t26.5 125.5t75.5 96.5t119 61
t154 21q66 0 133 -17t118.5 -58.5t78.5 -95.5l-215 -88q-31 63 -112 63q-26 0 -55.5 -9.5t-49 -36t-19.5 -62.5t19.5 -62.5t49 -36t55.5 -9.5q83 0 116 65z" />
    <glyph glyph-name="Ccaron" unicode="&#x10c;" horiz-adv-x="906" 
d="M190 960l146 -180h280l146 180h-221l-64 -80l-64 80h-223zM492 190q57 0 104 23.5t78 71.5l225 -119q-48 -85 -158.5 -137.5t-254.5 -52.5q-98 0 -182.5 25t-145.5 72.5t-94.5 118.5t-33.5 158q0 42 11 93t41.5 99.5t84.5 90t140.5 66.5t188.5 25q136 0 244.5 -53
t154.5 -135l-225 -119q-30 46 -76 69.5t-102 23.5q-80 0 -129 -43t-49 -117t49 -117t129 -43z" />
    <glyph glyph-name="ccaron" unicode="&#x10d;" horiz-adv-x="743" 
d="M107 820l146 -180h280l146 180h-221l-64 -80l-64 80h-223zM735 149q-28 -56 -75.5 -94t-112 -58.5t-146.5 -20.5q-84 0 -154 21t-119 61t-75.5 96.5t-26.5 125.5t26.5 125.5t75.5 96.5t119 61t154 21q66 0 133 -17t118.5 -58.5t78.5 -95.5l-215 -88q-31 63 -112 63
q-26 0 -55.5 -9.5t-49 -36t-19.5 -62.5t19.5 -62.5t49 -36t55.5 -9.5q83 0 116 65z" />
    <glyph glyph-name="Dcaron" unicode="&#x10e;" horiz-adv-x="968" 
d="M170 960l146 -180h280l146 180h-221l-64 -80l-64 80h-223zM486 700q102 0 186 -23.5t143.5 -68.5t91 -111t31.5 -147t-31.5 -147t-91 -111t-143.5 -68.5t-186 -23.5h-424v700h424zM462 208q90 0 140 37.5t50 104.5t-50 104.5t-140 37.5h-120v-284h120z" />
    <glyph glyph-name="dcaron" unicode="&#x10f;" horiz-adv-x="1095" 
d="M315 580q63 0 116 -21t91 -66v247h270v-740h-270v67q-38 -45 -91 -66t-116 -21q-64 0 -117.5 20.5t-92 59t-59 95t-20.5 125.5t20.5 125.5t59 95t92 59t117.5 20.5zM955 716q45 0 83 -22.5t56.5 -62.5t18.5 -80q0 -52 -25.5 -106.5t-70 -100t-107.5 -76.5l-48 76
q94 53 121 126q-10 -10 -35 -10q-27 0 -59 12.5t-55.5 44.5t-23.5 71q0 33 16.5 60.5t50 47.5t78.5 20zM397 170q78 0 125 60v100q-47 60 -125 60q-26 0 -54 -10t-45.5 -37t-17.5 -63t17.5 -63t45.5 -37t54 -10z" />
    <glyph glyph-name="Dcroat" unicode="&#x110;" horiz-adv-x="1011" 
d="M535 700q103 0 186.5 -23.5t141 -68.5t88 -110.5t30.5 -147.5t-30.5 -147.5t-88 -110.5t-141 -68.5t-186.5 -23.5h-430v286h-90v140h90v274h430zM507 203q90 0 139 38.5t49 108.5t-49 108.5t-139 38.5h-124v-71h158v-140h-158v-83h124z" />
    <glyph glyph-name="dcroat" unicode="&#x111;" horiz-adv-x="828" 
d="M855 675v-90h-63v-585h-270v67q-38 -45 -91 -66t-116 -21q-64 0 -117.5 20.5t-92 59t-59 95t-20.5 125.5t20.5 125.5t59 95t92 59t117.5 20.5q63 0 116 -21t91 -66v92h-143v90h143v65h270v-65h63zM522 230v100q-47 60 -125 60q-26 0 -54 -10t-45.5 -37t-17.5 -63
t17.5 -63t45.5 -37t54 -10q78 0 125 60z" />
    <glyph glyph-name="Emacron" unicode="&#x112;" horiz-adv-x="889" 
d="M191 960h516v-172h-516v172zM336 194h516v-194h-790v700h779v-194h-505v-65h406v-174h-406v-73z" />
    <glyph glyph-name="emacron" unicode="&#x113;" horiz-adv-x="780" 
d="M658 820v-172h-516v172h516zM281 225q14 -39 52 -56t103 -17q42 0 81.5 8.5t88.5 41.5l128 -129q-28 -25 -73 -48.5t-107 -36t-133 -12.5q-92 0 -166 20.5t-125 60t-77.5 96.5t-26.5 127q0 69 26 126t75 96.5t118.5 60.5t154.5 21q74 0 139.5 -18.5t114 -56t75.5 -93.5
t27 -127q0 -37 -8 -64h-467zM402 412q-43 0 -73.5 -16.5t-44.5 -50.5h231q-26 67 -113 67z" />
    <glyph glyph-name="Ebreve" unicode="&#x114;" horiz-adv-x="889" 
d="M669 960q0 -29 -12 -62t-38 -62t-69 -47.5t-101 -18.5t-101 18.5t-69 47.5t-38 62t-12 62h150q4 -24 22.5 -41t47.5 -17t47.5 17t22.5 41h150zM336 194h516v-194h-790v700h779v-194h-505v-65h406v-174h-406v-73z" />
    <glyph glyph-name="ebreve" unicode="&#x115;" horiz-adv-x="780" 
d="M400 630q-58 0 -101 18.5t-69 47.5t-38 62t-12 62h150q4 -24 22.5 -41t47.5 -17t47.5 17t22.5 41h150q0 -29 -12 -62t-38 -62t-69 -47.5t-101 -18.5zM281 225q14 -39 52 -56t103 -17q42 0 81.5 8.5t88.5 41.5l128 -129q-28 -25 -73 -48.5t-107 -36t-133 -12.5
q-92 0 -166 20.5t-125 60t-77.5 96.5t-26.5 127q0 69 26 126t75 96.5t118.5 60.5t154.5 21q74 0 139.5 -18.5t114 -56t75.5 -93.5t27 -127q0 -37 -8 -64h-467zM402 412q-43 0 -73.5 -16.5t-44.5 -50.5h231q-26 67 -113 67z" />
    <glyph glyph-name="Edotaccent" unicode="&#x116;" horiz-adv-x="889" 
d="M449 770q-25 0 -53 9t-47.5 33.5t-19.5 57.5q0 46 33.5 72.5t86.5 26.5t86.5 -26.5t33.5 -72.5q0 -33 -19.5 -57.5t-47.5 -33.5t-53 -9zM336 194h516v-194h-790v700h779v-194h-505v-65h406v-174h-406v-73z" />
    <glyph glyph-name="edotaccent" unicode="&#x117;" horiz-adv-x="780" 
d="M400 630q-25 0 -53 9t-47.5 33.5t-19.5 57.5q0 46 33.5 72.5t86.5 26.5t86.5 -26.5t33.5 -72.5q0 -33 -19.5 -57.5t-47.5 -33.5t-53 -9zM281 225q14 -39 52 -56t103 -17q42 0 81.5 8.5t88.5 41.5l128 -129q-28 -25 -73 -48.5t-107 -36t-133 -12.5q-92 0 -166 20.5
t-125 60t-77.5 96.5t-26.5 127q0 69 26 126t75 96.5t118.5 60.5t154.5 21q74 0 139.5 -18.5t114 -56t75.5 -93.5t27 -127q0 -37 -8 -64h-467zM402 412q-43 0 -73.5 -16.5t-44.5 -50.5h231q-26 67 -113 67z" />
    <glyph glyph-name="Eogonek" unicode="&#x118;" horiz-adv-x="889" 
d="M868 -136l40 -48q-13 -20 -37.5 -38.5t-58.5 -26.5t-65 -8q-33 0 -74.5 10.5t-72 41t-30.5 76.5q0 30 15.5 58t42.5 45.5t54 25.5h-620v700h779v-194h-505v-65h406v-174h-406v-73h516v-194q-29 -12 -56 -32.5t-38.5 -41.5t-11.5 -37q0 -23 16.5 -38t43.5 -15q17 0 33 7
t29 21z" />
    <glyph glyph-name="eogonek" unicode="&#x119;" horiz-adv-x="780" 
d="M281 225q14 -39 52 -56t103 -17q42 0 81.5 8.5t88.5 41.5l128 -129q-21 -19 -53.5 -38.5t-81.5 -35.5q-28 -12 -54.5 -32.5t-38 -41t-11.5 -36.5q0 -23 16.5 -38t43.5 -15q17 0 33 7t29 21l40 -48q-13 -20 -37.5 -38.5t-58.5 -26.5t-65 -8q-33 0 -74.5 10.5t-72 41
t-30.5 76.5q0 31 15 59t45 47q-82 4 -148.5 27t-112 62t-69 93.5t-23.5 120.5q0 69 26 126t75 96.5t118.5 60.5t154.5 21q74 0 139.5 -18.5t114 -56t75.5 -93.5t27 -127q0 -37 -8 -64h-467zM402 412q-43 0 -73.5 -16.5t-44.5 -50.5h231q-26 67 -113 67z" />
    <glyph glyph-name="Ecaron" unicode="&#x11a;" horiz-adv-x="889" 
d="M163 960l146 -180h280l146 180h-221l-64 -80l-64 80h-223zM336 194h516v-194h-790v700h779v-194h-505v-65h406v-174h-406v-73z" />
    <glyph glyph-name="ecaron" unicode="&#x11b;" horiz-adv-x="780" 
d="M540 640h-280l-146 180h223l64 -80l64 80h221zM281 225q14 -39 52 -56t103 -17q42 0 81.5 8.5t88.5 41.5l128 -129q-28 -25 -73 -48.5t-107 -36t-133 -12.5q-92 0 -166 20.5t-125 60t-77.5 96.5t-26.5 127q0 69 26 126t75 96.5t118.5 60.5t154.5 21q74 0 139.5 -18.5
t114 -56t75.5 -93.5t27 -127q0 -37 -8 -64h-467zM402 412q-43 0 -73.5 -16.5t-44.5 -50.5h231q-26 67 -113 67z" />
    <glyph glyph-name="Gcircumflex" unicode="&#x11c;" horiz-adv-x="963" 
d="M223 781h221l64 80l64 -80h223l-146 180h-280zM922 422v-306q-63 -68 -166.5 -104t-238.5 -36q-110 0 -200.5 24.5t-146.5 66t-87 90t-42 100t-11 93.5t11 93.5t42 100t78.5 84t110 58t127.5 30.5t117 8q126 0 223.5 -33.5t160.5 -88.5l-189 -143q-44 33 -86 47t-97 14
q-106 0 -160 -45t-54 -125q0 -81 54.5 -127.5t159.5 -46.5q73 0 136 26v55h-176v165h434z" />
    <glyph glyph-name="gcircumflex" unicode="&#x11d;" 
d="M150 640h221l64 80l64 -80h223l-146 180h-280zM792 560v-439q0 -85 -28 -147t-79 -104t-127.5 -66t-170.5 -24q-79 0 -166.5 16.5t-143.5 43.5l62 161q32 -18 94.5 -32t119.5 -14q33 0 65 6t58 22.5t36 40.5t10 45v38q-38 -45 -91.5 -66t-115.5 -21q-64 0 -117.5 19
t-92 55t-59 88.5t-20.5 117.5t20.5 118t59 89t92 54.5t117.5 18.5q63 0 116 -21t91 -66v67h270zM392 204q76 0 130 66v60q-54 66 -130 66q-25 0 -52 -9t-43.5 -32.5t-16.5 -54.5q0 -42 30 -69t82 -27z" />
    <glyph glyph-name="Gbreve" unicode="&#x11e;" horiz-adv-x="963" 
d="M729 961q0 -29 -12 -62t-38 -62t-69 -47.5t-101 -18.5t-101 18.5t-69 47.5t-38 62t-12 62h150q4 -24 22.5 -41t47.5 -17t47.5 17t22.5 41h150zM922 422v-306q-63 -68 -166.5 -104t-238.5 -36q-110 0 -200.5 24.5t-146.5 66t-87 90t-42 100t-11 93.5t11 93.5t42 100
t78.5 84t110 58t127.5 30.5t117 8q126 0 223.5 -33.5t160.5 -88.5l-189 -143q-44 33 -86 47t-97 14q-106 0 -160 -45t-54 -125q0 -81 54.5 -127.5t159.5 -46.5q73 0 136 26v55h-176v165h434z" />
    <glyph glyph-name="gbreve" unicode="&#x11f;" 
d="M656 820q0 -29 -12 -62t-38 -62t-69 -47.5t-101 -18.5t-101 18.5t-69 47.5t-38 62t-12 62h150q4 -24 22.5 -41t47.5 -17t47.5 17t22.5 41h150zM792 560v-439q0 -85 -28 -147t-79 -104t-127.5 -66t-170.5 -24q-79 0 -166.5 16.5t-143.5 43.5l62 161q32 -18 94.5 -32
t119.5 -14q33 0 65 6t58 22.5t36 40.5t10 45v38q-38 -45 -91.5 -66t-115.5 -21q-64 0 -117.5 19t-92 55t-59 88.5t-20.5 117.5t20.5 118t59 89t92 54.5t117.5 18.5q63 0 116 -21t91 -66v67h270zM392 204q76 0 130 66v60q-54 66 -130 66q-25 0 -52 -9t-43.5 -32.5
t-16.5 -54.5q0 -42 30 -69t82 -27z" />
    <glyph glyph-name="Gdotaccent" unicode="&#x120;" horiz-adv-x="963" 
d="M509 771q-25 0 -53 9t-47.5 33.5t-19.5 57.5q0 46 33.5 72.5t86.5 26.5t86.5 -26.5t33.5 -72.5q0 -33 -19.5 -57.5t-47.5 -33.5t-53 -9zM922 422v-306q-63 -68 -166.5 -104t-238.5 -36q-110 0 -200.5 24.5t-146.5 66t-87 90t-42 100t-11 93.5t11 93.5t42 100t78.5 84
t110 58t127.5 30.5t117 8q126 0 223.5 -33.5t160.5 -88.5l-189 -143q-44 33 -86 47t-97 14q-106 0 -160 -45t-54 -125q0 -81 54.5 -127.5t159.5 -46.5q73 0 136 26v55h-176v165h434z" />
    <glyph glyph-name="gdotaccent" unicode="&#x121;" 
d="M436 630q-25 0 -53 9t-47.5 33.5t-19.5 57.5q0 46 33.5 72.5t86.5 26.5t86.5 -26.5t33.5 -72.5q0 -33 -19.5 -57.5t-47.5 -33.5t-53 -9zM792 560v-439q0 -85 -28 -147t-79 -104t-127.5 -66t-170.5 -24q-79 0 -166.5 16.5t-143.5 43.5l62 161q32 -18 94.5 -32t119.5 -14
q33 0 65 6t58 22.5t36 40.5t10 45v38q-38 -45 -91.5 -66t-115.5 -21q-64 0 -117.5 19t-92 55t-59 88.5t-20.5 117.5t20.5 118t59 89t92 54.5t117.5 18.5q63 0 116 -21t91 -66v67h270zM392 204q76 0 130 66v60q-54 66 -130 66q-25 0 -52 -9t-43.5 -32.5t-16.5 -54.5
q0 -42 30 -69t82 -27z" />
    <glyph glyph-name="Gcommaaccent" unicode="&#x122;" horiz-adv-x="963" 
d="M922 422v-306q-63 -68 -166.5 -104t-238.5 -36q-110 0 -200.5 24.5t-146.5 66t-87 90t-42 100t-11 93.5t11 93.5t42 100t78.5 84t110 58t127.5 30.5t117 8q126 0 223.5 -33.5t160.5 -88.5l-189 -143q-44 33 -86 47t-97 14q-106 0 -160 -45t-54 -125q0 -81 54.5 -127.5
t159.5 -46.5q73 0 136 26v55h-176v165h434zM509 -49q45 0 83 -22.5t56.5 -62.5t18.5 -80q0 -52 -25.5 -106.5t-70 -100t-107.5 -76.5l-48 76q94 53 121 126q-10 -10 -35 -10q-27 0 -59 12.5t-55.5 44.5t-23.5 71q0 33 16.5 60.5t50 47.5t78.5 20z" />
    <glyph glyph-name="gcommaaccent" unicode="&#x123;" 
d="M442 630q-45 0 -83 22.5t-56.5 62.5t-18.5 80q0 52 25.5 106.5t70 100t107.5 76.5l48 -76q-94 -53 -121 -126q10 10 35 10q27 0 59 -12.5t55.5 -44.5t23.5 -71q0 -33 -16.5 -60.5t-50 -47.5t-78.5 -20zM792 560v-439q0 -85 -28 -147t-79 -104t-127.5 -66t-170.5 -24
q-79 0 -166.5 16.5t-143.5 43.5l62 161q32 -18 94.5 -32t119.5 -14q33 0 65 6t58 22.5t36 40.5t10 45v38q-38 -45 -91.5 -66t-115.5 -21q-64 0 -117.5 19t-92 55t-59 88.5t-20.5 117.5t20.5 118t59 89t92 54.5t117.5 18.5q63 0 116 -21t91 -66v67h270zM392 204q76 0 130 66
v60q-54 66 -130 66q-25 0 -52 -9t-43.5 -32.5t-16.5 -54.5q0 -42 30 -69t82 -27z" />
    <glyph glyph-name="Hcircumflex" unicode="&#x124;" horiz-adv-x="1004" 
d="M216 781h221l64 80l64 -80h223l-146 180h-280zM662 700h280v-700h-280v248h-320v-248h-280v700h280v-238h320v238z" />
    <glyph glyph-name="hcircumflex" unicode="&#x125;" horiz-adv-x="820" 
d="M187 900l-64 -80h-221l146 180h280l146 -180h-223zM529 580q56 0 102 -18t78 -50.5t48.5 -77.5t16.5 -97v-337h-270v321q0 30 -20.5 49.5t-53.5 19.5q-57 0 -107 -66v-324h-270v560v180h270v-200v-54q76 94 206 94z" />
    <glyph glyph-name="Hbar" unicode="&#x126;" horiz-adv-x="1106" 
d="M1093 598v-80h-100v-518h-280v248h-320v-248h-280v518h-100v80h100v102h280v-102h320v102h280v-102h100zM713 462v56h-320v-56h320z" />
    <glyph glyph-name="hbar" unicode="&#x127;" horiz-adv-x="820" 
d="M529 580q56 0 102 -18t78 -50.5t48.5 -77.5t16.5 -97v-337h-270v321q0 30 -20.5 49.5t-53.5 19.5q-57 0 -107 -66v-324h-270v560v25h-80v90h80v65h270v-65h126v-90h-126v-45v-54q76 94 206 94z" />
    <glyph glyph-name="Itilde" unicode="&#x128;" horiz-adv-x="404" 
d="M403 992l89 -173q-29 -28 -72 -43t-93 -15q-31 0 -59.5 5.5t-80 20.5t-79.5 15q-22 0 -46 -7.5t-61 -34.5l-89 173q29 28 72 43t94 15q52 0 112 -18t79 -20.5t28 -2.5q23 0 52.5 9t53.5 33zM342 0h-280v700h280v-700z" />
    <glyph glyph-name="itilde" unicode="&#x129;" horiz-adv-x="376" 
d="M389 852l89 -173q-29 -28 -72 -43t-93 -15q-31 0 -59.5 5.5t-80 20.5t-79.5 15q-22 0 -46 -7.5t-61 -34.5l-89 173q29 28 72 43t94 15q52 0 112 -18t79 -20.5t28 -2.5q23 0 52.5 9t53.5 33zM323 560v-560h-270v560h270z" />
    <glyph glyph-name="Imacron" unicode="&#x12a;" horiz-adv-x="404" 
d="M-56 960h516v-172h-516v172zM342 0h-280v700h280v-700z" />
    <glyph glyph-name="imacron" unicode="&#x12b;" horiz-adv-x="376" 
d="M-70 820h516v-172h-516v172zM323 560v-560h-270v560h270z" />
    <glyph glyph-name="Ibreve" unicode="&#x12c;" horiz-adv-x="404" 
d="M422 960q0 -29 -12 -62t-38 -62t-69 -47.5t-101 -18.5t-101 18.5t-69 47.5t-38 62t-12 62h150q4 -24 22.5 -41t47.5 -17t47.5 17t22.5 41h150zM342 0h-280v700h280v-700z" />
    <glyph glyph-name="ibreve" unicode="&#x12d;" horiz-adv-x="376" 
d="M408 820q0 -29 -12 -62t-38 -62t-69 -47.5t-101 -18.5t-101 18.5t-69 47.5t-38 62t-12 62h150q4 -24 22.5 -41t47.5 -17t47.5 17t22.5 41h150zM323 560v-560h-270v560h270z" />
    <glyph glyph-name="Iogonek" unicode="&#x12e;" horiz-adv-x="404" 
d="M358 -136l40 -48q-13 -20 -37.5 -38.5t-58.5 -26.5t-65 -8q-33 0 -74.5 10.5t-72 41t-30.5 76.5q0 30 15.5 58t42.5 45.5t54 25.5h-110v700h280v-700q-29 -12 -56 -32.5t-38.5 -41.5t-11.5 -37q0 -23 16.5 -38t43.5 -15q17 0 33 7t29 21z" />
    <glyph glyph-name="iogonek" unicode="&#x12f;" horiz-adv-x="376" 
d="M188 597q-31 0 -66.5 11t-59 39.5t-23.5 68.5q0 27 13.5 54t50.5 46t85 19q31 0 66.5 -11t59 -39.5t23.5 -68.5q0 -27 -13.5 -54t-50.5 -46t-85 -19zM339 -136l40 -48q-13 -20 -37.5 -38.5t-58.5 -26.5t-65 -8q-33 0 -74.5 10.5t-72 41t-30.5 76.5q0 30 15.5 58
t42.5 45.5t54 25.5h-100v560h270v-560q-29 -12 -56 -32.5t-38.5 -41.5t-11.5 -37q0 -23 16.5 -38t43.5 -15q17 0 33 7t29 21z" />
    <glyph glyph-name="Idotaccent" unicode="&#x130;" horiz-adv-x="404" 
d="M202 770q-25 0 -53 9t-47.5 33.5t-19.5 57.5q0 46 33.5 72.5t86.5 26.5t86.5 -26.5t33.5 -72.5q0 -33 -19.5 -57.5t-47.5 -33.5t-53 -9zM342 0h-280v700h280v-700z" />
    <glyph glyph-name="dotlessi" unicode="&#x131;" horiz-adv-x="376" 
d="M323 560v-560h-270v560h270z" />
    <glyph glyph-name="IJ" unicode="&#x132;" horiz-adv-x="1180" 
d="M342 0h-280v700h280v-700zM563 272q35 -41 73 -60.5t84 -19.5q130 0 130 150v358h280v-380q0 -77 -27 -141t-79 -109.5t-128 -69.5t-170 -24q-218 0 -340 136z" />
    <glyph glyph-name="ij" unicode="&#x133;" horiz-adv-x="752" 
d="M188 597q-31 0 -66.5 11t-59 39.5t-23.5 68.5q0 27 13.5 54t50.5 46t85 19q31 0 66.5 -11t59 -39.5t23.5 -68.5q0 -27 -13.5 -54t-50.5 -46t-85 -19zM564 597q-31 0 -66.5 11t-59 39.5t-23.5 68.5q0 27 13.5 54t50.5 46t85 19q31 0 66.5 -11t59 -39.5t23.5 -68.5
q0 -27 -13.5 -54t-50.5 -46t-85 -19zM323 560v-560h-270v560h270zM429 560h270v-522q0 -59 -18.5 -107.5t-53.5 -82.5t-84.5 -52t-108.5 -18q-35 0 -79.5 7.5t-82.5 20.5l34 157q36 -11 60 -11q19 0 34.5 8t22 23t6.5 30v547z" />
    <glyph glyph-name="Jcircumflex" unicode="&#x134;" horiz-adv-x="776" 
d="M300 780h221l64 80l64 -80h223l-146 180h-280zM159 272q35 -41 73 -60.5t84 -19.5q130 0 130 150v358h280v-380q0 -77 -27 -141t-79 -109.5t-128 -69.5t-170 -24q-218 0 -340 136z" />
    <glyph glyph-name="jcircumflex" unicode="&#x135;" horiz-adv-x="493" 
d="M-118 640h221l64 80l64 -80h223l-146 180h-280zM53 560h270v-522q0 -59 -18.5 -107.5t-53.5 -82.5t-84.5 -52t-108.5 -18q-35 0 -79.5 7.5t-82.5 20.5l34 156q36 -11 64 -11q23 0 41 16.5t18 45.5v547z" />
    <glyph glyph-name="Kcommaaccent" unicode="&#x136;" horiz-adv-x="929" 
d="M342 143v-143h-280v700h280v-271l256 271h332l-287 -283l303 -417h-324l-173 248zM466 -49q45 0 83 -22.5t56.5 -62.5t18.5 -80q0 -52 -25.5 -106.5t-70 -100t-107.5 -76.5l-48 76q94 53 121 126q-10 -10 -35 -10q-27 0 -59 12.5t-55.5 44.5t-23.5 71q0 33 16.5 60.5
t50 47.5t78.5 20z" />
    <glyph glyph-name="kcommaaccent" unicode="&#x137;" horiz-adv-x="787" 
d="M323 107v-107h-270v740h270v-381l179 201h287l-215 -232l226 -328h-283l-120 181zM405 -49q45 0 83 -22.5t56.5 -62.5t18.5 -80q0 -52 -25.5 -106.5t-70 -100t-107.5 -76.5l-48 76q94 53 121 126q-10 -10 -35 -10q-27 0 -59 12.5t-55.5 44.5t-23.5 71q0 33 16.5 60.5
t50 47.5t78.5 20z" />
    <glyph glyph-name="kgreenlandic" unicode="&#x138;" horiz-adv-x="787" 
d="M517 0l-120 181l-74 -74v-107h-270v560h270v-201l179 201h287l-215 -232l226 -328h-283z" />
    <glyph glyph-name="Lacute" unicode="&#x139;" horiz-adv-x="787" 
d="M503 960l-247 -180h-187l120 180h314zM342 208h430v-208h-710v700h280v-492z" />
    <glyph glyph-name="lacute" unicode="&#x13a;" horiz-adv-x="376" 
d="M489 1000l-247 -180h-187l120 180h314zM323 0h-270v740h270v-740z" />
    <glyph glyph-name="Lcommaaccent" unicode="&#x13b;" horiz-adv-x="787" 
d="M342 208h430v-208h-710v700h280v-492zM421 -49q45 0 83 -22.5t56.5 -62.5t18.5 -80q0 -52 -25.5 -106.5t-70 -100t-107.5 -76.5l-48 76q94 53 121 126q-10 -10 -35 -10q-27 0 -59 12.5t-55.5 44.5t-23.5 71q0 33 16.5 60.5t50 47.5t78.5 20z" />
    <glyph glyph-name="lcommaaccent" unicode="&#x13c;" horiz-adv-x="376" 
d="M323 0h-270v740h270v-740zM188 -49q45 0 83 -22.5t56.5 -62.5t18.5 -80q0 -52 -25.5 -106.5t-70 -100t-107.5 -76.5l-48 76q94 53 121 126q-10 -10 -35 -10q-27 0 -59 12.5t-55.5 44.5t-23.5 71q0 33 16.5 60.5t50 47.5t78.5 20z" />
    <glyph glyph-name="Lcaron" unicode="&#x13d;" horiz-adv-x="787" 
d="M556 716q45 0 83 -22.5t56.5 -62.5t18.5 -80q0 -52 -25.5 -106.5t-70 -100t-107.5 -76.5l-48 76q94 53 121 126q-10 -10 -35 -10q-27 0 -59 12.5t-55.5 44.5t-23.5 71q0 33 16.5 60.5t50 47.5t78.5 20zM342 208h430v-208h-710v700h280v-492z" />
    <glyph glyph-name="lcaron" unicode="&#x13e;" horiz-adv-x="643" 
d="M323 0h-270v740h270v-740zM503 716q45 0 83 -22.5t56.5 -62.5t18.5 -80q0 -52 -25.5 -106.5t-70 -100t-107.5 -76.5l-48 76q94 53 121 126q-10 -10 -35 -10q-27 0 -59 12.5t-55.5 44.5t-23.5 71q0 33 16.5 60.5t50 47.5t78.5 20z" />
    <glyph glyph-name="Ldot" unicode="&#x13f;" horiz-adv-x="787" 
d="M342 205h430v-205h-710v700h280v-495zM550 321q-32 0 -58.5 9.5t-47.5 26.5t-32 41.5t-11 50.5q0 19 7.5 41t25 41t47 32.5t69.5 13.5q32 0 58.5 -9.5t47.5 -26.5t32 -41.5t11 -50.5q0 -19 -7.5 -41t-25 -41t-47 -32.5t-69.5 -13.5z" />
    <glyph glyph-name="ldot" unicode="&#x140;" horiz-adv-x="626" 
d="M323 0h-270v740h270v-740zM501 268q-32 0 -58.5 9.5t-47.5 26.5t-32 41.5t-11 50.5q0 19 7.5 41t25 41t47 32.5t69.5 13.5q32 0 58.5 -9.5t47.5 -26.5t32 -41.5t11 -50.5q0 -19 -7.5 -41t-25 -41t-47 -32.5t-69.5 -13.5z" />
    <glyph glyph-name="Lslash" unicode="&#x141;" horiz-adv-x="864" 
d="M419 208h430v-208h-710v222l-109 -48v152l109 48v326h280v-201l205 91v-152l-205 -91v-139z" />
    <glyph glyph-name="lslash" unicode="&#x142;" horiz-adv-x="488" 
d="M481 570v-162l-102 -42v-366h-270v256l-102 -42v162l102 42v322h270v-212z" />
    <glyph glyph-name="Nacute" unicode="&#x143;" horiz-adv-x="1004" 
d="M803 960l-247 -180h-187l120 180h314zM672 700h270v-700h-246l-364 381v-381h-270v700h296l314 -337v337z" />
    <glyph glyph-name="nacute" unicode="&#x144;" horiz-adv-x="820" 
d="M714 820l-247 -180h-187l120 180h314zM323 0h-270v560h270v-74q76 94 206 94q56 0 102 -18t78 -50.5t48.5 -77.5t16.5 -97v-337h-270v321q0 30 -20.5 49.5t-53.5 19.5q-57 0 -107 -66v-324z" />
    <glyph glyph-name="Ncommaaccent" unicode="&#x145;" horiz-adv-x="1004" 
d="M672 700h270v-700h-246l-364 381v-381h-270v700h296l314 -337v337zM502 -49q45 0 83 -22.5t56.5 -62.5t18.5 -80q0 -52 -25.5 -106.5t-70 -100t-107.5 -76.5l-48 76q94 53 121 126q-10 -10 -35 -10q-27 0 -59 12.5t-55.5 44.5t-23.5 71q0 33 16.5 60.5t50 47.5t78.5 20z
" />
    <glyph glyph-name="ncommaaccent" unicode="&#x146;" horiz-adv-x="820" 
d="M323 0h-270v560h270v-74q76 94 206 94q56 0 102 -18t78 -50.5t48.5 -77.5t16.5 -97v-337h-270v321q0 30 -20.5 49.5t-53.5 19.5q-57 0 -107 -66v-324zM414 -49q45 0 83 -22.5t56.5 -62.5t18.5 -80q0 -52 -25.5 -106.5t-70 -100t-107.5 -76.5l-48 76q94 53 121 126
q-10 -10 -35 -10q-27 0 -59 12.5t-55.5 44.5t-23.5 71q0 33 16.5 60.5t50 47.5t78.5 20z" />
    <glyph glyph-name="Ncaron" unicode="&#x147;" horiz-adv-x="1004" 
d="M216 960l146 -180h280l146 180h-221l-64 -80l-64 80h-223zM672 700h270v-700h-246l-364 381v-381h-270v700h296l314 -337v337z" />
    <glyph glyph-name="ncaron" unicode="&#x148;" horiz-adv-x="820" 
d="M127 820l146 -180h280l146 180h-221l-64 -80l-64 80h-223zM323 0h-270v560h270v-74q76 94 206 94q56 0 102 -18t78 -50.5t48.5 -77.5t16.5 -97v-337h-270v321q0 30 -20.5 49.5t-53.5 19.5q-57 0 -107 -66v-324z" />
    <glyph glyph-name="napostrophe" unicode="&#x149;" horiz-adv-x="1115" 
d="M157 716q45 0 83 -22.5t56.5 -62.5t18.5 -80q0 -52 -25.5 -106.5t-70 -100t-107.5 -76.5l-48 76q94 53 121 126q-10 -10 -35 -10q-27 0 -59 12.5t-55.5 44.5t-23.5 71q0 33 16.5 60.5t50 47.5t78.5 20zM618 0h-270v560h270v-74q76 94 206 94q56 0 102 -18t78 -50.5
t48.5 -77.5t16.5 -97v-337h-270v321q0 30 -20.5 49.5t-53.5 19.5q-57 0 -107 -66v-324z" />
    <glyph glyph-name="Eng" unicode="&#x14a;" horiz-adv-x="1004" 
d="M672 700h270v-632v-10q0 -62 -20.5 -114.5t-58 -89.5t-90.5 -56.5t-116 -19.5q-35 0 -79.5 7.5t-82.5 20.5l34 156q36 -11 64 -11q24 0 43 10t27 28t9 36l-340 356v-381h-270v700h296l314 -337v337z" />
    <glyph glyph-name="eng" unicode="&#x14b;" horiz-adv-x="820" 
d="M529 580q56 0 102 -18t78 -50.5t48.5 -77.5t16.5 -97v-292v-7q0 -59 -19 -107.5t-54.5 -82.5t-85.5 -52t-110 -18q-36 0 -81 7.5t-83 20.5l34 158q38 -11 65 -11q64 0 64 66v302q0 30 -20.5 49.5t-53.5 19.5q-57 0 -107 -66v-324h-270v560h270v-74q76 94 206 94z" />
    <glyph glyph-name="Omacron" unicode="&#x14c;" horiz-adv-x="1012" 
d="M248 960h516v-172h-516v172zM506 -24q-78 0 -160 16.5t-151.5 58.5t-106 98.5t-47.5 107.5t-11 93q0 65 19.5 122t56.5 101.5t89 76t117.5 49.5t119.5 21.5t74 3.5q78 0 160 -16.5t151.5 -58.5t106 -98.5t47.5 -107.5t11 -93q0 -65 -19.5 -122t-56.5 -101.5t-89 -76
t-117.5 -49.5t-119.5 -21.5t-74 -3.5zM506 190q90 0 141 42.5t51 117.5t-51 117.5t-141 42.5t-141 -42.5t-51 -117.5t51 -117.5t141 -42.5z" />
    <glyph glyph-name="omacron" unicode="&#x14d;" horiz-adv-x="812" 
d="M148 820h516v-172h-516v172zM406 -24q-85 0 -155.5 21t-120.5 60.5t-77 96.5t-27 126t27 126t77 96.5t120.5 60.5t155.5 21t155.5 -21t120.5 -60.5t77 -96.5t27 -126t-27 -126t-77 -96.5t-120.5 -60.5t-155.5 -21zM406 172q56 0 91 29.5t35 78.5t-35 78.5t-91 29.5
q-55 0 -90.5 -29.5t-35.5 -78.5t35.5 -78.5t90.5 -29.5z" />
    <glyph glyph-name="Obreve" unicode="&#x14e;" horiz-adv-x="1012" 
d="M726 960q0 -29 -12 -62t-38 -62t-69 -47.5t-101 -18.5t-101 18.5t-69 47.5t-38 62t-12 62h150q4 -24 22.5 -41t47.5 -17t47.5 17t22.5 41h150zM506 -24q-78 0 -160 16.5t-151.5 58.5t-106 98.5t-47.5 107.5t-11 93q0 65 19.5 122t56.5 101.5t89 76t117.5 49.5t119.5 21.5
t74 3.5q78 0 160 -16.5t151.5 -58.5t106 -98.5t47.5 -107.5t11 -93q0 -65 -19.5 -122t-56.5 -101.5t-89 -76t-117.5 -49.5t-119.5 -21.5t-74 -3.5zM506 190q90 0 141 42.5t51 117.5t-51 117.5t-141 42.5t-141 -42.5t-51 -117.5t51 -117.5t141 -42.5z" />
    <glyph glyph-name="obreve" unicode="&#x14f;" horiz-adv-x="812" 
d="M626 820q0 -29 -12 -62t-38 -62t-69 -47.5t-101 -18.5t-101 18.5t-69 47.5t-38 62t-12 62h150q4 -24 22.5 -41t47.5 -17t47.5 17t22.5 41h150zM406 -24q-85 0 -155.5 21t-120.5 60.5t-77 96.5t-27 126t27 126t77 96.5t120.5 60.5t155.5 21t155.5 -21t120.5 -60.5
t77 -96.5t27 -126t-27 -126t-77 -96.5t-120.5 -60.5t-155.5 -21zM406 172q56 0 91 29.5t35 78.5t-35 78.5t-91 29.5q-55 0 -90.5 -29.5t-35.5 -78.5t35.5 -78.5t90.5 -29.5z" />
    <glyph glyph-name="Ohungarumlaut" unicode="&#x150;" horiz-adv-x="1012" 
d="M618 960l-165 -180h-226l165 180h226zM887 960l-165 -180h-226l165 180h226zM506 -24q-78 0 -160 16.5t-151.5 58.5t-106 98.5t-47.5 107.5t-11 93q0 65 19.5 122t56.5 101.5t89 76t117.5 49.5t119.5 21.5t74 3.5q78 0 160 -16.5t151.5 -58.5t106 -98.5t47.5 -107.5
t11 -93q0 -65 -19.5 -122t-56.5 -101.5t-89 -76t-117.5 -49.5t-119.5 -21.5t-74 -3.5zM506 190q90 0 141 42.5t51 117.5t-51 117.5t-141 42.5t-141 -42.5t-51 -117.5t51 -117.5t141 -42.5z" />
    <glyph glyph-name="ohungarumlaut" unicode="&#x151;" horiz-adv-x="812" 
d="M518 820l-165 -180h-226l165 180h226zM787 820l-165 -180h-226l165 180h226zM406 -24q-85 0 -155.5 21t-120.5 60.5t-77 96.5t-27 126t27 126t77 96.5t120.5 60.5t155.5 21t155.5 -21t120.5 -60.5t77 -96.5t27 -126t-27 -126t-77 -96.5t-120.5 -60.5t-155.5 -21zM406 172
q56 0 91 29.5t35 78.5t-35 78.5t-91 29.5q-55 0 -90.5 -29.5t-35.5 -78.5t35.5 -78.5t90.5 -29.5z" />
    <glyph glyph-name="OE" unicode="&#x152;" horiz-adv-x="1453" 
d="M900 194h516v-194h-790h-144q-103 0 -187.5 23.5t-143.5 68.5t-90 110.5t-31 147.5t31 147.5t90 110.5t143.5 68.5t187.5 23.5h418h505v-194h-505v-65h406v-174h-406v-73zM626 204v292h-120q-89 0 -139.5 -39t-50.5 -107t50.5 -107t139.5 -39h120z" />
    <glyph glyph-name="oe" unicode="&#x153;" horiz-adv-x="1286" 
d="M787 225q14 -39 52 -56t103 -17q42 0 81.5 8.5t88.5 41.5l128 -129q-28 -25 -73 -48.5t-107 -36t-133 -12.5q-82 0 -150.5 20t-118.5 55q-48 -35 -112.5 -55t-139.5 -20q-85 0 -155.5 21t-120.5 60.5t-77 96.5t-27 126t27 126t77 96.5t120.5 60.5t155.5 21q148 0 250 -74
q48 35 112 54.5t138 19.5t139.5 -18.5t114 -56t75.5 -93.5t27 -127q0 -37 -8 -64h-467zM908 412q-44 0 -75 -18t-44 -53h234q-25 71 -115 71zM406 172q56 0 91 29.5t35 78.5t-35 78.5t-91 29.5q-55 0 -90.5 -29.5t-35.5 -78.5t35.5 -78.5t90.5 -29.5z" />
    <glyph glyph-name="Racute" unicode="&#x154;" horiz-adv-x="954" 
d="M744 960l-247 -180h-187l120 180h314zM938 0h-316l-157 192h-125v-192h-278v700h503q73 0 137 -15.5t112 -47t75 -80.5t27 -111q0 -52 -20 -98t-60 -77.5t-88 -49.5zM340 508v-140h201q92 0 92 70t-92 70h-201z" />
    <glyph glyph-name="racute" unicode="&#x155;" horiz-adv-x="546" 
d="M600 820l-247 -180h-187l120 180h314zM323 0h-270v560h270v-84q16 24 44.5 47.5t71.5 37t92 13.5v-218q-86 0 -139.5 -31t-68.5 -91v-234z" />
    <glyph glyph-name="Rcommaaccent" unicode="&#x156;" horiz-adv-x="954" 
d="M748 221l190 -221h-316l-157 192h-125v-192h-278v700h503q73 0 137 -15.5t112 -47t75 -80.5t27 -111q0 -52 -20 -98t-60 -77.5t-88 -49.5zM340 508v-140h201q92 0 92 70t-92 70h-201zM461 -49q45 0 83 -22.5t56.5 -62.5t18.5 -80q0 -52 -25.5 -106.5t-70 -100
t-107.5 -76.5l-48 76q94 53 121 126q-10 -10 -35 -10q-27 0 -59 12.5t-55.5 44.5t-23.5 71q0 33 16.5 60.5t50 47.5t78.5 20z" />
    <glyph glyph-name="rcommaaccent" unicode="&#x157;" horiz-adv-x="546" 
d="M323 0h-270v560h270v-84q16 24 44.5 47.5t71.5 37t92 13.5v-218q-86 0 -139.5 -31t-68.5 -91v-234zM188 -49q45 0 83 -22.5t56.5 -62.5t18.5 -80q0 -52 -25.5 -106.5t-70 -100t-107.5 -76.5l-48 76q94 53 121 126q-10 -10 -35 -10q-27 0 -59 12.5t-55.5 44.5t-23.5 71
q0 33 16.5 60.5t50 47.5t78.5 20z" />
    <glyph glyph-name="Rcaron" unicode="&#x158;" horiz-adv-x="954" 
d="M583 780h-280l-146 180h223l64 -80l64 80h221zM938 0h-316l-157 192h-125v-192h-278v700h503q73 0 137 -15.5t112 -47t75 -80.5t27 -111q0 -52 -20 -98t-60 -77.5t-88 -49.5zM340 508v-140h201q92 0 92 70t-92 70h-201z" />
    <glyph glyph-name="rcaron" unicode="&#x159;" horiz-adv-x="546" 
d="M13 820l146 -180h280l146 180h-221l-64 -80l-64 80h-223zM323 0h-270v560h270v-84q16 24 44.5 47.5t71.5 37t92 13.5v-218q-86 0 -139.5 -31t-68.5 -91v-234z" />
    <glyph glyph-name="Sacute" unicode="&#x15a;" horiz-adv-x="908" 
d="M762 960l-247 -180h-187l120 180h314zM471 467q149 -12 234 -38t130 -73.5t45 -123.5q0 -58 -26 -105.5t-76.5 -81t-126 -51.5t-171.5 -18q-136 0 -257.5 34t-207.5 96l134 154q61 -41 150.5 -68t184.5 -27q121 0 121 37q0 18 -29.5 28t-114.5 17q-217 19 -315.5 76.5
t-98.5 157.5q0 57 30 103t84 77t128.5 47t160.5 16q81 0 162.5 -14.5t141.5 -38t97 -46.5l-127 -155q-112 68 -273 68q-54 0 -91.5 -7.5t-37.5 -25.5q0 -12 24.5 -21t124.5 -17z" />
    <glyph glyph-name="sacute" unicode="&#x15b;" horiz-adv-x="744" 
d="M680 820l-247 -180h-187l120 180h314zM395 378q70 -3 138 -17.5t113 -43t62 -62t17 -67.5q0 -43 -21.5 -81.5t-65 -68t-110.5 -46t-153 -16.5q-109 0 -201.5 26t-160.5 67l105 131q119 -64 265 -64q47 0 67.5 5t20.5 18t-22 18.5t-81 8.5q-47 3 -101.5 12t-98 27t-72 40
t-44.5 52t-16 65q0 44 25 82t71 64.5t109.5 41t137.5 14.5q94 0 179 -17.5t146 -49.5l-107 -136q-83 43 -219 43q-91 0 -91 -22q0 -9 16 -14.5t92 -9.5z" />
    <glyph glyph-name="Scircumflex" unicode="&#x15c;" horiz-adv-x="908" 
d="M175 780h221l64 80l64 -80h223l-146 180h-280zM471 467q149 -12 234 -38t130 -73.5t45 -123.5q0 -58 -26 -105.5t-76.5 -81t-126 -51.5t-171.5 -18q-136 0 -257.5 34t-207.5 96l134 154q61 -41 150.5 -68t184.5 -27q121 0 121 37q0 18 -29.5 28t-114.5 17
q-217 19 -315.5 76.5t-98.5 157.5q0 57 30 103t84 77t128.5 47t160.5 16q81 0 162.5 -14.5t141.5 -38t97 -46.5l-127 -155q-112 68 -273 68q-54 0 -91.5 -7.5t-37.5 -25.5q0 -12 24.5 -21t124.5 -17z" />
    <glyph glyph-name="scircumflex" unicode="&#x15d;" horiz-adv-x="744" 
d="M93 640h221l64 80l64 -80h223l-146 180h-280zM395 378q70 -3 138 -17.5t113 -43t62 -62t17 -67.5q0 -43 -21.5 -81.5t-65 -68t-110.5 -46t-153 -16.5q-109 0 -201.5 26t-160.5 67l105 131q119 -64 265 -64q47 0 67.5 5t20.5 18t-22 18.5t-81 8.5q-47 3 -101.5 12t-98 27
t-72 40t-44.5 52t-16 65q0 44 25 82t71 64.5t109.5 41t137.5 14.5q94 0 179 -17.5t146 -49.5l-107 -136q-83 43 -219 43q-91 0 -91 -22q0 -9 16 -14.5t92 -9.5z" />
    <glyph glyph-name="Scedilla" unicode="&#x15e;" horiz-adv-x="908" 
d="M471 467q149 -12 234 -38t130 -73.5t45 -123.5q0 -58 -26 -105.5t-76.5 -81t-126 -51.5t-171.5 -18q-136 0 -257.5 34t-207.5 96l134 154q61 -41 150.5 -68t184.5 -27q121 0 121 37q0 18 -29.5 28t-114.5 17q-217 19 -315.5 76.5t-98.5 157.5q0 57 30 103t84 77t128.5 47
t160.5 16q81 0 162.5 -14.5t141.5 -38t97 -46.5l-127 -155q-112 68 -273 68q-54 0 -91.5 -7.5t-37.5 -25.5q0 -12 24.5 -21t124.5 -17zM593 -64l-165 -166l-159 43l99 153z" />
    <glyph glyph-name="scedilla" unicode="&#x15f;" horiz-adv-x="744" 
d="M395 378q70 -3 138 -17.5t113 -43t62 -62t17 -67.5q0 -43 -21.5 -81.5t-65 -68t-110.5 -46t-153 -16.5q-109 0 -201.5 26t-160.5 67l105 131q119 -64 265 -64q47 0 67.5 5t20.5 18t-22 18.5t-81 8.5q-47 3 -101.5 12t-98 27t-72 40t-44.5 52t-16 65q0 44 25 82t71 64.5
t109.5 41t137.5 14.5q94 0 179 -17.5t146 -49.5l-107 -136q-83 43 -219 43q-91 0 -91 -22q0 -9 16 -14.5t92 -9.5zM496 -64l-165 -166l-159 43l99 153z" />
    <glyph glyph-name="Scaron" unicode="&#x160;" horiz-adv-x="908" 
d="M175 960l146 -180h280l146 180h-221l-64 -80l-64 80h-223zM471 467q149 -12 234 -38t130 -73.5t45 -123.5q0 -58 -26 -105.5t-76.5 -81t-126 -51.5t-171.5 -18q-136 0 -257.5 34t-207.5 96l134 154q61 -41 150.5 -68t184.5 -27q121 0 121 37q0 18 -29.5 28t-114.5 17
q-217 19 -315.5 76.5t-98.5 157.5q0 57 30 103t84 77t128.5 47t160.5 16q81 0 162.5 -14.5t141.5 -38t97 -46.5l-127 -155q-112 68 -273 68q-54 0 -91.5 -7.5t-37.5 -25.5q0 -12 24.5 -21t124.5 -17z" />
    <glyph glyph-name="scaron" unicode="&#x161;" horiz-adv-x="744" 
d="M93 820l146 -180h280l146 180h-221l-64 -80l-64 80h-223zM395 378q70 -3 138 -17.5t113 -43t62 -62t17 -67.5q0 -43 -21.5 -81.5t-65 -68t-110.5 -46t-153 -16.5q-109 0 -201.5 26t-160.5 67l105 131q119 -64 265 -64q47 0 67.5 5t20.5 18t-22 18.5t-81 8.5
q-47 3 -101.5 12t-98 27t-72 40t-44.5 52t-16 65q0 44 25 82t71 64.5t109.5 41t137.5 14.5q94 0 179 -17.5t146 -49.5l-107 -136q-83 43 -219 43q-91 0 -91 -22q0 -9 16 -14.5t92 -9.5z" />
    <glyph glyph-name="Tcommaaccent" unicode="&#x162;" horiz-adv-x="836" 
d="M822 700v-205h-264v-495h-280v495h-264v205h808zM539 -58l-165 -166l-159 43l99 153z" />
    <glyph glyph-name="tcommaaccent" unicode="&#x163;" horiz-adv-x="593" 
d="M356 -22q-54 0 -100 15t-79 44.5t-51.5 73t-18.5 98.5v171h-90v180h90v129h270v-129h191v-180h-191v-128q0 -30 21 -49.5t58 -19.5q33 0 85 21l33 -168q-39 -27 -100.5 -42.5t-117.5 -15.5zM154 -187l99 153l225 -30l-165 -166z" />
    <glyph glyph-name="Tcaron" unicode="&#x164;" horiz-adv-x="836" 
d="M132 960l146 -180h280l146 180h-221l-64 -80l-64 80h-223zM822 700v-205h-264v-495h-280v495h-264v205h808z" />
    <glyph glyph-name="tcaron" unicode="&#x165;" horiz-adv-x="603" 
d="M487 770q-27 0 -59 12.5t-55.5 44.5t-23.5 71q0 33 16.5 60.5t50 47.5t78.5 20t83 -22.5t56.5 -62.5t18.5 -80q0 -52 -25.5 -106.5t-70 -100t-107.5 -76.5l-48 76q94 53 121 126q-10 -10 -35 -10zM456 183q33 0 85 21l33 -168q-39 -27 -100.5 -42.5t-117.5 -15.5
q-54 0 -100 15t-79 44.5t-51.5 73t-18.5 98.5v171h-90v180h90v129h270v-129h191v-180h-191v-128q0 -30 21 -49.5t58 -19.5z" />
    <glyph glyph-name="Tbar" unicode="&#x166;" horiz-adv-x="836" 
d="M822 495h-264v-123h118v-172h-118v-200h-280v200h-118v172h118v123h-264v205h808v-205z" />
    <glyph glyph-name="tbar" unicode="&#x167;" horiz-adv-x="593" 
d="M541 204l33 -168q-39 -27 -100.5 -42.5t-117.5 -15.5q-54 0 -100 15t-79 44.5t-51.5 73t-18.5 98.5v36h-53v90h53v45h-90v180h90v129h270v-129h191v-180h-191v-45h153v-90h-153q2 -27 23 -44.5t56 -17.5q33 0 85 21z" />
    <glyph glyph-name="Utilde" unicode="&#x168;" horiz-adv-x="960" 
d="M681 992l89 -173q-29 -28 -72 -43t-93 -15q-31 0 -59.5 5.5t-80 20.5t-79.5 15q-22 0 -46 -7.5t-61 -34.5l-89 173q29 28 72 43t94 15q52 0 112 -18t79 -20.5t28 -2.5q23 0 52.5 9t53.5 33zM630 700h280v-370q0 -81 -29 -147t-84 -112t-136 -70.5t-181 -24.5t-181 24.5
t-136 70.5t-84 112t-29 147v370h280v-348q0 -43 15.5 -81t51 -58.5t83.5 -20.5t83.5 20.5t51 58.5t15.5 81v348z" />
    <glyph glyph-name="utilde" unicode="&#x169;" horiz-adv-x="820" 
d="M598 852l89 -173q-29 -28 -72 -43t-93 -15q-31 0 -59.5 5.5t-80 20.5t-79.5 15q-22 0 -46 -7.5t-61 -34.5l-89 173q29 28 72 43t94 15q52 0 112 -18t79 -20.5t28 -2.5q23 0 52.5 9t53.5 33zM497 560h270v-560h-270v74q-76 -94 -206 -94q-56 0 -102 18t-78 50.5
t-48.5 77.5t-16.5 97v337h270v-321q0 -30 20.5 -49.5t53.5 -19.5q58 0 107 66v324z" />
    <glyph glyph-name="Umacron" unicode="&#x16a;" horiz-adv-x="960" 
d="M222 960h516v-172h-516v172zM630 700h280v-370q0 -81 -29 -147t-84 -112t-136 -70.5t-181 -24.5t-181 24.5t-136 70.5t-84 112t-29 147v370h280v-348q0 -43 15.5 -81t51 -58.5t83.5 -20.5t83.5 20.5t51 58.5t15.5 81v348z" />
    <glyph glyph-name="umacron" unicode="&#x16b;" horiz-adv-x="820" 
d="M139 820h516v-172h-516v172zM497 560h270v-560h-270v74q-76 -94 -206 -94q-56 0 -102 18t-78 50.5t-48.5 77.5t-16.5 97v337h270v-321q0 -30 20.5 -49.5t53.5 -19.5q58 0 107 66v324z" />
    <glyph glyph-name="Ubreve" unicode="&#x16c;" horiz-adv-x="960" 
d="M700 960q0 -29 -12 -62t-38 -62t-69 -47.5t-101 -18.5t-101 18.5t-69 47.5t-38 62t-12 62h150q4 -24 22.5 -41t47.5 -17t47.5 17t22.5 41h150zM630 700h280v-370q0 -81 -29 -147t-84 -112t-136 -70.5t-181 -24.5t-181 24.5t-136 70.5t-84 112t-29 147v370h280v-348
q0 -43 15.5 -81t51 -58.5t83.5 -20.5t83.5 20.5t51 58.5t15.5 81v348z" />
    <glyph glyph-name="ubreve" unicode="&#x16d;" horiz-adv-x="820" 
d="M617 820q0 -29 -12 -62t-38 -62t-69 -47.5t-101 -18.5t-101 18.5t-69 47.5t-38 62t-12 62h150q4 -24 22.5 -41t47.5 -17t47.5 17t22.5 41h150zM497 560h270v-560h-270v74q-76 -94 -206 -94q-56 0 -102 18t-78 50.5t-48.5 77.5t-16.5 97v337h270v-321q0 -30 20.5 -49.5
t53.5 -19.5q58 0 107 66v324z" />
    <glyph glyph-name="Uring" unicode="&#x16e;" horiz-adv-x="960" 
d="M480 766q-86 0 -135 34t-49 95t49.5 96t134.5 35t134.5 -35t49.5 -96t-49 -95t-135 -34zM435 895q0 -19 12 -31t33 -12t33 12t12 31t-12 31t-33 12t-33 -12t-12 -31zM630 700h280v-370q0 -81 -29 -147t-84 -112t-136 -70.5t-181 -24.5t-181 24.5t-136 70.5t-84 112
t-29 147v370h280v-348q0 -43 15.5 -81t51 -58.5t83.5 -20.5t83.5 20.5t51 58.5t15.5 81v348z" />
    <glyph glyph-name="uring" unicode="&#x16f;" horiz-adv-x="820" 
d="M397 626q-86 0 -135 34t-49 95t49.5 96t134.5 35t134.5 -35t49.5 -96t-49 -95t-135 -34zM352 755q0 -19 12 -31t33 -12t33 12t12 31t-12 31t-33 12t-33 -12t-12 -31zM497 560h270v-560h-270v74q-76 -94 -206 -94q-56 0 -102 18t-78 50.5t-48.5 77.5t-16.5 97v337h270
v-321q0 -30 20.5 -49.5t53.5 -19.5q58 0 107 66v324z" />
    <glyph glyph-name="Uhungarumlaut" unicode="&#x170;" horiz-adv-x="960" 
d="M592 960l-165 -180h-226l165 180h226zM861 960l-165 -180h-226l165 180h226zM630 700h280v-370q0 -81 -29 -147t-84 -112t-136 -70.5t-181 -24.5t-181 24.5t-136 70.5t-84 112t-29 147v370h280v-348q0 -43 15.5 -81t51 -58.5t83.5 -20.5t83.5 20.5t51 58.5t15.5 81v348z
" />
    <glyph glyph-name="uhungarumlaut" unicode="&#x171;" horiz-adv-x="820" 
d="M509 820l-165 -180h-226l165 180h226zM778 820l-165 -180h-226l165 180h226zM497 560h270v-560h-270v74q-76 -94 -206 -94q-56 0 -102 18t-78 50.5t-48.5 77.5t-16.5 97v337h270v-321q0 -30 20.5 -49.5t53.5 -19.5q58 0 107 66v324z" />
    <glyph glyph-name="Uogonek" unicode="&#x172;" horiz-adv-x="960" 
d="M630 700h280v-370q0 -123 -64.5 -208.5t-184.5 -121.5q-29 -12 -56 -32.5t-38.5 -41.5t-11.5 -37q0 -23 16.5 -38t43.5 -15q17 0 33 7t29 21l40 -48q-13 -20 -37.5 -38.5t-58.5 -26.5t-65 -8q-33 0 -74.5 10.5t-72 41t-30.5 76.5q0 31 15 59t45 47q-91 5 -164 31.5
t-123 72t-76 109.5t-26 140v370h280v-348q0 -43 15.5 -81t51 -58.5t83.5 -20.5t83.5 20.5t51 58.5t15.5 81v348z" />
    <glyph glyph-name="uogonek" unicode="&#x173;" horiz-adv-x="820" 
d="M763 -136l40 -48q-13 -20 -37.5 -38.5t-58.5 -26.5t-65 -8q-33 0 -74.5 10.5t-72 41t-30.5 76.5q0 30 15.5 58t42.5 45.5t54 25.5h-80v74q-76 -94 -206 -94q-56 0 -102 18t-78 50.5t-48.5 77.5t-16.5 97v337h270v-321q0 -30 20.5 -49.5t53.5 -19.5q58 0 107 66v324h270
v-560h-20q-29 -12 -56 -32.5t-38.5 -41.5t-11.5 -37q0 -23 16.5 -38t43.5 -15q17 0 33 7t29 21z" />
    <glyph glyph-name="Wcircumflex" unicode="&#x174;" horiz-adv-x="1300" 
d="M366 780h221l64 80l64 -80h223l-146 180h-280zM1028 700h274l-254 -700h-272l-126 415l-126 -415h-272l-254 700h278l120 -418l133 418h246l133 -418z" />
    <glyph glyph-name="wcircumflex" unicode="&#x175;" horiz-adv-x="1084" 
d="M258 640h221l64 80l64 -80h223l-146 180h-280zM832 560h250l-190 -560h-251l-99 312l-99 -312h-251l-190 560h254l84 -294l90 294h228l90 -294z" />
    <glyph glyph-name="Ycircumflex" unicode="&#x176;" horiz-adv-x="878" 
d="M154 780h221l64 80l64 -80h223l-146 180h-280zM-15 700h306l149 -256l148 256h305l-314 -470v-230h-280v230z" />
    <glyph glyph-name="ycircumflex" unicode="&#x177;" horiz-adv-x="768" 
d="M100 640h221l64 80l64 -80h223l-146 180h-280zM506 560h269l-365 -760h-269l116 227l-264 533h273l124 -296z" />
    <glyph glyph-name="Ydieresis" unicode="&#x178;" horiz-adv-x="878" 
d="M292 770q-25 0 -53 9t-47.5 33.5t-19.5 57.5q0 46 33.5 72.5t86.5 26.5t86.5 -26.5t33.5 -72.5q0 -33 -19.5 -57.5t-47.5 -33.5t-53 -9zM588 770q-25 0 -53 9t-47.5 33.5t-19.5 57.5q0 46 33.5 72.5t86.5 26.5t86.5 -26.5t33.5 -72.5q0 -33 -19.5 -57.5t-47.5 -33.5
t-53 -9zM-15 700h306l149 -256l148 256h305l-314 -470v-230h-280v230z" />
    <glyph glyph-name="Zacute" unicode="&#x179;" horiz-adv-x="902" 
d="M758 960l-247 -180h-187l120 180h314zM849 700v-160l-414 -344h430v-196h-830v160l414 344h-396v196h796z" />
    <glyph glyph-name="zacute" unicode="&#x17a;" horiz-adv-x="738" 
d="M675 820l-247 -180h-187l120 180h314zM692 560v-154l-294 -218h306v-188h-672v154l294 218h-280v188h646z" />
    <glyph glyph-name="Zdotaccent" unicode="&#x17b;" horiz-adv-x="902" 
d="M457 770q-25 0 -53 9t-47.5 33.5t-19.5 57.5q0 46 33.5 72.5t86.5 26.5t86.5 -26.5t33.5 -72.5q0 -33 -19.5 -57.5t-47.5 -33.5t-53 -9zM849 700v-160l-414 -344h430v-196h-830v160l414 344h-396v196h796z" />
    <glyph glyph-name="zdotaccent" unicode="&#x17c;" horiz-adv-x="738" 
d="M374 630q-25 0 -53 9t-47.5 33.5t-19.5 57.5q0 46 33.5 72.5t86.5 26.5t86.5 -26.5t33.5 -72.5q0 -33 -19.5 -57.5t-47.5 -33.5t-53 -9zM692 560v-154l-294 -218h306v-188h-672v154l294 218h-280v188h646z" />
    <glyph glyph-name="Zcaron" unicode="&#x17d;" horiz-adv-x="902" 
d="M171 960l146 -180h280l146 180h-221l-64 -80l-64 80h-223zM849 700v-160l-414 -344h430v-196h-830v160l414 344h-396v196h796z" />
    <glyph glyph-name="zcaron" unicode="&#x17e;" horiz-adv-x="738" 
d="M88 820l146 -180h280l146 180h-221l-64 -80l-64 80h-223zM692 560v-154l-294 -218h306v-188h-672v154l294 218h-280v188h646z" />
    <glyph glyph-name="florin" unicode="&#x192;" horiz-adv-x="739" 
d="M594 537q-31 0 -48.5 -16t-20.5 -45l-5 -48h141l-14 -140h-142l-10 -99q-5 -48 -25.5 -88t-54 -68.5t-78 -43.5t-94.5 -15q-49 0 -108.5 13t-94.5 31l48 159q13 -4 39.5 -9t43.5 -5q31 0 48 16t20 45l7 64h-141l14 140h141l9 83q5 48 26 88t54.5 68.5t78 43.5t94.5 15
t109 -13t93 -31l-48 -159q-11 4 -38 9t-44 5z" />
    <glyph glyph-name="Aringacute" unicode="&#x1fa;" horiz-adv-x="970" 
d="M485 766q-86 0 -135 34t-49 95q0 39 19 65l80 140h252l-105 -80q57 -11 89.5 -44t32.5 -81q0 -61 -49 -95t-135 -34zM485 852q21 0 33 12t12 31t-12 31t-33 12t-33 -12t-12 -31t12 -31t33 -12zM691 0l-49 110h-318l-49 -110h-290l348 700h304l348 -700h-294zM400 280h166
l-83 186z" />
    <glyph glyph-name="aringacute" unicode="&#x1fb;" horiz-adv-x="790" 
d="M402 626q-86 0 -135 34t-49 95q0 35 16 61l-8 3l81 141h252l-103 -78q62 -11 96 -44t34 -83q0 -61 -49 -95t-135 -34zM402 712q21 0 33 12t12 31t-12 31t-33 12t-33 -12t-12 -31t12 -31t33 -12zM741 104q0 -58 23 -104h-270q-17 19 -17 42v3q-31 -30 -83.5 -47.5
t-114.5 -17.5q-45 0 -90 10t-82.5 31.5t-60.5 58t-23 85.5q0 37 15.5 72t50 60t83.5 39t107 14q62 0 114.5 -17.5t83.5 -47.5v34q0 40 -41 64t-114 24q-102 0 -196 -39l-45 165q58 23 141.5 36t156.5 13q84 0 152 -17.5t114.5 -52t71 -84.5t24.5 -113v-211zM481 162v6
q-16 17 -45.5 30t-69.5 13q-24 0 -44.5 -6t-29.5 -17.5t-9 -22.5t9 -22.5t29.5 -17.5t44.5 -6q31 0 62 10t53 33z" />
    <glyph glyph-name="AEacute" unicode="&#x1fc;" horiz-adv-x="1493" 
d="M1211 960l-247 -180h-187l120 180h314zM940 194h516v-194h-790v119h-291l-93 -119h-305l587 700h124h757v-194h-505v-65h406v-174h-406v-73zM507 289h159v204z" />
    <glyph glyph-name="aeacute" unicode="&#x1fd;" horiz-adv-x="1232" 
d="M915 820l-247 -180h-187l120 180h314zM732 225q14 -39 52.5 -56t103.5 -17q42 0 81.5 8.5t87.5 41.5l130 -129q-113 -97 -314 -97q-48 0 -106 8t-112.5 30t-90.5 55q-23 -21 -66 -42.5t-102.5 -34t-111.5 -12.5q-47 0 -93 10t-84 31.5t-61 58t-23 85.5q0 37 15.5 72
t50 60t83.5 39t107 14q62 0 115 -17.5t84 -47.5v34q0 42 -42.5 65t-113.5 23q-102 0 -197 -39l-44 165q58 23 141 36t157 13q146 0 232 -54q96 56 241 56q74 0 139.5 -18.5t114 -56t75.5 -93.5t27 -127q0 -37 -8 -64h-468zM854 412q-44 0 -75.5 -18t-44.5 -53h235
q-25 71 -115 71zM482 162v6q-16 17 -45.5 30t-70.5 13q-23 0 -44 -6t-30 -17.5t-9 -22.5t9 -22.5t30 -17.5t44 -6q31 0 62.5 10t53.5 33z" />
    <glyph glyph-name="Oslashacute" unicode="&#x1fe;" horiz-adv-x="1012" 
d="M807 960l-247 -180h-187l120 180h314zM812 653q81 -47 125.5 -124.5t44.5 -178.5q0 -65 -19.5 -122t-56.5 -101.5t-89 -76t-117.5 -49.5t-119.5 -21.5t-74 -3.5q-101 0 -187 23l-74 -99h-155l110 147q-81 47 -125.5 124.5t-44.5 178.5q0 65 19.5 122t56.5 101.5t89 76
t117.5 49.5t119.5 21.5t74 3.5q101 0 187 -23l74 99h155zM314 350q0 -32 10.5 -59t26.5 -45l196 261q-19 3 -41 3q-90 0 -141 -42.5t-51 -117.5zM506 190q90 0 141 42.5t51 117.5q0 32 -10.5 59t-26.5 45l-196 -261q20 -3 41 -3z" />
    <glyph glyph-name="oslashacute" unicode="&#x1ff;" horiz-adv-x="812" 
d="M697 820l-247 -180h-187l120 180h314zM625 539q77 -38 119 -104.5t42 -154.5q0 -69 -27 -126t-77 -96.5t-120.5 -60.5t-155.5 -21q-80 0 -146 18l-63 -94h-111l86 129q-32 18 -66.5 50.5t-57 84.5t-22.5 116q0 69 27 126t77 96.5t120.5 60.5t155.5 21q68 0 129 -14l60 90
h111zM280 280q0 -35 19 -62l114 170h-7q-55 0 -90.5 -29.5t-35.5 -78.5zM406 172q56 0 91 29.5t35 78.5q0 22 -8 42t-22 33l-122 -181z" />
    <glyph glyph-name="Scommaaccent" unicode="&#x218;" horiz-adv-x="908" 
d="M471 467q149 -12 234 -38t130 -73.5t45 -123.5q0 -58 -26 -105.5t-76.5 -81t-126 -51.5t-171.5 -18q-136 0 -257.5 34t-207.5 96l134 154q61 -41 150.5 -68t184.5 -27q121 0 121 37q0 18 -29.5 28t-114.5 17q-217 19 -315.5 76.5t-98.5 157.5q0 57 30 103t84 77t128.5 47
t160.5 16q81 0 162.5 -14.5t141.5 -38t97 -46.5l-127 -155q-112 68 -273 68q-54 0 -91.5 -7.5t-37.5 -25.5q0 -12 24.5 -21t124.5 -17zM472 -49q45 0 83 -22.5t56.5 -62.5t18.5 -80q0 -52 -25.5 -106.5t-70 -100t-107.5 -76.5l-48 76q94 53 121 126q-10 -10 -35 -10
q-27 0 -59 12.5t-55.5 44.5t-23.5 71q0 33 16.5 60.5t50 47.5t78.5 20z" />
    <glyph glyph-name="scommaaccent" unicode="&#x219;" horiz-adv-x="744" 
d="M395 378q70 -3 138 -17.5t113 -43t62 -62t17 -67.5q0 -43 -21.5 -81.5t-65 -68t-110.5 -46t-153 -16.5q-109 0 -201.5 26t-160.5 67l105 131q119 -64 265 -64q47 0 67.5 5t20.5 18t-22 18.5t-81 8.5q-47 3 -101.5 12t-98 27t-72 40t-44.5 52t-16 65q0 44 25 82t71 64.5
t109.5 41t137.5 14.5q94 0 179 -17.5t146 -49.5l-107 -136q-83 43 -219 43q-91 0 -91 -22q0 -9 16 -14.5t92 -9.5zM375 -49q45 0 83 -22.5t56.5 -62.5t18.5 -80q0 -52 -25.5 -106.5t-70 -100t-107.5 -76.5l-48 76q94 53 121 126q-10 -10 -35 -10q-27 0 -59 12.5t-55.5 44.5
t-23.5 71q0 33 16.5 60.5t50 47.5t78.5 20z" />
    <glyph glyph-name="uni021B" unicode="&#x21b;" horiz-adv-x="593" 
d="M574 36q-39 -27 -100.5 -42.5t-117.5 -15.5q-54 0 -100 15t-79 44.5t-51.5 73t-18.5 98.5v171h-90v180h90v129h270v-129h191v-180h-191v-128q0 -30 21 -49.5t58 -19.5q33 0 85 21zM357 -49q45 0 83 -22.5t56.5 -62.5t18.5 -80q0 -52 -25.5 -106.5t-70 -100t-107.5 -76.5
l-48 76q94 53 121 126q-10 -10 -35 -10q-27 0 -59 12.5t-55.5 44.5t-23.5 71q0 33 16.5 60.5t50 47.5t78.5 20z" />
    <glyph glyph-name="uni0237" unicode="&#x237;" horiz-adv-x="376" 
d="M53 560h270v-522q0 -59 -18.5 -107.5t-53.5 -82.5t-84.5 -52t-108.5 -18q-35 0 -79.5 7.5t-82.5 20.5l34 157q36 -11 60 -11q19 0 34.5 8t22 23t6.5 30v547z" />
    <glyph glyph-name="circumflex" unicode="&#x2c6;" horiz-adv-x="620" 
d="M24 780h221l64 80l64 -80h223l-146 180h-280z" />
    <glyph glyph-name="caron" unicode="&#x2c7;" horiz-adv-x="620" 
d="M24 960l146 -180h280l146 180h-221l-64 -80l-64 80h-223z" />
    <glyph glyph-name="breve" unicode="&#x2d8;" horiz-adv-x="620" 
d="M530 960q0 -29 -12 -62t-38 -62t-69 -47.5t-101 -18.5t-101 18.5t-69 47.5t-38 62t-12 62h150q4 -24 22.5 -41t47.5 -17t47.5 17t22.5 41h150z" />
    <glyph glyph-name="dotaccent" unicode="&#x2d9;" horiz-adv-x="620" 
d="M311 770q-25 0 -53 9t-47.5 33.5t-19.5 57.5q0 46 33.5 72.5t86.5 26.5t86.5 -26.5t33.5 -72.5q0 -33 -19.5 -57.5t-47.5 -33.5t-53 -9z" />
    <glyph glyph-name="ring" unicode="&#x2da;" horiz-adv-x="620" 
d="M310 766q-86 0 -135 34t-49 95t49.5 96t134.5 35t134.5 -35t49.5 -96t-49 -95t-135 -34zM265 895q0 -19 12 -31t33 -12t33 12t12 31t-12 31t-33 12t-33 -12t-12 -31z" />
    <glyph glyph-name="ogonek" unicode="&#x2db;" horiz-adv-x="620" 
d="M429 -184q-13 -20 -37.5 -38.5t-58.5 -26.5t-65 -8q-33 0 -74.5 10.5t-72 41t-30.5 76.5q0 22 11.5 51.5t50 55t99.5 32.5l121 -10q-29 -12 -56 -32.5t-38.5 -41.5t-11.5 -37q0 -23 16.5 -38t43.5 -15q17 0 33 7t29 21z" />
    <glyph glyph-name="tilde" unicode="&#x2dc;" horiz-adv-x="620" 
d="M511 992l89 -173q-29 -28 -72 -43t-93 -15q-31 0 -59.5 5.5t-80 20.5t-79.5 15q-22 0 -46 -7.5t-61 -34.5l-89 173q29 28 72 43t94 15q52 0 112 -18t79 -20.5t28 -2.5q23 0 52.5 9t53.5 33z" />
    <glyph glyph-name="hungarumlaut" unicode="&#x2dd;" horiz-adv-x="620" 
d="M371 960l-165 -180h-226l165 180h226zM640 960l-165 -180h-226l165 180h226z" />
    <glyph glyph-name="uni0326" unicode="&#x326;" horiz-adv-x="0" 
d="M-318 -49q45 0 83 -22.5t56.5 -62.5t18.5 -80q0 -52 -25.5 -106.5t-70 -100t-107.5 -76.5l-48 76q94 53 121 126q-10 -10 -35 -10q-27 0 -59 12.5t-55.5 44.5t-23.5 71q0 33 16.5 60.5t50 47.5t78.5 20z" />
    <glyph glyph-name="Delta" unicode="&#x394;" horiz-adv-x="930" 
d="M463 724l482 -724h-244h-511h-205zM330 170h266l-133 216z" />
    <glyph glyph-name="Omega" unicode="&#x3a9;" horiz-adv-x="1028" 
d="M990 404q0 -50 -20 -96t-51.5 -77.5t-59.5 -50.5h111v-180h-397v180q40 14 73.5 46t46.5 66.5t13 61.5q0 66 -52.5 111t-139.5 45t-139.5 -45t-52.5 -111q0 -27 13 -61.5t46.5 -66.5t73.5 -46v-180h-397v180h111q-62 42 -96.5 99t-34.5 125t34.5 127.5t97.5 102.5
t152 66.5t192 23.5t192 -23.5t152 -66.5t97.5 -102.5t34.5 -127.5z" />
    <glyph glyph-name="mu" unicode="&#x3bc;" horiz-adv-x="807" 
d="M484 560h270v-560h-270v94q-24 -32 -66.5 -53.5t-94.5 -28.5v-212h-270v760h270v-321q0 -30 18 -49.5t47 -19.5q49 0 96 66v324z" />
    <glyph glyph-name="pi" unicode="&#x3c0;" horiz-adv-x="991" 
d="M960 376h-160v-118q0 -31 18 -53t52 -22q19 0 41 6l33 -180q-75 -29 -145 -29q-49 0 -95.5 15t-83.5 44t-58.5 72.5t-21.5 97.5v167h-104v-376h-260v376h-160v184h420h364h160v-184z" />
    <glyph glyph-name="Wgrave" unicode="&#x1e80;" horiz-adv-x="1300" 
d="M351 960h314l120 -180h-187zM1028 700h274l-254 -700h-272l-126 415l-126 -415h-272l-254 700h278l120 -418l133 418h246l133 -418z" />
    <glyph glyph-name="wgrave" unicode="&#x1e81;" horiz-adv-x="1084" 
d="M243 820h314l120 -180h-187zM832 560h250l-190 -560h-251l-99 312l-99 -312h-251l-190 560h254l84 -294l90 294h228l90 -294z" />
    <glyph glyph-name="Wacute" unicode="&#x1e82;" horiz-adv-x="1300" 
d="M953 960l-247 -180h-187l120 180h314zM1028 700h274l-254 -700h-272l-126 415l-126 -415h-272l-254 700h278l120 -418l133 418h246l133 -418z" />
    <glyph glyph-name="wacute" unicode="&#x1e83;" horiz-adv-x="1084" 
d="M845 820l-247 -180h-187l120 180h314zM832 560h250l-190 -560h-251l-99 312l-99 -312h-251l-190 560h254l84 -294l90 294h228l90 -294z" />
    <glyph glyph-name="Wdieresis" unicode="&#x1e84;" horiz-adv-x="1300" 
d="M504 770q-25 0 -53 9t-47.5 33.5t-19.5 57.5q0 46 33.5 72.5t86.5 26.5t86.5 -26.5t33.5 -72.5q0 -33 -19.5 -57.5t-47.5 -33.5t-53 -9zM800 770q-25 0 -53 9t-47.5 33.5t-19.5 57.5q0 46 33.5 72.5t86.5 26.5t86.5 -26.5t33.5 -72.5q0 -33 -19.5 -57.5t-47.5 -33.5
t-53 -9zM1028 700h274l-254 -700h-272l-126 415l-126 -415h-272l-254 700h278l120 -418l133 418h246l133 -418z" />
    <glyph glyph-name="wdieresis" unicode="&#x1e85;" horiz-adv-x="1084" 
d="M396 630q-25 0 -53 9t-47.5 33.5t-19.5 57.5q0 46 33.5 72.5t86.5 26.5t86.5 -26.5t33.5 -72.5q0 -33 -19.5 -57.5t-47.5 -33.5t-53 -9zM692 630q-25 0 -53 9t-47.5 33.5t-19.5 57.5q0 46 33.5 72.5t86.5 26.5t86.5 -26.5t33.5 -72.5q0 -33 -19.5 -57.5t-47.5 -33.5
t-53 -9zM832 560h250l-190 -560h-251l-99 312l-99 -312h-251l-190 560h254l84 -294l90 294h228l90 -294z" />
    <glyph glyph-name="Ygrave" unicode="&#x1ef2;" horiz-adv-x="878" 
d="M139 960h314l120 -180h-187zM-15 700h306l149 -256l148 256h305l-314 -470v-230h-280v230z" />
    <glyph glyph-name="ygrave" unicode="&#x1ef3;" horiz-adv-x="768" 
d="M85 820h314l120 -180h-187zM506 560h269l-365 -760h-269l116 227l-264 533h273l124 -296z" />
    <glyph glyph-name="endash" unicode="&#x2013;" horiz-adv-x="804" 
d="M749 206h-694v200h694v-200z" />
    <glyph glyph-name="emdash" unicode="&#x2014;" horiz-adv-x="1010" 
d="M955 206h-900v200h900v-200z" />
    <glyph glyph-name="quoteleft" unicode="&#x2018;" horiz-adv-x="365" 
d="M189 272q-45 0 -83 22.5t-56.5 62.5t-18.5 80q0 52 25.5 106.5t70 100t107.5 76.5l48 -76q-94 -53 -121 -126q10 10 35 10q27 0 59 -12.5t55.5 -44.5t23.5 -71q0 -33 -16.5 -60.5t-50 -47.5t-78.5 -20z" />
    <glyph glyph-name="quoteright" unicode="&#x2019;" horiz-adv-x="365" 
d="M176 716q45 0 83 -22.5t56.5 -62.5t18.5 -80q0 -52 -25.5 -106.5t-70 -100t-107.5 -76.5l-48 76q94 53 121 126q-10 -10 -35 -10q-27 0 -59 12.5t-55.5 44.5t-23.5 71q0 33 16.5 60.5t50 47.5t78.5 20z" />
    <glyph glyph-name="quotesinglbase" unicode="&#x201a;" horiz-adv-x="365" 
d="M176 240q45 0 83 -22.5t56.5 -62.5t18.5 -80q0 -52 -25.5 -106.5t-70 -100t-107.5 -76.5l-48 76q94 53 121 126q-10 -10 -35 -10q-27 0 -59 12.5t-55.5 44.5t-23.5 71q0 33 16.5 60.5t50 47.5t78.5 20z" />
    <glyph glyph-name="quotedblleft" unicode="&#x201c;" horiz-adv-x="699" 
d="M189 274q-45 0 -83 22.5t-56.5 62.5t-18.5 80q0 52 25.5 106.5t70 100t107.5 76.5l48 -76q-94 -53 -121 -126q10 10 35 10q27 0 59 -12.5t55.5 -44.5t23.5 -71q0 -33 -16.5 -60.5t-50 -47.5t-78.5 -20zM523 274q-45 0 -83 22.5t-56.5 62.5t-18.5 80q0 52 25.5 106.5
t70 100t107.5 76.5l48 -76q-94 -53 -121 -126q10 10 35 10q27 0 59 -12.5t55.5 -44.5t23.5 -71q0 -33 -16.5 -60.5t-50 -47.5t-78.5 -20z" />
    <glyph glyph-name="quotedblright" unicode="&#x201d;" horiz-adv-x="699" 
d="M176 716q45 0 83 -22.5t56.5 -62.5t18.5 -80q0 -52 -25.5 -106.5t-70 -100t-107.5 -76.5l-48 76q94 53 121 126q-10 -10 -35 -10q-27 0 -59 12.5t-55.5 44.5t-23.5 71q0 33 16.5 60.5t50 47.5t78.5 20zM510 716q45 0 83 -22.5t56.5 -62.5t18.5 -80q0 -52 -25.5 -106.5
t-70 -100t-107.5 -76.5l-48 76q94 53 121 126q-10 -10 -35 -10q-27 0 -59 12.5t-55.5 44.5t-23.5 71q0 33 16.5 60.5t50 47.5t78.5 20z" />
    <glyph glyph-name="quotedblbase" unicode="&#x201e;" horiz-adv-x="699" 
d="M176 240q45 0 83 -22.5t56.5 -62.5t18.5 -80q0 -52 -25.5 -106.5t-70 -100t-107.5 -76.5l-48 76q94 53 121 126q-10 -10 -35 -10q-27 0 -59 12.5t-55.5 44.5t-23.5 71q0 33 16.5 60.5t50 47.5t78.5 20zM510 240q45 0 83 -22.5t56.5 -62.5t18.5 -80q0 -52 -25.5 -106.5
t-70 -100t-107.5 -76.5l-48 76q94 53 121 126q-10 -10 -35 -10q-27 0 -59 12.5t-55.5 44.5t-23.5 71q0 33 16.5 60.5t50 47.5t78.5 20z" />
    <glyph glyph-name="dagger" unicode="&#x2020;" horiz-adv-x="468" 
d="M416 631v-152h-99v-183h-168v183h-97v152h97v109h168v-109h99z" />
    <glyph glyph-name="daggerdbl" unicode="&#x2021;" horiz-adv-x="468" 
d="M416 540h-103v-44h103v-124h-103v-76h-160v76h-101v124h101v44h-101v124h101v76h160v-76h103v-124z" />
    <glyph glyph-name="bullet" unicode="&#x2022;" horiz-adv-x="478" 
d="M239 119q-39 0 -73.5 13t-59.5 36.5t-38.5 54t-13.5 64.5q0 25 9 53t31.5 53.5t59 43.5t85.5 18q39 0 73.5 -13t59.5 -36.5t38.5 -54t13.5 -64.5q0 -25 -9 -53t-31.5 -53.5t-59 -43.5t-85.5 -18z" />
    <glyph glyph-name="ellipsis" unicode="&#x2026;" horiz-adv-x="1076" 
d="M180 -16q-32 0 -58.5 9.5t-47.5 26.5t-32 41.5t-11 50.5q0 19 7.5 41t25 41t47 32.5t69.5 13.5q32 0 58.5 -9.5t47.5 -26.5t32 -41.5t11 -50.5q0 -19 -7.5 -41t-25 -41t-47 -32.5t-69.5 -13.5zM538 -16q-32 0 -58.5 9.5t-47.5 26.5t-32 41.5t-11 50.5q0 19 7.5 41t25 41
t47 32.5t69.5 13.5q32 0 58.5 -9.5t47.5 -26.5t32 -41.5t11 -50.5q0 -19 -7.5 -41t-25 -41t-47 -32.5t-69.5 -13.5zM896 -16q-32 0 -58.5 9.5t-47.5 26.5t-32 41.5t-11 50.5q0 19 7.5 41t25 41t47 32.5t69.5 13.5q32 0 58.5 -9.5t47.5 -26.5t32 -41.5t11 -50.5
q0 -19 -7.5 -41t-25 -41t-47 -32.5t-69.5 -13.5z" />
    <glyph glyph-name="perthousand" unicode="&#x2030;" horiz-adv-x="1345" 
d="M213 358q-43 0 -81 13.5t-65.5 38t-43 58t-15.5 71.5t15.5 71.5t43 58t65.5 38t81 13.5t81 -13.5t65.5 -38t43 -58t15.5 -71.5t-15.5 -71.5t-43 -58t-65.5 -38t-81 -13.5zM645 700h170l-548 -700h-170zM213 480q28 0 46.5 15.5t18.5 43.5t-18.5 43.5t-46.5 15.5
t-46.5 -15.5t-18.5 -43.5t18.5 -43.5t46.5 -15.5zM699 -20q-43 0 -81 13.5t-65.5 38t-43 58t-15.5 71.5t15.5 71.5t43 58t65.5 38t81 13.5t81 -13.5t65.5 -38t43 -58t15.5 -71.5t-15.5 -71.5t-43 -58t-65.5 -38t-81 -13.5zM1132 -20q-43 0 -81 13.5t-65.5 38t-43 58
t-15.5 71.5t15.5 71.5t43 58t65.5 38t81 13.5t81 -13.5t65.5 -38t43 -58t15.5 -71.5t-15.5 -71.5t-43 -58t-65.5 -38t-81 -13.5zM699 102q28 0 46.5 15.5t18.5 43.5t-18.5 43.5t-46.5 15.5t-46.5 -15.5t-18.5 -43.5t18.5 -43.5t46.5 -15.5zM1132 102q28 0 46.5 15.5
t18.5 43.5t-18.5 43.5t-46.5 15.5t-46.5 -15.5t-18.5 -43.5t18.5 -43.5t46.5 -15.5z" />
    <glyph glyph-name="minute" unicode="&#x2032;" horiz-adv-x="369" 
d="M123 700h230l-95 -316h-230z" />
    <glyph glyph-name="second" unicode="&#x2033;" horiz-adv-x="660" 
d="M123 700h230l-95 -316h-230zM414 700h230l-95 -316h-230z" />
    <glyph glyph-name="guilsinglleft" unicode="&#x2039;" horiz-adv-x="510" 
d="M235 537l-210 -230l210 -230h241l-210 230l210 230h-241z" />
    <glyph glyph-name="guilsinglright" unicode="&#x203a;" horiz-adv-x="510" 
d="M275 537h-241l210 -230l-210 -230h241l210 230z" />
    <glyph glyph-name="uni203D" unicode="&#x203d;" horiz-adv-x="786" 
d="M382 722q87 0 157.5 -18t119 -48.5t70 -71.5t21.5 -84q0 -54 -28.5 -93.5t-84.5 -65t-140 -31.5v-51h-208v251h169q-7 10 -28 18t-59 8q-117 0 -218 -90l-132 142q86 74 172.5 104t188.5 30zM390 240q32 0 58.5 -9.5t47.5 -26.5t32 -41.5t11 -50.5q0 -19 -7.5 -41
t-25 -41t-47 -32.5t-69.5 -13.5q-32 0 -58.5 9.5t-47.5 26.5t-32 41.5t-11 50.5q0 19 7.5 41t25 41t47 32.5t69.5 13.5z" />
    <glyph glyph-name="fraction" unicode="&#x2044;" horiz-adv-x="320" 
d="M15 0h-184l470 700h184z" />
    <glyph glyph-name="uni2070" unicode="&#x2070;" horiz-adv-x="569" 
d="M285 436q-59 0 -108 14.5t-83.5 43.5t-53 71t-18.5 95t18.5 95t53 71t83.5 43.5t108 14.5q58 0 107 -14.5t83.5 -43.5t53 -71t18.5 -95t-18.5 -95t-53 -71t-83.5 -43.5t-107 -14.5zM285 565q42 0 66 25.5t24 69.5t-24 69.5t-66 25.5q-43 0 -67 -25.5t-24 -69.5t24 -69.5
t67 -25.5z" />
    <glyph glyph-name="uni2074" unicode="&#x2074;" horiz-adv-x="537" 
d="M519 632v-113h-69v-69h-164v69h-276v91l288 260h152v-238h69zM201 632h85v88z" />
    <glyph glyph-name="uni2075" unicode="&#x2075;" horiz-adv-x="506" 
d="M86 602q30 -19 74 -30.5t92 -11.5q63 0 63 30q0 32 -63 32q-23 0 -51.5 -5.5t-48.5 -16.5l-118 42l34 228h379v-115h-252l-8 -60q23 17 58 28t72 11q45 0 85 -18t63 -50.5t23 -76.5q0 -49 -26.5 -82.5t-78 -52t-131.5 -18.5q-136 0 -237 66z" />
    <glyph glyph-name="uni2076" unicode="&#x2076;" horiz-adv-x="537" 
d="M315 733q30 0 66 -7t66 -22.5t49.5 -43.5t19.5 -66q0 -70 -61 -114t-173 -44q-58 0 -106.5 15.5t-82.5 44.5t-52.5 71t-18.5 93t18.5 93t52.5 71t82.5 44.5t106.5 15.5q72 0 130.5 -18t95.5 -49l-81 -86q-24 18 -58.5 29.5t-63.5 11.5q-87 0 -106 -65q24 13 56.5 19.5
t59.5 6.5zM282 548q29 0 46 10t17 31q0 42 -63 42q-46 0 -84 -19q15 -64 84 -64z" />
    <glyph glyph-name="uni2077" unicode="&#x2077;" horiz-adv-x="462" 
d="M61 450l191 296h-238v124h438v-95l-202 -325h-189z" />
    <glyph glyph-name="uni2078" unicode="&#x2078;" horiz-adv-x="531" 
d="M406 668q47 -9 75 -34.5t28 -65.5q0 -38 -27.5 -67t-81.5 -47t-134 -18q-108 0 -176 35.5t-68 96.5q0 40 28 65.5t75 34.5q-21 3 -42 14.5t-33.5 33.5t-12.5 48q0 37 30.5 66t85.5 41.5t113 12.5q42 0 84.5 -7t75 -22t50.5 -38t18 -53q0 -26 -12.5 -48t-33.5 -33.5
t-42 -14.5zM208 745q0 -15 17.5 -24t40.5 -9t40 9t17 24t-17 24.5t-40 9.5t-40.5 -9t-17.5 -25zM266 541q26 0 46 10.5t20 29.5t-20 29.5t-46 10.5q-27 0 -47 -10.5t-20 -29.5t20 -29.5t47 -10.5z" />
    <glyph glyph-name="uni2079" unicode="&#x2079;" horiz-adv-x="537" 
d="M255 884q58 0 106.5 -15.5t82.5 -44.5t52.5 -71t18.5 -93t-18.5 -93t-52.5 -71t-82.5 -44.5t-106.5 -15.5q-72 0 -130.5 18t-95.5 49l81 86q24 -18 58.5 -29.5t63.5 -11.5q87 0 106 65q-24 -13 -56.5 -19.5t-59.5 -6.5q-30 0 -66 7t-66 22.5t-49.5 43.5t-19.5 66
q0 70 61 114t173 44zM192 731q0 -42 63 -42q46 0 84 19q-15 64 -84 64q-29 0 -46 -10t-17 -31z" />
    <glyph glyph-name="uni20A8" unicode="&#x20a8;" horiz-adv-x="889" 
d="M854 552h-136q9 -14 18 -42h118v-148h-119q-16 -51 -54.5 -90.5t-92.5 -62.5l180 -209h-276l-141 172h-301v148h325q84 0 117 42h-442v148h442q-33 42 -117 42h-325v148h804v-148z" />
    <glyph glyph-name="Euro" unicode="&#x20ac;" horiz-adv-x="913" 
d="M521 176q25 0 55 9.5t56 34t40 57.5l210 -106q-24 -58 -79 -103t-125 -69.5t-150 -24.5q-77 0 -144.5 18t-120 53t-88.5 86.5t-51 115.5h-94v75h83l-1 28l1 28h-83v75h94q15 64 51 115.5t88.5 86.5t120 53t144.5 18q80 0 150 -24.5t125 -69.5t79 -103l-210 -106
q-14 33 -40 57.5t-56 34t-55 9.5q-43 0 -76.5 -19t-53.5 -52h186v-75h-209l-2 -28l2 -28h209v-75h-186q20 -33 53.5 -52t76.5 -19z" />
    <glyph glyph-name="afii61289" unicode="&#x2113;" horiz-adv-x="647" 
d="M395 150q43 0 92 75l119 -119q-35 -60 -95.5 -93t-134.5 -33q-66 0 -116.5 22.5t-81.5 62t-39 95.5l-69 -23l-47 133l114 41v234q0 40 13.5 79.5t44 69.5t77 48t104.5 18q71 0 125 -27t84 -74.5t30 -115.5q0 -98 -66 -171t-206 -136v-28q0 -26 15.5 -42t36.5 -16z
M376 590q-33 0 -33 -58v-132q28 19 46.5 48.5t18.5 83.5q0 58 -32 58z" />
    <glyph glyph-name="uni2117" unicode="&#x2117;" horiz-adv-x="1000" 
d="M500 -24q-130 0 -237.5 43.5t-170 130t-62.5 200.5t62.5 200.5t170 130t237.5 43.5t237.5 -43.5t170 -130t62.5 -200.5t-62.5 -200.5t-170 -130t-237.5 -43.5zM500 34q87 0 162 21t130 62t85.5 100.5t30.5 132.5t-30.5 132.5t-85.5 100.5t-130 62t-162 21t-162 -21
t-130 -62t-85.5 -100.5t-30.5 -132.5t30.5 -132.5t85.5 -100.5t130 -62t162 -21zM578 596q80 0 137.5 -23t88.5 -63t31 -96t-31 -96t-88.5 -63t-137.5 -23h-125v-128h-213v492h338zM557 360q28 0 45.5 11.5t17.5 36.5t-17.5 36.5t-45.5 11.5h-104v-96h104z" />
    <glyph glyph-name="trademark" unicode="&#x2122;" horiz-adv-x="974" 
d="M404 700v-112h-114v-230h-144v230h-114v112h372zM759 700h150v-342h-142v169l-92 -133h-3l-91 133v-169h-142v342h152l83 -123z" />
    <glyph glyph-name="estimated" unicode="&#x212e;" horiz-adv-x="972" 
d="M486 112q194 0 299 94l98 -108q-72 -62 -169.5 -93t-227.5 -31q-97 0 -180.5 25t-145.5 73.5t-96 119t-34 158.5q0 65 19.5 122.5t56 101.5t87 76t112.5 50.5t112.5 22t68.5 3.5q98 0 182 -26.5t145.5 -79.5t95 -134.5t33.5 -186.5h-158h-482v-151q69 -36 184 -36z
M663 552q-66 36 -177 36q-115 0 -184 -36v-123h361v123z" />
    <glyph glyph-name="oneeighth" unicode="&#x215b;" horiz-adv-x="1153" 
d="M131 280v257q-43 -24 -115 -36v126q40 6 84.5 26.5t72.5 46.5h128v-420h-170zM350 0h-184l470 700h184zM1028 218q47 -9 75 -34.5t28 -65.5q0 -38 -27.5 -67t-81.5 -47t-134 -18q-108 0 -176 35.5t-68 96.5q0 40 28 65.5t75 34.5q-21 3 -42 14.5t-33.5 33.5t-12.5 48
q0 37 30.5 66t85.5 41.5t113 12.5q42 0 84.5 -7t75 -22t50.5 -38t18 -53q0 -26 -12.5 -48t-33.5 -33.5t-42 -14.5zM830 295q0 -15 17.5 -24t40.5 -9t40 9t17 24t-17 24.5t-40 9.5t-40.5 -9t-17.5 -25zM888 91q26 0 46 10.5t20 29.5t-20 29.5t-46 10.5q-27 0 -47 -10.5
t-20 -29.5t20 -29.5t47 -10.5z" />
    <glyph glyph-name="threeeighths" unicode="&#x215c;" horiz-adv-x="1290" 
d="M108 433q61 -50 118 -50q34 0 50 10t16 24q0 27 -61 27h-72v100h72q27 0 39 8t12 18q0 27 -58 27q-57 0 -114 -50l-96 68q16 22 47 45.5t78 38t98 14.5q38 0 89.5 -8.5t90 -37t38.5 -73.5q0 -26 -12 -49t-33.5 -35t-42.5 -15q48 -9 76 -33.5t28 -63.5q0 -15 -6 -33.5
t-22 -35t-40 -29t-64.5 -23t-101.5 -10.5q-51 0 -98.5 14.5t-79 38t-48.5 45.5zM487 0h-184l470 700h184zM1165 218q47 -9 75 -34.5t28 -65.5q0 -38 -27.5 -67t-81.5 -47t-134 -18q-108 0 -176 35.5t-68 96.5q0 40 28 65.5t75 34.5q-21 3 -42 14.5t-33.5 33.5t-12.5 48
q0 37 30.5 66t85.5 41.5t113 12.5q42 0 84.5 -7t75 -22t50.5 -38t18 -53q0 -26 -12.5 -48t-33.5 -33.5t-42 -14.5zM967 295q0 -15 17.5 -24t40.5 -9t40 9t17 24t-17 24.5t-40 9.5t-40.5 -9t-17.5 -25zM1025 91q26 0 46 10.5t20 29.5t-20 29.5t-46 10.5q-27 0 -47 -10.5
t-20 -29.5t20 -29.5t47 -10.5z" />
    <glyph glyph-name="fiveeighths" unicode="&#x215d;" horiz-adv-x="1309" 
d="M86 432q30 -19 74 -30.5t92 -11.5q63 0 63 30q0 32 -63 32q-23 0 -51.5 -5.5t-48.5 -16.5l-118 42l34 228h379v-115h-252l-8 -60q23 17 58 28t72 11q45 0 85 -18t63 -50.5t23 -76.5q0 -49 -26.5 -82.5t-78 -52t-131.5 -18.5q-136 0 -237 66zM506 0h-184l470 700h184z
M1184 218q47 -9 75 -34.5t28 -65.5q0 -38 -27.5 -67t-81.5 -47t-134 -18q-108 0 -176 35.5t-68 96.5q0 40 28 65.5t75 34.5q-21 3 -42 14.5t-33.5 33.5t-12.5 48q0 37 30.5 66t85.5 41.5t113 12.5q42 0 84.5 -7t75 -22t50.5 -38t18 -53q0 -26 -12.5 -48t-33.5 -33.5
t-42 -14.5zM986 295q0 -15 17.5 -24t40.5 -9t40 9t17 24t-17 24.5t-40 9.5t-40.5 -9t-17.5 -25zM1044 91q26 0 46 10.5t20 29.5t-20 29.5t-46 10.5q-27 0 -47 -10.5t-20 -29.5t20 -29.5t47 -10.5z" />
    <glyph glyph-name="seveneighths" unicode="&#x215e;" horiz-adv-x="1167" 
d="M61 280l191 296h-238v124h438v-95l-202 -325h-189zM364 0h-184l470 700h184zM1042 218q47 -9 75 -34.5t28 -65.5q0 -38 -27.5 -67t-81.5 -47t-134 -18q-108 0 -176 35.5t-68 96.5q0 40 28 65.5t75 34.5q-21 3 -42 14.5t-33.5 33.5t-12.5 48q0 37 30.5 66t85.5 41.5
t113 12.5q42 0 84.5 -7t75 -22t50.5 -38t18 -53q0 -26 -12.5 -48t-33.5 -33.5t-42 -14.5zM844 295q0 -15 17.5 -24t40.5 -9t40 9t17 24t-17 24.5t-40 9.5t-40.5 -9t-17.5 -25zM902 91q26 0 46 10.5t20 29.5t-20 29.5t-46 10.5q-27 0 -47 -10.5t-20 -29.5t20 -29.5t47 -10.5z
" />
    <glyph glyph-name="arrowleft" unicode="&#x2190;" horiz-adv-x="960" 
d="M857 455v-224h-420l144 -144l-124 -124l-380 380l380 380l124 -124l-144 -144h420z" />
    <glyph glyph-name="arrowup" unicode="&#x2191;" horiz-adv-x="960" 
d="M860 360l-124 -124l-144 144v-420h-224v420l-144 -144l-124 124l380 380z" />
    <glyph glyph-name="arrowright" unicode="&#x2192;" horiz-adv-x="960" 
d="M503 723l380 -380l-380 -380l-124 124l144 144h-420v224h420l-144 144z" />
    <glyph glyph-name="arrowdown" unicode="&#x2193;" horiz-adv-x="960" 
d="M736 464l124 -124l-380 -380l-380 380l124 124l144 -144v420h224v-420z" />
    <glyph glyph-name="uni2196" unicode="&#x2196;" horiz-adv-x="960" 
d="M816 181l-154 -154l-295 295v-204h-180v538h538v-180h-204z" />
    <glyph glyph-name="uni2197" unicode="&#x2197;" horiz-adv-x="960" 
d="M235 656h538v-538h-180v204l-295 -295l-154 154l295 295h-204v180z" />
    <glyph glyph-name="uni2198" unicode="&#x2198;" horiz-adv-x="960" 
d="M593 585h180v-538h-538v180h204l-295 295l154 154l295 -295v204z" />
    <glyph glyph-name="uni2199" unicode="&#x2199;" horiz-adv-x="960" 
d="M816 522l-295 -295h204v-180h-538v538h180v-204l295 295z" />
    <glyph glyph-name="partialdiff" unicode="&#x2202;" horiz-adv-x="812" 
d="M786 300q0 -80 -27.5 -142t-78 -102.5t-120.5 -61t-154 -20.5q-83 0 -153.5 18t-121 53t-78 87.5t-27.5 117.5q0 47 17 92t54.5 77.5t90.5 51t115 18.5q64 0 132.5 -19.5t100.5 -55.5q-26 44 -79 80t-125 59.5t-160 28.5l33 185q172 -11 304 -69t204.5 -165t72.5 -233z
M406 164q42 0 72.5 12.5t42 33t11.5 40.5t-11.5 40.5t-42 33t-72.5 12.5t-72.5 -12.5t-42 -33t-11.5 -40.5t11.5 -40.5t42 -33t72.5 -12.5z" />
    <glyph glyph-name="emptyset" unicode="&#x2205;" horiz-adv-x="819" 
d="M707 554q35 -38 54 -89t19 -109q0 -69 -26 -126.5t-75 -97.5t-118 -61t-151 -21q-49 0 -99 9t-87 24l-78 -77l-94 94l61 58q-35 38 -54 89t-19 109q0 69 26 126.5t75 97.5t118 61t151 21q49 0 99 -9t88 -24l77 77l94 -94zM294 356l2 -24l83 78l54 54l-23 2
q-37 0 -65.5 -17t-39.5 -43t-11 -50zM410 246q37 0 65.5 17t39.5 43t11 50l-2 24l-63 -60l-73 -72z" />
    <glyph glyph-name="product" unicode="&#x220f;" horiz-adv-x="860" 
d="M798 700v-820h-250v624h-236v-624h-250v820h736z" />
    <glyph glyph-name="summation" unicode="&#x2211;" horiz-adv-x="760" 
d="M713 500h-303l236 -149v-112l-239 -159h309v-200h-680v170l347 245l-344 235v170h674v-200z" />
    <glyph glyph-name="minus" unicode="&#x2212;" horiz-adv-x="732" 
d="M682 206h-632v200h632v-200z" />
    <glyph glyph-name="radical" unicode="&#x221a;" horiz-adv-x="791" 
d="M564 700h242l-304 -820h-209l-144 332h-136v185h204h95l76 -199z" />
    <glyph glyph-name="infinity" unicode="&#x221e;" horiz-adv-x="1061" 
d="M759 534q120 0 192.5 -66.5t72.5 -174.5t-72.5 -174.5t-192.5 -66.5q-133 0 -228 97q-97 -97 -229 -97q-120 0 -192.5 66.5t-72.5 174.5t72.5 174.5t192.5 66.5q132 0 229 -97q95 97 228 97zM309 222q22 0 47.5 14t60.5 57q-35 43 -60.5 57t-47.5 14q-31 0 -51 -20.5
t-20 -50.5t20 -50.5t51 -20.5zM752 222q31 0 51 20.5t20 50.5t-20 50.5t-51 20.5q-22 0 -47.5 -14t-60.5 -57q35 -43 60.5 -57t47.5 -14z" />
    <glyph glyph-name="integral" unicode="&#x222b;" horiz-adv-x="502" 
d="M351 760q36 0 79 -9t76 -25l-31 -159q-16 4 -32 4q-31 0 -46.5 -16t-15.5 -45v-403v-52q0 -48 -16.5 -88t-47 -68.5t-73.5 -43.5t-93 -15q-36 0 -79 9t-76 25l31 159q16 -4 32 -4q31 0 46.5 16t15.5 45v403v52q0 48 16.5 88t47 68.5t73.5 43.5t93 15z" />
    <glyph glyph-name="approxequal" unicode="&#x2248;" horiz-adv-x="732" 
d="M587 569l89 -194q-29 -28 -72 -43t-93 -15q-51 0 -132 20.5t-116 20.5q-28 0 -54 -7.5t-64 -34.5l-89 194q29 28 72 43t94 15q50 0 131 -20.5t117 -20.5q75 0 117 42zM587 297l89 -194q-29 -28 -72 -43t-93 -15q-51 0 -132 20.5t-116 20.5q-28 0 -54 -7.5t-64 -34.5
l-89 194q29 28 72 43t94 15q50 0 131 -20.5t117 -20.5q75 0 117 42z" />
    <glyph glyph-name="notequal" unicode="&#x2260;" horiz-adv-x="732" 
d="M682 360h-207l-34 -80h241v-200h-324l-34 -80h-184l34 80h-124v200h207l34 80h-241v200h325l33 80h184l-33 -80h123v-200z" />
    <glyph glyph-name="lessequal" unicode="&#x2264;" horiz-adv-x="732" 
d="M651 657l-580 -126v-200l580 -126v182l-344 44l344 44v182zM71 0v169h580v-169h-580z" />
    <glyph glyph-name="greaterequal" unicode="&#x2265;" horiz-adv-x="732" 
d="M81 657v-182l344 -44l-344 -44v-182l580 126v200zM661 0h-580v169h580v-169z" />
    <glyph glyph-name="lozenge" unicode="&#x25ca;" horiz-adv-x="813" 
d="M533 700l256 -344l-256 -356h-253l-256 356l256 344h253zM289 356l118 -171l117 171l-117 166z" />
    <glyph glyph-name="germandbls.case" horiz-adv-x="903" 
d="M402 165q51 -11 89 -11q49 0 74.5 19.5t25.5 48.5t-26 48.5t-78 19.5h-67v146h49q42 0 66.5 18t24.5 44q0 27 -26 44.5t-68 17.5q-40 0 -74 -16.5t-48 -44.5t-14 -59v-440h-280v412q0 75 29 134t83.5 98.5t131.5 59.5t171 20q81 0 150.5 -15t119 -41.5t76 -63t26.5 -77.5
q0 -36 -22.5 -71t-66.5 -55t-94 -23q44 -3 84.5 -15.5t72 -34.5t49.5 -53.5t18 -69.5q0 -42 -22.5 -82t-63.5 -71t-99 -48.5t-126 -17.5q-40 0 -90.5 7t-94.5 17z" />
    <glyph glyph-name="a.salt" 
d="M315 580q63 0 116 -21t91 -66v67h270v-560h-270v67q-38 -45 -91.5 -66t-115.5 -21q-64 0 -117.5 20.5t-92 59.5t-59 95.5t-20.5 124.5q0 69 20.5 125.5t59 95t92 59t117.5 20.5zM397 170q78 0 125 60v100q-47 60 -125 60q-26 0 -54 -10t-45.5 -37t-17.5 -63t17.5 -63
t45.5 -37t54 -10z" />
    <glyph glyph-name="aacute.salt" 
d="M737 820l-247 -180h-187l120 180h314zM315 580q63 0 116 -21t91 -66v67h270v-560h-270v67q-38 -45 -91.5 -66t-115.5 -21q-64 0 -117.5 20.5t-92 59.5t-59 95.5t-20.5 124.5q0 69 20.5 125.5t59 95t92 59t117.5 20.5zM397 170q78 0 125 60v100q-47 60 -125 60
q-26 0 -54 -10t-45.5 -37t-17.5 -63t17.5 -63t45.5 -37t54 -10z" />
    <glyph glyph-name="abreve.salt" 
d="M656 820q0 -29 -12 -62t-38 -62t-69 -47.5t-101 -18.5t-101 18.5t-69 47.5t-38 62t-12 62h150q4 -24 22.5 -41t47.5 -17t47.5 17t22.5 41h150zM315 580q63 0 116 -21t91 -66v67h270v-560h-270v67q-38 -45 -91.5 -66t-115.5 -21q-64 0 -117.5 20.5t-92 59.5t-59 95.5
t-20.5 124.5q0 69 20.5 125.5t59 95t92 59t117.5 20.5zM397 170q78 0 125 60v100q-47 60 -125 60q-26 0 -54 -10t-45.5 -37t-17.5 -63t17.5 -63t45.5 -37t54 -10z" />
    <glyph glyph-name="acircumflex.salt" 
d="M150 640h221l64 80l64 -80h223l-146 180h-280zM315 580q63 0 116 -21t91 -66v67h270v-560h-270v67q-38 -45 -91.5 -66t-115.5 -21q-64 0 -117.5 20.5t-92 59.5t-59 95.5t-20.5 124.5q0 69 20.5 125.5t59 95t92 59t117.5 20.5zM397 170q78 0 125 60v100q-47 60 -125 60
q-26 0 -54 -10t-45.5 -37t-17.5 -63t17.5 -63t45.5 -37t54 -10z" />
    <glyph glyph-name="adieresis.salt" 
d="M288 630q-25 0 -53 9t-47.5 33.5t-19.5 57.5q0 46 33.5 72.5t86.5 26.5t86.5 -26.5t33.5 -72.5q0 -33 -19.5 -57.5t-47.5 -33.5t-53 -9zM584 630q-25 0 -53 9t-47.5 33.5t-19.5 57.5q0 46 33.5 72.5t86.5 26.5t86.5 -26.5t33.5 -72.5q0 -33 -19.5 -57.5t-47.5 -33.5
t-53 -9zM315 580q63 0 116 -21t91 -66v67h270v-560h-270v67q-38 -45 -91.5 -66t-115.5 -21q-64 0 -117.5 20.5t-92 59.5t-59 95.5t-20.5 124.5q0 69 20.5 125.5t59 95t92 59t117.5 20.5zM397 170q78 0 125 60v100q-47 60 -125 60q-26 0 -54 -10t-45.5 -37t-17.5 -63
t17.5 -63t45.5 -37t54 -10z" />
    <glyph glyph-name="agrave.salt" 
d="M135 820h314l120 -180h-187zM315 580q63 0 116 -21t91 -66v67h270v-560h-270v67q-38 -45 -91.5 -66t-115.5 -21q-64 0 -117.5 20.5t-92 59.5t-59 95.5t-20.5 124.5q0 69 20.5 125.5t59 95t92 59t117.5 20.5zM397 170q78 0 125 60v100q-47 60 -125 60q-26 0 -54 -10
t-45.5 -37t-17.5 -63t17.5 -63t45.5 -37t54 -10z" />
    <glyph glyph-name="amacron.salt" 
d="M178 820h516v-172h-516v172zM315 580q63 0 116 -21t91 -66v67h270v-560h-270v67q-38 -45 -91.5 -66t-115.5 -21q-64 0 -117.5 20.5t-92 59.5t-59 95.5t-20.5 124.5q0 69 20.5 125.5t59 95t92 59t117.5 20.5zM397 170q78 0 125 60v100q-47 60 -125 60q-26 0 -54 -10
t-45.5 -37t-17.5 -63t17.5 -63t45.5 -37t54 -10z" />
    <glyph glyph-name="aogonek.salt" 
d="M808 -136l40 -48q-13 -20 -37.5 -38.5t-58.5 -26.5t-65 -8q-33 0 -74.5 10.5t-72 41t-30.5 76.5q0 30 15.5 58t42.5 45.5t54 25.5h-100v67q-38 -45 -91.5 -66t-115.5 -21q-64 0 -117.5 20.5t-92 59.5t-59 95.5t-20.5 124.5q0 69 20.5 125.5t59 95t92 59t117.5 20.5
q63 0 116 -21t91 -66v67h270v-560q-29 -12 -56 -32.5t-38.5 -41.5t-11.5 -37q0 -23 16.5 -38t43.5 -15q17 0 33 7t29 21zM522 230v100q-47 60 -125 60q-26 0 -54 -10t-45.5 -37t-17.5 -63t17.5 -63t45.5 -37t54 -10q78 0 125 60z" />
    <glyph glyph-name="aring.salt" 
d="M436 626q-86 0 -135 34t-49 95t49.5 96t134.5 35t134.5 -35t49.5 -96t-49 -95t-135 -34zM391 755q0 -19 12 -31t33 -12t33 12t12 31t-12 31t-33 12t-33 -12t-12 -31zM315 580q63 0 116 -21t91 -66v67h270v-560h-270v67q-38 -45 -91.5 -66t-115.5 -21q-64 0 -117.5 20.5
t-92 59.5t-59 95.5t-20.5 124.5q0 69 20.5 125.5t59 95t92 59t117.5 20.5zM397 170q78 0 125 60v100q-47 60 -125 60q-26 0 -54 -10t-45.5 -37t-17.5 -63t17.5 -63t45.5 -37t54 -10z" />
    <glyph glyph-name="aringacute.salt" 
d="M436 626q-86 0 -135 34t-49 95q0 34 16 61l-6 3l81 141h252l-103 -78q60 -11 94 -44t34 -83q0 -61 -49 -95t-135 -34zM436 712q21 0 33 12t12 31t-12 31t-33 12t-33 -12t-12 -31t12 -31t33 -12zM522 560h270v-560h-270v67q-38 -45 -91.5 -66t-115.5 -21
q-64 0 -117.5 20.5t-92 59.5t-59 95.5t-20.5 124.5q0 69 20.5 125.5t59 95t92 59t117.5 20.5q63 0 116 -21t91 -66v67zM522 230v100q-47 60 -125 60q-26 0 -54 -10t-45.5 -37t-17.5 -63t17.5 -63t45.5 -37t54 -10q78 0 125 60z" />
    <glyph glyph-name="atilde.salt" 
d="M637 852l89 -173q-29 -28 -72 -43t-93 -15q-31 0 -59.5 5.5t-80 20.5t-79.5 15q-22 0 -46 -7.5t-61 -34.5l-89 173q29 28 72 43t94 15q52 0 112 -18t79 -20.5t28 -2.5q23 0 52.5 9t53.5 33zM315 580q63 0 116 -21t91 -66v67h270v-560h-270v67q-38 -45 -91.5 -66
t-115.5 -21q-64 0 -117.5 20.5t-92 59.5t-59 95.5t-20.5 124.5q0 69 20.5 125.5t59 95t92 59t117.5 20.5zM397 170q78 0 125 60v100q-47 60 -125 60q-26 0 -54 -10t-45.5 -37t-17.5 -63t17.5 -63t45.5 -37t54 -10z" />
    <glyph glyph-name="A.c2sc" horiz-adv-x="905" 
d="M633 0l-40 87h-285l-40 -87h-280l320 620h289l320 -620h-284zM383 250h134l-67 145z" />
    <glyph glyph-name="Aacute.c2sc" horiz-adv-x="905" 
d="M753 880l-247 -180h-187l120 180h314zM633 0l-40 87h-285l-40 -87h-280l320 620h289l320 -620h-284zM383 250h134l-67 145z" />
    <glyph glyph-name="Abreve.c2sc" horiz-adv-x="905" 
d="M452 690q-58 0 -101 18.5t-69 47.5t-38 62t-12 62h150q4 -24 22.5 -41t47.5 -17t47.5 17t22.5 41h150q0 -29 -12 -62t-38 -62t-69 -47.5t-101 -18.5zM633 0l-40 87h-285l-40 -87h-280l320 620h289l320 -620h-284zM383 250h134l-67 145z" />
    <glyph glyph-name="Acircumflex.c2sc" horiz-adv-x="905" 
d="M451 780l-64 -80h-221l146 180h280l146 -180h-223zM633 0l-40 87h-285l-40 -87h-280l320 620h289l320 -620h-284zM383 250h134l-67 145z" />
    <glyph glyph-name="Adieresis.c2sc" horiz-adv-x="905" 
d="M304 690q-25 0 -53 9t-47.5 33.5t-19.5 57.5q0 46 33.5 72.5t86.5 26.5t86.5 -26.5t33.5 -72.5q0 -33 -19.5 -57.5t-47.5 -33.5t-53 -9zM600 690q-25 0 -53 9t-47.5 33.5t-19.5 57.5q0 46 33.5 72.5t86.5 26.5t86.5 -26.5t33.5 -72.5q0 -33 -19.5 -57.5t-47.5 -33.5
t-53 -9zM633 0l-40 87h-285l-40 -87h-280l320 620h289l320 -620h-284zM383 250h134l-67 145z" />
    <glyph glyph-name="Agrave.c2sc" horiz-adv-x="905" 
d="M585 700h-187l-247 180h314zM633 0l-40 87h-285l-40 -87h-280l320 620h289l320 -620h-284zM383 250h134l-67 145z" />
    <glyph glyph-name="Amacron.c2sc" horiz-adv-x="905" 
d="M710 880v-172h-516v172h516zM633 0l-40 87h-285l-40 -87h-280l320 620h289l320 -620h-284zM383 250h134l-67 145z" />
    <glyph glyph-name="Aogonek.c2sc" horiz-adv-x="905" 
d="M933 -136l40 -48q-13 -20 -37.5 -38.5t-58.5 -26.5t-65 -8q-33 0 -74.5 10.5t-72 41t-30.5 76.5q0 30 15.5 58t42.5 45.5t54 25.5h-114l-40 87h-285l-40 -87h-280l320 620h289l320 -620q-29 -12 -56 -32.5t-38.5 -41.5t-11.5 -37q0 -23 16.5 -38t43.5 -15q17 0 33 7
t29 21zM383 250h134l-67 145z" />
    <glyph glyph-name="Aring.c2sc" horiz-adv-x="905" 
d="M452 686q-86 0 -135 34t-49 95t49.5 96t134.5 35t134.5 -35t49.5 -96t-49 -95t-135 -34zM452 858q-21 0 -33 -12t-12 -31t12 -31t33 -12t33 12t12 31t-12 31t-33 12zM633 0l-40 87h-285l-40 -87h-280l320 620h289l320 -620h-284zM383 250h134l-67 145z" />
    <glyph glyph-name="Aringacute.c2sc" horiz-adv-x="905" 
d="M452 686q-86 0 -135 34t-49 95q0 39 19 65l80 140h252l-105 -80q57 -11 89.5 -44t32.5 -81q0 -61 -49 -95t-135 -34zM452 772q21 0 33 12t12 31t-12 31t-33 12t-33 -12t-12 -31t12 -31t33 -12zM633 0l-40 87h-285l-40 -87h-280l320 620h289l320 -620h-284zM383 250h134
l-67 145z" />
    <glyph glyph-name="Atilde.c2sc" horiz-adv-x="905" 
d="M358 722q-22 0 -46 -7.5t-61 -34.5l-89 173q29 28 72 43t94 15q52 0 112 -18t79 -20.5t28 -2.5q23 0 52.5 9t53.5 33l89 -173q-29 -28 -72 -43t-93 -15q-31 0 -59.5 5.5t-80 20.5t-79.5 15zM633 0l-40 87h-285l-40 -87h-280l320 620h289l320 -620h-284zM383 250h134
l-67 145z" />
    <glyph glyph-name="ae.aalt" horiz-adv-x="1388" 
d="M879 187h470v-187h-734v98h-262l-80 -98h-294l537 620h120h703v-186h-460v-37h369v-167h-369v-43zM485 261h130v160z" />
    <glyph glyph-name="aeacute.aalt" horiz-adv-x="1388" 
d="M1137 880l-247 -180h-187l120 180h314zM879 187h470v-187h-734v98h-262l-80 -98h-294l537 620h120h703v-186h-460v-37h369v-167h-369v-43zM485 261h130v160z" />
    <glyph glyph-name="B.aalt" horiz-adv-x="891" 
d="M673 320q35 -2 71.5 -13.5t63.5 -31t42 -47t15 -59.5q0 -75 -74.5 -122t-196.5 -47h-535v620h498q76 0 141 -20.5t97.5 -60t32.5 -83.5q0 -32 -18 -64t-55 -51t-82 -21zM325 457v-72h186q21 0 35.5 9.5t14.5 26.5t-14.5 26.5t-35.5 9.5h-186zM536 163q23 0 37.5 11
t14.5 28t-14.5 28.5t-37.5 11.5h-211v-79h211z" />
    <glyph glyph-name="C.aalt" 
d="M458 184q107 0 160 79l217 -115q-44 -76 -146.5 -123t-236.5 -47q-91 0 -169 22t-134.5 64.5t-87.5 105t-31 140.5t31.5 140.5t81.5 100t105.5 57.5t111.5 27t101 7q127 0 227.5 -47.5t142.5 -120.5l-217 -114q-53 76 -156 76q-69 0 -111.5 -34t-42.5 -92t42.5 -92
t111.5 -34z" />
    <glyph glyph-name="Cacute.aalt" 
d="M743 880l-247 -180h-187l120 180h314zM458 184q107 0 160 79l217 -115q-44 -76 -146.5 -123t-236.5 -47q-91 0 -169 22t-134.5 64.5t-87.5 105t-31 140.5t31.5 140.5t81.5 100t105.5 57.5t111.5 27t101 7q127 0 227.5 -47.5t142.5 -120.5l-217 -114q-53 76 -156 76
q-69 0 -111.5 -34t-42.5 -92t42.5 -92t111.5 -34z" />
    <glyph glyph-name="Ccaron.aalt" 
d="M156 880l146 -180h280l146 180h-221l-64 -80l-64 80h-223zM458 184q107 0 160 79l217 -115q-44 -76 -146.5 -123t-236.5 -47q-91 0 -169 22t-134.5 64.5t-87.5 105t-31 140.5t31.5 140.5t81.5 100t105.5 57.5t111.5 27t101 7q127 0 227.5 -47.5t142.5 -120.5l-217 -114
q-53 76 -156 76q-69 0 -111.5 -34t-42.5 -92t42.5 -92t111.5 -34z" />
    <glyph glyph-name="Ccedilla.aalt" 
d="M458 184q107 0 160 79l217 -115q-44 -76 -146.5 -123t-236.5 -47q-91 0 -169 22t-134.5 64.5t-87.5 105t-31 140.5t31.5 140.5t81.5 100t105.5 57.5t111.5 27t101 7q127 0 227.5 -47.5t142.5 -120.5l-217 -114q-53 76 -156 76q-69 0 -111.5 -34t-42.5 -92t42.5 -92
t111.5 -34zM571 -64l-165 -166l-159 43l99 153z" />
    <glyph glyph-name="Ccircumflex.aalt" 
d="M156 700h221l64 80l64 -80h223l-146 180h-280zM458 184q107 0 160 79l217 -115q-44 -76 -146.5 -123t-236.5 -47q-91 0 -169 22t-134.5 64.5t-87.5 105t-31 140.5t31.5 140.5t81.5 100t105.5 57.5t111.5 27t101 7q127 0 227.5 -47.5t142.5 -120.5l-217 -114
q-53 76 -156 76q-69 0 -111.5 -34t-42.5 -92t42.5 -92t111.5 -34z" />
    <glyph glyph-name="Cdotaccent.aalt" 
d="M442 690q-25 0 -53 9t-47.5 33.5t-19.5 57.5q0 46 33.5 72.5t86.5 26.5t86.5 -26.5t33.5 -72.5q0 -33 -19.5 -57.5t-47.5 -33.5t-53 -9zM458 184q107 0 160 79l217 -115q-44 -76 -146.5 -123t-236.5 -47q-91 0 -169 22t-134.5 64.5t-87.5 105t-31 140.5t31.5 140.5
t81.5 100t105.5 57.5t111.5 27t101 7q127 0 227.5 -47.5t142.5 -120.5l-217 -114q-53 76 -156 76q-69 0 -111.5 -34t-42.5 -92t42.5 -92t111.5 -34z" />
    <glyph glyph-name="D.aalt" horiz-adv-x="902" 
d="M454 620q94 0 172 -20.5t133 -60.5t84 -98t29 -131q0 -72 -29 -130.5t-84 -98.5t-133 -60.5t-172 -20.5h-395v620h395zM431 200q79 0 122.5 29t43.5 81t-43.5 81t-122.5 29h-102v-220h102z" />
    <glyph glyph-name="Eth.aalt" horiz-adv-x="942" 
d="M500 620q95 0 172.5 -20.5t130.5 -60t81 -98t28 -131.5t-28 -131t-81 -98t-130.5 -60.5t-172.5 -20.5h-401v248h-82v134h82v238h401zM473 195q78 0 120.5 30t42.5 85t-42.5 85t-120.5 30h-106v-43h141v-134h-141v-53h106z" />
    <glyph glyph-name="Dcaron.aalt" horiz-adv-x="902" 
d="M139 880l146 -180h280l146 180h-221l-64 -80l-64 80h-223zM454 620q94 0 172 -20.5t133 -60.5t84 -98t29 -131q0 -72 -29 -130.5t-84 -98.5t-133 -60.5t-172 -20.5h-395v620h395zM431 200q79 0 122.5 29t43.5 81t-43.5 81t-122.5 29h-102v-220h102z" />
    <glyph glyph-name="Dcroat.aalt" horiz-adv-x="942" 
d="M500 620q95 0 172.5 -20.5t130.5 -60t81 -98t28 -131.5t-28 -131t-81 -98t-130.5 -60.5t-172.5 -20.5h-401v248h-82v134h82v238h401zM473 195q78 0 120.5 30t42.5 85t-42.5 85t-120.5 30h-106v-43h141v-134h-141v-53h106z" />
    <glyph glyph-name="e.aalt" horiz-adv-x="832" 
d="M323 184h470v-184h-734v620h724v-184h-460v-40h361v-166h-361v-46z" />
    <glyph glyph-name="eacute.aalt" horiz-adv-x="832" 
d="M720 880l-247 -180h-187l120 180h314zM323 184h470v-184h-734v620h724v-184h-460v-40h361v-166h-361v-46z" />
    <glyph glyph-name="ebreve.aalt" horiz-adv-x="832" 
d="M639 880q0 -29 -12 -62t-38 -62t-69 -47.5t-101 -18.5t-101 18.5t-69 47.5t-38 62t-12 62h150q4 -24 22.5 -41t47.5 -17t47.5 17t22.5 41h150zM323 184h470v-184h-734v620h724v-184h-460v-40h361v-166h-361v-46z" />
    <glyph glyph-name="ecaron.aalt" horiz-adv-x="832" 
d="M133 880l146 -180h280l146 180h-221l-64 -80l-64 80h-223zM323 184h470v-184h-734v620h724v-184h-460v-40h361v-166h-361v-46z" />
    <glyph glyph-name="ecircumflex.aalt" horiz-adv-x="832" 
d="M133 700h221l64 80l64 -80h223l-146 180h-280zM323 184h470v-184h-734v620h724v-184h-460v-40h361v-166h-361v-46z" />
    <glyph glyph-name="edieresis.aalt" horiz-adv-x="832" 
d="M271 690q-25 0 -53 9t-47.5 33.5t-19.5 57.5q0 46 33.5 72.5t86.5 26.5t86.5 -26.5t33.5 -72.5q0 -33 -19.5 -57.5t-47.5 -33.5t-53 -9zM567 690q-25 0 -53 9t-47.5 33.5t-19.5 57.5q0 46 33.5 72.5t86.5 26.5t86.5 -26.5t33.5 -72.5q0 -33 -19.5 -57.5t-47.5 -33.5
t-53 -9zM323 184h470v-184h-734v620h724v-184h-460v-40h361v-166h-361v-46z" />
    <glyph glyph-name="edotaccent.aalt" horiz-adv-x="832" 
d="M419 690q-25 0 -53 9t-47.5 33.5t-19.5 57.5q0 46 33.5 72.5t86.5 26.5t86.5 -26.5t33.5 -72.5q0 -33 -19.5 -57.5t-47.5 -33.5t-53 -9zM323 184h470v-184h-734v620h724v-184h-460v-40h361v-166h-361v-46z" />
    <glyph glyph-name="egrave.aalt" horiz-adv-x="832" 
d="M118 880h314l120 -180h-187zM323 184h470v-184h-734v620h724v-184h-460v-40h361v-166h-361v-46z" />
    <glyph glyph-name="emacron.aalt" horiz-adv-x="832" 
d="M161 880h516v-172h-516v172zM323 184h470v-184h-734v620h724v-184h-460v-40h361v-166h-361v-46z" />
    <glyph glyph-name="eogonek.aalt" horiz-adv-x="832" 
d="M809 -136l40 -48q-13 -20 -37.5 -38.5t-58.5 -26.5t-65 -8q-33 0 -74.5 10.5t-72 41t-30.5 76.5q0 30 15.5 58t42.5 45.5t54 25.5h-564v620h724v-184h-460v-40h361v-166h-361v-46h470v-184q-29 -12 -56 -32.5t-38.5 -41.5t-11.5 -37q0 -23 16.5 -38t43.5 -15q17 0 33 7
t29 21z" />
    <glyph glyph-name="f.aalt" horiz-adv-x="802" 
d="M779 426h-450v-52h355v-188h-355v-186h-270v620h720v-194z" />
    <glyph glyph-name="uniFB01.aalt" horiz-adv-x="1190" 
d="M779 426h-450v-52h355v-188h-355v-186h-270v620h720v-194zM1131 0h-270v620h270v-620z" />
    <glyph glyph-name="uniFB02.aalt" horiz-adv-x="1539" 
d="M779 426h-450v-52h355v-188h-355v-186h-270v620h720v-194zM1131 197h389v-197h-659v620h270v-423z" />
    <glyph glyph-name="g.aalt" horiz-adv-x="897" 
d="M855 381v-304q-61 -45 -158 -72t-215 -27q-102 0 -186 21.5t-143.5 63.5t-91 105t-31.5 142t31.5 142t90.5 105t143 63.5t186 21.5q113 0 204 -28.5t151 -73.5l-173 -139q-35 19 -73 31.5t-98 12.5q-94 0 -141 -36t-47 -99q0 -65 48 -102t140 -37q66 0 114 8v44h-152v158
h401z" />
    <glyph glyph-name="gbreve.aalt" horiz-adv-x="897" 
d="M694 881q0 -29 -12 -62t-38 -62t-69 -47.5t-101 -18.5t-101 18.5t-69 47.5t-38 62t-12 62h150q4 -24 22.5 -41t47.5 -17t47.5 17t22.5 41h150zM855 381v-304q-61 -45 -158 -72t-215 -27q-102 0 -186 21.5t-143.5 63.5t-91 105t-31.5 142t31.5 142t90.5 105t143 63.5
t186 21.5q113 0 204 -28.5t151 -73.5l-173 -139q-35 19 -73 31.5t-98 12.5q-94 0 -141 -36t-47 -99q0 -65 48 -102t140 -37q66 0 114 8v44h-152v158h401z" />
    <glyph glyph-name="gcircumflex.aalt" horiz-adv-x="897" 
d="M188 701h221l64 80l64 -80h223l-146 180h-280zM855 381v-304q-61 -45 -158 -72t-215 -27q-102 0 -186 21.5t-143.5 63.5t-91 105t-31.5 142t31.5 142t90.5 105t143 63.5t186 21.5q113 0 204 -28.5t151 -73.5l-173 -139q-35 19 -73 31.5t-98 12.5q-94 0 -141 -36t-47 -99
q0 -65 48 -102t140 -37q66 0 114 8v44h-152v158h401z" />
    <glyph glyph-name="gcommaaccent.aalt" horiz-adv-x="897" 
d="M855 381v-304q-61 -45 -158 -72t-215 -27q-102 0 -186 21.5t-143.5 63.5t-91 105t-31.5 142t31.5 142t90.5 105t143 63.5t186 21.5q113 0 204 -28.5t151 -73.5l-173 -139q-35 19 -73 31.5t-98 12.5q-94 0 -141 -36t-47 -99q0 -65 48 -102t140 -37q66 0 114 8v44h-152v158
h401zM474 -49q45 0 83 -22.5t56.5 -62.5t18.5 -80q0 -52 -25.5 -106.5t-70 -100t-107.5 -76.5l-48 76q94 53 121 126q-10 -10 -35 -10q-27 0 -59 12.5t-55.5 44.5t-23.5 71q0 33 16.5 60.5t50 47.5t78.5 20z" />
    <glyph glyph-name="gdotaccent.aalt" horiz-adv-x="897" 
d="M474 691q-25 0 -53 9t-47.5 33.5t-19.5 57.5q0 46 33.5 72.5t86.5 26.5t86.5 -26.5t33.5 -72.5q0 -33 -19.5 -57.5t-47.5 -33.5t-53 -9zM855 381v-304q-61 -45 -158 -72t-215 -27q-102 0 -186 21.5t-143.5 63.5t-91 105t-31.5 142t31.5 142t90.5 105t143 63.5t186 21.5
q113 0 204 -28.5t151 -73.5l-173 -139q-35 19 -73 31.5t-98 12.5q-94 0 -141 -36t-47 -99q0 -65 48 -102t140 -37q66 0 114 8v44h-152v158h401z" />
    <glyph glyph-name="h.aalt" horiz-adv-x="936" 
d="M607 620h270v-620h-270v212h-278v-212h-270v620h270v-202h278v202z" />
    <glyph glyph-name="hbar.aalt" horiz-adv-x="1026" 
d="M1012 545v-80h-90v-465h-270v212h-278v-212h-270v465h-90v80h90v75h270v-75h278v75h270v-75h90zM652 418v47h-278v-47h278z" />
    <glyph glyph-name="hcircumflex.aalt" horiz-adv-x="936" 
d="M182 701h221l64 80l64 -80h223l-146 180h-280zM607 620h270v-620h-270v212h-278v-212h-270v620h270v-202h278v202z" />
    <glyph glyph-name="I.aalt" horiz-adv-x="388" 
d="M329 0h-270v620h270v-620z" />
    <glyph glyph-name="Iacute.aalt" horiz-adv-x="388" 
d="M495 880l-247 -180h-187l120 180h314zM329 0h-270v620h270v-620z" />
    <glyph glyph-name="Ibreve.aalt" horiz-adv-x="388" 
d="M414 880q0 -29 -12 -62t-38 -62t-69 -47.5t-101 -18.5t-101 18.5t-69 47.5t-38 62t-12 62h150q4 -24 22.5 -41t47.5 -17t47.5 17t22.5 41h150zM329 0h-270v620h270v-620z" />
    <glyph glyph-name="Icircumflex.aalt" horiz-adv-x="388" 
d="M-92 700h221l64 80l64 -80h223l-146 180h-280zM329 0h-270v620h270v-620z" />
    <glyph glyph-name="Idieresis.aalt" horiz-adv-x="388" 
d="M46 690q-25 0 -53 9t-47.5 33.5t-19.5 57.5q0 46 33.5 72.5t86.5 26.5t86.5 -26.5t33.5 -72.5q0 -33 -19.5 -57.5t-47.5 -33.5t-53 -9zM342 690q-25 0 -53 9t-47.5 33.5t-19.5 57.5q0 46 33.5 72.5t86.5 26.5t86.5 -26.5t33.5 -72.5q0 -33 -19.5 -57.5t-47.5 -33.5
t-53 -9zM329 0h-270v620h270v-620z" />
    <glyph glyph-name="Idotaccent.aalt" horiz-adv-x="388" 
d="M194 690q-25 0 -53 9t-47.5 33.5t-19.5 57.5q0 46 33.5 72.5t86.5 26.5t86.5 -26.5t33.5 -72.5q0 -33 -19.5 -57.5t-47.5 -33.5t-53 -9zM329 0h-270v620h270v-620z" />
    <glyph glyph-name="Igrave.aalt" horiz-adv-x="388" 
d="M-107 880h314l120 -180h-187zM329 0h-270v620h270v-620z" />
    <glyph glyph-name="IJ.aalt" horiz-adv-x="1118" 
d="M329 0h-270v620h270v-620zM574 246q32 -60 112 -60q62 0 87.5 33t25.5 89v312h270v-333q0 -70 -25.5 -127.5t-74.5 -98t-121 -62t-162 -21.5q-110 0 -185 32.5t-127 90.5z" />
    <glyph glyph-name="Imacron.aalt" horiz-adv-x="404" 
d="M-56 960h516v-172h-516v172zM342 0h-280v700h280v-700z" />
    <glyph glyph-name="Iogonek.aalt" horiz-adv-x="404" 
d="M358 -136l40 -48q-13 -20 -37.5 -38.5t-58.5 -26.5t-65 -8q-33 0 -74.5 10.5t-72 41t-30.5 76.5q0 30 15.5 58t42.5 45.5t54 25.5h-110v700h280v-700q-29 -12 -56 -32.5t-38.5 -41.5t-11.5 -37q0 -23 16.5 -38t43.5 -15q17 0 33 7t29 21z" />
    <glyph glyph-name="Itilde.aalt" horiz-adv-x="404" 
d="M403 992l89 -173q-29 -28 -72 -43t-93 -15q-31 0 -59.5 5.5t-80 20.5t-79.5 15q-22 0 -46 -7.5t-61 -34.5l-89 173q29 28 72 43t94 15q52 0 112 -18t79 -20.5t28 -2.5q23 0 52.5 9t53.5 33zM342 0h-280v700h280v-700z" />
    <glyph glyph-name="J.aalt" horiz-adv-x="730" 
d="M186 246q32 -60 112 -60q62 0 87.5 33t25.5 89v312h270v-333q0 -70 -25.5 -127.5t-74.5 -98t-121 -62t-162 -21.5q-110 0 -185 32.5t-127 90.5z" />
    <glyph glyph-name="Jcircumflex.aalt" horiz-adv-x="730" 
d="M260 700h221l64 80l64 -80h223l-146 180h-280zM186 246q32 -60 112 -60q62 0 87.5 33t25.5 89v312h270v-333q0 -70 -25.5 -127.5t-74.5 -98t-121 -62t-162 -21.5q-110 0 -185 32.5t-127 90.5z" />
    <glyph glyph-name="K.aalt" horiz-adv-x="869" 
d="M880 0h-312l-149 208l-90 -87v-121h-270v620h270v-224l217 224h320l-259 -252z" />
    <glyph glyph-name="Kcommaaccent.aalt" horiz-adv-x="869" 
d="M329 121v-121h-270v620h270v-224l217 224h320l-259 -252l273 -368h-312l-149 208zM434 -49q45 0 83 -22.5t56.5 -62.5t18.5 -80q0 -52 -25.5 -106.5t-70 -100t-107.5 -76.5l-48 76q94 53 121 126q-10 -10 -35 -10q-27 0 -59 12.5t-55.5 44.5t-23.5 71q0 33 16.5 60.5
t50 47.5t78.5 20z" />
    <glyph glyph-name="L.aalt" horiz-adv-x="737" 
d="M329 197h389v-197h-659v620h270v-423z" />
    <glyph glyph-name="Lacute.aalt" horiz-adv-x="737" 
d="M495 880l-247 -180h-187l120 180h314zM329 197h389v-197h-659v620h270v-423z" />
    <glyph glyph-name="Lcaron.aalt" horiz-adv-x="737" 
d="M521 676q45 0 83 -22.5t56.5 -62.5t18.5 -80q0 -52 -25.5 -106.5t-70 -100t-107.5 -76.5l-48 76q94 53 121 126q-10 -10 -35 -10q-27 0 -59 12.5t-55.5 44.5t-23.5 71q0 33 16.5 60.5t50 47.5t78.5 20zM329 197h389v-197h-659v620h270v-423z" />
    <glyph glyph-name="Lcommaaccent.aalt" horiz-adv-x="737" 
d="M329 197h389v-197h-659v620h270v-423zM392 -49q45 0 83 -22.5t56.5 -62.5t18.5 -80q0 -52 -25.5 -106.5t-70 -100t-107.5 -76.5l-48 76q94 53 121 126q-10 -10 -35 -10q-27 0 -59 12.5t-55.5 44.5t-23.5 71q0 33 16.5 60.5t50 47.5t78.5 20z" />
    <glyph glyph-name="Ldot.aalt" horiz-adv-x="737" 
d="M329 197h389v-197h-659v620h270v-423zM525 281q-32 0 -58.5 9.5t-47.5 26.5t-32 41.5t-11 50.5q0 19 7.5 41t25 41t47 32.5t69.5 13.5q32 0 58.5 -9.5t47.5 -26.5t32 -41.5t11 -50.5q0 -19 -7.5 -41t-25 -41t-47 -32.5t-69.5 -13.5z" />
    <glyph glyph-name="Lslash.aalt" horiz-adv-x="814" 
d="M406 197h389v-197h-659v165l-108 -51v142l108 51v313h270v-187l186 87v-142l-186 -87v-94z" />
    <glyph glyph-name="M.aalt" horiz-adv-x="1065" 
d="M721 620h285v-620h-266v311l-204 -238h-13l-204 238v-311h-260v620h295l182 -228z" />
    <glyph glyph-name="N.aalt" horiz-adv-x="936" 
d="M617 620h260v-620h-237l-321 313v-313h-260v620h285l273 -270v270z" />
    <glyph glyph-name="Nacute.aalt" horiz-adv-x="936" 
d="M769 880l-247 -180h-187l120 180h314zM617 620h260v-620h-237l-321 313v-313h-260v620h285l273 -270v270z" />
    <glyph glyph-name="Ncaron.aalt" horiz-adv-x="936" 
d="M182 880l146 -180h280l146 180h-221l-64 -80l-64 80h-223zM617 620h260v-620h-237l-321 313v-313h-260v620h285l273 -270v270z" />
    <glyph glyph-name="Ncommaaccent.aalt" horiz-adv-x="936" 
d="M617 620h260v-620h-237l-321 313v-313h-260v620h285l273 -270v270zM468 -49q45 0 83 -22.5t56.5 -62.5t18.5 -80q0 -52 -25.5 -106.5t-70 -100t-107.5 -76.5l-48 76q94 53 121 126q-10 -10 -35 -10q-27 0 -59 12.5t-55.5 44.5t-23.5 71q0 33 16.5 60.5t50 47.5t78.5 20z
" />
    <glyph glyph-name="Eng.aalt" horiz-adv-x="936" 
d="M617 620h260v-554v-4q0 -57 -19.5 -105.5t-55 -82.5t-85.5 -52.5t-109 -18.5q-33 0 -75.5 7t-77.5 19l32 150q37 -10 59 -10q28 0 47 13.5t23 40.5l-297 290v-313h-260v620h285l273 -270v270z" />
    <glyph glyph-name="Ntilde.aalt" horiz-adv-x="936" 
d="M669 912l89 -173q-29 -28 -72 -43t-93 -15q-31 0 -59.5 5.5t-80 20.5t-79.5 15q-22 0 -46 -7.5t-61 -34.5l-89 173q29 28 72 43t94 15q52 0 112 -18t79 -20.5t28 -2.5q23 0 52.5 9t53.5 33zM617 620h260v-620h-237l-321 313v-313h-260v620h285l273 -270v270z" />
    <glyph glyph-name="O.c2sc" horiz-adv-x="926" 
d="M463 -22q-97 0 -177.5 22t-137.5 64t-87.5 105t-30.5 141t30.5 141t87.5 105t137.5 64t177.5 22t177.5 -22t137.5 -64t87.5 -105t30.5 -141t-30.5 -141t-87.5 -105t-137.5 -64t-177.5 -22zM463 184q75 0 117 33.5t42 92.5t-42 92.5t-117 33.5t-117 -33.5t-42 -92.5
t42 -92.5t117 -33.5z" />
    <glyph glyph-name="Oacute.aalt" horiz-adv-x="926" 
d="M764 880l-247 -180h-187l120 180h314zM463 -22q-97 0 -177.5 22t-137.5 64t-87.5 105t-30.5 141t30.5 141t87.5 105t137.5 64t177.5 22t177.5 -22t137.5 -64t87.5 -105t30.5 -141t-30.5 -141t-87.5 -105t-137.5 -64t-177.5 -22zM463 184q75 0 117 33.5t42 92.5t-42 92.5
t-117 33.5t-117 -33.5t-42 -92.5t42 -92.5t117 -33.5z" />
    <glyph glyph-name="Obreve.aalt" horiz-adv-x="926" 
d="M683 880q0 -29 -12 -62t-38 -62t-69 -47.5t-101 -18.5t-101 18.5t-69 47.5t-38 62t-12 62h150q4 -24 22.5 -41t47.5 -17t47.5 17t22.5 41h150zM463 -22q-97 0 -177.5 22t-137.5 64t-87.5 105t-30.5 141t30.5 141t87.5 105t137.5 64t177.5 22t177.5 -22t137.5 -64
t87.5 -105t30.5 -141t-30.5 -141t-87.5 -105t-137.5 -64t-177.5 -22zM463 184q75 0 117 33.5t42 92.5t-42 92.5t-117 33.5t-117 -33.5t-42 -92.5t42 -92.5t117 -33.5z" />
    <glyph glyph-name="Ocircumflex.aalt" horiz-adv-x="926" 
d="M177 700h221l64 80l64 -80h223l-146 180h-280zM463 -22q-97 0 -177.5 22t-137.5 64t-87.5 105t-30.5 141t30.5 141t87.5 105t137.5 64t177.5 22t177.5 -22t137.5 -64t87.5 -105t30.5 -141t-30.5 -141t-87.5 -105t-137.5 -64t-177.5 -22zM463 184q75 0 117 33.5t42 92.5
t-42 92.5t-117 33.5t-117 -33.5t-42 -92.5t42 -92.5t117 -33.5z" />
    <glyph glyph-name="Odieresis.aalt" horiz-adv-x="926" 
d="M315 690q-25 0 -53 9t-47.5 33.5t-19.5 57.5q0 46 33.5 72.5t86.5 26.5t86.5 -26.5t33.5 -72.5q0 -33 -19.5 -57.5t-47.5 -33.5t-53 -9zM611 690q-25 0 -53 9t-47.5 33.5t-19.5 57.5q0 46 33.5 72.5t86.5 26.5t86.5 -26.5t33.5 -72.5q0 -33 -19.5 -57.5t-47.5 -33.5
t-53 -9zM463 -22q-97 0 -177.5 22t-137.5 64t-87.5 105t-30.5 141t30.5 141t87.5 105t137.5 64t177.5 22t177.5 -22t137.5 -64t87.5 -105t30.5 -141t-30.5 -141t-87.5 -105t-137.5 -64t-177.5 -22zM463 184q75 0 117 33.5t42 92.5t-42 92.5t-117 33.5t-117 -33.5t-42 -92.5
t42 -92.5t117 -33.5z" />
    <glyph glyph-name="Ograve.aalt" horiz-adv-x="926" 
d="M162 880h314l120 -180h-187zM463 -22q-97 0 -177.5 22t-137.5 64t-87.5 105t-30.5 141t30.5 141t87.5 105t137.5 64t177.5 22t177.5 -22t137.5 -64t87.5 -105t30.5 -141t-30.5 -141t-87.5 -105t-137.5 -64t-177.5 -22zM463 184q75 0 117 33.5t42 92.5t-42 92.5t-117 33.5
t-117 -33.5t-42 -92.5t42 -92.5t117 -33.5z" />
    <glyph glyph-name="Ohungarumlaut.aalt" horiz-adv-x="926" 
d="M575 880l-165 -180h-226l165 180h226zM844 880l-165 -180h-226l165 180h226zM463 -22q-97 0 -177.5 22t-137.5 64t-87.5 105t-30.5 141t30.5 141t87.5 105t137.5 64t177.5 22t177.5 -22t137.5 -64t87.5 -105t30.5 -141t-30.5 -141t-87.5 -105t-137.5 -64t-177.5 -22z
M463 184q75 0 117 33.5t42 92.5t-42 92.5t-117 33.5t-117 -33.5t-42 -92.5t42 -92.5t117 -33.5z" />
    <glyph glyph-name="Omacron.aalt" horiz-adv-x="926" 
d="M205 880h516v-172h-516v172zM463 -22q-97 0 -177.5 22t-137.5 64t-87.5 105t-30.5 141t30.5 141t87.5 105t137.5 64t177.5 22t177.5 -22t137.5 -64t87.5 -105t30.5 -141t-30.5 -141t-87.5 -105t-137.5 -64t-177.5 -22zM463 184q75 0 117 33.5t42 92.5t-42 92.5t-117 33.5
t-117 -33.5t-42 -92.5t42 -92.5t117 -33.5z" />
    <glyph glyph-name="Oslash.aalt" horiz-adv-x="926" 
d="M760 569q40 -26 69.5 -61.5t48 -84.5t18.5 -113q0 -78 -30.5 -141t-87.5 -105t-137.5 -64t-177.5 -22q-87 0 -154 16l-74 -94h-155l108 138q-76 42 -117 111t-41 161q0 78 30.5 141t87.5 105t137.5 64t177.5 22q98 0 181 -22l79 100h155zM304 310q0 -50 32 -84l163 208
l-36 2q-75 0 -117 -33.5t-42 -92.5zM463 184q75 0 117 33.5t42 92.5q0 34 -16 63l-148 -189h5z" />
    <glyph glyph-name="Oslashacute.aalt" horiz-adv-x="926" 
d="M772 880l-247 -180h-187l120 180h314zM760 569q40 -26 69.5 -61.5t48 -84.5t18.5 -113q0 -78 -30.5 -141t-87.5 -105t-137.5 -64t-177.5 -22q-87 0 -154 16l-74 -94h-155l108 138q-76 42 -117 111t-41 161q0 78 30.5 141t87.5 105t137.5 64t177.5 22q98 0 181 -22l79 100
h155zM304 310q0 -50 32 -84l163 208l-36 2q-75 0 -117 -33.5t-42 -92.5zM463 184q75 0 117 33.5t42 92.5q0 34 -16 63l-148 -189h5z" />
    <glyph glyph-name="Otilde.aalt" horiz-adv-x="926" 
d="M664 912l89 -173q-29 -28 -72 -43t-93 -15q-31 0 -59.5 5.5t-80 20.5t-79.5 15q-22 0 -46 -7.5t-61 -34.5l-89 173q29 28 72 43t94 15q52 0 112 -18t79 -20.5t28 -2.5q23 0 52.5 9t53.5 33zM463 -22q-97 0 -177.5 22t-137.5 64t-87.5 105t-30.5 141t30.5 141t87.5 105
t137.5 64t177.5 22t177.5 -22t137.5 -64t87.5 -105t30.5 -141t-30.5 -141t-87.5 -105t-137.5 -64t-177.5 -22zM463 184q75 0 117 33.5t42 92.5t-42 92.5t-117 33.5t-117 -33.5t-42 -92.5t42 -92.5t117 -33.5z" />
    <glyph glyph-name="oe.aalt" horiz-adv-x="1348" 
d="M839 184h470v-184h-734h-127q-95 0 -173 20.5t-132.5 60.5t-83.5 98.5t-29 130.5q0 73 29 131t83 98t132.5 60.5t173.5 20.5h391h460v-184h-460v-40h361v-166h-361v-46zM575 196v228h-104q-78 0 -121.5 -31t-43.5 -83t43.5 -83t121.5 -31h104z" />
    <glyph glyph-name="p.aalt" horiz-adv-x="862" 
d="M518 620q73 0 133.5 -14t103.5 -42t66 -72t23 -102q0 -59 -23 -104.5t-66 -74.5t-103.5 -43.5t-133.5 -14.5h-189v-153h-270v620h459zM496 322q76 0 76 57q0 29 -21 43t-55 14h-167v-114h167z" />
    <glyph glyph-name="thorn.aalt" horiz-adv-x="862" 
d="M518 548q72 0 132 -14t103.5 -42.5t67 -72.5t23.5 -101q0 -59 -23.5 -104.5t-67 -74.5t-103.5 -43.5t-132 -14.5h-189v-81h-270v620h270v-72h189zM495 257q77 0 77 57q0 58 -77 58h-166v-115h166z" />
    <glyph glyph-name="q.aalt" horiz-adv-x="926" 
d="M896 310q0 -73 -27.5 -133.5t-77.5 -102.5l80 -77l-92 -92l-108 104q-45 -16 -100 -23.5t-108 -7.5q-97 0 -177.5 22t-137.5 64t-87.5 105t-30.5 141t30.5 141t87.5 105t137.5 64t177.5 22t177.5 -22t137.5 -64t87.5 -105t30.5 -141zM463 184l26 1l-57 55l93 92l83 -81
q14 26 14 59q0 59 -42 92.5t-117 33.5t-117 -33.5t-42 -92.5t42 -92.5t117 -33.5z" />
    <glyph glyph-name="r.aalt" horiz-adv-x="890" 
d="M872 0h-304l-137 162h-104v-162h-268v620h467q67 0 126.5 -13.5t104.5 -41.5t70 -71t25 -99q0 -37 -13 -76.5t-49.5 -73.5t-87.5 -54zM327 436v-105h176q76 0 76 52q0 53 -76 53h-176z" />
    <glyph glyph-name="racute.aalt" horiz-adv-x="890" 
d="M714 880l-247 -180h-187l120 180h314zM872 0h-304l-137 162h-104v-162h-268v620h467q67 0 126.5 -13.5t104.5 -41.5t70 -71t25 -99q0 -37 -13 -76.5t-49.5 -73.5t-87.5 -54zM327 436v-105h176q76 0 76 52q0 53 -76 53h-176z" />
    <glyph glyph-name="rcaron.aalt" horiz-adv-x="890" 
d="M553 700h-280l-146 180h223l64 -80l64 80h221zM872 0h-304l-137 162h-104v-162h-268v620h467q67 0 126.5 -13.5t104.5 -41.5t70 -71t25 -99q0 -37 -13 -76.5t-49.5 -73.5t-87.5 -54zM327 436v-105h176q76 0 76 52q0 53 -76 53h-176z" />
    <glyph glyph-name="rcommaaccent.aalt" horiz-adv-x="890" 
d="M327 162v-162h-268v620h467q67 0 126.5 -13.5t104.5 -41.5t70 -71t25 -99q0 -37 -13 -76.5t-49.5 -73.5t-87.5 -54l170 -191h-304l-137 162h-104zM327 436v-105h176q76 0 76 52q0 53 -76 53h-176zM429 -49q45 0 83 -22.5t56.5 -62.5t18.5 -80q0 -52 -25.5 -106.5
t-70 -100t-107.5 -76.5l-48 76q94 53 121 126q-10 -10 -35 -10q-27 0 -59 12.5t-55.5 44.5t-23.5 71q0 33 16.5 60.5t50 47.5t78.5 20z" />
    <glyph glyph-name="S.aalt" horiz-adv-x="848" 
d="M439 421q163 -13 241 -42t108.5 -72t30.5 -98q0 -107 -95.5 -169t-275.5 -62q-127 0 -238.5 30t-192.5 84l128 147q56 -34 138.5 -57.5t168.5 -23.5q39 0 70.5 4t31.5 18q0 11 -24.5 18t-98.5 13q-202 17 -293 69t-91 142q0 51 27.5 93t78 70t119.5 42.5t149 14.5
q102 0 201.5 -22t170.5 -63l-121 -148q-104 56 -251 56q-109 0 -109 -19q0 -7 20.5 -12.5t106.5 -12.5z" />
    <glyph glyph-name="Sacute.aalt" horiz-adv-x="848" 
d="M732 880l-247 -180h-187l120 180h314zM439 421q163 -13 241 -42t108.5 -72t30.5 -98q0 -107 -95.5 -169t-275.5 -62q-127 0 -238.5 30t-192.5 84l128 147q56 -34 138.5 -57.5t168.5 -23.5q39 0 70.5 4t31.5 18q0 11 -24.5 18t-98.5 13q-202 17 -293 69t-91 142
q0 51 27.5 93t78 70t119.5 42.5t149 14.5q102 0 201.5 -22t170.5 -63l-121 -148q-104 56 -251 56q-109 0 -109 -19q0 -7 20.5 -12.5t106.5 -12.5z" />
    <glyph glyph-name="Scaron.aalt" horiz-adv-x="848" 
d="M145 880l146 -180h280l146 180h-221l-64 -80l-64 80h-223zM439 421q163 -13 241 -42t108.5 -72t30.5 -98q0 -107 -95.5 -169t-275.5 -62q-127 0 -238.5 30t-192.5 84l128 147q56 -34 138.5 -57.5t168.5 -23.5q39 0 70.5 4t31.5 18q0 11 -24.5 18t-98.5 13
q-202 17 -293 69t-91 142q0 51 27.5 93t78 70t119.5 42.5t149 14.5q102 0 201.5 -22t170.5 -63l-121 -148q-104 56 -251 56q-109 0 -109 -19q0 -7 20.5 -12.5t106.5 -12.5z" />
    <glyph glyph-name="Scedilla.c2sc" horiz-adv-x="848" 
d="M439 421q163 -13 241 -42t108.5 -72t30.5 -98q0 -107 -95.5 -169t-275.5 -62q-127 0 -238.5 30t-192.5 84l128 147q56 -34 138.5 -57.5t168.5 -23.5q39 0 70.5 4t31.5 18q0 11 -24.5 18t-98.5 13q-202 17 -293 69t-91 142q0 51 27.5 93t78 70t119.5 42.5t149 14.5
q102 0 201.5 -22t170.5 -63l-121 -148q-104 56 -251 56q-109 0 -109 -19q0 -7 20.5 -12.5t106.5 -12.5zM562 -64l-165 -166l-159 43l99 153z" />
    <glyph glyph-name="Scircumflex.aalt" horiz-adv-x="848" 
d="M145 700h221l64 80l64 -80h223l-146 180h-280zM439 421q163 -13 241 -42t108.5 -72t30.5 -98q0 -107 -95.5 -169t-275.5 -62q-127 0 -238.5 30t-192.5 84l128 147q56 -34 138.5 -57.5t168.5 -23.5q39 0 70.5 4t31.5 18q0 11 -24.5 18t-98.5 13q-202 17 -293 69t-91 142
q0 51 27.5 93t78 70t119.5 42.5t149 14.5q102 0 201.5 -22t170.5 -63l-121 -148q-104 56 -251 56q-109 0 -109 -19q0 -7 20.5 -12.5t106.5 -12.5z" />
    <glyph glyph-name="Scommaaccent.aalt" horiz-adv-x="848" 
d="M439 421q163 -13 241 -42t108.5 -72t30.5 -98q0 -107 -95.5 -169t-275.5 -62q-127 0 -238.5 30t-192.5 84l128 147q56 -34 138.5 -57.5t168.5 -23.5q39 0 70.5 4t31.5 18q0 11 -24.5 18t-98.5 13q-202 17 -293 69t-91 142q0 51 27.5 93t78 70t119.5 42.5t149 14.5
q102 0 201.5 -22t170.5 -63l-121 -148q-104 56 -251 56q-109 0 -109 -19q0 -7 20.5 -12.5t106.5 -12.5zM441 -49q45 0 83 -22.5t56.5 -62.5t18.5 -80q0 -52 -25.5 -106.5t-70 -100t-107.5 -76.5l-48 76q94 53 121 126q-10 -10 -35 -10q-27 0 -59 12.5t-55.5 44.5t-23.5 71
q0 33 16.5 60.5t50 47.5t78.5 20z" />
    <glyph glyph-name="germandbls.sc" horiz-adv-x="1690" 
d="M439 421q163 -13 241 -42t108.5 -72t30.5 -98q0 -107 -95.5 -169t-275.5 -62q-127 0 -238.5 30t-192.5 84l128 147q56 -34 138.5 -57.5t168.5 -23.5q39 0 70.5 4t31.5 18q0 11 -24.5 18t-98.5 13q-202 17 -293 69t-91 142q0 51 27.5 93t78 70t119.5 42.5t149 14.5
q102 0 201.5 -22t170.5 -63l-121 -148q-104 56 -251 56q-109 0 -109 -19q0 -7 20.5 -12.5t106.5 -12.5zM1281 421q163 -13 241 -42t108.5 -72t30.5 -98q0 -107 -95.5 -169t-275.5 -62q-127 0 -238.5 30t-192.5 84l128 147q56 -34 138.5 -57.5t168.5 -23.5q39 0 70.5 4
t31.5 18q0 11 -24.5 18t-98.5 13q-202 17 -293 69t-91 142q0 51 27.5 93t78 70t119.5 42.5t149 14.5q102 0 201.5 -22t170.5 -63l-121 -148q-104 56 -251 56q-109 0 -109 -19q0 -7 20.5 -12.5t106.5 -12.5z" />
    <glyph glyph-name="T.aalt" horiz-adv-x="783" 
d="M765 620v-197h-238v-423h-270v423h-239v197h747z" />
    <glyph glyph-name="Tbar.aalt" horiz-adv-x="775" 
d="M761 423h-238v-89h123v-172h-123v-162h-270v162h-123v172h123v89h-239v197h747v-197z" />
    <glyph glyph-name="Tcaron.aalt" horiz-adv-x="783" 
d="M106 880l146 -180h280l146 180h-221l-64 -80l-64 80h-223zM765 620v-197h-238v-423h-270v423h-239v197h747z" />
    <glyph glyph-name="Tcommaaccent.aalt" horiz-adv-x="783" 
d="M765 620v-197h-238v-423h-270v423h-239v197h747zM512 -59l-165 -166l-159 43l99 153z" />
    <glyph glyph-name="U.aalt" horiz-adv-x="897" 
d="M578 620h270v-328q0 -72 -26.5 -130.5t-78 -99.5t-127 -62.5t-168.5 -21.5t-168 21.5t-126.5 62.5t-78 99.5t-26.5 130.5v328h270v-306q0 -25 9.5 -55.5t39.5 -51.5t80 -21q42 0 71 15.5t44 44.5t15 68v306z" />
    <glyph glyph-name="Uacute.aalt" horiz-adv-x="897" 
d="M749 880l-247 -180h-187l120 180h314zM578 620h270v-328q0 -72 -26.5 -130.5t-78 -99.5t-127 -62.5t-168.5 -21.5t-168 21.5t-126.5 62.5t-78 99.5t-26.5 130.5v328h270v-306q0 -25 9.5 -55.5t39.5 -51.5t80 -21q42 0 71 15.5t44 44.5t15 68v306z" />
    <glyph glyph-name="Ubreve.aalt" horiz-adv-x="897" 
d="M668 880q0 -29 -12 -62t-38 -62t-69 -47.5t-101 -18.5t-101 18.5t-69 47.5t-38 62t-12 62h150q4 -24 22.5 -41t47.5 -17t47.5 17t22.5 41h150zM578 620h270v-328q0 -72 -26.5 -130.5t-78 -99.5t-127 -62.5t-168.5 -21.5t-168 21.5t-126.5 62.5t-78 99.5t-26.5 130.5v328
h270v-306q0 -25 9.5 -55.5t39.5 -51.5t80 -21q42 0 71 15.5t44 44.5t15 68v306z" />
    <glyph glyph-name="Ucircumflex.aalt" horiz-adv-x="897" 
d="M162 700h221l64 80l64 -80h223l-146 180h-280zM578 620h270v-328q0 -72 -26.5 -130.5t-78 -99.5t-127 -62.5t-168.5 -21.5t-168 21.5t-126.5 62.5t-78 99.5t-26.5 130.5v328h270v-306q0 -25 9.5 -55.5t39.5 -51.5t80 -21q42 0 71 15.5t44 44.5t15 68v306z" />
    <glyph glyph-name="Udieresis.aalt" horiz-adv-x="897" 
d="M300 690q-25 0 -53 9t-47.5 33.5t-19.5 57.5q0 46 33.5 72.5t86.5 26.5t86.5 -26.5t33.5 -72.5q0 -33 -19.5 -57.5t-47.5 -33.5t-53 -9zM596 690q-25 0 -53 9t-47.5 33.5t-19.5 57.5q0 46 33.5 72.5t86.5 26.5t86.5 -26.5t33.5 -72.5q0 -33 -19.5 -57.5t-47.5 -33.5
t-53 -9zM578 620h270v-328q0 -72 -26.5 -130.5t-78 -99.5t-127 -62.5t-168.5 -21.5t-168 21.5t-126.5 62.5t-78 99.5t-26.5 130.5v328h270v-306q0 -25 9.5 -55.5t39.5 -51.5t80 -21q42 0 71 15.5t44 44.5t15 68v306z" />
    <glyph glyph-name="Ugrave.aalt" horiz-adv-x="897" 
d="M147 880h314l120 -180h-187zM578 620h270v-328q0 -72 -26.5 -130.5t-78 -99.5t-127 -62.5t-168.5 -21.5t-168 21.5t-126.5 62.5t-78 99.5t-26.5 130.5v328h270v-306q0 -25 9.5 -55.5t39.5 -51.5t80 -21q42 0 71 15.5t44 44.5t15 68v306z" />
    <glyph glyph-name="Uhungarumlaut.aalt" horiz-adv-x="897" 
d="M560 880l-165 -180h-226l165 180h226zM829 880l-165 -180h-226l165 180h226zM578 620h270v-328q0 -72 -26.5 -130.5t-78 -99.5t-127 -62.5t-168.5 -21.5t-168 21.5t-126.5 62.5t-78 99.5t-26.5 130.5v328h270v-306q0 -25 9.5 -55.5t39.5 -51.5t80 -21q42 0 71 15.5
t44 44.5t15 68v306z" />
    <glyph glyph-name="Umacron.aalt" horiz-adv-x="897" 
d="M190 880h516v-172h-516v172zM578 620h270v-328q0 -72 -26.5 -130.5t-78 -99.5t-127 -62.5t-168.5 -21.5t-168 21.5t-126.5 62.5t-78 99.5t-26.5 130.5v328h270v-306q0 -25 9.5 -55.5t39.5 -51.5t80 -21q42 0 71 15.5t44 44.5t15 68v306z" />
    <glyph glyph-name="Uogonek.aalt" horiz-adv-x="897" 
d="M578 620h270v-328q0 -109 -59.5 -185t-170.5 -107q-29 -12 -55.5 -32.5t-38 -41.5t-11.5 -37q0 -23 16.5 -38t43.5 -15q17 0 33 7t29 21l40 -48q-13 -20 -37.5 -38.5t-58.5 -26.5t-65 -8q-33 0 -74.5 10.5t-72 41t-30.5 76.5q0 32 16 60.5t48 47.5q-82 5 -148.5 29
t-111.5 64.5t-68.5 96.5t-23.5 123v328h270v-306q0 -25 9.5 -55.5t39.5 -51.5t80 -21q42 0 71 15.5t44 44.5t15 68v306z" />
    <glyph glyph-name="Uring.aalt" horiz-adv-x="897" 
d="M448 686q-86 0 -135 34t-49 95t49.5 96t134.5 35t134.5 -35t49.5 -96t-49 -95t-135 -34zM403 815q0 -19 12 -31t33 -12t33 12t12 31t-12 31t-33 12t-33 -12t-12 -31zM578 620h270v-328q0 -72 -26.5 -130.5t-78 -99.5t-127 -62.5t-168.5 -21.5t-168 21.5t-126.5 62.5
t-78 99.5t-26.5 130.5v328h270v-306q0 -25 9.5 -55.5t39.5 -51.5t80 -21q42 0 71 15.5t44 44.5t15 68v306z" />
    <glyph glyph-name="Utilde.aalt" horiz-adv-x="897" 
d="M649 912l89 -173q-29 -28 -72 -43t-93 -15q-31 0 -59.5 5.5t-80 20.5t-79.5 15q-22 0 -46 -7.5t-61 -34.5l-89 173q29 28 72 43t94 15q52 0 112 -18t79 -20.5t28 -2.5q23 0 52.5 9t53.5 33zM578 620h270v-328q0 -72 -26.5 -130.5t-78 -99.5t-127 -62.5t-168.5 -21.5
t-168 21.5t-126.5 62.5t-78 99.5t-26.5 130.5v328h270v-306q0 -25 9.5 -55.5t39.5 -51.5t80 -21q42 0 71 15.5t44 44.5t15 68v306z" />
    <glyph glyph-name="V.aalt" horiz-adv-x="847" 
d="M-12 620h287l151 -371l150 371h283l-294 -620h-282z" />
    <glyph glyph-name="W.aalt" horiz-adv-x="1210" 
d="M946 620h264l-233 -620h-263l-109 346l-109 -346h-263l-233 620h268l104 -349l116 349h237l117 -349z" />
    <glyph glyph-name="Wacute.aalt" horiz-adv-x="1210" 
d="M908 880l-247 -180h-187l120 180h314zM946 620h264l-233 -620h-263l-109 346l-109 -346h-263l-233 620h268l104 -349l116 349h237l117 -349z" />
    <glyph glyph-name="Wcircumflex.aalt" horiz-adv-x="1210" 
d="M321 700h221l64 80l64 -80h223l-146 180h-280zM946 620h264l-233 -620h-263l-109 346l-109 -346h-263l-233 620h268l104 -349l116 349h237l117 -349z" />
    <glyph glyph-name="Wdieresis.aalt" horiz-adv-x="1210" 
d="M459 690q-25 0 -53 9t-47.5 33.5t-19.5 57.5q0 46 33.5 72.5t86.5 26.5t86.5 -26.5t33.5 -72.5q0 -33 -19.5 -57.5t-47.5 -33.5t-53 -9zM755 690q-25 0 -53 9t-47.5 33.5t-19.5 57.5q0 46 33.5 72.5t86.5 26.5t86.5 -26.5t33.5 -72.5q0 -33 -19.5 -57.5t-47.5 -33.5
t-53 -9zM946 620h264l-233 -620h-263l-109 346l-109 -346h-263l-233 620h268l104 -349l116 349h237l117 -349z" />
    <glyph glyph-name="Wgrave.aalt" horiz-adv-x="1210" 
d="M306 880h314l120 -180h-187zM946 620h264l-233 -620h-263l-109 346l-109 -346h-263l-233 620h268l104 -349l116 349h237l117 -349z" />
    <glyph glyph-name="X.aalt" horiz-adv-x="849" 
d="M850 620l-276 -299l286 -321h-314l-131 146l-130 -146h-296l285 317l-275 303h314l121 -134l120 134h296z" />
    <glyph glyph-name="Y.aalt" horiz-adv-x="821" 
d="M-11 620h295l127 -212l127 212h294l-287 -418v-202h-270v202z" />
    <glyph glyph-name="Yacute.aalt" horiz-adv-x="821" 
d="M712 880l-247 -180h-187l120 180h314zM-11 620h295l127 -212l127 212h294l-287 -418v-202h-270v202z" />
    <glyph glyph-name="Ycircumflex.aalt" horiz-adv-x="821" 
d="M125 700h221l64 80l64 -80h223l-146 180h-280zM-11 620h295l127 -212l127 212h294l-287 -418v-202h-270v202z" />
    <glyph glyph-name="Ydieresis.aalt" horiz-adv-x="821" 
d="M263 690q-25 0 -53 9t-47.5 33.5t-19.5 57.5q0 46 33.5 72.5t86.5 26.5t86.5 -26.5t33.5 -72.5q0 -33 -19.5 -57.5t-47.5 -33.5t-53 -9zM559 690q-25 0 -53 9t-47.5 33.5t-19.5 57.5q0 46 33.5 72.5t86.5 26.5t86.5 -26.5t33.5 -72.5q0 -33 -19.5 -57.5t-47.5 -33.5
t-53 -9zM-11 620h295l127 -212l127 212h294l-287 -418v-202h-270v202z" />
    <glyph glyph-name="Ygrave.aalt" horiz-adv-x="821" 
d="M110 880h314l120 -180h-187zM-11 620h295l127 -212l127 212h294l-287 -418v-202h-270v202z" />
    <glyph glyph-name="Z.aalt" 
d="M792 620v-154l-369 -277h383v-189h-769v154l369 278h-352v188h738z" />
    <glyph glyph-name="Zacute.aalt" 
d="M728 880l-247 -180h-187l120 180h314zM792 620v-154l-369 -277h383v-189h-769v154l369 278h-352v188h738z" />
    <glyph glyph-name="Zcaron.aalt" 
d="M141 880l146 -180h280l146 180h-221l-64 -80l-64 80h-223zM792 620v-154l-369 -277h383v-189h-769v154l369 278h-352v188h738z" />
    <glyph glyph-name="Zdotaccent.aalt" 
d="M427 690q-25 0 -53 9t-47.5 33.5t-19.5 57.5q0 46 33.5 72.5t86.5 26.5t86.5 -26.5t33.5 -72.5q0 -33 -19.5 -57.5t-47.5 -33.5t-53 -9zM792 620v-154l-369 -277h383v-189h-769v154l369 278h-352v188h738z" />
    <glyph glyph-name="zero.oldstyle" horiz-adv-x="932" 
d="M466 -24q-94 0 -175 24.5t-139 70.5t-90 112.5t-32 146.5t31.5 143.5t90 105.5t139 63.5t175.5 21.5t175.5 -21.5t139 -63.5t90 -105.5t31.5 -143.5t-32 -146.5t-90 -112.5t-139 -70.5t-175 -24.5zM466 190q74 0 113 34.5t39 95.5t-39 95.5t-113 34.5t-113 -34.5
t-39 -95.5t39 -95.5t113 -34.5z" />
    <glyph glyph-name="one.oldstyle" horiz-adv-x="572" 
d="M230 0v369q-72 -38 -203 -61v211q70 10 146.5 44t125.5 77h211v-640h-280z" />
    <glyph glyph-name="two.oldstyle" horiz-adv-x="849" 
d="M39 518q66 63 169.5 103.5t224.5 40.5q66 0 131.5 -14t118 -41t84 -68.5t31.5 -92.5q0 -65 -50.5 -112t-174.5 -91q-57 -20 -137 -36t-88 -21h462v-186h-779v118q11 97 96.5 160.5t247.5 105.5q64 17 88.5 24.5t37 16t14 13.5t1.5 7q0 16 -29 26.5t-69 10.5
q-58 0 -120 -25.5t-119 -74.5z" />
    <glyph glyph-name="three.oldstyle" horiz-adv-x="848" 
d="M175 194q101 -84 216 -84q36 0 65.5 6t46.5 18.5t17 32.5q0 22 -25.5 34.5t-96.5 12.5h-123v166h123q31 0 57 5.5t37 16.5t11 22q0 14 -13 24.5t-40.5 16t-61.5 5.5q-113 0 -207 -84l-160 122q59 72 162.5 113t224.5 41q73 0 150.5 -13t132 -43.5t76 -67.5t21.5 -75
q0 -35 -17.5 -72t-55.5 -61t-86 -31q37 -7 81.5 -24t74.5 -53t30 -86q0 -25 -10.5 -55t-38.5 -58.5t-76 -52.5t-122.5 -38t-159.5 -14q-122 0 -227 41t-166 113z" />
    <glyph glyph-name="four.oldstyle" horiz-adv-x="919" 
d="M896 242v-186h-123v-116h-270v116h-491v150l511 434h250v-398h123zM327 242h176v151z" />
    <glyph glyph-name="five.oldstyle" horiz-adv-x="868" 
d="M148 193q46 -29 123.5 -50.5t160.5 -21.5q45 0 74.5 6.5t40.5 19t11 26.5q0 55 -126 55q-45 0 -94.5 -8.5t-89.5 -27.5l-194 69l60 379h656v-190h-447l-17 -103q43 30 105.5 47.5t128.5 17.5q54 0 108 -14.5t98 -44t70.5 -76t26.5 -106.5q0 -52 -22 -98t-70 -81
t-128.5 -55.5t-190.5 -20.5q-243 0 -411 111z" />
    <glyph glyph-name="six.oldstyle" horiz-adv-x="919" 
d="M541 471q56 0 115.5 -11.5t112 -37.5t85.5 -72t33 -110q0 -56 -26 -104.5t-77.5 -84t-128.5 -55.5t-173 -20q-101 0 -185.5 25.5t-144 74.5t-91 119t-31.5 155t31.5 155t91 119t144 74.5t185.5 25.5q129 0 228.5 -31.5t162.5 -81.5l-135 -142q-45 32 -104.5 51t-117.5 19
q-87 0 -134 -30t-62 -87q35 19 91 34t130 15zM482 161q58 0 91 17.5t33 53.5q0 17 -11 34.5t-40.5 27t-72.5 9.5q-39 0 -83.5 -9.5t-77.5 -25.5q16 -59 58 -83t103 -24z" />
    <glyph glyph-name="seven.oldstyle" horiz-adv-x="795" 
d="M115 -60l341 495h-433v205h762v-157l-359 -543h-311z" />
    <glyph glyph-name="eight.oldstyle" horiz-adv-x="912" 
d="M693 363q51 -10 95.5 -31.5t67.5 -57.5t23 -78q0 -51 -31 -92.5t-87.5 -69.5t-135 -43t-169.5 -15t-169.5 15t-135 43t-87.5 69.5t-31 92.5q0 42 21 75t62 56.5t103 35.5q-48 7 -86 30t-55.5 59t-17.5 71q0 24 10.5 53t39 55t76 47.5t119 33.5t151.5 12q58 0 124 -8
t118 -26.5t84.5 -42t51 -55.5t18.5 -69q0 -35 -17.5 -71t-55.5 -59t-86 -30zM341 493q0 -12 11.5 -25.5t40.5 -22.5t63 -9t63 9t40.5 22.5t11.5 25.5t-11.5 25.5t-40.5 22.5t-63 9t-63 -9t-40.5 -22.5t-11.5 -25.5zM456 150q54 0 93 17.5t39 50.5t-39 50.5t-93 17.5
t-93 -17.5t-39 -50.5t39 -50.5t93 -17.5z" />
    <glyph glyph-name="nine.oldstyle" horiz-adv-x="919" 
d="M437 664q101 0 185.5 -25.5t144 -74.5t91 -119t31.5 -155t-31.5 -155t-91 -119t-144 -74.5t-185.5 -25.5q-129 0 -228.5 31.5t-162.5 81.5l135 142q45 -32 104.5 -51t117.5 -19q87 0 134 30t62 87q-35 -19 -91 -34t-130 -15q-56 0 -115.5 11.5t-112 37.5t-85.5 72
t-33 110q0 56 26 104.5t77.5 84t128.5 55.5t173 20zM313 408q0 -17 11 -34.5t40.5 -27t72.5 -9.5q39 0 83.5 9.5t77.5 25.5q-16 59 -58 83t-103 24q-58 0 -91 -17.5t-33 -53.5z" />
    <glyph glyph-name="zero.inferior" horiz-adv-x="569" 
d="M285 -144q-59 0 -108 14.5t-83.5 43.5t-53 71t-18.5 95t18.5 95t53 71t83.5 43.5t108 14.5q58 0 107 -14.5t83.5 -43.5t53 -71t18.5 -95t-18.5 -95t-53 -71t-83.5 -43.5t-107 -14.5zM285 -15q42 0 66 25.5t24 69.5t-24 69.5t-66 25.5q-43 0 -67 -25.5t-24 -69.5t24 -69.5
t67 -25.5z" />
    <glyph glyph-name="one.inferior" horiz-adv-x="350" 
d="M131 -130v257q-43 -24 -115 -36v126q40 6 84.5 26.5t72.5 46.5h128v-420h-170z" />
    <glyph glyph-name="two.inferior" horiz-adv-x="494" 
d="M25 218q39 37 99 61t128 24q35 0 73.5 -7t69.5 -23.5t49 -42.5t18 -60q0 -95 -142 -139q-35 -11 -66.5 -23.5t-40.5 -18.5h256v-119h-448v72q6 65 56.5 114t138.5 75q52 15 63.5 21.5t11.5 14.5q0 9 -14 15t-34 6q-62 0 -133 -59z" />
    <glyph glyph-name="three.inferior" horiz-adv-x="493" 
d="M108 23q61 -50 118 -50q34 0 50 10t16 24q0 27 -61 27h-72v100h72q27 0 39 8t12 18q0 27 -58 27q-57 0 -114 -50l-96 68q16 22 47 45.5t78 38t98 14.5q38 0 89.5 -8.5t90 -37t38.5 -73.5q0 -26 -12 -49t-33.5 -35t-42.5 -15q48 -9 76 -33.5t28 -63.5q0 -15 -6 -33.5
t-22 -35t-40 -29t-64.5 -23t-101.5 -10.5q-51 0 -98.5 14.5t-79 38t-48.5 45.5z" />
    <glyph glyph-name="four.inferior" horiz-adv-x="537" 
d="M519 52v-113h-69v-69h-164v69h-276v91l288 260h152v-238h69zM201 52h85v88z" />
    <glyph glyph-name="five.inferior" horiz-adv-x="506" 
d="M86 22q30 -19 74 -30.5t92 -11.5q63 0 63 30q0 32 -63 32q-23 0 -51.5 -5.5t-48.5 -16.5l-118 42l34 228h379v-115h-252l-8 -60q23 17 58 28t72 11q45 0 85 -18t63 -50.5t23 -76.5q0 -49 -26.5 -82.5t-78 -52t-131.5 -18.5q-136 0 -237 66z" />
    <glyph glyph-name="six.inferior" horiz-adv-x="537" 
d="M315 153q30 0 66 -7t66 -22.5t49.5 -43.5t19.5 -66q0 -70 -61 -114t-173 -44q-58 0 -106.5 15.5t-82.5 44.5t-52.5 71t-18.5 93t18.5 93t52.5 71t82.5 44.5t106.5 15.5q72 0 130.5 -18t95.5 -49l-81 -86q-24 18 -58.5 29.5t-63.5 11.5q-87 0 -106 -65q24 13 56.5 19.5
t59.5 6.5zM282 -32q29 0 46 10t17 31q0 42 -63 42q-46 0 -84 -19q15 -64 84 -64z" />
    <glyph glyph-name="seven.inferior" horiz-adv-x="462" 
d="M61 -130l191 296h-238v124h438v-95l-202 -325h-189z" />
    <glyph glyph-name="eight.inferior" horiz-adv-x="531" 
d="M406 88q47 -9 75 -34.5t28 -65.5q0 -38 -27.5 -67t-81.5 -47t-134 -18q-108 0 -176 35.5t-68 96.5q0 40 28 65.5t75 34.5q-21 3 -42 14.5t-33.5 33.5t-12.5 48q0 37 30.5 66t85.5 41.5t113 12.5q42 0 84.5 -7t75 -22t50.5 -38t18 -53q0 -26 -12.5 -48t-33.5 -33.5
t-42 -14.5zM208 165q0 -15 17.5 -24t40.5 -9t40 9t17 24t-17 24.5t-40 9.5t-40.5 -9t-17.5 -25zM266 -39q26 0 46 10.5t20 29.5t-20 29.5t-46 10.5q-27 0 -47 -10.5t-20 -29.5t20 -29.5t47 -10.5z" />
    <glyph glyph-name="nine.inferior" horiz-adv-x="537" 
d="M255 304q58 0 106.5 -15.5t82.5 -44.5t52.5 -71t18.5 -93t-18.5 -93t-52.5 -71t-82.5 -44.5t-106.5 -15.5q-72 0 -130.5 18t-95.5 49l81 86q24 -18 58.5 -29.5t63.5 -11.5q87 0 106 65q-24 -13 -56.5 -19.5t-59.5 -6.5q-30 0 -66 7t-66 22.5t-49.5 43.5t-19.5 66
q0 70 61 114t173 44zM192 151q0 -42 63 -42q46 0 84 19q-15 64 -84 64q-29 0 -46 -10t-17 -31z" />
    <glyph glyph-name="zero.dnom" horiz-adv-x="569" 
d="M285 -14q-59 0 -108 14.5t-83.5 43.5t-53 71t-18.5 95t18.5 95t53 71t83.5 43.5t108 14.5q58 0 107 -14.5t83.5 -43.5t53 -71t18.5 -95t-18.5 -95t-53 -71t-83.5 -43.5t-107 -14.5zM285 115q42 0 66 25.5t24 69.5t-24 69.5t-66 25.5q-43 0 -67 -25.5t-24 -69.5t24 -69.5
t67 -25.5z" />
    <glyph glyph-name="one.dnom" horiz-adv-x="350" 
d="M131 0v257q-43 -24 -115 -36v126q40 6 84.5 26.5t72.5 46.5h128v-420h-170z" />
    <glyph glyph-name="two.dnom" horiz-adv-x="494" 
d="M25 348q39 37 99 61t128 24q35 0 73.5 -7t69.5 -23.5t49 -42.5t18 -60q0 -95 -142 -139q-35 -11 -66.5 -23.5t-40.5 -18.5h256v-119h-448v72q6 65 56.5 114t138.5 75q52 15 63.5 21.5t11.5 14.5q0 9 -14 15t-34 6q-62 0 -133 -59z" />
    <glyph glyph-name="three.dnom" horiz-adv-x="493" 
d="M108 153q61 -50 118 -50q34 0 50 10t16 24q0 27 -61 27h-72v100h72q27 0 39 8t12 18q0 27 -58 27q-57 0 -114 -50l-96 68q16 22 47 45.5t78 38t98 14.5q38 0 89.5 -8.5t90 -37t38.5 -73.5q0 -26 -12 -49t-33.5 -35t-42.5 -15q48 -9 76 -33.5t28 -63.5q0 -15 -6 -33.5
t-22 -35t-40 -29t-64.5 -23t-101.5 -10.5q-51 0 -98.5 14.5t-79 38t-48.5 45.5z" />
    <glyph glyph-name="four.dnom" horiz-adv-x="537" 
d="M519 182v-113h-69v-69h-164v69h-276v91l288 260h152v-238h69zM201 182h85v88z" />
    <glyph glyph-name="five.dnom" horiz-adv-x="506" 
d="M86 152q30 -19 74 -30.5t92 -11.5q63 0 63 30q0 32 -63 32q-23 0 -51.5 -5.5t-48.5 -16.5l-118 42l34 228h379v-115h-252l-8 -60q23 17 58 28t72 11q45 0 85 -18t63 -50.5t23 -76.5q0 -49 -26.5 -82.5t-78 -52t-131.5 -18.5q-136 0 -237 66z" />
    <glyph glyph-name="six.dnom" horiz-adv-x="537" 
d="M315 283q30 0 66 -7t66 -22.5t49.5 -43.5t19.5 -66q0 -70 -61 -114t-173 -44q-58 0 -106.5 15.5t-82.5 44.5t-52.5 71t-18.5 93t18.5 93t52.5 71t82.5 44.5t106.5 15.5q72 0 130.5 -18t95.5 -49l-81 -86q-24 18 -58.5 29.5t-63.5 11.5q-87 0 -106 -65q24 13 56.5 19.5
t59.5 6.5zM282 98q29 0 46 10t17 31q0 42 -63 42q-46 0 -84 -19q15 -64 84 -64z" />
    <glyph glyph-name="seven.dnom" horiz-adv-x="462" 
d="M61 0l191 296h-238v124h438v-95l-202 -325h-189z" />
    <glyph glyph-name="eight.dnom" horiz-adv-x="531" 
d="M406 218q47 -9 75 -34.5t28 -65.5q0 -38 -27.5 -67t-81.5 -47t-134 -18q-108 0 -176 35.5t-68 96.5q0 40 28 65.5t75 34.5q-21 3 -42 14.5t-33.5 33.5t-12.5 48q0 37 30.5 66t85.5 41.5t113 12.5q42 0 84.5 -7t75 -22t50.5 -38t18 -53q0 -26 -12.5 -48t-33.5 -33.5
t-42 -14.5zM208 295q0 -15 17.5 -24t40.5 -9t40 9t17 24t-17 24.5t-40 9.5t-40.5 -9t-17.5 -25zM266 91q26 0 46 10.5t20 29.5t-20 29.5t-46 10.5q-27 0 -47 -10.5t-20 -29.5t20 -29.5t47 -10.5z" />
    <glyph glyph-name="nine.dnom" horiz-adv-x="537" 
d="M255 434q58 0 106.5 -15.5t82.5 -44.5t52.5 -71t18.5 -93t-18.5 -93t-52.5 -71t-82.5 -44.5t-106.5 -15.5q-72 0 -130.5 18t-95.5 49l81 86q24 -18 58.5 -29.5t63.5 -11.5q87 0 106 65q-24 -13 -56.5 -19.5t-59.5 -6.5q-30 0 -66 7t-66 22.5t-49.5 43.5t-19.5 66
q0 70 61 114t173 44zM192 281q0 -42 63 -42q46 0 84 19q-15 64 -84 64q-29 0 -46 -10t-17 -31z" />
    <glyph glyph-name="zero.numr" horiz-adv-x="569" 
d="M285 266q-59 0 -108 14.5t-83.5 43.5t-53 71t-18.5 95t18.5 95t53 71t83.5 43.5t108 14.5q58 0 107 -14.5t83.5 -43.5t53 -71t18.5 -95t-18.5 -95t-53 -71t-83.5 -43.5t-107 -14.5zM285 395q42 0 66 25.5t24 69.5t-24 69.5t-66 25.5q-43 0 -67 -25.5t-24 -69.5t24 -69.5
t67 -25.5z" />
    <glyph glyph-name="one.numr" horiz-adv-x="350" 
d="M131 280v257q-43 -24 -115 -36v126q40 6 84.5 26.5t72.5 46.5h128v-420h-170z" />
    <glyph glyph-name="two.numr" horiz-adv-x="494" 
d="M25 628q39 37 99 61t128 24q35 0 73.5 -7t69.5 -23.5t49 -42.5t18 -60q0 -95 -142 -139q-35 -11 -66.5 -23.5t-40.5 -18.5h256v-119h-448v72q6 65 56.5 114t138.5 75q52 15 63.5 21.5t11.5 14.5q0 9 -14 15t-34 6q-62 0 -133 -59z" />
    <glyph glyph-name="three.numr" horiz-adv-x="493" 
d="M108 433q61 -50 118 -50q34 0 50 10t16 24q0 27 -61 27h-72v100h72q27 0 39 8t12 18q0 27 -58 27q-57 0 -114 -50l-96 68q16 22 47 45.5t78 38t98 14.5q38 0 89.5 -8.5t90 -37t38.5 -73.5q0 -26 -12 -49t-33.5 -35t-42.5 -15q48 -9 76 -33.5t28 -63.5q0 -15 -6 -33.5
t-22 -35t-40 -29t-64.5 -23t-101.5 -10.5q-51 0 -98.5 14.5t-79 38t-48.5 45.5z" />
    <glyph glyph-name="four.numr" horiz-adv-x="537" 
d="M519 462v-113h-69v-69h-164v69h-276v91l288 260h152v-238h69zM201 462h85v88z" />
    <glyph glyph-name="five.numr" horiz-adv-x="506" 
d="M86 432q30 -19 74 -30.5t92 -11.5q63 0 63 30q0 32 -63 32q-23 0 -51.5 -5.5t-48.5 -16.5l-118 42l34 228h379v-115h-252l-8 -60q23 17 58 28t72 11q45 0 85 -18t63 -50.5t23 -76.5q0 -49 -26.5 -82.5t-78 -52t-131.5 -18.5q-136 0 -237 66z" />
    <glyph glyph-name="six.numr" horiz-adv-x="537" 
d="M315 563q30 0 66 -7t66 -22.5t49.5 -43.5t19.5 -66q0 -70 -61 -114t-173 -44q-58 0 -106.5 15.5t-82.5 44.5t-52.5 71t-18.5 93t18.5 93t52.5 71t82.5 44.5t106.5 15.5q72 0 130.5 -18t95.5 -49l-81 -86q-24 18 -58.5 29.5t-63.5 11.5q-87 0 -106 -65q24 13 56.5 19.5
t59.5 6.5zM282 378q29 0 46 10t17 31q0 42 -63 42q-46 0 -84 -19q15 -64 84 -64z" />
    <glyph glyph-name="seven.numr" horiz-adv-x="462" 
d="M61 280l191 296h-238v124h438v-95l-202 -325h-189z" />
    <glyph glyph-name="eight.numr" horiz-adv-x="531" 
d="M406 498q47 -9 75 -34.5t28 -65.5q0 -38 -27.5 -67t-81.5 -47t-134 -18q-108 0 -176 35.5t-68 96.5q0 40 28 65.5t75 34.5q-21 3 -42 14.5t-33.5 33.5t-12.5 48q0 37 30.5 66t85.5 41.5t113 12.5q42 0 84.5 -7t75 -22t50.5 -38t18 -53q0 -26 -12.5 -48t-33.5 -33.5
t-42 -14.5zM208 575q0 -15 17.5 -24t40.5 -9t40 9t17 24t-17 24.5t-40 9.5t-40.5 -9t-17.5 -25zM266 371q26 0 46 10.5t20 29.5t-20 29.5t-46 10.5q-27 0 -47 -10.5t-20 -29.5t20 -29.5t47 -10.5z" />
    <glyph glyph-name="nine.numr" horiz-adv-x="537" 
d="M255 714q58 0 106.5 -15.5t82.5 -44.5t52.5 -71t18.5 -93t-18.5 -93t-52.5 -71t-82.5 -44.5t-106.5 -15.5q-72 0 -130.5 18t-95.5 49l81 86q24 -18 58.5 -29.5t63.5 -11.5q87 0 106 65q-24 -13 -56.5 -19.5t-59.5 -6.5q-30 0 -66 7t-66 22.5t-49.5 43.5t-19.5 66
q0 70 61 114t173 44zM192 561q0 -42 63 -42q46 0 84 19q-15 64 -84 64q-29 0 -46 -10t-17 -31z" />
    <glyph glyph-name="zero.c2sc" horiz-adv-x="909" 
d="M455 -22q-94 0 -172.5 22t-134.5 64t-86 105t-30 141t30 141t86 105t134.5 64t172.5 22t172.5 -22t134 -64t85.5 -105t30 -141t-30 -141t-85.5 -105t-134 -64t-172.5 -22zM455 184q70 0 109.5 33.5t39.5 92.5t-39.5 92.5t-109.5 33.5q-71 0 -110 -33.5t-39 -92.5
t39 -92.5t110 -33.5z" />
    <glyph glyph-name="one.c2sc" horiz-adv-x="545" 
d="M210 0v361q-63 -29 -186 -49v201q48 7 101.5 26t91.5 41t59 40h204v-620h-270z" />
    <glyph glyph-name="two.c2sc" horiz-adv-x="792" 
d="M39 517q63 55 159 89t207 34q63 0 114.5 -9.5t90.5 -25t69 -38.5t47 -55t17 -71q0 -48 -26 -86.5t-77 -68.5t-128 -49q-92 -22 -174 -48h415v-189h-721v113q10 99 92 173.5t224 107.5q7 2 27.5 6.5t40 9t37.5 11t18 15.5t-24 15t-57 6q-107 0 -217 -82z" />
    <glyph glyph-name="three.c2sc" horiz-adv-x="788" 
d="M170 233q94 -68 193 -68q109 0 109 40q0 11 -13.5 20.5t-88.5 9.5h-115v159h115q47 0 67 9t20 21q0 31 -97 31q-95 0 -186 -69l-153 108q34 43 90.5 78t128 51.5t140.5 16.5q68 0 139.5 -11.5t122 -38.5t70.5 -60t20 -68q0 -23 -10.5 -50.5t-32.5 -48.5t-48 -32t-53 -15
q78 -14 123.5 -49.5t45.5 -91.5q0 -47 -29 -84t-80.5 -61.5t-120.5 -37t-147 -12.5q-53 0 -121.5 12t-133.5 46t-109 86z" />
    <glyph glyph-name="four.c2sc" horiz-adv-x="859" 
d="M832 275v-179h-111v-96h-260v96h-448v144l467 380h241v-345h111zM316 275h145v108z" />
    <glyph glyph-name="five.c2sc" horiz-adv-x="811" 
d="M132 230q48 -25 119.5 -39.5t149.5 -14.5q68 0 87 9t19 24q0 36 -106 36q-37 0 -83.5 -8t-80.5 -22l-187 67l56 338h609v-183h-408l-14 -73q38 26 95 42t117 16q77 0 140.5 -27t100 -74.5t36.5 -113.5q0 -46 -20 -87t-64.5 -73t-119 -50.5t-177.5 -18.5q-223 0 -381 92z
" />
    <glyph glyph-name="six.c2sc" horiz-adv-x="858" 
d="M501 421q38 0 87.5 -6.5t94 -23t75.5 -40t49.5 -58t18.5 -77.5q0 -50 -24 -94t-71.5 -76t-119 -50t-161.5 -18q-94 0 -172 23t-133 66t-84.5 105t-29.5 138t29.5 138t84.5 105t133 66t172 23q115 0 209 -27t155 -72l-130 -137q-41 26 -95 42t-102 16q-47 0 -83 -8.5
t-57.5 -27t-31.5 -42.5q75 35 186 35zM450 156q105 0 105 52q0 51 -105 51q-33 0 -70.5 -6.5t-66.5 -17.5q11 -34 41 -56.5t96 -22.5z" />
    <glyph glyph-name="seven.c2sc" horiz-adv-x="746" 
d="M99 0l310 423h-388v197h705v-151l-327 -469h-300z" />
    <glyph glyph-name="eight.c2sc" horiz-adv-x="846" 
d="M647 320q77 -14 122.5 -51t45.5 -94q0 -46 -28.5 -83t-81 -62.5t-125 -38.5t-157.5 -13t-157.5 13t-125 38.5t-81 62.5t-28.5 83q0 36 19 64.5t57.5 49.5t91.5 31q-35 5 -68.5 22t-54 50.5t-20.5 69.5q0 34 19.5 66.5t65.5 58t117 40.5t165 15q74 0 140.5 -10.5
t117.5 -33t80 -57t29 -79.5q0 -36 -18.5 -67t-49.5 -50t-75 -25zM327 432q0 -9 10 -18.5t34 -16.5t52 -7q18 0 40 4t39 14.5t17 23.5q0 9 -10 19.5t-34 17t-52 6.5t-52 -6.5t-34 -17t-10 -19.5zM423 146q33 0 60.5 6.5t39 18.5t11.5 25q0 12 -11.5 24t-39.5 19t-60 7t-60 -7
t-39.5 -19t-11.5 -24q0 -13 11.5 -25t39 -18.5t60.5 -6.5z" />
    <glyph glyph-name="nine.c2sc" horiz-adv-x="858" 
d="M408 642q94 0 172 -23t133 -66t84.5 -105t29.5 -138t-29.5 -138t-84.5 -105t-133 -66t-172 -23q-115 0 -209 27t-155 72l130 137q41 -26 95 -42t102 -16q47 0 83 8.5t57.5 27t31.5 42.5q-75 -35 -186 -35q-38 0 -87.5 6.5t-94 23t-75.5 40t-49.5 58t-18.5 77.5
q0 50 24 94t71.5 76t119 50t161.5 18zM303 412q0 -51 105 -51q33 0 70.5 6.5t66.5 17.5q-11 34 -41 56.5t-96 22.5q-105 0 -105 -52z" />
    <glyph glyph-name="periodcentered.aalt" horiz-adv-x="360" 
d="M180 227q-32 0 -58.5 9.5t-47.5 26.5t-32 41.5t-11 50.5q0 19 7.5 41t25 41t47 32.5t69.5 13.5q32 0 58.5 -9.5t47.5 -26.5t32 -41.5t11 -50.5q0 -19 -7.5 -41t-25 -41t-47 -32.5t-69.5 -13.5z" />
    <glyph glyph-name="bullet.aalt" horiz-adv-x="476" 
d="M238 189q-39 0 -73.5 13t-59.5 36.5t-38.5 54t-13.5 64.5q0 25 9 53t31.5 53.5t59 43.5t85.5 18q39 0 73.5 -13t59.5 -36.5t38.5 -54t13.5 -64.5q0 -25 -9 -53t-31.5 -53.5t-59 -43.5t-85.5 -18z" />
    <glyph glyph-name="exclamdown.case" horiz-adv-x="402" 
d="M201 716q32 0 58.5 -9.5t47.5 -26.5t32 -41.5t11 -50.5q0 -19 -7.5 -41t-25 -41t-47 -32.5t-69.5 -13.5q-32 0 -58.5 9.5t-47.5 26.5t-32 41.5t-11 50.5q0 19 7.5 41t25 41t47 32.5t69.5 13.5zM42 0l42 414h234l42 -414h-318z" />
    <glyph glyph-name="questiondown.case" horiz-adv-x="786" 
d="M396 726q32 0 58.5 -9.5t47.5 -26.5t32 -41.5t11 -50.5q0 -19 -7.5 -41t-25 -41t-47 -32.5t-69.5 -13.5q-32 0 -58.5 9.5t-47.5 26.5t-32 41.5t-11 50.5q0 19 7.5 41t25 41t47 32.5t69.5 13.5zM497 451v-154q-93 -14 -134.5 -32.5t-41.5 -44.5q0 -12 9.5 -23t33 -17
t51.5 -6q117 0 218 90l132 -142q-86 -74 -172.5 -104t-188.5 -30q-87 0 -157.5 18t-119 48.5t-70 71.5t-21.5 84q0 54 28.5 93.5t84.5 65t140 31.5v51h208z" />
    <glyph glyph-name="braceleft.aalt" horiz-adv-x="560" 
d="M404 491q0 -39 -17.5 -71t-49 -50t-74.5 -19q35 -2 68.5 -17.5t53 -51t19.5 -73.5q0 -51 28.5 -75t61.5 -24h30v-170h-65q-148 0 -214 49.5t-66 148.5q0 86 -45 124.5t-135 38.5v99q90 0 135 38.5t45 124.5q0 99 65.5 148t214.5 49h65v-170h-30q-23 0 -44 -11
t-33.5 -32.5t-12.5 -55.5z" />
    <glyph glyph-name="braceright.aalt" horiz-adv-x="560" 
d="M156 491q0 34 -12.5 55.5t-33.5 32.5t-44 11h-30v170h65q149 0 214.5 -49t65.5 -148q0 -86 45 -124.5t135 -38.5v-99q-90 0 -135 -38.5t-45 -124.5q0 -99 -66 -148.5t-214 -49.5h-65v170h30q33 0 61.5 24t28.5 75q0 25 11.5 57.5t44.5 57t85 27.5q-43 1 -74.5 19t-49 50
t-17.5 71z" />
    <glyph glyph-name="bracketleft.aalt" horiz-adv-x="489" 
d="M453 590h-167v-480h167v-170h-391v820h391v-170z" />
    <glyph glyph-name="bracketright.aalt" horiz-adv-x="489" 
d="M36 590v170h391v-820h-391v170h167v480h-167z" />
    <glyph glyph-name="parenleft.aalt" horiz-adv-x="498" 
d="M264 350q0 -54 13.5 -94t35 -72t59.5 -62t90 -47l-76 -161q-69 11 -134 47.5t-115 94.5t-78.5 133.5t-28.5 160.5t28.5 160.5t78.5 133.5t115 94.5t134 47.5l76 -161q-41 -14 -77 -38t-63 -58t-42.5 -79.5t-15.5 -99.5z" />
    <glyph glyph-name="parenright.aalt" horiz-adv-x="498" 
d="M234 350q0 54 -13.5 94t-35 72t-59.5 62t-90 47l76 161q69 -11 134 -47.5t115 -94.5t78.5 -133.5t28.5 -160.5t-28.5 -160.5t-78.5 -133.5t-115 -94.5t-134 -47.5l-76 161q41 14 77 38t63 58t42.5 79.5t15.5 99.5z" />
    <glyph glyph-name="emdash.aalt" horiz-adv-x="1010" 
d="M955 256h-900v200h900v-200z" />
    <glyph glyph-name="endash.aalt" horiz-adv-x="804" 
d="M749 256h-694v200h694v-200z" />
    <glyph glyph-name="hyphen.aalt" horiz-adv-x="620" 
d="M565 256h-510v200h510v-200z" />
    <glyph glyph-name="guillemotleft.aalt" horiz-adv-x="838" 
d="M235 587l-210 -230l210 -230h241l-210 230l210 230h-241zM563 587l-210 -230l210 -230h241l-210 230l210 230h-241z" />
    <glyph glyph-name="guillemotright.aalt" horiz-adv-x="838" 
d="M275 587h-241l210 -230l-210 -230h241l210 230zM603 587h-241l210 -230l-210 -230h241l210 230z" />
    <glyph glyph-name="guilsinglleft.aalt" horiz-adv-x="510" 
d="M235 587l-210 -230l210 -230h241l-210 230l210 230h-241z" />
    <glyph glyph-name="guilsinglright.aalt" horiz-adv-x="510" 
d="M275 587h-241l210 -230l-210 -230h241l210 230z" />
    <glyph glyph-name="backslash.aalt" horiz-adv-x="795" 
d="M308 720l464 -820h-286l-464 820h286z" />
    <glyph glyph-name="exclam.aalt" horiz-adv-x="398" 
d="M40 620h318l-42 -334h-234zM199 -16q-32 0 -58.5 9.5t-47.5 26.5t-32 41.5t-11 50.5q0 19 7.5 41t25 41t47 32.5t69.5 13.5q32 0 58.5 -9.5t47.5 -26.5t32 -41.5t11 -50.5q0 -19 -7.5 -41t-25 -41t-47 -32.5t-69.5 -13.5z" />
    <glyph glyph-name="exclamdown.c2sc" horiz-adv-x="402" 
d="M201 636q32 0 58.5 -9.5t47.5 -26.5t32 -41.5t11 -50.5q0 -19 -7.5 -41t-25 -41t-47 -32.5t-69.5 -13.5q-32 0 -58.5 9.5t-47.5 26.5t-32 41.5t-11 50.5q0 19 7.5 41t25 41t47 32.5t69.5 13.5zM42 0l42 334h234l42 -334h-318z" />
    <glyph glyph-name="numbersign.aalt" horiz-adv-x="911" 
d="M879 358h-151l-25 -84h142v-144h-184l-39 -130h-206l39 130h-108l-39 -130h-207l39 130h-108v144h150l25 84h-142v144h185l35 118h207l-35 -118h108l35 118h206l-35 -118h108v-144zM497 274l25 84h-108l-25 -84h108z" />
    <glyph glyph-name="question.aalt" horiz-adv-x="733" 
d="M263 251v120q72 12 111.5 26t39.5 33q0 11 -16 19t-53 8q-99 0 -197 -74l-129 144q55 40 106 64.5t107 36.5t124 12q63 0 115.5 -9.5t92 -25t70 -38.5t48 -55.5t17.5 -71.5q0 -29 -11.5 -57.5t-38.5 -51.5t-71 -39t-107 -20v-21h-208zM366 -16q-32 0 -58.5 9.5
t-47.5 26.5t-32 41.5t-11 50.5q0 19 7.5 41t25 41t47 32.5t69.5 13.5q32 0 58.5 -9.5t47.5 -26.5t32 -41.5t11 -50.5q0 -19 -7.5 -41t-25 -41t-47 -32.5t-69.5 -13.5z" />
    <glyph glyph-name="questiondown.c2sc" horiz-adv-x="733" 
d="M367 636q32 0 58.5 -9.5t47.5 -26.5t32 -41.5t11 -50.5q0 -19 -7.5 -41t-25 -41t-47 -32.5t-69.5 -13.5q-32 0 -58.5 9.5t-47.5 26.5t-32 41.5t-11 50.5q0 19 7.5 41t25 41t47 32.5t69.5 13.5zM470 369v-120q-72 -12 -111.5 -26t-39.5 -33q0 -11 16 -19t53 -8
q99 0 197 74l129 -144q-55 -40 -106 -64.5t-107 -36.5t-124 -12q-63 0 -115.5 9.5t-92 25t-70 38.5t-48 55.5t-17.5 71.5q0 29 11.5 57.5t38.5 51.5t71 39t107 20v21h208z" />
    <glyph glyph-name="slash.c2sc" horiz-adv-x="795" 
d="M309 -100h-286l464 820h286z" />
    <glyph glyph-name="percent.oldstyle" horiz-adv-x="912" 
d="M213 298q-43 0 -81 13.5t-65.5 38t-43 58t-15.5 71.5t15.5 71.5t43 58t65.5 38t81 13.5t81 -13.5t65.5 -38t43 -58t15.5 -71.5t-15.5 -71.5t-43 -58t-65.5 -38t-81 -13.5zM645 640h170l-548 -640h-170zM213 420q28 0 46.5 15.5t18.5 43.5t-18.5 43.5t-46.5 15.5
t-46.5 -15.5t-18.5 -43.5t18.5 -43.5t46.5 -15.5zM699 -20q-43 0 -81 13.5t-65.5 38t-43 58t-15.5 71.5t15.5 71.5t43 58t65.5 38t81 13.5t81 -13.5t65.5 -38t43 -58t15.5 -71.5t-15.5 -71.5t-43 -58t-65.5 -38t-81 -13.5zM699 102q28 0 46.5 15.5t18.5 43.5t-18.5 43.5
t-46.5 15.5t-46.5 -15.5t-18.5 -43.5t18.5 -43.5t46.5 -15.5z" />
    <glyph glyph-name="perthousand.oldstyle" horiz-adv-x="1345" 
d="M213 298q-43 0 -81 13.5t-65.5 38t-43 58t-15.5 71.5t15.5 71.5t43 58t65.5 38t81 13.5t81 -13.5t65.5 -38t43 -58t15.5 -71.5t-15.5 -71.5t-43 -58t-65.5 -38t-81 -13.5zM645 640h170l-548 -640h-170zM213 420q28 0 46.5 15.5t18.5 43.5t-18.5 43.5t-46.5 15.5
t-46.5 -15.5t-18.5 -43.5t18.5 -43.5t46.5 -15.5zM699 -20q-43 0 -81 13.5t-65.5 38t-43 58t-15.5 71.5t15.5 71.5t43 58t65.5 38t81 13.5t81 -13.5t65.5 -38t43 -58t15.5 -71.5t-15.5 -71.5t-43 -58t-65.5 -38t-81 -13.5zM1132 -20q-43 0 -81 13.5t-65.5 38t-43 58
t-15.5 71.5t15.5 71.5t43 58t65.5 38t81 13.5t81 -13.5t65.5 -38t43 -58t15.5 -71.5t-15.5 -71.5t-43 -58t-65.5 -38t-81 -13.5zM699 102q28 0 46.5 15.5t18.5 43.5t-18.5 43.5t-46.5 15.5t-46.5 -15.5t-18.5 -43.5t18.5 -43.5t46.5 -15.5zM1132 102q28 0 46.5 15.5
t18.5 43.5t-18.5 43.5t-46.5 15.5t-46.5 -15.5t-18.5 -43.5t18.5 -43.5t46.5 -15.5z" />
    <glyph glyph-name="bar.case" horiz-adv-x="384" 
d="M67 -60v820h250v-820h-250z" />
    <glyph glyph-name="brokenbar.case" horiz-adv-x="384" 
d="M67 428v332h250v-332h-250zM317 278v-338h-250v338h250z" />
    <glyph glyph-name="at.case" horiz-adv-x="1047" 
d="M814 37q-20 -14 -61 -28.5t-104.5 -23.5t-127.5 -9q-110 0 -201.5 27.5t-155 77.5t-97 119.5t-33.5 149.5t33.5 149.5t97 119.5t155 77.5t201.5 27.5t201.5 -27.5t155.5 -77.5t97.5 -119.5t33.5 -149.5q0 -74 -21.5 -121.5t-64 -72.5t-112.5 -25q-30 0 -68.5 7t-74 27
t-57.5 49q-32 -42 -81 -62.5t-103 -20.5q-48 0 -91.5 15.5t-75.5 44.5t-50 70t-18 89t18 89t50 70.5t75.5 45t91.5 15.5q111 0 175 -83l36 68h161v-254q0 -38 9 -60t21 -28t22 -6q33 0 52.5 41.5t19.5 101.5q0 37 -10.5 81t-38.5 82t-75.5 68.5t-120.5 47t-157 16.5
t-147 -14t-107.5 -37t-77.5 -57t-51 -81.5t-18 -105.5t18 -105.5t51 -81.5t77.5 -57t107.5 -37t147 -14q77 0 143 13.5t111 35.5zM490 264q65 0 106 58v53q-42 57 -106 57q-45 0 -70.5 -24t-25.5 -60t25.5 -60t70.5 -24z" />
    <glyph glyph-name="registered.case" horiz-adv-x="1000" 
d="M500 724q130 0 237.5 -43.5t170 -130t62.5 -200.5t-62.5 -200.5t-170 -130t-237.5 -43.5t-237.5 43.5t-170 130t-62.5 200.5t62.5 200.5t170 130t237.5 43.5zM805 126q49 41 76 98t27 126q0 73 -30.5 132.5t-85.5 100.5t-130 62t-162 21q-80 0 -151 -18t-123 -52h334
q80 0 137.5 -22.5t88.5 -62t31 -95.5q0 -43 -18.5 -76.5t-47 -52.5t-53.5 -28zM92 350q0 -77 34.5 -140t95.5 -104v488q-61 -41 -95.5 -104t-34.5 -140zM542 364q27 0 43.5 11t16.5 35t-16.5 35t-43.5 11h-107v-92h107zM226 104q52 -34 123 -52t151 -18t151 18t123 52h-181
l-90 132h-68v-132h-209z" />
    <glyph glyph-name="dagger.case" horiz-adv-x="588" 
d="M536 502v-172h-139v-330h-208v330h-137v172h137v198h208v-198h139z" />
    <glyph glyph-name="daggerdbl.case" horiz-adv-x="588" 
d="M536 388h-139v-76h139v-172h-139v-140h-208v140h-137v172h137v76h-137v172h137v140h208v-140h139v-172z" />
    <glyph glyph-name="bar.c2sc" horiz-adv-x="384" 
d="M67 -100v820h250v-820h-250z" />
    <glyph glyph-name="brokenbar.c2sc" horiz-adv-x="384" 
d="M67 388v332h250v-332h-250zM317 238v-338h-250v338h250z" />
    <glyph glyph-name="at.c2sc" horiz-adv-x="967" 
d="M759 34q-39 -26 -115 -41t-157 -15q-102 0 -186 24.5t-143 69t-90 106t-31 132.5t31 132.5t90 106t143 69t186 24.5t186.5 -24.5t143.5 -69t90 -106t31 -132.5q0 -67 -20 -108.5t-60 -63t-106 -21.5q-60 0 -110 18t-79 50q-29 -35 -73 -51t-93 -16q-33 0 -69 9t-72.5 35
t-55 66t-18.5 82t16.5 78t46 61.5t69 39.5t83.5 14q101 0 158 -68l35 55h154v-222q0 -78 47 -78q30 0 47.5 34.5t17.5 85.5t-19.5 99.5t-65 83.5t-116 54.5t-168.5 19.5t-168 -19.5t-115.5 -54.5t-65 -83.5t-19.5 -99.5t19.5 -99.5t65 -83.5t115.5 -54.5t168 -19.5
q53 0 117 9.5t118 34.5zM458 245q55 0 91 43v41q-37 42 -91 42q-39 0 -60.5 -18.5t-21.5 -44.5q0 -25 22 -44t60 -19z" />
    <glyph glyph-name="ampersand.aalt" horiz-adv-x="886" 
d="M890 0h-281l-19 15q-40 -15 -91.5 -24t-100.5 -9q-76 0 -143.5 16t-117 45t-76.5 69t-27 85q0 101 131 148q-57 54 -57 112q0 26 12 56t39.5 54t61.5 39t78.5 23.5t95.5 8.5q68 0 130 -14t118 -48t110 -98l-206 -85q-32 38 -68.5 60t-71.5 22q-23 0 -37 -9t-14 -24
q0 -10 9.5 -22t38.5 -35l186 -148q17 32 23 69h216q-12 -108 -86 -190zM411 144h11l-127 99q-3 -10 -3 -19q0 -23 18 -43t46 -28.5t55 -8.5z" />
    <glyph glyph-name="paragraph.aalt" horiz-adv-x="947" 
d="M888 620v-620h-220v458h-67v-458h-220v164h-59q-103 0 -169.5 26t-100.5 76t-34 126q0 59 22.5 103t63 71.5t96.5 40.5t122 13h566zM381 320v138h-44q-44 0 -69.5 -17t-25.5 -52t25.5 -52t69.5 -17h44z" />
    <glyph glyph-name="copyright.aalt" horiz-adv-x="931" 
d="M465 -22q-94 0 -175 24t-139 68t-89.5 106t-31.5 134q0 73 31.5 134.5t89.5 105.5t139 68t175 24q95 0 176 -24t139 -68t89.5 -105.5t31.5 -134.5q0 -72 -31.5 -134t-89.5 -106t-139 -68t-176 -24zM465 33q80 0 149.5 18.5t120.5 54t79 88t28 116.5t-28 116.5t-79 88
t-120.5 54t-149.5 18.5t-149.5 -18.5t-120 -54t-78.5 -88t-28 -116.5t28 -116.5t78.5 -88t120 -54t149.5 -18.5zM737 196q-16 -22 -50 -49.5t-92.5 -48t-133.5 -20.5q-62 0 -115.5 15.5t-92.5 45.5t-60.5 74t-21.5 98t21.5 98t60.5 74t92.5 45.5t115.5 15.5
q63 0 119.5 -16.5t93 -45t53.5 -57.5l-158 -74q-16 18 -37 30.5t-54 12.5q-47 0 -74 -24t-27 -59t27 -59t74 -24q26 0 48 9.5t43 33.5z" />
    <glyph glyph-name="registered.c2sc" horiz-adv-x="931" 
d="M465 642q95 0 176 -24t139 -68t89.5 -105.5t31.5 -134.5q0 -72 -31.5 -134t-89.5 -106t-139 -68t-176 -24q-94 0 -175 24t-139 68t-89.5 106t-31.5 134q0 73 31.5 134.5t89.5 105.5t139 68t175 24zM746 114q45 35 70.5 85.5t25.5 110.5q0 64 -28 116.5t-79 88t-120.5 54
t-149.5 18.5q-148 0 -247 -58h302q74 0 128 -20t83 -56t29 -87q0 -50 -29 -85.5t-78 -54.5zM89 310q0 -32 10 -71.5t38.5 -77t69.5 -63.5v424q-41 -26 -69.5 -63.5t-38.5 -77t-10 -71.5zM502 326q51 0 51 34q0 35 -51 35h-90v-69h90zM218 91q99 -58 247 -58t247 58h-168
l-79 113h-53v-113h-194z" />
    <glyph glyph-name="uni2117.c2sc" horiz-adv-x="931" 
d="M465 -22q-94 0 -175 24t-139 68t-89.5 106t-31.5 134q0 73 31.5 134.5t89.5 105.5t139 68t175 24q95 0 176 -24t139 -68t89.5 -105.5t31.5 -134.5q0 -72 -31.5 -134t-89.5 -106t-139 -68t-176 -24zM465 33q80 0 149.5 18.5t120.5 54t79 88t28 116.5t-28 116.5t-79 88
t-120.5 54t-149.5 18.5t-149.5 -18.5t-120 -54t-78.5 -88t-28 -116.5t28 -116.5t78.5 -88t120 -54t149.5 -18.5zM536 529q74 0 128 -20.5t83 -56.5t29 -87q0 -31 -13 -61t-43 -53t-76.5 -37t-107.5 -14h-107v-109h-205v438h312zM516 323q53 0 53 36t-53 36h-87v-72h87z" />
    <glyph glyph-name="section.aalt" horiz-adv-x="716" 
d="M625 166q51 -37 51 -103q0 -40 -19.5 -75t-58.5 -61.5t-99.5 -41.5t-137.5 -15q-177 0 -327 78l98 127q114 -55 236 -55q36 0 57.5 5t21.5 14q0 13 -93 19q-149 9 -222.5 54.5t-73.5 122.5q0 69 57 121q-57 41 -57 108q0 31 15 63t52 58t97.5 42.5t145.5 16.5
q86 0 162.5 -15.5t131.5 -45.5l-101 -125q-75 36 -192 36q-44 0 -64.5 -5t-20.5 -11q0 -14 99 -20q156 -9 224.5 -49t68.5 -113q0 -76 -51 -130zM288 259q0 -16 25 -28t69 -13h2q30 3 45.5 14.5t15.5 25.5t-20.5 26.5t-57.5 13.5q-32 0 -55.5 -11.5t-23.5 -27.5z" />
    <glyph glyph-name="degree.aalt" horiz-adv-x="426" 
d="M213 338q-82 0 -134.5 40.5t-52.5 110.5t52.5 110.5t134.5 40.5t134.5 -40.5t52.5 -110.5t-52.5 -110.5t-134.5 -40.5zM213 434q27 0 44 15.5t17 39.5t-17 39.5t-44 15.5t-44 -15.5t-17 -39.5t17 -39.5t44 -15.5z" />
    <glyph glyph-name="cent.aalt" horiz-adv-x="685" 
d="M411 230q39 13 63 48l183 -75q-28 -55 -89.5 -96t-156.5 -50v-57h-96v57q-63 5 -115 23.5t-88.5 50.5t-56.5 77.5t-20 101.5q0 42 11.5 78.5t32.5 65.5t51.5 50.5t76 37.5t108.5 21v57h96v-57q95 -9 156.5 -50t89.5 -96l-183 -75q-25 36 -63 49v-161zM260 310
q0 -25 15 -45t40 -31v153q-25 -10 -40 -31t-15 -46z" />
    <glyph glyph-name="currency.aalt" horiz-adv-x="729" 
d="M655 315q0 -39 -11 -74t-28 -61l82 -79l-109 -100l-98 86q-55 -21 -126 -21t-127 21l-97 -86l-110 100l82 79q-17 26 -28 61t-11 74q0 31 8.5 64t22.5 58l-74 72l110 100l81 -72q65 27 143 27q37 0 75 -7.5t67 -19.5l82 72l109 -100l-74 -72q14 -25 22.5 -57.5t8.5 -64.5
zM365 235q43 0 69.5 21.5t26.5 58.5t-26.5 59t-69.5 22q-44 0 -70.5 -22t-26.5 -59t26.5 -58.5t70.5 -21.5z" />
    <glyph glyph-name="dagger.c2sc" horiz-adv-x="588" 
d="M536 442v-172h-139v-270h-208v270h-137v172h137v178h208v-178h139z" />
    <glyph glyph-name="daggerdbl.c2sc" horiz-adv-x="588" 
d="M536 348h-139v-76h139v-166h-139v-106h-208v106h-137v166h137v76h-137v166h137v106h208v-106h139v-166z" />
    <glyph glyph-name="dollar.aalt" horiz-adv-x="864" 
d="M827 225q0 -51 -23 -93t-67.5 -71.5t-109 -46t-144.5 -18.5v-88h-86v90q-107 6 -204 35t-168 76l127 143q46 -28 111 -49t134 -28v45q-181 17 -261.5 68t-80.5 136q0 48 26.5 85t73 61t109 37t133.5 16v80h86v-80q88 -5 171.5 -27t146.5 -59l-120 -143q-86 47 -198 55
v-36q156 -12 222.5 -34.5t94 -61.5t27.5 -92zM318 436q0 -6 12 -9.5t67 -6.5v31q-37 -1 -58 -4t-21 -11zM483 172q44 0 62.5 3.5t18.5 13.5q0 7 -11.5 12.5t-69.5 10.5v-40z" />
    </font>
</defs>
</svg>
