<svg width="466" height="294" viewBox="0 0 466 294" fill="none" xmlns="http://www.w3.org/2000/svg">
<g filter="url(#filter0_d)">
<rect x="8" y="4" width="450" height="278" fill="#36393F"/>
</g>
<rect x="52" y="4" width="118" height="278" fill="#2F3136"/>
<rect x="62" y="70" width="57" height="10" rx="5" fill="#7B808B"/>
<rect x="62" y="94" width="43" height="10" rx="5" fill="#555A61"/>
<rect x="62" y="118" width="62" height="10" rx="5" fill="#555A61"/>
<rect x="62" y="187" width="64" height="10" rx="5" fill="#555A61"/>
<rect x="62" y="211" width="64" height="10" rx="5" fill="#555A61"/>
<rect x="74" y="48" width="58" height="8" rx="4" fill="#555A61"/>
<path d="M153.799 26.8674L150.133 23.2007C149.956 23.0238 149.956 22.7371 150.133 22.5603L150.56 22.1326C150.737 21.9561 151.023 21.9557 151.2 22.1319L154.12 25.0378L157.039 22.1319C157.216 21.9557 157.502 21.9561 157.679 22.1326L158.106 22.5603C158.283 22.7371 158.283 23.0238 158.106 23.2007L154.44 26.8674C154.263 27.0442 153.976 27.0442 153.799 26.8674Z" fill="#99AAB5"/>
<circle cx="66" cy="52" r="4" fill="#555A61"/>
<rect x="74" y="165" width="58" height="8" rx="4" fill="#555A61"/>
<circle cx="66" cy="169" r="4" fill="#555A61"/>
<rect x="62" y="19" width="66" height="11" rx="5.5" fill="#99AAB5"/>
<circle cx="52" cy="75" r="5" fill="white"/>
<rect x="8" y="4" width="44" height="278" fill="#202225"/>
<path fill-rule="evenodd" clip-rule="evenodd" d="M41.4282 63.2H19.5718C18.1515 63.2 17 62.6268 17 61.9198V61.2802C17 60.5732 18.1515 60 19.5718 60H41.4282C42.8485 60 44 60.5732 44 61.2802V61.9198C44 62.6268 42.8485 63.2 41.4282 63.2Z" fill="#2D3036"/>
<circle cx="29.5" cy="151.5" r="13.5" fill="#2D3036"/>
<path fill-rule="evenodd" clip-rule="evenodd" d="M36.3998 97.1918H22.8002C19.0444 97.1918 16 94.1483 16 90.3936V76.7981C16 73.0442 19.0444 70 22.8002 70H36.3998C40.1556 70 43.2 73.0442 43.2 76.7981V90.3936C43.2 94.1483 40.1556 97.1918 36.3998 97.1918Z" fill="#80F4FF"/>
<path fill-rule="evenodd" clip-rule="evenodd" d="M43.2 117.596C43.2 125.104 37.1112 131.191 29.6004 131.191C22.0895 131.191 16 125.104 16 117.596C16 110.087 22.0895 104 29.6004 104C37.1112 104 43.2 110.087 43.2 117.596Z" fill="#80FFCB"/>
<circle cx="29.5" cy="224.5" r="13.5" fill="#2D3036"/>
<line x1="29.5" y1="219" x2="29.5" y2="230" stroke="#80FFCB"/>
<line x1="24" y1="224.5" x2="35" y2="224.5" stroke="#80FFCB"/>
<path fill-rule="evenodd" clip-rule="evenodd" d="M8 72H9.50025C10.3283 72 11 73.3733 11 75.0671V91.9329C11 93.6267 10.3283 95 9.50025 95H8V72Z" fill="white"/>
<circle cx="29.5" cy="258.5" r="13.5" fill="#2D3036"/>
<circle cx="29.5" cy="258.5" r="6.85" fill="#80FFCB"/>
<circle cx="30.5" cy="39.5" r="13.5" fill="#2D3036"/>
<circle cx="30.5" cy="39.5" r="6.85" fill="#E4E4E4"/>
<rect x="52" y="255" width="118" height="27" fill="#292B2F"/>
<rect x="78" y="262" width="31" height="5" rx="2.5" fill="#99AAB5"/>
<rect x="78" y="271" width="17" height="5" rx="2.5" fill="#7B808B"/>
<circle cx="159.5" cy="268.5" r="4.5" fill="#555A61"/>
<circle cx="145.5" cy="268.5" r="4.5" fill="#555A61"/>
<circle cx="130.5" cy="268.5" r="4.5" fill="#555A61"/>
<circle cx="65.5" cy="268.5" r="8.5" fill="#80F4FF"/>
<circle cx="71" cy="274" r="3" fill="#FF8B80"/>
<circle cx="19" cy="16" r="3" fill="#FF453A"/>
<circle cx="30" cy="16" r="3" fill="#FF9F0A"/>
<circle cx="41" cy="16" r="3" fill="#32D74B"/>
<rect x="184" y="250" width="260" height="22" rx="6" fill="#5E6368"/>
<circle cx="194.5" cy="261.5" r="4.5" fill="#4A4F55"/>
<circle cx="435.5" cy="261.5" r="4.5" fill="#4A4F55"/>
<circle cx="419.5" cy="261.5" r="4.5" fill="#4A4F55"/>
<circle cx="403.5" cy="261.5" r="4.5" fill="#4A4F55"/>
<rect x="188" y="19" width="76" height="11" rx="5.5" fill="#99AAB5"/>
<circle cx="435.5" cy="24.5" r="4.5" fill="#717982"/>
<circle cx="419.5" cy="24.5" r="4.5" fill="#717982"/>
<circle cx="341.5" cy="24.5" r="4.5" fill="#717982"/>
<circle cx="326.5" cy="24.5" r="4.5" fill="#717982"/>
<circle cx="311.5" cy="24.5" r="4.5" fill="#717982"/>
<rect x="353" y="20" width="55" height="9" rx="3" fill="#717982"/>
<circle cx="199" cy="63" r="11" fill="#FFCB80"/>
<rect x="221" y="52" width="50" height="7" rx="3.5" fill="#7B808B"/>
<rect x="221" y="63" width="32" height="5" rx="2.5" fill="#555A61"/>
<rect x="258" y="63" width="17" height="5" rx="2.5" fill="#555A61"/>
<rect x="280" y="63" width="63" height="5" rx="2.5" fill="#555A61"/>
<rect x="221" y="72" width="55" height="5" rx="2.5" fill="#555A61"/>
<rect x="279" y="72" width="55" height="5" rx="2.5" fill="#555A61"/>
<circle cx="199" cy="105" r="11" fill="#FF8B80"/>
<rect x="221" y="94" width="50" height="7" rx="3.5" fill="#7B808B"/>
<rect x="221" y="105" width="46" height="5" rx="2.5" fill="#555A61"/>
<rect x="271" y="105" width="17" height="5" rx="2.5" fill="#555A61"/>
<rect x="221" y="114" width="125" height="51" rx="3" fill="#555A61"/>
<circle cx="199" cy="188" r="11" fill="#FFCB80"/>
<rect x="221" y="177" width="50" height="7" rx="3.5" fill="#7B808B"/>
<rect x="221" y="189" width="46" height="5" rx="2.5" fill="#555A61"/>
<circle cx="199" cy="222" r="11" fill="#80FFCB"/>
<rect x="221" y="211" width="50" height="7" rx="3.5" fill="#7B808B"/>
<rect x="221" y="222" width="14" height="5" rx="2.5" fill="#555A61"/>
<rect x="240" y="222" width="77" height="5" rx="2.5" fill="#555A61"/>
<rect x="221" y="231" width="32" height="5" rx="2.5" fill="#555A61"/>
<rect x="258" y="231" width="32" height="5" rx="2.5" fill="#555A61"/>
<rect x="295" y="231" width="18" height="5" rx="2.5" fill="#555A61"/>
<defs>
<filter id="filter0_d" x="0" y="0" width="466" height="294" filterUnits="userSpaceOnUse" color-interpolation-filters="sRGB">
<feFlood flood-opacity="0" result="BackgroundImageFix"/>
<feColorMatrix in="SourceAlpha" type="matrix" values="0 0 0 0 0 0 0 0 0 0 0 0 0 0 0 0 0 0 127 0"/>
<feOffset dy="4"/>
<feGaussianBlur stdDeviation="4"/>
<feColorMatrix type="matrix" values="0 0 0 0 0 0 0 0 0 0 0 0 0 0 0 0 0 0 0.19 0"/>
<feBlend mode="normal" in2="BackgroundImageFix" result="effect1_dropShadow"/>
<feBlend mode="normal" in="SourceGraphic" in2="effect1_dropShadow" result="shape"/>
</filter>
</defs>
</svg>
