<svg width="677" height="578" viewBox="0 0 677 578" fill="none" xmlns="http://www.w3.org/2000/svg">
<g clip-path="url(#clip0_24_90)">
<path d="M315.043 528.398C318.966 529.777 323.179 530.122 327.274 529.401C331.37 528.679 335.21 526.915 338.426 524.279C346.616 517.404 349.184 506.083 351.273 495.597L357.452 464.58L344.515 473.489C335.21 479.895 325.696 486.507 319.255 495.787C312.813 505.066 310.002 517.734 315.177 527.775" fill="#E4E4E4"/>
<path d="M317.041 568.108C315.413 556.244 313.737 544.227 314.882 532.236C315.897 521.587 319.146 511.188 325.761 502.657C329.272 498.139 333.544 494.267 338.385 491.217C339.647 490.42 340.809 492.42 339.552 493.214C331.175 498.508 324.696 506.325 321.048 515.539C317.019 525.785 316.373 536.955 317.067 547.84C317.486 554.422 318.377 560.961 319.272 567.492C319.343 567.787 319.299 568.099 319.149 568.363C318.999 568.627 318.754 568.824 318.464 568.915C318.169 568.994 317.853 568.954 317.587 568.803C317.321 568.652 317.125 568.401 317.042 568.107L317.041 568.108Z" fill="#F2F2F2"/>
<path d="M328.762 549.072C330.444 551.63 332.757 553.711 335.477 555.116C338.197 556.52 341.234 557.2 344.293 557.09C352.157 556.717 358.711 551.231 364.61 546.02L382.062 530.611L370.512 530.059C362.206 529.661 353.686 529.288 345.774 531.852C337.863 534.416 330.567 540.578 329.12 548.767" fill="#E4E4E4"/>
<path d="M312.438 574.928C320.277 561.056 329.37 545.64 345.619 540.712C350.136 539.347 354.873 538.858 359.574 539.271C361.056 539.399 360.686 541.683 359.207 541.556C351.327 540.902 343.461 542.982 336.935 547.448C330.655 551.722 325.766 557.666 321.628 563.967C319.092 567.828 316.822 571.851 314.551 575.87C313.826 577.154 311.704 576.227 312.438 574.928Z" fill="#F2F2F2"/>
<path d="M572.662 406.791H0V0H572.662V406.791Z" fill="white"/>
<path d="M46.6481 167.076C45.1683 167.076 43.749 167.664 42.7026 168.71C41.6562 169.757 41.0684 171.176 41.0684 172.656C41.0684 174.136 41.6562 175.555 42.7026 176.601C43.749 177.648 45.1683 178.236 46.6481 178.236H240.038C241.516 178.233 242.932 177.644 243.976 176.598C245.02 175.552 245.607 174.134 245.607 172.656C245.607 171.178 245.02 169.76 243.976 168.714C242.932 167.668 241.516 167.079 240.038 167.076H46.6481Z" fill="#FF5F00"/>
<path d="M46.6482 200.555C45.1684 200.552 43.7479 201.137 42.6993 202.181C41.6506 203.225 41.0598 204.643 41.0567 206.123C41.0535 207.603 41.6384 209.023 42.6826 210.072C43.7268 211.12 45.1448 211.711 46.6247 211.714H240.18C241.66 211.714 243.08 211.127 244.126 210.08C245.172 209.034 245.76 207.615 245.76 206.135C245.76 204.655 245.172 203.236 244.126 202.189C243.08 201.143 241.66 200.555 240.18 200.555H46.6482Z" fill="#FF5F00"/>
<path d="M46.6482 233.555C45.1684 233.552 43.7479 234.137 42.6993 235.181C41.6506 236.225 41.0598 237.643 41.0567 239.123C41.0535 240.603 41.6384 242.023 42.6826 243.072C43.7268 244.12 45.1448 244.711 46.6247 244.714H90.1804C91.6603 244.714 93.0795 244.127 94.126 243.08C95.1724 242.034 95.7602 240.615 95.7602 239.135C95.7602 237.655 95.1724 236.236 94.126 235.189C93.0795 234.143 91.6603 233.555 90.1804 233.555H46.6482Z" fill="#FF5F00"/>
<path d="M572.662 406.791H0V0H572.662V406.791ZM9.41364 397.377H563.249V9.41364H9.41364V397.377Z" fill="#E5E5E5"/>
<path d="M392.473 317.406C389.812 317.403 387.259 318.456 385.374 320.334C383.489 322.212 382.428 324.761 382.422 327.422C382.416 330.083 383.467 332.637 385.344 334.523C387.221 336.409 389.77 337.472 392.43 337.48H488.268C489.587 337.481 490.893 337.223 492.112 336.719C493.331 336.215 494.438 335.476 495.371 334.544C496.305 333.612 497.045 332.505 497.55 331.286C498.055 330.068 498.315 328.762 498.315 327.443C498.315 326.124 498.055 324.818 497.55 323.6C497.045 322.382 496.305 321.275 495.371 320.342C494.438 319.41 493.331 318.671 492.112 318.167C490.893 317.664 489.587 317.405 488.268 317.406H392.473Z" fill="#E4E4E4"/>
<path d="M392.473 195.858C389.812 195.855 387.259 196.908 385.374 198.786C383.489 200.664 382.428 203.213 382.422 205.874C382.416 208.535 383.467 211.089 385.344 212.975C387.221 214.861 389.77 215.925 392.43 215.932H488.268C489.587 215.934 490.893 215.675 492.112 215.171C493.331 214.667 494.438 213.928 495.371 212.996C496.305 212.064 497.045 210.957 497.55 209.739C498.055 208.52 498.315 207.214 498.315 205.895C498.315 204.576 498.055 203.27 497.55 202.052C497.045 200.834 496.305 199.727 495.371 198.795C494.438 197.862 493.331 197.123 492.112 196.62C490.893 196.116 489.587 195.857 488.268 195.858H392.473Z" fill="#E4E4E4"/>
<path d="M46.6482 322.055C45.9155 322.053 45.1896 322.196 44.512 322.475C43.8344 322.754 43.2185 323.164 42.6993 323.681C42.18 324.198 41.7677 324.812 41.4859 325.489C41.204 326.165 41.0582 326.89 41.0567 327.623C41.0551 328.356 41.1979 329.082 41.4769 329.759C41.7559 330.437 42.1656 331.053 42.6826 331.572C43.1997 332.091 43.8139 332.503 44.4903 332.785C45.1667 333.067 45.8919 333.213 46.6247 333.214H240.18C241.66 333.214 243.08 332.627 244.126 331.58C245.172 330.534 245.76 329.115 245.76 327.635C245.76 326.155 245.172 324.736 244.126 323.689C243.08 322.643 241.66 322.055 240.18 322.055H46.6482Z" fill="#E4E4E4"/>
<path d="M46.6482 355.055C45.9155 355.053 45.1896 355.196 44.512 355.475C43.8344 355.754 43.2185 356.164 42.6993 356.681C42.18 357.198 41.7678 357.812 41.4859 358.489C41.2041 359.165 41.0582 359.89 41.0567 360.623C41.0551 361.356 41.1979 362.082 41.4769 362.759C41.7559 363.437 42.1656 364.053 42.6826 364.572C43.1997 365.091 43.8139 365.503 44.4903 365.785C45.1667 366.067 45.8919 366.213 46.6247 366.215H90.1804C91.6603 366.215 93.0795 365.627 94.126 364.58C95.1724 363.534 95.7602 362.115 95.7602 360.635C95.7602 359.155 95.1724 357.736 94.126 356.689C93.0795 355.643 91.6603 355.055 90.1804 355.055H46.6482Z" fill="#E4E4E4"/>
<path d="M46.6481 288.576C45.1683 288.576 43.749 289.164 42.7026 290.21C41.6562 291.257 41.0684 292.676 41.0684 294.156C41.0684 295.636 41.6562 297.055 42.7026 298.101C43.749 299.148 45.1683 299.736 46.6481 299.736H240.038C241.516 299.733 242.932 299.144 243.976 298.098C245.02 297.052 245.607 295.634 245.607 294.156C245.607 292.678 245.02 291.26 243.976 290.214C242.932 289.168 241.516 288.579 240.038 288.576H46.6481Z" fill="#E4E4E4"/>
<path d="M46.6481 45.5763C45.1683 45.5763 43.749 46.1642 42.7026 47.2106C41.6562 48.257 41.0684 49.6762 41.0684 51.1561C41.0684 52.6359 41.6562 54.0552 42.7026 55.1016C43.749 56.148 45.1683 56.7359 46.6481 56.7359H240.038C241.516 56.7331 242.932 56.144 243.976 55.0979C245.02 54.0517 245.607 52.6341 245.607 51.1561C245.607 49.6781 245.02 48.2604 243.976 47.2143C242.932 46.1682 241.516 45.5791 240.038 45.5763H46.6481Z" fill="#E4E4E4"/>
<path d="M46.6482 79.0549C45.9155 79.0534 45.1896 79.1962 44.512 79.4752C43.8344 79.7542 43.2185 80.1639 42.6993 80.6809C42.18 81.1979 41.7677 81.8122 41.4859 82.4886C41.204 83.1649 41.0582 83.8902 41.0567 84.623C41.0551 85.3557 41.1979 86.0816 41.4769 86.7592C41.7559 87.4367 42.1656 88.0527 42.6826 88.5719C43.1997 89.0911 43.8139 89.5034 44.4903 89.7853C45.1667 90.0671 45.8919 90.213 46.6247 90.2145H240.18C240.913 90.2145 241.639 90.0702 242.316 89.7898C242.993 89.5094 243.608 89.0984 244.126 88.5802C244.644 88.0621 245.055 87.447 245.336 86.77C245.616 86.093 245.76 85.3675 245.76 84.6347C245.76 83.902 245.616 83.1764 245.336 82.4994C245.055 81.8225 244.644 81.2074 244.126 80.6892C243.608 80.1711 242.993 79.7601 242.316 79.4797C241.639 79.1993 240.913 79.0549 240.18 79.0549H46.6482Z" fill="#E4E4E4"/>
<path d="M46.6482 112.055C45.1684 112.052 43.7479 112.637 42.6993 113.681C41.6506 114.725 41.0598 116.143 41.0567 117.623C41.0535 119.103 41.6384 120.523 42.6826 121.572C43.7268 122.62 45.1448 123.211 46.6247 123.214H90.1804C91.6603 123.214 93.0795 122.627 94.126 121.58C95.1724 120.534 95.7602 119.115 95.7602 117.635C95.7602 116.155 95.1724 114.736 94.126 113.689C93.0795 112.643 91.6603 112.055 90.1804 112.055H46.6482Z" fill="#E4E4E4"/>
<path d="M392.473 74.4061C389.812 74.4025 387.259 75.4554 385.374 77.3335C383.489 79.2116 382.428 81.7612 382.422 84.4219C382.416 87.0826 383.467 89.6366 385.344 91.5226C387.221 93.4087 389.77 94.4724 392.43 94.4799H488.268C489.587 94.4812 490.893 94.2226 492.112 93.7188C493.331 93.215 494.438 92.4759 495.371 91.5437C496.305 90.6116 497.045 89.5047 497.55 88.2863C498.055 87.0679 498.315 85.7619 498.315 84.443C498.315 83.1241 498.055 81.8181 497.55 80.5998C497.045 79.3814 496.305 78.2745 495.371 77.3423C494.438 76.4102 493.331 75.6711 492.112 75.1673C490.893 74.6634 489.587 74.4048 488.268 74.4061H392.473Z" fill="#E4E4E4"/>
<path d="M412.662 102.348C422.603 102.348 430.662 94.2889 430.662 84.3478C430.662 74.4067 422.603 66.3478 412.662 66.3478C402.721 66.3478 394.662 74.4067 394.662 84.3478C394.662 94.2889 402.721 102.348 412.662 102.348Z" fill="#CACACA"/>
<path d="M444.123 210.248C443.923 211.693 444.043 213.164 444.473 214.558C444.904 215.951 445.635 217.234 446.615 218.314C447.594 219.395 448.799 220.248 450.144 220.812C451.489 221.377 452.941 221.64 454.399 221.583L463.957 242.283L477.954 239.542L464.045 210.499C463.786 208.057 462.64 205.794 460.825 204.14C459.01 202.486 456.651 201.556 454.195 201.525C451.739 201.494 449.358 202.365 447.501 203.972C445.645 205.58 444.443 207.813 444.123 210.248V210.248Z" fill="#FFB6B6"/>
<path d="M540.954 288.584L501.954 269.293L474.434 222.586L455.198 231.891L480.162 285.848L543.226 322.253L540.954 288.584Z" fill="#3F3D56"/>
<path d="M452.907 564.696L440.647 564.695L434.814 529.347L452.909 529.348L452.907 564.696Z" fill="#FFB6B6"/>
<path d="M456.034 576.58L416.503 576.578V576.078C416.503 571.997 418.124 568.084 421.01 565.199C423.895 562.313 427.809 560.692 431.889 560.692H431.89L456.034 560.693L456.034 576.58Z" fill="#2F2E41"/>
<path d="M575.282 542.21L566.728 550.992L537.336 530.508L549.961 517.546L575.282 542.21Z" fill="#FFB6B6"/>
<path d="M585.977 548.262L558.395 576.58L558.037 576.231C555.114 573.383 553.441 569.492 553.388 565.411C553.334 561.331 554.903 557.397 557.75 554.473L557.75 554.472L574.597 537.177L585.977 548.262Z" fill="#2F2E41"/>
<path d="M468.064 354.326H459.584C437.541 378.414 420.715 406.798 410.162 437.697L400.032 467.356L436.134 542.946L458.662 543.348L432.914 463.096L458.854 428.696L460.162 497.848L543.654 541.611L560.364 516.926L492.424 479.776L503.994 420.956C503.994 420.956 527.273 401.544 513.718 371.196L468.064 354.326Z" fill="#2F2E41"/>
<path d="M579.662 277.348L544.427 261.916L505.644 279.101C505.644 279.101 494.662 285.348 501.662 301.348L459.584 354.326C459.584 354.326 459.662 354.348 512.544 371.196L560.255 329.18C567.5 322.8 573.061 314.733 576.445 305.693C579.83 296.652 580.935 286.917 579.662 277.348V277.348Z" fill="#3F3D56"/>
<path d="M573.749 261.46C587.314 261.46 598.31 250.464 598.31 236.899C598.31 223.334 587.314 212.338 573.749 212.338C560.184 212.338 549.188 223.334 549.188 236.899C549.188 250.464 560.184 261.46 573.749 261.46Z" fill="#FFB6B6"/>
<path d="M605.557 204.305C599.92 199.72 591.178 198.718 585.358 203.07C575.209 197.743 561.494 200.522 554.218 209.379C551.6 212.566 549.745 216.878 551.041 220.794C552.336 224.709 557.922 227.011 560.834 224.09L560.782 225.294C563.405 227.92 565.224 231.241 566.024 234.866C566.825 238.49 566.574 242.268 565.301 245.755C564.028 249.242 561.786 252.293 558.838 254.549C555.891 256.805 552.36 258.173 548.662 258.492C556.711 261.743 564.759 264.995 572.807 268.246C576.194 269.614 579.689 271.004 583.341 270.985C586.993 270.966 590.886 269.192 592.303 265.826C593.322 268.949 594.341 272.073 595.36 275.196C601.359 265.652 606.294 255.479 610.075 244.859C612.512 238.014 614.482 230.855 614.219 223.593C613.955 216.331 611.193 208.891 605.557 204.305Z" fill="#2F2E41"/>
<path d="M412.662 345.348C422.603 345.348 430.662 337.289 430.662 327.348C430.662 317.407 422.603 309.348 412.662 309.348C402.721 309.348 394.662 317.407 394.662 327.348C394.662 337.289 402.721 345.348 412.662 345.348Z" fill="#CACACA"/>
<path d="M468.662 223.896C478.603 223.896 486.662 215.837 486.662 205.896C486.662 195.954 478.603 187.896 468.662 187.896C458.721 187.896 450.662 195.954 450.662 205.896C450.662 215.837 458.721 223.896 468.662 223.896Z" fill="#FF5F00"/>
<path d="M469.123 200.248C468.923 201.693 469.043 203.164 469.473 204.558C469.904 205.951 470.635 207.234 471.615 208.314C472.594 209.395 473.799 210.248 475.144 210.812C476.489 211.377 477.941 211.64 479.399 211.583L488.957 232.283L502.954 229.542L489.045 200.499C488.786 198.057 487.64 195.794 485.825 194.14C484.01 192.486 481.651 191.556 479.195 191.525C476.739 191.494 474.358 192.365 472.501 193.972C470.645 195.58 469.443 197.813 469.123 200.248V200.248Z" fill="#FFB6B6"/>
<path d="M565.954 278.584L526.954 259.293L499.434 212.586L480.198 221.891L505.162 275.848L568.226 312.253L565.954 278.584Z" fill="#3F3D56"/>
<path d="M675.658 577.348H294.658C294.393 577.348 294.139 577.242 293.951 577.055C293.764 576.867 293.658 576.613 293.658 576.348C293.658 576.082 293.764 575.828 293.951 575.641C294.139 575.453 294.393 575.348 294.658 575.348H675.658C675.923 575.348 676.178 575.453 676.365 575.641C676.553 575.828 676.658 576.082 676.658 576.348C676.658 576.613 676.553 576.867 676.365 577.055C676.178 577.242 675.923 577.348 675.658 577.348Z" fill="#CACACA"/>
</g>
<defs>
<clipPath id="clip0_24_90">
<rect width="676.658" height="577.348" fill="white"/>
</clipPath>
</defs>
</svg>
