<svg width="1146" height="820" viewBox="0 0 1146 820" fill="none" xmlns="http://www.w3.org/2000/svg">
<g clip-path="url(#clip0_24_394)">
<path opacity="0.1" d="M1127.43 551.22C1100.86 606.03 1046.91 642.68 991 666.85C915.73 699.4 832.84 712.31 751.09 706.85C736.764 705.897 722.48 704.373 708.24 702.28C658.784 695.065 610.568 681.024 564.97 660.56C551.81 654.633 538.917 648.163 526.29 641.15C505.2 629.461 484.993 616.245 465.83 601.61C461.01 597.93 456.257 594.157 451.57 590.29C448.32 587.61 445.1 584.87 441.83 582.21C434.93 576.6 427.83 571.27 419.91 567.28C417.521 566.075 415.071 564.994 412.57 564.04C387.49 554.5 358.57 558.1 332.46 565.54C312.6 571.2 293.24 578.95 273.4 584.48C264.575 587.015 255.583 588.926 246.49 590.2C226.189 592.77 205.573 590.959 186.03 584.89L184.36 584.37C181.56 583.49 178.784 582.527 176.03 581.48L174.36 580.84C171.694 579.813 169.084 578.71 166.53 577.53L164.86 576.77C162.194 575.53 159.584 574.22 157.03 572.84C156.11 572.36 155.2 571.84 154.3 571.35C139.773 563.236 126.568 552.955 115.14 540.86C114.81 540.53 114.5 540.19 114.14 539.86C112.55 538.14 110.99 536.39 109.48 534.6C108.92 533.94 108.36 533.28 107.81 532.6C106.017 530.413 104.287 528.177 102.62 525.89C102.37 525.56 102.13 525.22 101.89 524.89C95.0618 515.443 89.4007 505.206 85.0302 494.4C84.8902 494.07 84.7602 493.73 84.6402 493.4C83.3069 489.967 82.0902 486.477 80.9902 482.93C80.5402 481.45 80.1102 479.93 79.7302 478.45C79.6002 478.01 79.4802 477.56 79.3702 477.12C73.8502 455.39 73.2202 432.8 73.2202 410.34C73.2202 407.72 73.2202 405.103 73.2202 402.49C73.3802 366.16 73.9402 329.21 79.3002 293.38C79.3002 293.13 79.3702 292.88 79.4102 292.64C81.2042 280.578 83.6444 268.62 86.7202 256.82C89.9394 244.438 94.0536 232.306 99.0302 220.52C111.36 191.52 129.29 165.13 149.2 140.67C199.35 79.1199 265.12 27.4499 342.1 8.10989C425.05 -12.7201 517.24 7.23989 584.15 60.5099C604.55 76.7499 622.88 95.9799 645.79 108.43C665.79 119.27 689.2 123.76 710.62 115.23C728.32 108.18 739.84 104.68 759.72 105.75C800.876 108.078 841.449 116.576 880.08 130.96C881.64 131.53 883.2 132.12 884.75 132.71C985.46 171.24 1072.03 247.79 1117.03 346.16C1118.22 348.76 1119.38 351.38 1120.5 354.02C1147.33 416.69 1157.03 490.14 1127.43 551.22Z" fill="#FF5F00"/>
<path opacity="0.1" d="M120.3 742.99C169.056 742.99 208.58 736.641 208.58 728.81C208.58 720.978 169.056 714.63 120.3 714.63C71.5443 714.63 32.02 720.978 32.02 728.81C32.02 736.641 71.5443 742.99 120.3 742.99Z" fill="#FF5F00"/>
<path opacity="0.1" d="M912.26 819.91C998.709 819.91 1068.79 813.105 1068.79 804.71C1068.79 796.315 998.709 789.51 912.26 789.51C825.811 789.51 755.73 796.315 755.73 804.71C755.73 813.105 825.811 819.91 912.26 819.91Z" fill="#FF5F00"/>
<path d="M1053.98 107.75H128.63C121.732 107.75 116.14 113.342 116.14 120.24V633.59C116.14 640.488 121.732 646.08 128.63 646.08H1053.98C1060.88 646.08 1066.47 640.488 1066.47 633.59V120.24C1066.47 113.342 1060.88 107.75 1053.98 107.75Z" fill="url(#paint0_linear_24_394)"/>
<path d="M1052.58 115.32H130.14C123.242 115.32 117.65 120.912 117.65 127.81V631.8C117.65 638.698 123.242 644.29 130.14 644.29H1052.58C1059.48 644.29 1065.07 638.698 1065.07 631.8V127.81C1065.07 120.912 1059.48 115.32 1052.58 115.32Z" fill="white"/>
<path d="M1052.58 115.32H130.14C123.242 115.32 117.65 120.912 117.65 127.81V631.8C117.65 638.698 123.242 644.29 130.14 644.29H1052.58C1059.48 644.29 1065.07 638.698 1065.07 631.8V127.81C1065.07 120.912 1059.48 115.32 1052.58 115.32Z" fill="white"/>
<path opacity="0.04" d="M1052.58 115.32H130.14C123.242 115.32 117.65 120.912 117.65 127.81V631.8C117.65 638.698 123.242 644.29 130.14 644.29H1052.58C1059.48 644.29 1065.07 638.698 1065.07 631.8V127.81C1065.07 120.912 1059.48 115.32 1052.58 115.32Z" fill="white"/>
<path d="M1060.26 109.25H122.46C121.184 109.25 119.961 109.757 119.059 110.659C118.157 111.561 117.65 112.784 117.65 114.06V134.39H1065.03V114.06C1065.03 112.791 1064.53 111.574 1063.64 110.673C1062.74 109.772 1061.53 109.261 1060.26 109.25Z" fill="#5A5773"/>
<path d="M136.57 128.32C140.16 128.32 143.07 125.41 143.07 121.82C143.07 118.23 140.16 115.32 136.57 115.32C132.98 115.32 130.07 118.23 130.07 121.82C130.07 125.41 132.98 128.32 136.57 128.32Z" fill="white"/>
<path d="M154.07 128.32C157.66 128.32 160.57 125.41 160.57 121.82C160.57 118.23 157.66 115.32 154.07 115.32C150.48 115.32 147.57 118.23 147.57 121.82C147.57 125.41 150.48 128.32 154.07 128.32Z" fill="white"/>
<path d="M171.57 128.32C175.16 128.32 178.07 125.41 178.07 121.82C178.07 118.23 175.16 115.32 171.57 115.32C167.98 115.32 165.07 118.23 165.07 121.82C165.07 125.41 167.98 128.32 171.57 128.32Z" fill="white"/>
<path opacity="0.2" d="M449.93 181.67H195.68V203.25H449.93V181.67Z" fill="#FF5F00"/>
<path opacity="0.1" d="M987.04 268.2H195.68V600.16H987.04V268.2Z" fill="#5A5773"/>
<path opacity="0.1" d="M659.03 289.85H645.48V263.53C645.48 233.83 621.8 209.14 592.1 208.69C584.938 208.615 577.833 209.958 571.192 212.641C564.552 215.325 558.508 219.296 553.41 224.325C548.311 229.355 544.258 235.344 541.485 241.948C538.711 248.551 537.272 255.638 537.25 262.8V289.85H523.73C517.755 289.868 512.03 292.25 507.805 296.475C503.58 300.7 501.199 306.425 501.18 312.4V420.62C501.199 426.595 503.58 432.32 507.805 436.545C512.03 440.77 517.755 443.152 523.73 443.17H659.03C665.004 443.152 670.728 440.769 674.951 436.544C679.175 432.319 681.554 426.594 681.57 420.62V312.4C681.554 306.426 679.175 300.701 674.951 296.476C670.728 292.251 665.004 289.869 659.03 289.85ZM599.28 360.2V398.96C599.293 401.012 598.526 402.993 597.133 404.501C595.741 406.008 593.827 406.93 591.78 407.08C590.712 407.13 589.644 406.963 588.642 406.588C587.64 406.214 586.724 405.64 585.95 404.902C585.176 404.163 584.56 403.275 584.139 402.292C583.717 401.308 583.5 400.25 583.5 399.18V360.18C579.842 358.396 576.896 355.425 575.144 351.751C573.392 348.077 572.936 343.918 573.851 339.953C574.767 335.987 576.999 332.448 580.185 329.915C583.37 327.381 587.32 326.001 591.39 326.001C595.46 326.001 599.41 327.381 602.596 329.915C605.781 332.448 608.013 335.987 608.929 339.953C609.844 343.918 609.389 348.077 607.636 351.751C605.884 355.425 602.938 358.396 599.28 360.18V360.2ZM629.72 289.85H553.03V262.8C553.03 252.634 557.069 242.885 564.257 235.697C571.445 228.508 581.194 224.47 591.36 224.47C601.526 224.47 611.275 228.508 618.464 235.697C625.652 242.885 629.69 252.634 629.69 262.8L629.72 289.85Z" fill="black"/>
<path d="M659.03 287.85H645.48V261.53C645.48 231.83 621.8 207.14 592.1 206.69C584.938 206.615 577.833 207.958 571.192 210.641C564.552 213.325 558.508 217.296 553.41 222.325C548.311 227.355 544.258 233.344 541.485 239.948C538.711 246.551 537.272 253.638 537.25 260.8V287.85H523.73C517.755 287.868 512.03 290.25 507.805 294.475C503.58 298.7 501.199 304.425 501.18 310.4V418.62C501.199 424.595 503.58 430.32 507.805 434.545C512.03 438.77 517.755 441.152 523.73 441.17H659.03C665.004 441.152 670.728 438.769 674.951 434.544C679.175 430.319 681.554 424.594 681.57 418.62V310.4C681.554 304.426 679.175 298.701 674.951 294.476C670.728 290.251 665.004 287.869 659.03 287.85V287.85ZM599.28 358.2V396.96C599.293 399.012 598.526 400.993 597.133 402.501C595.741 404.008 593.827 404.93 591.78 405.08C590.712 405.13 589.644 404.963 588.642 404.588C587.64 404.214 586.724 403.64 585.95 402.902C585.176 402.163 584.56 401.275 584.139 400.292C583.717 399.308 583.5 398.25 583.5 397.18V358.18C579.842 356.396 576.896 353.425 575.144 349.751C573.392 346.077 572.936 341.918 573.851 337.953C574.767 333.987 576.999 330.448 580.185 327.915C583.37 325.381 587.32 324.001 591.39 324.001C595.46 324.001 599.41 325.381 602.596 327.915C605.781 330.448 608.013 333.987 608.929 337.953C609.844 341.918 609.389 346.077 607.636 349.751C605.884 353.425 602.938 356.396 599.28 358.18V358.2ZM629.72 287.85H553.03V260.8C553.03 250.634 557.069 240.885 564.257 233.697C571.445 226.508 581.194 222.47 591.36 222.47C601.526 222.47 611.275 226.508 618.464 233.697C625.652 240.885 629.69 250.634 629.69 260.8L629.72 287.85Z" fill="#FF5F00"/>
<path opacity="0.1" d="M987.04 236.25H906.94V255.16H987.04V236.25Z" fill="#5A5773"/>
<path d="M1014.3 809.29C1013.77 806.639 1012.87 804.077 1011.62 801.68L999.62 783.76H999.69C999.69 783.76 997.8 774.76 999.69 770.34C1001.58 765.92 992.95 755.05 992.95 755.05C992.95 755.05 991.9 752.32 994.64 748.96C997.38 745.6 992.95 735.76 992.95 735.76C992.95 735.76 990.85 715.21 990.64 712.07C990.43 708.93 988.74 691.53 988.74 691.53L984.74 654.64L977.62 556.87L977.49 555.04C978.37 554.61 978.84 554.34 978.84 554.34L977.42 500.28L978.65 499.17C989.39 489.45 1014.16 466.95 1013.91 466.46C1013.66 465.97 1010.91 428.89 1010.59 419.61C1010.32 413.015 1008.87 406.521 1006.33 400.43C1005.71 399.2 1003.92 391.09 1003.18 387.66C1002.98 386.72 1002.85 386.13 1002.85 386.13C1002.85 386.13 995.59 372.29 996.22 366C996.85 359.71 998.11 355 982.63 352.8C982.63 352.8 969.63 350.86 961.89 345.57C957.313 342.401 952.31 339.896 947.03 338.13C947.03 338.13 942.69 330.13 939.67 332.84C938.391 329.985 937.436 326.997 936.82 323.93L936.73 323.37C942.463 319.373 946.589 313.468 948.37 306.71C948.47 306.33 948.55 305.94 948.64 305.56C948.94 305.662 949.254 305.719 949.57 305.73C952.2 305.73 953.82 302.8 956.28 301.87C957.28 301.48 958.51 301.42 959.28 300.63C959.534 300.325 959.723 299.973 959.837 299.593C959.95 299.213 959.985 298.814 959.94 298.42C959.965 298.147 959.965 297.873 959.94 297.6C959.945 297.503 959.945 297.407 959.94 297.31V297.41C959.27 293.77 956.45 290.54 956.76 286.84C957.06 283.36 960.12 280.3 959.87 276.91C959.867 276.642 959.843 276.375 959.8 276.11V276.23C959.428 274.906 958.742 273.692 957.8 272.69C956.724 271.223 955.311 270.037 953.68 269.23C952.29 268.62 950.68 268.48 949.38 267.75C945.56 265.67 945.57 260.25 943.3 256.55C942.328 255.005 940.947 253.759 939.312 252.95C937.676 252.14 935.848 251.797 934.03 251.96C931.19 252.24 928.62 253.75 925.81 254.24C921.97 254.92 918.06 253.67 914.42 252.24C910.78 250.81 907.09 249.24 903.18 249.24C899.27 249.24 895.04 251.24 893.86 254.93C893.23 256.93 893.54 259.08 893.06 261.11C892.2 264.69 889.06 267.25 885.81 269.03C883.81 270.14 881.43 271.41 880.81 273.51C880.81 273.45 880.81 273.4 880.81 273.35C880.766 273.518 880.732 273.688 880.71 273.86C880.69 274.083 880.69 274.307 880.71 274.53C880.71 275.97 881.47 277.34 881.98 278.71C882.931 281.316 882.909 284.178 881.92 286.77C881.18 288.67 879.92 290.34 879.2 292.23C878.861 293.11 878.639 294.032 878.54 294.97V294.81C878.515 295.236 878.515 295.664 878.54 296.09C878.528 297.55 878.871 298.992 879.54 300.29C879.999 301.186 880.633 301.982 881.404 302.629C882.175 303.277 883.068 303.763 884.03 304.06C886.03 304.52 887.28 302.56 889.39 303.06C889.768 303.151 890.139 303.268 890.5 303.41C890.57 303.86 890.64 304.31 890.72 304.75C891.996 311.48 895.583 317.553 900.86 321.92C900.86 322.16 900.94 322.4 900.97 322.65C901.609 326.637 901.887 330.673 901.8 334.71C901.8 334.71 898.65 330.1 894.33 339C894.33 339 883.06 345.5 879.17 346.24C875.28 346.98 861.47 351.79 861.47 351.79C859.387 353.296 856.881 354.105 854.31 354.1C850 354.1 846.42 363.53 846.94 368.66C847.46 373.79 846.63 377.57 842.62 377.78C838.61 377.99 840.8 386.12 840.83 386.26L840.46 388.01C839.68 391.59 837.98 399.27 837.38 400.47C834.838 406.562 833.392 413.055 833.11 419.65C832.8 428.93 830.11 465.87 829.8 466.5C829.59 466.91 846.56 482.42 858.49 493.26L860.22 494.82L854.73 546.1C854.89 548.076 855.478 549.993 856.451 551.72C857.425 553.446 858.762 554.941 860.37 556.1C860.37 556.7 860.37 557.31 860.31 557.94C860.07 563.94 859.59 571.2 858.63 573.1C856.95 576.46 857.37 594.48 857.37 594.48C857.37 594.48 855.68 631.16 853.58 635.15C851.48 639.14 851.05 647.51 851.68 649.15C852.31 650.79 849.57 694.84 849.57 694.84L847.47 714.55C847.47 714.55 848.1 733.41 846.2 733.83C844.3 734.25 843.25 747.25 843.25 747.25C843.25 747.25 836.52 756.47 839.46 759.82C842.4 763.17 839.03 764.65 838.72 765.48C838.41 766.31 832.3 769.48 836.72 781.2C836.761 781.316 836.808 781.429 836.86 781.54C832.72 787.29 819.6 805.84 820.4 808.66C820.991 810.454 822.242 811.956 823.9 812.86C826.99 814.71 832.29 815.57 840.72 812.86C854.72 808.35 853.72 805.1 853.72 805.1C853.792 803.581 854.444 802.146 855.542 801.093C856.639 800.04 858.099 799.448 859.62 799.44C865.41 799.02 869.73 793.68 869.73 793.68L869.05 791.15L868.12 787.65C868.23 786.65 868.94 784.9 872.12 783.93C876.97 782.46 875.7 773.24 875.7 773.24C875.7 773.24 875.28 763.6 877.38 762.34C879.48 761.08 878.65 745.15 878.65 745.15C878.65 745.15 880.97 733.62 884.33 725.86C887.69 718.1 891.71 672 891.71 672C891.71 672 894.44 649.36 896.97 642.86C899.5 636.36 901.82 618.13 901.82 618.13C901.82 618.13 917.41 587.94 917.61 581.23C917.61 581.23 919.61 574.94 921.61 581.86C923.61 588.78 929.23 605.34 929.23 605.34L934.7 625.67L941.23 656.06L945.45 681.64C945.45 681.64 944.81 691.28 946.45 694.64C948.09 698 950.45 705.74 949.19 707.21C947.93 708.68 951.71 715.6 952.77 717.06C953.83 718.52 952.77 749.55 952.77 749.55C952.77 749.55 957.61 775.96 964.56 780.55C965.045 780.869 965.561 781.137 966.1 781.35C966 784.21 965.9 788.04 966.03 790.04C966.015 790.487 966.09 790.933 966.25 791.35C966.88 792.19 974.04 797.85 975.52 797.85C977 797.85 982.25 801.52 982.47 803.3C982.69 805.08 997.86 812.62 1000.01 812.84C1002.16 813.06 1012.58 814.93 1014.01 812C1014.36 811.143 1014.46 810.203 1014.3 809.29ZM977.03 431.57L978.11 432.5C978.11 432.5 979.22 441.15 980.01 443.74C980.8 446.33 979.85 451.37 979.85 451.37C979.923 453.251 980.298 455.108 980.96 456.87C981.9 458.76 979.06 462.87 979.06 462.87H976.53L975.74 430.49L977.03 431.57ZM901.8 334.89V334.7C901.78 334.76 901.77 334.83 901.77 334.89H901.8ZM862.95 459.54C862.561 458.702 862.504 457.748 862.79 456.87C863.015 456.395 863.193 455.9 863.32 455.39C863.631 454.076 863.825 452.738 863.9 451.39C863.902 451.373 863.902 451.357 863.9 451.34C863.81 450.86 863 446.22 863.75 443.76C864.5 441.3 865.64 432.52 865.64 432.52L866.36 431.91L868.03 430.46C868.03 430.46 868.03 429.92 868.15 429.03C868.5 436.63 868.78 445.03 868.33 445.45C867.49 446.28 864.43 454.45 865.17 454.77C865.41 454.88 865.08 458.15 864.52 462.55C863.891 461.605 863.365 460.596 862.95 459.54V459.54Z" fill="url(#paint1_linear_24_394)"/>
<path d="M943.55 342.88V355.32L918.03 368.15C918.03 368.15 892.69 352.82 898.94 346.72C902.94 342.86 902.17 332.26 901.09 324.97C900.46 320.73 899.73 317.62 899.73 317.62C899.73 317.62 945.25 304.62 938.37 314.49C936.07 317.79 935.89 322.06 936.66 326.29C938.22 334.68 943.55 342.88 943.55 342.88Z" fill="#C37098"/>
<path d="M873.64 464.53L870.35 505.05C870.35 505.05 865.42 500.58 859.04 494.76C847.21 483.97 830.41 468.54 830.61 468.13C830.92 467.5 833.61 430.74 833.9 421.5C834.174 414.941 835.602 408.482 838.12 402.42C838.72 401.22 840.41 393.58 841.12 390.01C841.36 388.9 841.51 388.18 841.51 388.18L847.03 385.96C847.03 385.96 870.03 411.62 870.03 412.09C870.03 412.56 868.46 432.27 868.46 432.27L866.83 433.69L866.12 434.3C866.12 434.3 865.02 442.91 864.24 445.49C863.46 448.07 864.3 452.55 864.39 453.03C864.317 454.377 864.126 455.716 863.82 457.03C863.69 457.535 863.512 458.028 863.29 458.5C863.008 459.375 863.065 460.325 863.45 461.16C863.895 462.319 864.472 463.423 865.17 464.45L873.64 464.53Z" fill="#3F3D56"/>
<path d="M1013.03 468.13C1013.27 468.62 988.74 491.01 978.11 500.68L973.29 505.05L970.03 464.53H978.48C978.48 464.53 981.3 460.46 980.36 458.58C979.705 456.827 979.337 454.98 979.27 453.11C979.27 453.11 980.2 448.11 979.42 445.52C978.64 442.93 977.54 434.33 977.54 434.33L976.47 433.41L975.2 432.3C975.2 432.3 973.63 412.59 973.63 412.12C973.63 411.65 996.63 385.99 996.63 385.99L1002.11 388.18C1002.11 388.18 1002.23 388.77 1002.43 389.71C1003.17 393.12 1004.94 401.19 1005.55 402.42C1008.07 408.482 1009.5 414.941 1009.77 421.5C1010.03 430.74 1012.71 467.5 1013.03 468.13Z" fill="#3F3D56"/>
<path d="M1013.13 812.07C1011.66 814.99 1001.34 813.07 999.21 812.91C997.08 812.75 982.04 805.18 981.83 803.41C981.62 801.64 976.41 797.99 974.95 797.99C973.49 797.99 966.4 792.35 965.77 791.52C965.611 791.106 965.539 790.663 965.56 790.22C965.34 786.79 965.77 777.96 965.77 777.96L996.02 779.63L1010.72 801.74C1011.96 804.125 1012.85 806.674 1013.38 809.31C1013.56 810.235 1013.47 811.192 1013.13 812.07V812.07Z" fill="#3F3D56"/>
<path opacity="0.1" d="M1013.13 812.07C1011.66 814.99 1001.34 813.07 999.21 812.91C997.08 812.75 982.04 805.18 981.83 803.41C981.62 801.64 976.41 797.99 974.95 797.99C973.49 797.99 966.4 792.35 965.77 791.52C965.611 791.106 965.539 790.663 965.56 790.22C965.34 786.79 965.77 777.96 965.77 777.96L996.02 779.63L1010.72 801.74C1011.96 804.125 1012.85 806.674 1013.38 809.31C1013.56 810.235 1013.47 811.192 1013.13 812.07V812.07Z" fill="black"/>
<path opacity="0.1" d="M1013.13 812.07C1011.66 814.99 1001.34 813.07 999.21 812.91C997.08 812.75 982.04 805.18 981.83 803.41C981.62 801.64 976.41 797.99 974.95 797.99C973.49 797.99 966.4 792.35 965.77 791.52C965.611 791.106 965.539 790.663 965.56 790.22L975.36 796.42C975.36 796.42 981.62 800.42 983.29 802.79C984.96 805.16 998.12 810.09 999.21 810.19C1000.02 810.27 1008.66 808.61 1013.38 809.31C1013.56 810.235 1013.47 811.192 1013.13 812.07V812.07Z" fill="black"/>
<path d="M870.13 793.82C870.13 793.82 865.85 799.14 860.13 799.55C858.621 799.561 857.173 800.152 856.086 801.199C855 802.247 854.357 803.672 854.29 805.18C854.29 805.18 855.29 808.42 841.46 812.91C833.11 815.6 827.86 814.75 824.8 812.91C823.158 812.004 821.919 810.511 821.33 808.73C820.39 805.4 838.85 780.05 838.85 780.05L855.65 779.05L867.65 784.47L869.49 791.34L870.13 793.82Z" fill="#3F3D56"/>
<path opacity="0.1" d="M870.13 793.82C870.13 793.82 865.85 799.14 860.13 799.55C858.621 799.561 857.173 800.152 856.086 801.199C855 802.247 854.357 803.672 854.29 805.18C854.29 805.18 855.29 808.42 841.46 812.91C833.11 815.6 827.86 814.75 824.8 812.91C823.158 812.004 821.919 810.511 821.33 808.73C820.39 805.4 838.85 780.05 838.85 780.05L855.65 779.05L867.65 784.47L869.49 791.34L870.13 793.82Z" fill="black"/>
<path opacity="0.1" d="M870.13 793.82C870.13 793.82 865.85 799.14 860.13 799.55C858.62 799.561 857.173 800.152 856.086 801.199C854.999 802.247 854.356 803.672 854.29 805.18C854.29 805.18 855.29 808.42 841.46 812.91C833.11 815.6 827.86 814.75 824.8 812.91C832.67 812.09 850.06 807.12 851.8 805.4C853.89 803.31 856.5 797.57 858.27 797.47C859.5 797.39 865.75 793.63 869.5 791.3L870.13 793.82Z" fill="black"/>
<path d="M998.94 770.56C997.06 774.94 998.94 783.91 998.94 783.91C998.94 783.91 970.94 785.37 964.1 780.78C957.26 776.19 952.42 749.9 952.42 749.9C952.42 749.9 953.42 719.03 952.42 717.57C951.42 716.11 947.62 709.23 948.87 707.77C950.12 706.31 947.87 698.59 946.16 695.25C944.45 691.91 945.16 682.32 945.16 682.32L940.98 656.86L934.52 626.62L929.03 606.38C929.03 606.38 923.4 589.9 921.49 583.02C919.58 576.14 917.56 582.39 917.56 582.39C917.36 589.07 901.92 619.11 901.92 619.11C901.92 619.11 899.62 637.26 897.12 643.72C894.62 650.18 891.9 672.72 891.9 672.72C891.9 672.72 887.9 718.61 884.6 726.33C881.3 734.05 879.03 745.52 879.03 745.52C879.03 745.52 879.87 761.38 877.78 762.63C875.69 763.88 876.03 773.48 876.03 773.48C876.03 773.48 877.28 782.65 872.48 784.12C867.68 785.59 868.48 788.71 868.48 788.71C868.48 788.71 841.78 793.09 837.4 781.4C833.02 769.71 839.07 766.6 839.4 765.76C839.73 764.92 843.06 763.47 840.14 760.12C837.22 756.77 843.89 747.61 843.89 747.61C843.89 747.61 844.94 734.68 846.81 734.26C848.68 733.84 848.07 715.07 848.07 715.07L850.15 695.46C850.15 695.46 852.87 651.65 852.24 649.98C851.61 648.31 852.03 639.98 854.12 635.98C856.21 631.98 857.87 595.5 857.87 595.5C857.87 595.5 857.45 577.57 859.12 574.23C860.12 572.34 860.54 565.07 860.78 559.14C860.96 554.61 861 550.86 861 550.86L884.36 542.1L914.36 532.51L939.6 544.61L976.53 551.7L976.99 558.07L984.04 655.38L988.04 692.09C988.04 692.09 989.71 709.4 989.92 712.53C990.13 715.66 992.21 736.11 992.21 736.11C992.21 736.11 996.59 745.91 993.88 749.25C991.17 752.59 992.21 755.25 992.21 755.25C992.21 755.25 1000.82 766.18 998.94 770.56Z" fill="#3F3D56"/>
<path opacity="0.1" d="M938.39 314.49C936.09 317.79 935.91 322.06 936.68 326.29C931.425 329.998 925.097 331.876 918.67 331.635C912.243 331.395 906.074 329.05 901.11 324.96V324.96C900.48 320.72 899.75 317.61 899.75 317.61C899.75 317.61 945.27 304.63 938.39 314.49Z" fill="black"/>
<path d="M949.03 301.73C949.03 307.525 947.312 313.19 944.092 318.008C940.873 322.827 936.297 326.582 930.943 328.8C925.589 331.017 919.698 331.598 914.014 330.467C908.33 329.336 903.11 326.546 899.012 322.448C894.914 318.351 892.124 313.13 890.993 307.446C889.863 301.763 890.443 295.871 892.66 290.517C894.878 285.164 898.634 280.587 903.452 277.368C908.27 274.148 913.935 272.43 919.73 272.43C923.583 272.411 927.401 273.157 930.965 274.623C934.528 276.088 937.765 278.246 940.49 280.97C943.214 283.695 945.372 286.932 946.838 290.495C948.304 294.059 949.049 297.877 949.03 301.73Z" fill="#C37098"/>
<path opacity="0.1" d="M955.13 350.42L945.53 521.37L893.38 510.42L883.05 441.89L893.28 349.89L900.98 350.88L914.56 352.61L928.01 353.44L942.59 351.82L955.13 350.42Z" fill="black"/>
<path d="M955.13 351.67L945.53 522.62L893.38 511.67L883.05 443.14L893.28 351.15L900.98 352.13L914.56 353.86L928.01 354.69L942.59 353.07L955.13 351.67Z" fill="#FF5F00"/>
<path d="M912.26 356.26L931.04 356.89L925.76 364.28C925.76 364.28 926.13 379.21 928.64 383.49C931.15 387.77 930.41 453.89 930.41 453.89L925.41 463.38L916.86 452.74L916.97 365.44L912.26 356.26Z" fill="#3F3D56"/>
<path opacity="0.1" d="M912.26 356.26L931.04 356.89L925.76 364.28C925.76 364.28 926.13 379.21 928.64 383.49C931.15 387.77 930.41 453.89 930.41 453.89L925.41 463.38L916.86 452.74L916.97 365.44L912.26 356.26Z" fill="black"/>
<path opacity="0.1" d="M941.67 336.86L924.15 356.26L934.16 366.69L950.75 350.52L941.67 336.86Z" fill="black"/>
<path d="M941.67 335.61L924.15 355.01L934.16 365.44L950.75 349.27L941.67 335.61Z" fill="#FF5F00"/>
<path opacity="0.1" d="M916.75 355.32L899.01 337.59L897.34 346.87L905.48 367.21L916.75 355.32Z" fill="black"/>
<path d="M917.37 354.07L899.64 336.34L897.97 345.62L906.11 365.96L917.37 354.07Z" fill="#FF5F00"/>
<path opacity="0.1" d="M977.08 558.1C968.566 562.157 959.445 564.795 950.08 565.91C932.87 568.1 921.61 546.2 921.61 546.2L915.04 554.75C912.95 563.83 881.14 566.12 868.21 562.68C865.527 562.017 863.004 560.824 860.79 559.17C860.97 554.64 861.01 550.89 861.01 550.89L884.37 542.13L914.37 532.54L939.61 544.64L976.54 551.73L977.08 558.1Z" fill="black"/>
<path opacity="0.1" d="M955.13 351.68L945.54 522.62L893.38 511.67L883.03 443.15L893.25 351.15L900.95 352.15C900.753 355.501 900.376 358.839 899.82 362.15C898.57 368 906.29 409.51 906.29 409.51C906.29 409.51 920.96 456.06 927.56 449.35C934.16 442.64 943.56 407.21 943.56 407.21C949.93 394.07 943.67 357.21 943.2 356.47C942.873 355.38 942.672 354.256 942.6 353.12L955.13 351.68Z" fill="black"/>
<path opacity="0.1" d="M977.66 483.96L978.1 500.71L973.28 505.08L970.03 464.53H977.23L977.66 483.96Z" fill="black"/>
<path opacity="0.1" d="M864.4 453.06C864.327 454.407 864.136 455.746 863.83 457.06C863.83 456.69 863.83 456.48 863.75 456.45C863.45 456.37 863.81 454.84 864.4 453.06Z" fill="black"/>
<path opacity="0.1" d="M873.64 464.53L870.35 505.05C870.35 505.05 865.42 500.58 859.04 494.76L859.8 487.58C859.8 487.58 862.49 469.94 863.47 461.24C863.914 462.399 864.492 463.503 865.19 464.53H873.64Z" fill="black"/>
<path d="M901.93 336.96C901.93 336.96 898.81 332.37 894.53 341.23C894.53 341.23 883.37 347.7 879.53 348.43C875.69 349.16 862.03 353.96 862.03 353.96C859.967 355.451 857.486 356.253 854.94 356.25C850.66 356.25 847.11 365.64 847.63 370.75C848.15 375.86 847.32 379.62 843.36 379.83C839.4 380.04 841.58 388.27 841.58 388.27L867.97 418.52C867.97 418.52 869.64 446.37 868.81 447.21C867.98 448.05 864.95 456.21 865.68 456.49C866.41 456.77 861.68 487.57 861.68 487.57L855.32 547.34C855.32 547.34 855.32 557.34 868.26 560.79C881.2 564.24 913.03 561.96 915.08 552.88L921.65 544.32C921.65 544.32 932.91 566.23 950.12 564.04C967.33 561.85 978.29 555.59 978.29 555.59L976.41 483.96L975.16 432.33L1002.03 388.18C1002.03 388.18 994.83 374.41 995.46 368.18C996.09 361.95 997.33 357.23 982 355.04C982 355.04 969.07 353.11 961.45 347.84C956.922 344.696 951.973 342.205 946.75 340.44C946.75 340.44 942.45 332.44 939.46 335.18C939.46 335.18 942.46 346.49 942.21 348.18C941.96 349.87 942.68 357.51 943.15 358.3C943.62 359.09 949.88 395.9 943.51 409.04C943.51 409.04 934.16 444.47 927.51 451.18C920.86 457.89 906.24 411.34 906.24 411.34C906.24 411.34 898.52 369.82 899.77 363.98C901.02 358.14 901.93 336.96 901.93 336.96Z" fill="#3F3D56"/>
<path d="M924.25 473.71C926.785 473.71 928.84 471.655 928.84 469.12C928.84 466.585 926.785 464.53 924.25 464.53C921.715 464.53 919.66 466.585 919.66 469.12C919.66 471.655 921.715 473.71 924.25 473.71Z" fill="#3F3D56"/>
<path d="M924.25 495.35C926.785 495.35 928.84 493.295 928.84 490.76C928.84 488.225 926.785 486.17 924.25 486.17C921.715 486.17 919.66 488.225 919.66 490.76C919.66 493.295 921.715 495.35 924.25 495.35Z" fill="#3F3D56"/>
<path opacity="0.1" d="M924.25 473.71C926.785 473.71 928.84 471.655 928.84 469.12C928.84 466.585 926.785 464.53 924.25 464.53C921.715 464.53 919.66 466.585 919.66 469.12C919.66 471.655 921.715 473.71 924.25 473.71Z" fill="black"/>
<path opacity="0.1" d="M924.25 495.35C926.785 495.35 928.84 493.295 928.84 490.76C928.84 488.225 926.785 486.17 924.25 486.17C921.715 486.17 919.66 488.225 919.66 490.76C919.66 493.295 921.715 495.35 924.25 495.35Z" fill="black"/>
<path opacity="0.1" d="M965.5 764.3C965.5 764.3 984.34 765.76 986.21 767.22C988.08 768.68 965.5 764.3 965.5 764.3Z" fill="black" stroke="#FF5F00" stroke-miterlimit="10"/>
<path opacity="0.1" d="M853.33 749.49C853.33 749.49 857.33 754.49 855.63 756.79C853.93 759.09 853.33 749.49 853.33 749.49Z" fill="black" stroke="#FF5F00" stroke-miterlimit="10"/>
<path opacity="0.1" d="M858.13 767.52C858.13 767.52 865.43 762.72 868.35 765.91C871.27 769.1 858.13 767.52 858.13 767.52Z" fill="black" stroke="#FF5F00" stroke-miterlimit="10"/>
<path opacity="0.1" d="M949.03 301.73C949.036 304.23 948.72 306.72 948.09 309.14C947.473 308.859 946.957 308.396 946.611 307.813C946.264 307.231 946.103 306.556 946.15 305.88C946.28 304.69 947.07 303.6 946.9 302.42C946.65 300.6 944.45 299.86 943.29 298.42C941.86 296.68 942.17 294.15 942.29 291.9C942.41 289.65 941.84 286.9 939.73 286.13C939.1 285.9 938.41 285.88 937.8 285.62C936.14 284.92 935.63 282.86 934.52 281.44C932.3 278.58 927.89 278.64 924.52 280C923.053 280.703 921.551 281.331 920.02 281.88C919.254 282.15 918.439 282.259 917.629 282.199C916.818 282.138 916.028 281.911 915.31 281.53C914.65 281.11 914.12 280.53 913.44 280.11C911.18 278.75 908.22 280.11 906.26 281.86C904.3 283.61 902.73 285.96 900.26 287.03C899.15 287.53 897.78 287.83 897.26 288.91C897.003 289.498 896.893 290.14 896.94 290.78C896.94 294.67 897.4 298.62 896.59 302.43C896.07 304.88 894.35 307.66 891.86 307.36C891.55 307.314 891.245 307.237 890.95 307.13C890.201 303.125 890.295 299.007 891.226 295.041C892.158 291.074 893.907 287.345 896.361 284.093C898.815 280.84 901.921 278.135 905.48 276.15C909.038 274.166 912.972 272.945 917.029 272.567C921.086 272.188 925.177 272.66 929.041 273.952C932.906 275.244 936.458 277.328 939.472 280.071C942.485 282.814 944.893 286.154 946.543 289.88C948.192 293.606 949.046 297.635 949.05 301.71L949.03 301.73Z" fill="black"/>
<path d="M889.64 305.47C890.39 305.64 891.1 306.03 891.87 306.13C894.36 306.43 896.08 303.65 896.6 301.2C897.41 297.39 896.99 293.44 896.96 289.55C896.904 288.91 897.011 288.267 897.27 287.68C897.84 286.6 899.21 286.3 900.27 285.8C902.69 284.72 904.27 282.42 906.27 280.63C908.27 278.84 911.18 277.52 913.44 278.88C914.11 279.28 914.65 279.88 915.31 280.3C916.032 280.675 916.823 280.9 917.634 280.96C918.445 281.02 919.261 280.915 920.03 280.65C921.58 280.19 923.03 279.38 924.52 278.77C927.86 277.41 932.28 277.36 934.52 280.2C935.63 281.63 936.14 283.68 937.8 284.38C938.41 284.64 939.1 284.67 939.73 284.9C941.84 285.69 942.38 288.42 942.29 290.67C942.2 292.92 941.9 295.45 943.29 297.19C944.45 298.61 946.65 299.35 946.9 301.19C947.06 302.37 946.28 303.47 946.15 304.65C946.12 305.089 946.178 305.529 946.319 305.945C946.461 306.361 946.684 306.745 946.975 307.074C947.266 307.403 947.62 307.672 948.016 307.863C948.411 308.055 948.841 308.166 949.28 308.19C951.88 308.19 953.49 305.28 955.92 304.35C956.92 303.96 958.13 303.9 958.92 303.11C959.214 302.73 959.421 302.291 959.528 301.823C959.635 301.355 959.639 300.87 959.54 300.4C959.05 296.57 955.98 293.24 956.31 289.4C956.62 285.72 960.03 282.51 959.31 278.89C958.943 277.555 958.257 276.33 957.31 275.32C956.238 273.867 954.841 272.686 953.23 271.87C951.84 271.27 950.23 271.13 948.96 270.4C945.18 268.33 945.19 262.93 942.96 259.25C942.003 257.729 940.646 256.501 939.037 255.7C937.428 254.899 935.63 254.557 933.84 254.71C931.03 254.99 928.48 256.48 925.7 256.98C921.89 257.66 918.03 256.41 914.42 254.98C910.81 253.55 907.16 251.98 903.29 251.98C899.42 251.98 895.23 253.98 894.05 257.64C893.43 259.64 893.74 261.78 893.26 263.79C892.42 267.36 889.26 269.9 886.08 271.67C883.89 272.89 881.26 274.29 881 276.78C880.83 278.36 881.7 279.78 882.25 281.31C883.185 283.898 883.164 286.736 882.19 289.31C881.46 291.2 880.24 292.86 879.5 294.74C878.975 296.016 878.726 297.389 878.771 298.768C878.816 300.147 879.153 301.501 879.76 302.74C880.226 303.643 880.872 304.442 881.658 305.087C882.444 305.732 883.353 306.209 884.33 306.49C886.3 306.96 887.54 305.01 889.64 305.47Z" fill="#3F3D56"/>
<g opacity="0.1">
<path opacity="0.1" d="M896.6 299.02C896.08 301.47 894.35 304.25 891.86 303.95C891.09 303.85 890.39 303.46 889.63 303.29C887.54 302.83 886.3 304.79 884.33 304.29C883.352 304.009 882.441 303.532 881.653 302.887C880.866 302.243 880.218 301.444 879.75 300.54C879.227 299.522 878.911 298.411 878.82 297.27C878.621 299.041 878.944 300.831 879.75 302.42C880.218 303.324 880.866 304.123 881.653 304.767C882.441 305.412 883.352 305.89 884.33 306.17C886.33 306.63 887.54 304.67 889.63 305.17C890.362 305.425 891.106 305.642 891.86 305.82C894.35 306.13 896.08 303.35 896.6 300.9C897.01 298.736 897.171 296.531 897.08 294.33C897.07 295.905 896.91 297.476 896.6 299.02V299.02Z" fill="black"/>
<path opacity="0.1" d="M882.9 283.96C883.028 282.321 882.803 280.674 882.24 279.13C881.788 278.103 881.404 277.047 881.09 275.97C881.047 276.138 881.014 276.308 880.99 276.48C880.82 278.05 881.7 279.48 882.24 281.01C882.589 281.96 882.811 282.952 882.9 283.96V283.96Z" fill="black"/>
<path opacity="0.1" d="M959.3 278.69C958.83 281.53 956.53 284.2 956.3 287.19C956.244 287.702 956.244 288.218 956.3 288.73C956.8 285.24 959.89 282.15 959.3 278.69Z" fill="black"/>
<path opacity="0.1" d="M959.47 299.79C959.385 300.208 959.188 300.595 958.9 300.91C958.16 301.7 956.9 301.76 955.9 302.15C953.47 303.08 951.9 306.02 949.26 305.99C948.584 305.952 947.936 305.71 947.4 305.295C946.865 304.881 946.467 304.315 946.26 303.67C946.199 303.887 946.153 304.107 946.12 304.33C946.092 304.768 946.15 305.207 946.293 305.622C946.435 306.037 946.658 306.42 946.949 306.748C947.24 307.076 947.593 307.343 947.988 307.534C948.383 307.725 948.812 307.836 949.25 307.86C951.86 307.86 953.46 304.95 955.89 304.03C956.89 303.64 958.11 303.58 958.89 302.79C959.184 302.41 959.391 301.971 959.499 301.503C959.606 301.035 959.61 300.55 959.51 300.08C959.5 299.96 959.48 299.88 959.47 299.79Z" fill="black"/>
<path opacity="0.1" d="M946.93 298.96C946.68 297.14 944.48 296.4 943.32 294.96C942.609 294.014 942.223 292.863 942.22 291.68C942.14 293.54 942.17 295.44 943.32 296.84C944.47 298.24 946.22 298.84 946.78 300.28C946.922 299.855 946.973 299.406 946.93 298.96V298.96Z" fill="black"/>
<path opacity="0.1" d="M942.28 288.49C942.36 286.24 941.82 283.49 939.71 282.72C939.09 282.49 938.4 282.46 937.79 282.21C936.13 281.51 935.61 279.45 934.51 278.03C932.28 275.18 927.87 275.23 924.51 276.59C923.01 277.2 921.58 278.01 920.02 278.47C919.253 278.74 918.439 278.849 917.628 278.789C916.817 278.728 916.028 278.501 915.31 278.12C914.65 277.7 914.11 277.12 913.44 276.7C911.17 275.34 908.21 276.7 906.26 278.45C904.31 280.2 902.73 282.54 900.26 283.62C899.14 284.12 897.78 284.42 897.2 285.5C896.945 286.089 896.839 286.731 896.89 287.37C896.89 287.76 896.89 288.15 896.89 288.54C896.903 288.137 897.002 287.742 897.18 287.38C897.76 286.3 899.12 286 900.24 285.5C902.66 284.42 904.24 282.12 906.24 280.33C908.24 278.54 911.15 277.22 913.42 278.58C914.09 278.98 914.63 279.58 915.29 279.99C916.007 280.373 916.797 280.602 917.608 280.662C918.419 280.723 919.234 280.613 920 280.34C921.528 279.796 923.027 279.172 924.49 278.47C927.84 277.11 932.25 277.05 934.49 279.9C935.59 281.32 936.11 283.38 937.77 284.08C938.38 284.34 939.07 284.37 939.69 284.6C941.4 285.24 942.08 287.16 942.23 289.06L942.28 288.49Z" fill="black"/>
</g>
<g opacity="0.1">
<path opacity="0.1" d="M893.03 298.96C893.087 297.3 893.682 295.704 894.724 294.411C895.767 293.118 897.2 292.198 898.81 291.79C903.269 290.7 907.948 290.912 912.29 292.4C921.78 295.54 911.09 306.84 911.09 306.84C911.09 306.84 903.98 313.84 897.35 308.95C895.392 307.47 894.021 305.344 893.48 302.95C893.156 301.645 893.004 300.304 893.03 298.96V298.96Z" fill="black"/>
<path opacity="0.1" d="M945.2 298.96C945.142 297.299 944.547 295.702 943.502 294.408C942.458 293.115 941.022 292.196 939.41 291.79C934.954 290.702 930.28 290.914 925.94 292.4C916.45 295.54 927.14 306.84 927.14 306.84C927.14 306.84 934.24 313.84 940.88 308.95C942.839 307.47 944.21 305.344 944.75 302.95C945.075 301.646 945.226 300.304 945.2 298.96Z" fill="black"/>
<path opacity="0.1" d="M910.5 291.48V291.95H927.83V291.39L910.5 291.48Z" fill="black"/>
<path opacity="0.1" d="M916.03 296.49H916.58V294.9C916.58 294.9 918.34 293.53 921.26 294.9V296.32H922.26V295.39H921.77C921.77 295.39 921.97 293.46 918.71 293.77C918.71 293.77 916.09 293.52 916.15 295.18H915.55L916.03 296.49Z" fill="black"/>
</g>
<path d="M893.03 298.31C893.087 296.65 893.682 295.054 894.724 293.761C895.766 292.468 897.2 291.548 898.81 291.14C903.27 290.057 907.946 290.269 912.29 291.75C921.78 294.9 911.09 306.19 911.09 306.19C911.09 306.19 903.98 313.19 897.35 308.3C895.388 306.824 894.016 304.697 893.48 302.3C893.154 300.996 893.003 299.654 893.03 298.31V298.31Z" fill="#FF5F00"/>
<path d="M945.2 298.31C945.142 296.649 944.546 295.052 943.502 293.758C942.458 292.465 941.022 291.546 939.41 291.14C934.953 290.057 930.28 290.269 925.94 291.75C916.45 294.9 927.14 306.19 927.14 306.19C927.14 306.19 934.24 313.19 940.88 308.3C942.842 306.824 944.214 304.696 944.75 302.3C945.076 300.996 945.227 299.654 945.2 298.31Z" fill="#FF5F00"/>
<path d="M910.5 290.85V291.33H927.83V290.76L910.5 290.85Z" fill="#FF5F00"/>
<path d="M916.03 295.86H916.58V294.27C916.58 294.27 918.34 292.91 921.26 294.27V295.7H922.26V294.76H921.77C921.77 294.76 921.97 292.84 918.71 293.14C918.71 293.14 916.09 292.9 916.15 294.55H915.55L916.03 295.86Z" fill="#FF5F00"/>
<path d="M123.14 457.19H117.46V585.09H123.14V457.19Z" fill="#535461"/>
<path d="M158.84 584.7L158.48 590.46L157.98 598.59L157.77 601.98L157.27 610.12L157.05 613.51L156.55 621.64L150.82 714.11C150.576 718.09 148.823 721.826 145.918 724.558C143.014 727.289 139.177 728.81 135.19 728.81H105.41C101.424 728.81 97.5884 727.289 94.6857 724.557C91.783 721.825 90.032 718.089 89.7901 714.11L84.0301 621.64L83.5301 613.51L83.3201 610.12L82.8301 601.96L82.6201 598.57L82.1201 590.44L81.7601 584.68C81.6918 583.575 81.8506 582.467 82.2269 581.425C82.6031 580.383 83.1888 579.43 83.9477 578.623C84.7066 577.816 85.6228 577.174 86.6396 576.735C87.6565 576.295 88.7525 576.069 89.8601 576.07H150.75C151.859 576.069 152.956 576.296 153.974 576.736C154.992 577.177 155.908 577.821 156.667 578.63C157.425 579.439 158.01 580.396 158.383 581.44C158.757 582.484 158.913 583.593 158.84 584.7V584.7Z" fill="#3F3D56"/>
<path d="M158.48 590.46L157.98 598.59H82.6099L82.1099 590.46H158.48Z" fill="#9D9CB5"/>
<path d="M157.77 601.98L157.27 610.12H83.3298L82.8198 601.98H157.77Z" fill="#9D9CB5"/>
<path d="M157.05 613.51L156.55 621.64H84.05L83.54 613.51H157.05Z" fill="#9D9CB5"/>
<path d="M73.4399 505.13C106.52 529.06 120.3 566.5 120.3 566.5C120.3 566.5 80.4299 565.13 47.2999 541.2C14.1699 517.27 0.439941 479.83 0.439941 479.83C0.439941 479.83 40.3499 481.2 73.4399 505.13Z" fill="#FF5F00"/>
<path d="M0.490234 479.83C0.490234 479.83 41.8702 502.83 55.1402 521.83C68.4102 540.83 120.3 566.51 120.3 566.51" stroke="#535461" stroke-width="2" stroke-miterlimit="10"/>
<path d="M94.7898 456.96C112.79 469.96 120.3 490.36 120.3 490.36C120.3 490.36 98.5998 489.62 80.5898 476.59C62.5798 463.56 55.0898 443.19 55.0898 443.19C55.0898 443.19 76.7898 443.88 94.7898 456.96Z" fill="#FF5F00"/>
<path d="M55.0898 443.14C55.0898 443.14 77.6098 455.64 84.8298 465.99C92.0498 476.34 120.3 490.31 120.3 490.31" stroke="#535461" stroke-width="2" stroke-miterlimit="10"/>
<path d="M146.47 489.28C125.78 512.01 121.41 541.71 121.41 541.71C121.41 541.71 150.57 534.56 171.25 511.83C191.93 489.1 196.31 459.39 196.31 459.39C196.31 459.39 167.15 466.54 146.47 489.28Z" fill="#FF5F00"/>
<path d="M196.31 459.39C196.31 459.39 169.37 482.69 162.52 498.75C155.67 514.81 121.41 541.75 121.41 541.75" stroke="#535461" stroke-width="2" stroke-miterlimit="10"/>
</g>
<defs>
<linearGradient id="paint0_linear_24_394" x1="591.3" y1="646.08" x2="591.3" y2="107.75" gradientUnits="userSpaceOnUse">
<stop stop-color="#808080" stop-opacity="0.25"/>
<stop offset="0.54" stop-color="#808080" stop-opacity="0.12"/>
<stop offset="1" stop-color="#808080" stop-opacity="0.1"/>
</linearGradient>
<linearGradient id="paint1_linear_24_394" x1="184034" y1="483433" x2="184034" y2="163798" gradientUnits="userSpaceOnUse">
<stop stop-color="#808080" stop-opacity="0.25"/>
<stop offset="0.54" stop-color="#808080" stop-opacity="0.12"/>
<stop offset="1" stop-color="#808080" stop-opacity="0.1"/>
</linearGradient>
<clipPath id="clip0_24_394">
<rect width="1145.57" height="819.91" fill="white"/>
</clipPath>
</defs>
</svg>
