<svg width="927" height="601" viewBox="0 0 927 601" fill="none" xmlns="http://www.w3.org/2000/svg">
<g clip-path="url(#clip0_24_574)">
<path d="M150.534 279.434C164.099 279.434 175.095 268.437 175.095 254.873C175.095 241.308 164.099 230.312 150.534 230.312C136.969 230.312 125.973 241.308 125.973 254.873C125.973 268.437 136.969 279.434 150.534 279.434Z" fill="#FFB8B8"/>
<path d="M67.543 549.197L73.762 559.763L117.474 540.803L108.295 525.21L67.543 549.197Z" fill="#FFB8B8"/>
<path d="M69.4063 544.472L81.6536 565.279L81.6541 565.28C82.6791 567.021 83.351 568.947 83.6315 570.948C83.9121 572.949 83.7957 574.986 83.2891 576.942C82.7825 578.898 81.8956 580.735 80.679 582.349C79.4624 583.962 77.94 585.32 76.1986 586.344L75.7677 586.598L55.7153 552.531L69.4063 544.472Z" fill="#2F2E41"/>
<path d="M139.6 587.26L151.86 587.259L157.692 539.971L139.598 539.972L139.6 587.26Z" fill="#FFB8B8"/>
<path d="M136.473 583.257L160.617 583.256H160.618C162.638 583.256 164.639 583.654 166.506 584.427C168.373 585.2 170.069 586.334 171.498 587.762C172.927 589.191 174.06 590.887 174.833 592.754C175.606 594.621 176.004 596.622 176.004 598.642V599.142L136.474 599.144L136.473 583.257Z" fill="#2F2E41"/>
<path d="M90.3114 558.61C89.6059 558.61 88.9101 558.445 88.2805 558.126C87.6509 557.808 87.1052 557.345 86.6874 556.777L74.8637 540.718C74.503 540.228 74.2453 539.671 74.1063 539.078C73.9673 538.486 73.9499 537.872 74.055 537.273C74.1601 536.673 74.3856 536.102 74.7179 535.592C75.0502 535.083 75.4823 534.646 75.9882 534.308L128.602 499.167L96.8556 415.692L164.745 421.294L167.031 493.028C167.246 499.561 165.68 506.029 162.502 511.74C159.323 517.451 154.651 522.191 148.986 525.452L92.5597 558.005C91.8765 558.401 91.101 558.61 90.3114 558.61V558.61Z" fill="#2F2E41"/>
<path d="M139.97 577.66C138.806 577.657 137.687 577.204 136.85 576.395C136.013 575.586 135.523 574.483 135.481 573.32L132.993 503.438L163.802 501.815L161.348 572.199C161.312 573.314 160.862 574.375 160.086 575.177C159.309 575.978 158.262 576.461 157.149 576.532L140.276 577.65C140.174 577.657 140.072 577.66 139.97 577.66Z" fill="#2F2E41"/>
<path d="M172.602 435.171C164.763 435.171 137.385 426.355 127.88 423.212C126.459 424.35 118.647 430.191 109.529 429.123C103.903 428.463 98.9505 425.279 94.8084 419.658C85.6614 407.243 96.9591 354.006 108.047 311.532C110.27 302.946 115.735 295.557 123.293 290.917C130.851 286.277 139.914 284.748 148.576 286.652V286.652C154.854 288.038 160.621 291.147 165.23 295.63C169.838 300.113 173.105 305.792 174.664 312.03C176.751 320.528 174.955 330.524 173.644 337.824C173.028 341.255 172.541 343.966 172.707 345.298C173.351 350.447 176.926 431.19 174.627 434.638C174.382 435.005 173.674 435.171 172.602 435.171Z" fill="#FF5F00"/>
<path d="M143.927 435.314C145.187 434.376 146.225 433.174 146.97 431.791C147.715 430.408 148.147 428.879 148.237 427.311C148.327 425.743 148.072 424.175 147.49 422.716C146.908 421.257 146.013 419.944 144.868 418.868L145.354 321.025L122.309 324.862L129.078 419.833C127.399 421.875 126.527 424.463 126.628 427.105C126.729 429.747 127.796 432.26 129.626 434.169C131.457 436.077 133.923 437.248 136.559 437.459C139.195 437.67 141.816 436.907 143.927 435.314V435.314Z" fill="#FFB8B8"/>
<path d="M149.257 383.861H124.435C123.249 383.857 122.113 383.388 121.271 382.553C120.429 381.719 119.949 380.587 119.935 379.402L119.325 312.11C119.304 309.783 119.745 307.475 120.621 305.32C121.498 303.164 122.793 301.204 124.432 299.552C126.071 297.9 128.021 296.59 130.169 295.696C132.318 294.803 134.622 294.344 136.949 294.347C139.276 294.35 141.579 294.814 143.726 295.713C145.872 296.611 147.819 297.927 149.454 299.582C151.089 301.238 152.379 303.202 153.25 305.359C154.122 307.517 154.556 309.826 154.53 312.153L153.756 379.413C153.739 380.596 153.257 381.725 152.416 382.557C151.574 383.388 150.44 383.857 149.257 383.861V383.861Z" fill="#FF5F00"/>
<path d="M144.28 279.331C133.035 279.352 122.426 270.463 120.477 259.388C119.78 255.037 120.094 250.584 121.397 246.374C122.811 241.582 125.236 237.149 128.508 233.373C131.781 229.597 135.825 226.567 140.367 224.487C144.91 222.406 149.846 221.324 154.843 221.313C159.839 221.302 164.78 222.362 169.332 224.421C172.34 225.783 175.303 227.738 176.681 230.739C178.058 233.74 177.196 237.934 174.183 239.285C172.214 240.167 169.743 239.734 167.996 241C165.487 242.82 166.132 246.692 167.253 249.581C168.373 252.471 169.641 255.968 167.762 258.434C166.012 260.731 162.514 260.66 159.758 259.795C157.002 258.93 154.282 257.482 151.409 257.777C147.219 258.206 144.208 262.375 143.65 266.55C143.093 270.725 144.405 274.899 145.7 278.907L144.28 279.331Z" fill="#2F2E41"/>
<path d="M259 600.085H1C0.734784 600.085 0.480429 599.98 0.292892 599.792C0.105356 599.605 0 599.35 0 599.085C0 598.82 0.105356 598.565 0.292892 598.378C0.480429 598.19 0.734784 598.085 1 598.085H259C259.265 598.085 259.52 598.19 259.707 598.378C259.895 598.565 260 598.82 260 599.085C260 599.35 259.895 599.605 259.707 599.792C259.52 599.98 259.265 600.085 259 600.085Z" fill="#CCCCCC"/>
<path d="M910.122 434.548H269.283C264.909 434.543 260.715 432.803 257.621 429.71C254.528 426.616 252.788 422.422 252.783 418.048V22.894C252.787 19.6892 254.061 16.6166 256.328 14.3504C258.594 12.0842 261.666 10.8094 264.871 10.8057H914.325C917.585 10.8094 920.711 12.1062 923.016 14.4116C925.321 16.717 926.618 19.8427 926.622 23.103V418.048C926.617 422.422 924.877 426.616 921.784 429.71C918.69 432.803 914.496 434.543 910.122 434.548V434.548Z" fill="#F2F2F2"/>
<path d="M889.402 413.716H292.157C283.402 413.716 276.279 407.046 276.279 398.847V54.7424C276.279 48.6624 281.557 43.7156 288.045 43.7156H893.319C899.914 43.7156 905.279 48.7439 905.279 54.9241V398.847C905.279 407.046 898.156 413.716 889.402 413.716Z" fill="white"/>
<path d="M926.392 24.9502H252.552V16.5498C252.558 12.1607 254.305 7.95333 257.41 4.85072C260.514 1.74811 264.723 0.00363937 269.112 0H909.832C914.221 0.00360236 918.43 1.74806 921.534 4.85068C924.639 7.95329 926.386 12.1607 926.392 16.5498V24.9502Z" fill="#3F3D56"/>
<path d="M282.647 16.7834C285.012 16.7834 286.93 14.8656 286.93 12.5C286.93 10.1343 285.012 8.21655 282.647 8.21655C280.281 8.21655 278.363 10.1343 278.363 12.5C278.363 14.8656 280.281 16.7834 282.647 16.7834Z" fill="white"/>
<path d="M298.906 16.7834C301.272 16.7834 303.189 14.8656 303.189 12.5C303.189 10.1343 301.272 8.21655 298.906 8.21655C296.54 8.21655 294.623 10.1343 294.623 12.5C294.623 14.8656 296.54 16.7834 298.906 16.7834Z" fill="white"/>
<path d="M315.165 16.7834C317.53 16.7834 319.448 14.8656 319.448 12.5C319.448 10.1343 317.53 8.21655 315.165 8.21655C312.799 8.21655 310.881 10.1343 310.881 12.5C310.881 14.8656 312.799 16.7834 315.165 16.7834Z" fill="white"/>
<path d="M576.611 118.955H459.802C458.061 118.955 456.391 118.263 455.159 117.031C453.928 115.8 453.236 114.13 453.236 112.388C453.236 110.647 453.928 108.977 455.159 107.745C456.391 106.514 458.061 105.822 459.802 105.822H576.611C578.352 105.822 580.022 106.514 581.254 107.745C582.485 108.977 583.177 110.647 583.177 112.388C583.177 114.13 582.485 115.8 581.254 117.031C580.022 118.263 578.352 118.955 576.611 118.955V118.955Z" fill="#CCCCCC"/>
<path d="M721.757 118.955H604.948C603.207 118.955 601.537 118.263 600.305 117.031C599.074 115.8 598.382 114.13 598.382 112.388C598.382 110.647 599.074 108.977 600.305 107.745C601.537 106.514 603.207 105.822 604.948 105.822H721.757C723.498 105.822 725.168 106.514 726.4 107.745C727.631 108.977 728.323 110.647 728.323 112.388C728.323 114.13 727.631 115.8 726.4 117.031C725.168 118.263 723.498 118.955 721.757 118.955V118.955Z" fill="#CCCCCC"/>
<path d="M721.757 143.837H518.552C516.811 143.837 515.14 143.145 513.909 141.913C512.678 140.682 511.986 139.012 511.986 137.27C511.986 135.529 512.678 133.859 513.909 132.628C515.14 131.396 516.811 130.704 518.552 130.704H721.757C723.498 130.704 725.168 131.396 726.4 132.628C727.631 133.859 728.323 135.529 728.323 137.27C728.323 139.012 727.631 140.682 726.4 141.913C725.168 143.145 723.498 143.837 721.757 143.837Z" fill="#CCCCCC"/>
<path d="M576.61 93.7268H459.802C458.062 93.7246 456.394 93.0319 455.164 91.8007C453.935 90.5696 453.244 88.9007 453.244 87.1606C453.244 85.4206 453.935 83.7517 455.164 82.5205C456.394 81.2894 458.062 80.5966 459.802 80.5945H576.61C577.473 80.5934 578.328 80.7625 579.126 81.092C579.923 81.4215 580.648 81.905 581.259 82.5148C581.869 83.1246 582.353 83.8488 582.684 84.646C583.014 85.4432 583.185 86.2977 583.185 87.1606C583.185 88.0236 583.014 88.8781 582.684 89.6752C582.353 90.4724 581.869 91.1966 581.259 91.8064C580.648 92.4163 579.923 92.8998 579.126 93.2293C578.328 93.5588 577.473 93.7278 576.61 93.7268V93.7268Z" fill="#CCCCCC"/>
<path d="M640.889 94.0722H607.713C605.972 94.0722 604.302 93.3804 603.07 92.149C601.839 90.9176 601.147 89.2475 601.147 87.5061C601.147 85.7646 601.839 84.0945 603.07 82.8631C604.302 81.6317 605.972 80.9399 607.713 80.9399H640.889C642.631 80.9399 644.301 81.6317 645.532 82.8631C646.764 84.0945 647.456 85.7646 647.456 87.5061C647.456 89.2475 646.764 90.9176 645.532 92.149C644.301 93.3804 642.631 94.0722 640.889 94.0722Z" fill="#CCCCCC"/>
<path d="M492.978 143.837H459.802C458.062 143.834 456.394 143.142 455.164 141.911C453.935 140.679 453.244 139.011 453.244 137.27C453.244 135.53 453.935 133.862 455.164 132.63C456.394 131.399 458.062 130.706 459.802 130.704H492.978C493.841 130.703 494.696 130.872 495.494 131.202C496.291 131.531 497.016 132.015 497.627 132.625C498.237 133.234 498.722 133.959 499.052 134.756C499.383 135.553 499.553 136.408 499.553 137.27C499.553 138.133 499.383 138.988 499.052 139.785C498.722 140.582 498.237 141.306 497.627 141.916C497.016 142.526 496.291 143.01 495.494 143.339C494.696 143.669 493.841 143.838 492.978 143.837Z" fill="#CCCCCC"/>
<path d="M576.611 351.955H459.802C458.061 351.955 456.391 351.263 455.159 350.031C453.928 348.8 453.236 347.13 453.236 345.388C453.236 343.647 453.928 341.977 455.159 340.745C456.391 339.514 458.061 338.822 459.802 338.822H576.611C577.473 338.822 578.327 338.992 579.123 339.322C579.92 339.652 580.644 340.136 581.254 340.745C581.863 341.355 582.347 342.079 582.677 342.876C583.007 343.672 583.177 344.526 583.177 345.388C583.177 346.251 583.007 347.105 582.677 347.901C582.347 348.698 581.863 349.422 581.254 350.031C580.644 350.641 579.92 351.125 579.123 351.455C578.327 351.785 577.473 351.955 576.611 351.955V351.955Z" fill="#CCCCCC"/>
<path d="M721.757 351.955H604.948C603.207 351.955 601.537 351.263 600.305 350.031C599.074 348.8 598.382 347.13 598.382 345.388C598.382 343.647 599.074 341.977 600.305 340.745C601.537 339.514 603.207 338.822 604.948 338.822H721.757C722.619 338.822 723.473 338.992 724.269 339.322C725.066 339.652 725.79 340.136 726.4 340.745C727.009 341.355 727.493 342.079 727.823 342.876C728.153 343.672 728.323 344.526 728.323 345.388C728.323 346.251 728.153 347.105 727.823 347.901C727.493 348.698 727.009 349.422 726.4 350.031C725.79 350.641 725.066 351.125 724.269 351.455C723.473 351.785 722.619 351.955 721.757 351.955V351.955Z" fill="#CCCCCC"/>
<path d="M721.757 376.837H518.552C516.811 376.837 515.14 376.145 513.909 374.913C512.678 373.682 511.986 372.012 511.986 370.27C511.986 368.529 512.678 366.859 513.909 365.628C515.14 364.396 516.811 363.704 518.552 363.704H721.757C722.62 363.703 723.474 363.872 724.272 364.202C725.069 364.531 725.794 365.015 726.405 365.625C727.015 366.234 727.5 366.959 727.83 367.756C728.161 368.553 728.331 369.407 728.331 370.27C728.331 371.133 728.161 371.988 727.83 372.785C727.5 373.582 727.015 374.306 726.405 374.916C725.794 375.526 725.069 376.01 724.272 376.339C723.474 376.669 722.62 376.838 721.757 376.837Z" fill="#CCCCCC"/>
<path d="M576.611 326.727H459.802C458.061 326.727 456.391 326.035 455.159 324.804C453.928 323.572 453.236 321.902 453.236 320.161C453.236 318.419 453.928 316.749 455.159 315.518C456.391 314.286 458.061 313.594 459.802 313.594H576.611C578.352 313.594 580.022 314.286 581.254 315.518C582.485 316.749 583.177 318.419 583.177 320.161C583.177 321.902 582.485 323.572 581.254 324.804C580.022 326.035 578.352 326.727 576.611 326.727Z" fill="#CCCCCC"/>
<path d="M640.889 327.072H607.713C605.972 327.072 604.302 326.38 603.07 325.149C601.839 323.918 601.147 322.248 601.147 320.506C601.147 318.765 601.839 317.095 603.07 315.863C604.302 314.632 605.972 313.94 607.713 313.94H640.889C642.631 313.94 644.301 314.632 645.532 315.863C646.764 317.095 647.456 318.765 647.456 320.506C647.456 322.248 646.764 323.918 645.532 325.149C644.301 326.38 642.631 327.072 640.889 327.072V327.072Z" fill="#CCCCCC"/>
<path d="M492.979 376.837H459.802C458.061 376.837 456.391 376.145 455.159 374.913C453.928 373.682 453.236 372.012 453.236 370.27C453.236 368.529 453.928 366.859 455.159 365.628C456.391 364.396 458.061 363.704 459.802 363.704H492.979C493.842 363.703 494.696 363.872 495.494 364.202C496.292 364.531 497.016 365.015 497.627 365.625C498.237 366.234 498.722 366.959 499.052 367.756C499.383 368.553 499.553 369.407 499.553 370.27C499.553 371.133 499.383 371.988 499.052 372.785C498.722 373.582 498.237 374.306 497.627 374.916C497.016 375.526 496.292 376.01 495.494 376.339C494.696 376.669 493.842 376.838 492.979 376.837Z" fill="#CCCCCC"/>
<path d="M546.104 281.462C543.625 281.467 541.244 280.493 539.48 278.752L495.572 235.392C494.71 234.541 494.025 233.527 493.558 232.409C493.091 231.291 492.851 230.092 492.851 228.881C492.851 227.669 493.091 226.47 493.558 225.352C494.025 224.234 494.71 223.22 495.572 222.369L539.303 179.185C541.125 177.394 543.579 176.395 546.134 176.403C548.688 176.411 551.136 177.426 552.947 179.228C554.759 181.044 555.777 183.505 555.777 186.071C555.777 188.637 554.759 191.098 552.947 192.914L520.451 225.411C519.438 226.426 518.87 227.801 518.87 229.234C518.87 230.668 519.438 232.043 520.451 233.057L552.77 265.378C554.09 266.695 554.989 268.374 555.354 270.203C555.718 272.031 555.532 273.927 554.818 275.65C554.104 277.372 552.895 278.844 551.343 279.879C549.792 280.913 547.969 281.464 546.104 281.462V281.462Z" fill="#FF5F00"/>
<path d="M616.069 281.462C614.205 281.464 612.381 280.913 610.83 279.879C609.279 278.844 608.07 277.372 607.356 275.65C606.642 273.927 606.455 272.031 606.82 270.203C607.184 268.374 608.083 266.695 609.403 265.378L641.723 233.057C642.735 232.043 643.304 230.668 643.304 229.234C643.304 227.801 642.735 226.426 641.723 225.411L609.227 192.914C608.328 192.016 607.615 190.949 607.129 189.774C606.642 188.6 606.392 187.342 606.392 186.071C606.392 184.8 606.642 183.541 607.129 182.367C607.615 181.193 608.328 180.126 609.227 179.228V179.228C611.037 177.426 613.485 176.411 616.04 176.403C618.594 176.395 621.049 177.394 622.87 179.185L666.602 222.369C667.464 223.22 668.148 224.234 668.615 225.352C669.082 226.47 669.323 227.669 669.323 228.881C669.323 230.092 669.082 231.292 668.615 232.409C668.148 233.527 667.464 234.541 666.602 235.392L622.693 278.752C620.929 280.493 618.548 281.467 616.069 281.462Z" fill="#FF5F00"/>
</g>
<defs>
<clipPath id="clip0_24_574">
<rect width="926.622" height="600.085" fill="white"/>
</clipPath>
</defs>
</svg>
