<svg width="757" height="474" viewBox="0 0 757 474" fill="none" xmlns="http://www.w3.org/2000/svg">
<g clip-path="url(#clip0_24_4)">
<path d="M654.23 315.877C653.461 314.624 652.976 313.217 652.81 311.757C652.643 310.296 652.799 308.817 653.266 307.423C653.733 306.029 654.5 304.755 655.513 303.689C656.526 302.624 657.761 301.793 659.129 301.257L657.708 265.55L673.604 275.148L672.517 307.584C673.267 309.943 673.125 312.495 672.118 314.756C671.112 317.018 669.311 318.831 667.057 319.853C664.803 320.875 662.252 321.035 659.888 320.302C657.524 319.569 655.51 317.995 654.23 315.877V315.877Z" fill="#A0616A"/>
<path d="M675.447 292.729L661.315 294.987C660.722 295.082 660.115 295.057 659.532 294.914C658.948 294.77 658.399 294.512 657.917 294.153C657.435 293.794 657.03 293.342 656.726 292.824C656.421 292.306 656.224 291.732 656.145 291.136L650.166 246.107L620.621 205.675C619.527 204.178 618.751 202.472 618.342 200.663C617.932 198.855 617.897 196.981 618.24 195.159C618.582 193.336 619.294 191.603 620.331 190.066C621.369 188.529 622.711 187.221 624.274 186.222L624.273 186.222C627.307 184.283 630.988 183.628 634.505 184.403C638.022 185.178 641.087 187.317 643.026 190.352L673.201 237.57L679.206 287.751C679.245 288.072 679.249 288.395 679.219 288.716C679.126 289.709 678.705 290.643 678.022 291.37C677.339 292.097 676.433 292.575 675.447 292.729V292.729Z" fill="#FF5F00"/>
<path d="M626.725 459.863H614.465L608.633 412.575L626.727 412.576L626.725 459.863Z" fill="#A0616A"/>
<path d="M605.708 456.36H629.352V471.247H590.821C590.821 467.298 592.389 463.512 595.181 460.72C597.973 457.928 601.759 456.36 605.708 456.36V456.36Z" fill="#2F2E41"/>
<path d="M678.45 438.879L669.29 447.027L635.145 413.36L647.021 403.547L678.45 438.879Z" fill="#A0616A"/>
<path d="M660.419 450.23L678.085 434.516L687.98 445.639L659.191 471.248C657.891 469.787 656.892 468.085 656.251 466.238C655.61 464.391 655.338 462.436 655.452 460.485C655.566 458.533 656.064 456.623 656.916 454.864C657.768 453.104 658.959 451.53 660.419 450.23V450.23Z" fill="#2F2E41"/>
<path d="M503.523 189.457C504.955 189.123 506.442 189.108 507.881 189.411C509.319 189.715 510.674 190.33 511.849 191.213C513.024 192.097 513.991 193.227 514.681 194.525C515.372 195.822 515.77 197.256 515.847 198.724L550.175 208.654L536.046 220.705L505.615 209.427C503.14 209.393 500.763 208.453 498.936 206.783C497.108 205.114 495.956 202.833 495.699 200.371C495.441 197.909 496.095 195.439 497.537 193.427C498.979 191.416 501.109 190.003 503.523 189.457V189.457Z" fill="#A0616A"/>
<path d="M610.547 155.189C624.112 155.189 635.108 144.193 635.108 130.628C635.108 117.063 624.112 106.067 610.547 106.067C596.982 106.067 585.986 117.063 585.986 130.628C585.986 144.193 596.982 155.189 610.547 155.189Z" fill="#A0616A"/>
<path d="M628.23 451.009L611.166 449.643C610.063 449.556 609.032 449.065 608.269 448.265C607.505 447.465 607.063 446.412 607.027 445.306L602.264 301.473C602.225 300.362 602.6 299.276 603.316 298.425C604.032 297.574 605.039 297.019 606.14 296.868L640.16 292.121C640.861 292.023 641.575 292.092 642.244 292.322C642.914 292.552 643.519 292.936 644.012 293.444C644.505 293.952 644.871 294.569 645.08 295.245C645.29 295.921 645.337 296.637 645.218 297.335L632.2 373.584C632.164 373.793 632.147 374.006 632.15 374.219L633.088 446.464C633.096 447.06 632.985 447.651 632.762 448.204C632.54 448.757 632.209 449.261 631.79 449.685C631.371 450.109 630.872 450.446 630.322 450.676C629.772 450.905 629.182 451.023 628.586 451.023C628.467 451.023 628.348 451.018 628.23 451.009Z" fill="#2F2E41"/>
<path d="M650.084 433.757L591.465 368.519C591.043 368.05 590.725 367.497 590.531 366.897C590.337 366.297 590.271 365.662 590.337 365.035L597.74 295.63C597.862 294.473 598.427 293.408 599.318 292.66C600.208 291.912 601.354 291.538 602.514 291.617L638.49 294.015C639.178 294.061 639.846 294.264 640.443 294.609C641.039 294.954 641.549 295.432 641.932 296.005C642.315 296.578 642.561 297.231 642.652 297.915C642.742 298.598 642.674 299.293 642.454 299.946L620.898 363.714C620.692 364.321 620.656 364.975 620.797 365.601C620.938 366.228 621.249 366.803 621.696 367.264L671.488 418.868C671.96 419.357 672.315 419.947 672.527 420.592C672.738 421.238 672.801 421.924 672.709 422.597C672.618 423.271 672.375 423.915 671.999 424.481C671.624 425.047 671.124 425.521 670.539 425.867L655.72 434.624C654.825 435.151 653.775 435.352 652.748 435.194C651.721 435.037 650.78 434.529 650.084 433.757L650.084 433.757Z" fill="#2F2E41"/>
<path d="M606.146 170.36C606.146 170.36 621.146 157.36 628.146 164.36C628.146 164.36 660.646 184.86 646.646 240.86C646.646 240.86 658.646 294.86 653.646 296.86C648.646 298.86 598.146 306.36 594.146 300.36C590.146 294.36 588.146 202.36 606.146 170.36Z" fill="#FF5F00"/>
<path d="M518.783 216.9L521.105 202.778C521.203 202.185 521.418 201.617 521.738 201.109C522.059 200.601 522.478 200.162 522.97 199.818C523.463 199.474 524.02 199.232 524.608 199.107C525.195 198.982 525.802 198.976 526.392 199.089L571.005 207.639L618.699 192.379C620.465 191.814 622.329 191.617 624.174 191.799C626.02 191.982 627.808 192.541 629.429 193.441C631.051 194.342 632.47 195.565 633.601 197.035C634.731 198.505 635.548 200.191 636.002 201.989L636.003 201.988C636.884 205.48 636.342 209.179 634.496 212.271C632.651 215.363 629.652 217.596 626.16 218.477L571.828 232.191L522.319 222.039C522.003 221.974 521.695 221.876 521.4 221.746C520.487 221.344 519.734 220.65 519.26 219.772C518.786 218.894 518.619 217.884 518.783 216.9V216.9Z" fill="#FF5F00"/>
<path d="M621.087 150.551C623.331 145.356 625.23 138.438 620.925 134.765C618.428 132.635 614.832 132.631 611.56 132.366C602.343 131.619 592.854 127.378 588.349 119.302C583.844 111.226 586.36 99.2178 594.859 95.5742C600.589 93.1182 607.157 94.7913 613.154 96.4919L631.16 101.598C636.51 103.115 642.127 104.788 645.979 108.799C652.121 115.197 651.662 126.011 646.783 133.417C641.904 140.824 634.557 148.548 626.146 151.36L621.087 150.551Z" fill="#2F2E41"/>
<path d="M755.96 473.36H507.96C507.695 473.36 507.441 473.255 507.253 473.067C507.066 472.88 506.96 472.625 506.96 472.36C506.96 472.095 507.066 471.841 507.253 471.653C507.441 471.465 507.695 471.36 507.96 471.36H755.96C756.226 471.36 756.48 471.465 756.668 471.653C756.855 471.841 756.96 472.095 756.96 472.36C756.96 472.625 756.855 472.88 756.668 473.067C756.48 473.255 756.226 473.36 755.96 473.36Z" fill="#3F3D56"/>
<path d="M494 0H7C5.14412 0.00205925 3.36483 0.740212 2.05252 2.05252C0.740212 3.36483 0.00205925 5.14412 0 7V367C0.00205925 368.856 0.740212 370.635 2.05252 371.947C3.36483 373.26 5.14412 373.998 7 374H494C495.856 373.998 497.635 373.26 498.947 371.947C500.26 370.635 500.998 368.856 501 367V7C500.998 5.14412 500.26 3.36483 498.947 2.05252C497.635 0.740212 495.856 0.00205925 494 0V0ZM499 367C498.999 368.326 498.472 369.597 497.535 370.535C496.597 371.472 495.326 371.999 494 372H7C5.67408 371.999 4.40261 371.472 3.46504 370.535C2.52748 369.597 2.00053 368.326 2 367V7C2.00053 5.67408 2.52748 4.40261 3.46504 3.46504C4.40261 2.52748 5.67408 2.00053 7 2H494C495.326 2.00053 496.597 2.52748 497.535 3.46504C498.472 4.40261 498.999 5.67408 499 7V367Z" fill="#3F3D56"/>
<path d="M500 28.04H1V30.04H500V28.04Z" fill="#3F3D56"/>
<path d="M18 21C21.3137 21 24 18.3137 24 15C24 11.6863 21.3137 9 18 9C14.6863 9 12 11.6863 12 15C12 18.3137 14.6863 21 18 21Z" fill="#3F3D56"/>
<path d="M35.25 21C38.5637 21 41.25 18.3137 41.25 15C41.25 11.6863 38.5637 9 35.25 9C31.9363 9 29.25 11.6863 29.25 15C29.25 18.3137 31.9363 21 35.25 21Z" fill="#3F3D56"/>
<path d="M52.5 21C55.8137 21 58.5 18.3137 58.5 15C58.5 11.6863 55.8137 9 52.5 9C49.1863 9 46.5 11.6863 46.5 15C46.5 18.3137 49.1863 21 52.5 21Z" fill="#3F3D56"/>
<path d="M301.823 311.305C301.558 311.305 301.303 311.199 301.116 311.012C300.928 310.824 300.823 310.57 300.823 310.305V269.305C300.823 269.039 300.928 268.785 301.116 268.598C301.303 268.41 301.558 268.305 301.823 268.305C302.088 268.305 302.342 268.41 302.53 268.598C302.717 268.785 302.823 269.039 302.823 269.305V310.305C302.823 310.57 302.717 310.824 302.53 311.012C302.342 311.199 302.088 311.305 301.823 311.305V311.305Z" fill="#3F3D56"/>
<path d="M300.452 253.305C300.276 253.305 300.102 253.258 299.95 253.169L243.134 220.065C242.906 219.931 242.739 219.712 242.672 219.456C242.605 219.2 242.642 218.927 242.775 218.698C242.908 218.469 243.127 218.303 243.383 218.235C243.64 218.167 243.912 218.204 244.141 218.336L300.956 251.44C301.146 251.551 301.295 251.721 301.378 251.925C301.462 252.128 301.476 252.354 301.418 252.566C301.361 252.778 301.235 252.966 301.06 253.099C300.886 253.233 300.672 253.305 300.452 253.305V253.305Z" fill="#3F3D56"/>
<path d="M186.824 253.305C186.604 253.305 186.39 253.233 186.215 253.099C186.041 252.965 185.915 252.778 185.857 252.566C185.8 252.353 185.814 252.128 185.898 251.925C185.981 251.721 186.129 251.551 186.319 251.44L243.134 218.336C243.363 218.204 243.636 218.168 243.891 218.236C244.147 218.304 244.365 218.471 244.498 218.699C244.631 218.928 244.669 219.2 244.602 219.456C244.535 219.712 244.369 219.931 244.141 220.065L187.326 253.169C187.174 253.258 187 253.305 186.824 253.305V253.305Z" fill="#3F3D56"/>
<path d="M359.452 303.305C359.275 303.305 359.102 303.258 358.95 303.169L302.134 270.065C301.906 269.931 301.739 269.712 301.672 269.456C301.605 269.2 301.642 268.927 301.775 268.698C301.908 268.469 302.127 268.303 302.383 268.235C302.64 268.167 302.912 268.204 303.141 268.336L359.956 301.441C360.146 301.551 360.295 301.721 360.378 301.925C360.462 302.128 360.476 302.354 360.418 302.566C360.361 302.778 360.235 302.966 360.06 303.099C359.886 303.233 359.672 303.305 359.452 303.305V303.305Z" fill="#3F3D56"/>
<path d="M245.824 303.305C245.604 303.305 245.39 303.233 245.215 303.099C245.041 302.965 244.915 302.778 244.857 302.566C244.8 302.353 244.814 302.128 244.898 301.925C244.981 301.721 245.129 301.551 245.319 301.44L302.134 268.336C302.363 268.204 302.636 268.168 302.891 268.236C303.147 268.304 303.365 268.471 303.498 268.699C303.631 268.928 303.669 269.2 303.602 269.456C303.535 269.712 303.369 269.931 303.141 270.065L246.326 303.169C246.174 303.258 246 303.305 245.824 303.305V303.305Z" fill="#3F3D56"/>
<path d="M243.823 202.305C243.558 202.305 243.304 202.2 243.117 202.013C242.929 201.826 242.824 201.572 242.823 201.307L242.73 164.92C242.73 164.789 242.756 164.659 242.806 164.537C242.856 164.416 242.929 164.305 243.022 164.212C243.114 164.119 243.224 164.045 243.345 163.995C243.467 163.944 243.597 163.918 243.728 163.917H243.73C243.995 163.917 244.249 164.022 244.437 164.209C244.624 164.396 244.73 164.65 244.73 164.915L244.823 201.302C244.823 201.434 244.798 201.564 244.748 201.685C244.698 201.807 244.624 201.917 244.532 202.01C244.439 202.103 244.329 202.177 244.208 202.228C244.087 202.278 243.957 202.304 243.825 202.305L243.823 202.305Z" fill="#3F3D56"/>
<path d="M256.757 221.221H230.705C229.512 221.219 228.368 220.745 227.524 219.901C226.68 219.058 226.206 217.914 226.205 216.721V203.339C226.206 202.146 226.68 201.002 227.524 200.159C228.368 199.315 229.512 198.841 230.705 198.839H256.757C257.95 198.841 259.093 199.315 259.937 200.159C260.781 201.002 261.255 202.146 261.257 203.339V216.721C261.255 217.914 260.781 219.058 259.937 219.901C259.093 220.745 257.95 221.219 256.757 221.221V221.221Z" fill="#CCCCCC"/>
<path d="M213.638 153.201H158.204C157.939 153.201 157.685 153.095 157.497 152.908C157.309 152.72 157.204 152.466 157.204 152.201C157.204 151.935 157.309 151.681 157.497 151.494C157.685 151.306 157.939 151.201 158.204 151.201H213.638C213.903 151.201 214.157 151.306 214.345 151.494C214.532 151.681 214.638 151.935 214.638 152.201C214.638 152.466 214.532 152.72 214.345 152.908C214.157 153.095 213.903 153.201 213.638 153.201Z" fill="#3F3D56"/>
<path d="M243.73 138.917C243.465 138.917 243.211 138.812 243.023 138.625C242.836 138.437 242.73 138.183 242.73 137.917V103.305C242.73 103.039 242.836 102.785 243.023 102.598C243.211 102.41 243.465 102.305 243.73 102.305C243.996 102.305 244.25 102.41 244.438 102.598C244.625 102.785 244.73 103.039 244.73 103.305V137.917C244.73 138.183 244.625 138.437 244.438 138.625C244.25 138.812 243.996 138.917 243.73 138.917V138.917Z" fill="#3F3D56"/>
<path d="M136.637 153.201C136.458 153.201 136.282 153.153 136.128 153.061L82.3127 121.165C82.0853 121.029 81.9209 120.809 81.8556 120.553C81.7903 120.296 81.8295 120.024 81.9645 119.796C82.0995 119.568 82.3193 119.403 82.5757 119.337C82.8322 119.271 83.1043 119.31 83.3325 119.444L137.148 151.34C137.336 151.452 137.483 151.623 137.565 151.826C137.647 152.029 137.66 152.254 137.602 152.465C137.544 152.677 137.418 152.863 137.244 152.996C137.069 153.129 136.856 153.201 136.637 153.201V153.201Z" fill="#3F3D56"/>
<path d="M82.8237 185.097C82.6044 185.097 82.3912 185.025 82.2168 184.892C82.0424 184.759 81.9165 184.573 81.8585 184.362C81.8004 184.15 81.8134 183.925 81.8955 183.722C81.9776 183.519 82.1243 183.348 82.3128 183.236L136.128 151.34C136.356 151.205 136.629 151.166 136.886 151.232C137.143 151.298 137.363 151.463 137.498 151.691C137.633 151.919 137.672 152.192 137.607 152.449C137.541 152.706 137.376 152.926 137.148 153.061L83.3326 184.957C83.1786 185.049 83.0028 185.097 82.8237 185.097V185.097Z" fill="#3F3D56"/>
<path d="M154.204 169.331H140.823C139.63 169.329 138.486 168.855 137.642 168.011C136.799 167.167 136.324 166.024 136.323 164.831V138.779C136.324 137.586 136.799 136.442 137.642 135.598C138.486 134.755 139.63 134.28 140.823 134.279H154.204C155.397 134.28 156.541 134.755 157.385 135.598C158.228 136.442 158.703 137.586 158.704 138.779V164.831C158.703 166.024 158.228 167.167 157.385 168.011C156.541 168.855 155.397 169.329 154.204 169.331V169.331Z" fill="#CCCCCC"/>
<path d="M256.757 105.996H230.705C229.512 105.994 228.368 105.52 227.524 104.676C226.68 103.832 226.206 102.689 226.205 101.496V88.1138C226.206 86.9207 226.68 85.7769 227.524 84.9333C228.368 84.0897 229.512 83.6151 230.705 83.6138H256.757C257.95 83.6151 259.093 84.0897 259.937 84.9333C260.781 85.7769 261.255 86.9207 261.257 88.1138V101.496C261.255 102.689 260.781 103.832 259.937 104.676C259.093 105.52 257.95 105.994 256.757 105.996V105.996Z" fill="#CCCCCC"/>
<path d="M79.2042 138.331H65.8228C64.6297 138.329 63.4858 137.855 62.6422 137.011C61.7986 136.167 61.3241 135.024 61.3228 133.831V107.779C61.3241 106.586 61.7986 105.442 62.6422 104.598C63.4858 103.755 64.6297 103.28 65.8228 103.279H79.2042C80.3973 103.28 81.5411 103.755 82.3847 104.598C83.2284 105.442 83.7029 106.586 83.7042 107.779V133.831C83.7029 135.024 83.2284 136.167 82.3847 137.011C81.5411 137.855 80.3973 138.329 79.2042 138.331V138.331Z" fill="#CCCCCC"/>
<path d="M79.2042 201.331H65.8228C64.6297 201.329 63.4858 200.855 62.6422 200.011C61.7986 199.167 61.3241 198.024 61.3228 196.831V170.779C61.3241 169.586 61.7986 168.442 62.6422 167.598C63.4858 166.755 64.6297 166.28 65.8228 166.279H79.2042C80.3973 166.28 81.5411 166.755 82.3847 167.598C83.2284 168.442 83.7029 169.586 83.7042 170.779V196.831C83.7029 198.024 83.2284 199.167 82.3847 200.011C81.5411 200.855 80.3973 201.329 79.2042 201.331Z" fill="#CCCCCC"/>
<path d="M329.256 153.201H273.823C273.558 153.201 273.303 153.095 273.116 152.908C272.928 152.72 272.823 152.466 272.823 152.201C272.823 151.935 272.928 151.681 273.116 151.494C273.303 151.306 273.558 151.201 273.823 151.201H329.256C329.522 151.201 329.776 151.306 329.963 151.494C330.151 151.681 330.256 151.935 330.256 152.201C330.256 152.466 330.151 152.72 329.963 152.908C329.776 153.095 329.522 153.201 329.256 153.201Z" fill="#3F3D56"/>
<path d="M350.824 153.201C350.605 153.201 350.391 153.129 350.217 152.996C350.042 152.863 349.916 152.677 349.858 152.465C349.8 152.254 349.813 152.029 349.896 151.826C349.978 151.623 350.124 151.452 350.313 151.34L404.128 119.444C404.241 119.377 404.366 119.333 404.496 119.315C404.626 119.296 404.758 119.303 404.886 119.336C405.013 119.368 405.132 119.426 405.238 119.505C405.343 119.583 405.431 119.682 405.498 119.795C405.565 119.908 405.609 120.033 405.628 120.163C405.646 120.293 405.639 120.425 405.607 120.553C405.574 120.68 405.517 120.799 405.438 120.905C405.359 121.01 405.26 121.098 405.148 121.165L351.333 153.061C351.179 153.153 351.003 153.201 350.824 153.201V153.201Z" fill="#3F3D56"/>
<path d="M404.637 185.097C404.458 185.097 404.282 185.049 404.128 184.957L350.313 153.061C350.085 152.926 349.92 152.706 349.854 152.449C349.788 152.192 349.827 151.919 349.962 151.691C350.098 151.463 350.318 151.298 350.575 151.232C350.832 151.166 351.104 151.205 351.333 151.34L405.147 183.236C405.336 183.348 405.483 183.519 405.565 183.722C405.647 183.925 405.66 184.15 405.602 184.361C405.544 184.573 405.418 184.759 405.244 184.892C405.069 185.025 404.856 185.097 404.637 185.097V185.097Z" fill="#3F3D56"/>
<path d="M346.638 169.331H333.256C332.063 169.329 330.919 168.855 330.076 168.011C329.232 167.167 328.758 166.024 328.756 164.831V138.779C328.758 137.586 329.232 136.442 330.076 135.598C330.919 134.755 332.063 134.28 333.256 134.279H346.638C347.831 134.28 348.975 134.755 349.818 135.598C350.662 136.442 351.136 137.586 351.138 138.779V164.831C351.136 166.024 350.662 167.167 349.818 168.011C348.975 168.855 347.831 169.329 346.638 169.331Z" fill="#CCCCCC"/>
<path d="M421.638 138.331H408.256C407.063 138.329 405.919 137.855 405.076 137.011C404.232 136.167 403.758 135.024 403.756 133.831V107.779C403.758 106.586 404.232 105.442 405.076 104.598C405.919 103.755 407.063 103.28 408.256 103.279H421.638C422.831 103.28 423.975 103.755 424.818 104.598C425.662 105.442 426.136 106.586 426.138 107.779V133.831C426.136 135.024 425.662 136.167 424.818 137.011C423.975 137.855 422.831 138.329 421.638 138.331V138.331Z" fill="#CCCCCC"/>
<path d="M421.638 201.331H408.256C407.063 201.329 405.919 200.855 405.076 200.011C404.232 199.167 403.758 198.024 403.756 196.831V170.779C403.758 169.586 404.232 168.442 405.076 167.598C405.919 166.755 407.063 166.28 408.256 166.279H421.638C422.831 166.28 423.975 166.755 424.818 167.598C425.662 168.442 426.136 169.586 426.138 170.779V196.831C426.136 198.024 425.662 199.167 424.818 200.011C423.975 200.855 422.831 201.329 421.638 201.331V201.331Z" fill="#CCCCCC"/>
<path d="M198.756 272.221H172.704C171.511 272.219 170.367 271.745 169.524 270.901C168.68 270.058 168.205 268.914 168.204 267.721V254.339C168.205 253.146 168.68 252.002 169.524 251.159C170.367 250.315 171.511 249.841 172.704 249.839H198.756C199.949 249.841 201.093 250.315 201.937 251.159C202.78 252.002 203.255 253.146 203.256 254.339V267.721C203.255 268.914 202.78 270.058 201.937 270.901C201.093 271.745 199.949 272.219 198.756 272.221Z" fill="#CCCCCC"/>
<path d="M314.572 272.221H288.52C287.326 272.219 286.183 271.745 285.339 270.901C284.495 270.058 284.021 268.914 284.02 267.721V254.339C284.021 253.146 284.495 252.002 285.339 251.159C286.183 250.315 287.326 249.841 288.52 249.839H314.572C315.765 249.841 316.908 250.315 317.752 251.159C318.596 252.002 319.07 253.146 319.072 254.339V267.721C319.07 268.914 318.596 270.058 317.752 270.901C316.908 271.745 315.765 272.219 314.572 272.221Z" fill="#CCCCCC"/>
<path d="M261.572 321.221H235.52C234.326 321.219 233.183 320.745 232.339 319.901C231.495 319.058 231.021 317.914 231.02 316.721V303.339C231.021 302.146 231.495 301.002 232.339 300.159C233.183 299.315 234.326 298.841 235.52 298.839H261.572C262.765 298.841 263.908 299.315 264.752 300.159C265.596 301.002 266.07 302.146 266.072 303.339V316.721C266.07 317.914 265.596 319.058 264.752 319.901C263.908 320.745 262.765 321.219 261.572 321.221Z" fill="#CCCCCC"/>
<path d="M372.572 321.221H346.52C345.326 321.219 344.183 320.745 343.339 319.901C342.495 319.058 342.021 317.914 342.02 316.721V303.339C342.021 302.146 342.495 301.002 343.339 300.159C344.183 299.315 345.326 298.841 346.52 298.839H372.572C373.765 298.841 374.908 299.315 375.752 300.159C376.596 301.002 377.07 302.146 377.072 303.339V316.721C377.07 317.914 376.596 319.058 375.752 319.901C374.908 320.745 373.765 321.219 372.572 321.221V321.221Z" fill="#CCCCCC"/>
<path d="M314.572 321.221H288.52C287.326 321.219 286.183 320.745 285.339 319.901C284.495 319.058 284.021 317.914 284.02 316.721V303.339C284.021 302.146 284.495 301.002 285.339 300.159C286.183 299.315 287.326 298.841 288.52 298.839H314.572C315.765 298.841 316.908 299.315 317.752 300.159C318.596 301.002 319.07 302.146 319.072 303.339V316.721C319.07 317.914 318.596 319.058 317.752 319.901C316.908 320.745 315.765 321.219 314.572 321.221Z" fill="#CCCCCC"/>
<path d="M275.399 169.597H212.061C210.868 169.595 209.724 169.121 208.881 168.277C208.037 167.434 207.562 166.29 207.561 165.097V139.305C207.562 138.112 208.037 136.968 208.881 136.124C209.724 135.281 210.868 134.806 212.061 134.805H275.399C276.592 134.806 277.736 135.281 278.58 136.124C279.424 136.968 279.898 138.112 279.899 139.305V165.097C279.898 166.29 279.424 167.434 278.58 168.277C277.736 169.121 276.592 169.595 275.399 169.597Z" fill="#FF5F00"/>
</g>
<defs>
<clipPath id="clip0_24_4">
<rect width="756.96" height="473.36" fill="white"/>
</clipPath>
</defs>
</svg>
