<svg width="922" height="832" viewBox="0 0 922 832" fill="none" xmlns="http://www.w3.org/2000/svg">
<g clip-path="url(#clip0_24_522)">
<path d="M436.469 793.018C556.018 793.018 652.932 696.105 652.932 576.556C652.932 457.007 556.018 360.094 436.469 360.094C316.92 360.094 220.007 457.007 220.007 576.556C220.007 696.105 316.92 793.018 436.469 793.018Z" fill="#F2F2F2"/>
<path d="M405.89 831.295C519.336 831.295 611.302 818.732 611.302 803.234C611.302 787.736 519.336 775.172 405.89 775.172C292.444 775.172 200.478 787.736 200.478 803.234C200.478 818.732 292.444 831.295 405.89 831.295Z" fill="#3F3D56"/>
<path d="M414.019 234.646C421.631 232.087 426.795 227.018 425.553 223.323C424.311 219.628 417.134 218.707 409.522 221.265C401.91 223.824 396.746 228.893 397.988 232.588C399.23 236.283 406.408 237.204 414.019 234.646Z" fill="#3F3D56"/>
<path d="M382.295 260.126L458.57 225.372C458.57 225.372 587.792 176.529 698.335 295.757C698.335 295.757 648.793 263.954 611.241 305.964C611.241 305.964 540.579 286.847 481.28 357.088C481.28 357.088 388.533 371.133 349.905 420.353C349.905 420.353 306.841 413.731 289.7 468.323C289.616 468.591 289.465 468.831 289.261 469.023C289.056 469.215 288.807 469.351 288.535 469.419C288.263 469.487 287.979 469.483 287.708 469.41C287.438 469.336 287.191 469.194 286.992 468.998C286.754 468.765 286.593 468.466 286.531 468.139C284.922 459.702 265.982 347.153 382.295 260.126Z" fill="#FF5F00"/>
<path opacity="0.2" d="M382.295 260.126L458.57 225.372C458.57 225.372 587.792 176.529 698.335 295.757C698.335 295.757 648.793 263.954 611.241 305.964C611.241 305.964 540.579 286.847 481.28 357.088C481.28 357.088 388.533 371.133 349.905 420.353C349.905 420.353 306.841 413.731 289.7 468.323C289.616 468.591 289.465 468.831 289.261 469.023C289.056 469.215 288.807 469.351 288.535 469.419C288.263 469.487 287.979 469.483 287.708 469.41C287.438 469.336 287.191 469.194 286.992 468.998C286.754 468.765 286.593 468.466 286.531 468.139C284.922 459.702 265.982 347.153 382.295 260.126Z" fill="black"/>
<path d="M405.524 404.125L437.285 409.419L447.872 359.13L422.287 348.543L405.524 404.125Z" fill="#2F2E41"/>
<path d="M449.196 393.979C464.301 393.979 476.546 381.734 476.546 366.629C476.546 351.524 464.301 339.279 449.196 339.279C434.091 339.279 421.846 351.524 421.846 366.629C421.846 381.734 434.091 393.979 449.196 393.979Z" fill="#A0616A"/>
<path d="M437.285 382.069C437.285 382.069 439.932 415.595 419.64 418.241C399.348 420.888 437.285 480.882 446.99 479.999C456.695 479.117 474.34 414.712 474.34 414.712C474.34 414.712 451.401 398.832 459.342 384.716L437.285 382.069Z" fill="#A0616A"/>
<path d="M403.318 504.261C403.318 504.261 406.847 529.847 417.435 529.847C428.022 529.847 410.376 500.732 410.376 500.732L403.318 504.261Z" fill="#A0616A"/>
<path d="M557.713 529.847C557.713 529.847 584.181 551.903 580.652 558.961C577.123 566.019 554.184 551.021 552.42 533.376L557.713 529.847Z" fill="#A0616A"/>
<path d="M398.025 614.543L381.262 677.184L362.734 753.058H380.38C380.38 753.058 386.555 729.237 398.025 716.885C398.025 716.885 409.494 697.476 409.494 684.242L436.844 619.837L398.025 614.543Z" fill="#A0616A"/>
<path d="M470.37 618.073L475.663 677.184C475.663 677.184 474.781 719.532 475.663 729.237C476.545 738.942 475.663 753.058 475.663 753.058H491.544C491.544 753.058 506.542 701.005 502.131 672.773L508.307 606.603L470.37 618.073Z" fill="#A0616A"/>
<path d="M449.195 455.737C449.195 455.737 425.425 436.9 431.576 410.587C431.576 410.587 407.729 411.624 398.025 421.329C388.32 431.034 400.671 463.678 400.671 463.678C400.671 463.678 421.845 498.968 418.316 514.848C414.787 530.729 376.85 614.544 389.202 619.837C401.554 625.131 476.545 643.658 514.482 612.779C514.482 612.779 524.187 525.436 485.368 497.203V475.147C485.368 475.147 492.426 468.971 488.897 453.09C488.897 453.09 503.895 425.74 495.073 420.447C486.25 415.153 465.984 407.396 465.984 407.396C465.984 407.396 467.723 446.915 449.195 455.737Z" fill="#2F2E41"/>
<path d="M403.318 421.329C403.318 421.329 391.849 419.565 380.38 436.328C368.91 453.091 338.913 479.558 353.029 492.792C367.146 506.026 405.083 514.849 405.083 514.849L413.905 498.968L375.968 480.441L407.729 456.62L403.318 421.329Z" fill="#2F2E41"/>
<path d="M490.662 421.329C490.662 421.329 503.014 421.329 508.307 436.327C513.601 451.326 544.48 502.497 544.48 502.497L562.125 529.847L549.773 543.963L515.365 505.144L482.722 451.326L490.662 421.329Z" fill="#2F2E41"/>
<path d="M383.909 751.293H359.206L353.912 794.524C353.912 794.524 339.796 817.463 360.97 814.816C382.144 812.169 375.086 788.348 375.086 788.348L380.38 779.526L382.144 798.053L383.909 797.171V776.879C383.909 776.879 393.614 768.056 383.909 751.293Z" fill="#2F2E41"/>
<path d="M495.955 751.293L473.017 749.529L468.605 798.935C468.605 798.935 465.959 817.463 481.839 814.816C497.72 812.169 492.426 797.171 492.426 797.171V769.821L495.955 751.293Z" fill="#2F2E41"/>
<path d="M429.345 338.838C429.345 338.838 416.492 343.123 415.839 360.042C415.773 362.748 416.073 365.451 416.732 368.077C417.455 371.144 417.921 377.744 412.312 386.368C408.556 392.062 405.125 397.964 402.035 404.045L401.995 404.125L416.111 405.89L419.113 382.491C420.568 371.147 423.686 360.079 428.365 349.643L428.463 349.425C428.463 349.425 434.639 360.895 446.99 360.895L442.579 356.483C442.579 356.483 461.989 364.424 469.047 364.424C469.047 364.424 474.34 367.953 469.047 373.246C463.753 378.54 453.166 390.891 459.342 400.596C465.518 410.301 460.224 412.948 460.224 412.948L469.929 407.654L474.34 405.008V408.537L497.279 405.89C497.279 405.89 503.455 405.007 490.221 390.009C490.221 390.009 486.726 384.185 488.255 379.161C489.511 375.344 489.842 371.282 489.218 367.311C486.254 350.772 474.622 317.889 429.345 338.838Z" fill="#2F2E41"/>
<path d="M567.308 557.397C576.038 548.519 566.369 530.134 565.613 528.736L465.911 325.142C465.606 324.527 465.07 324.057 464.42 323.836C463.77 323.615 463.059 323.661 462.443 323.963C461.826 324.264 461.354 324.798 461.13 325.447C460.906 326.096 460.949 326.808 461.248 327.426L561 531.12L561.028 531.171C561.127 531.353 570.754 549.637 562.18 554.876C552.947 560.521 542.179 551.375 542.071 551.282C541.813 551.059 541.514 550.888 541.19 550.78C540.866 550.673 540.524 550.63 540.184 550.654C539.843 550.679 539.511 550.77 539.206 550.923C538.901 551.076 538.629 551.288 538.406 551.546C538.183 551.805 538.013 552.104 537.906 552.428C537.799 552.752 537.757 553.094 537.782 553.435C537.807 553.775 537.899 554.107 538.053 554.412C538.206 554.717 538.419 554.988 538.677 555.211C539.234 555.692 552.457 566.906 564.888 559.305C565.77 558.77 566.583 558.13 567.308 557.397V557.397Z" fill="#3F3D56"/>
<path d="M375.163 245.528L449.036 211.868C449.036 211.868 574.19 164.562 681.253 280.037C681.253 280.037 633.271 249.236 596.901 289.923C596.901 289.923 528.464 271.408 471.032 339.437C471.032 339.437 381.204 353.04 343.792 400.711C343.792 400.711 300.785 394.097 284.732 449.665L282.511 447.481C282.511 447.481 258.056 333.148 375.163 245.528Z" fill="#FF5F00"/>
<path d="M375.527 245.319C375.527 245.319 339.355 367.07 343.766 400.596Z" fill="#3F3D56"/>
<path d="M413.757 227.943C413.757 227.943 459.342 330.898 470.811 339.72Z" fill="#3F3D56"/>
<path d="M448.754 211.793C448.754 211.793 566.095 282.374 596.974 290.314Z" fill="#3F3D56"/>
<path d="M272.342 798.546C272.13 798.2 267.13 789.851 265.397 772.516C263.807 756.612 264.829 729.804 278.732 692.41C305.07 621.568 272.662 564.41 272.331 563.84L273.93 562.913C274.014 563.057 282.376 577.63 287.316 600.836C293.844 631.602 291.467 663.591 280.464 693.054C254.171 763.775 273.719 797.253 273.919 797.583L272.342 798.546Z" fill="#3F3D56"/>
<path d="M262.043 559.681C268.677 559.681 274.054 554.303 274.054 547.669C274.054 541.036 268.677 535.658 262.043 535.658C255.409 535.658 250.031 541.036 250.031 547.669C250.031 554.303 255.409 559.681 262.043 559.681Z" fill="#3F3D56"/>
<path d="M299.926 604.031C306.559 604.031 311.937 598.653 311.937 592.02C311.937 585.386 306.559 580.008 299.926 580.008C293.292 580.008 287.914 585.386 287.914 592.02C287.914 598.653 293.292 604.031 299.926 604.031Z" fill="#3F3D56"/>
<path d="M274.055 633.598C280.688 633.598 286.066 628.22 286.066 621.587C286.066 614.953 280.688 609.575 274.055 609.575C267.421 609.575 262.043 614.953 262.043 621.587C262.043 628.22 267.421 633.598 274.055 633.598Z" fill="#FF5F00"/>
<path d="M305.47 658.545C312.103 658.545 317.481 653.168 317.481 646.534C317.481 639.9 312.103 634.522 305.47 634.522C298.836 634.522 293.458 639.9 293.458 646.534C293.458 653.168 298.836 658.545 305.47 658.545Z" fill="#FF5F00"/>
<path d="M264.815 697.352C271.449 697.352 276.826 691.974 276.826 685.34C276.826 678.706 271.449 673.329 264.815 673.329C258.181 673.329 252.803 678.706 252.803 685.34C252.803 691.974 258.181 697.352 264.815 697.352Z" fill="#3F3D56"/>
<path d="M279.598 798.988C279.598 798.988 267.587 769.421 303.621 747.246L279.598 798.988Z" fill="#3F3D56"/>
<path d="M264.826 798.452C264.826 798.452 259.359 767.01 217.049 767.28L264.826 798.452Z" fill="#3F3D56"/>
<path d="M191.762 0L234.041 23.132L152.123 77.386L112.936 51.535L191.762 0Z" fill="#3F3D56"/>
<path d="M90.089 73.4929L0 131.572L41.837 156.437L131.892 96.3179L90.089 73.4929Z" fill="#3F3D56"/>
<path d="M106.67 44.6675C101.87 47.0052 97.6579 50.3955 94.3487 54.5861C91.0396 58.7766 88.7182 63.6596 87.5572 68.8715C87.0981 70.7682 87.177 72.7553 87.785 74.6096C88.393 76.4639 89.506 78.112 90.999 79.3686L117.043 101.364C118.916 102.942 121.225 103.914 123.664 104.149C126.102 104.384 128.554 103.872 130.694 102.681C141.283 96.8087 158.288 84.4822 150.695 68.8715C149.846 67.1376 148.548 65.663 146.935 64.6016L117.909 45.4074C116.263 44.3149 114.36 43.6719 112.388 43.5421C110.417 43.4123 108.445 43.8002 106.67 44.6675V44.6675Z" fill="#D0CDE1"/>
<path d="M185.56 114.007C199.69 95.0288 200.697 71.8651 187.809 62.2691C174.921 52.6732 153.018 60.2786 138.888 79.2565C124.758 98.2343 123.751 121.398 136.639 130.994C149.528 140.59 171.43 132.984 185.56 114.007Z" fill="#3F3D56"/>
<path opacity="0.2" d="M148.963 130.507C154.243 134.441 166.803 126.685 178.092 112.928C179.092 111.712 180.081 110.449 181.058 109.139C181.773 108.177 182.463 107.216 183.127 106.254C193.595 91.1283 197.733 76.2917 192.326 72.2665C186.879 68.209 173.701 76.5779 162.148 91.1374C161.503 91.9531 160.864 92.7852 160.231 93.6337C158.045 96.5659 156.022 99.6171 154.174 102.773C146.728 115.555 144.308 127.038 148.963 130.507Z" fill="black"/>
<path d="M154.174 102.773L178.092 112.928L195.205 120.193L197.736 116.777L183.127 106.254L162.148 91.1375C161.502 91.9532 160.864 92.7852 160.231 93.6337C158.045 96.5659 156.022 99.6171 154.174 102.773V102.773Z" fill="#D0CDE1"/>
<path d="M199.844 126.019C202.715 126.019 205.043 123.692 205.043 120.82C205.043 117.949 202.715 115.621 199.844 115.621C196.973 115.621 194.645 117.949 194.645 120.82C194.645 123.692 196.973 126.019 199.844 126.019Z" fill="#D0CDE1"/>
<path d="M201.37 175.739C201.7 175.437 202.107 175.23 202.546 175.139C230.548 169.354 248.168 153.231 256.411 125.851C256.602 125.219 257.036 124.688 257.618 124.376C258.2 124.064 258.881 123.995 259.514 124.186C260.146 124.376 260.677 124.809 260.99 125.391C261.302 125.972 261.371 126.654 261.182 127.286C252.485 156.173 233.097 173.914 203.554 180.019C203.019 180.129 202.463 180.061 201.972 179.825C201.48 179.588 201.079 179.197 200.831 178.711C200.583 178.225 200.501 177.671 200.599 177.134C200.696 176.597 200.967 176.107 201.37 175.739H201.37Z" fill="#FF5F00"/>
<path d="M194.478 154.062C194.809 153.76 195.215 153.552 195.654 153.463C216.65 149.124 229.861 137.035 236.042 116.506C236.233 115.874 236.667 115.344 237.249 115.032C237.831 114.72 238.512 114.652 239.145 114.842C239.777 115.032 240.307 115.466 240.62 116.047C240.933 116.628 241.002 117.31 240.813 117.942C234.15 140.073 219.296 153.665 196.662 158.342C196.128 158.452 195.572 158.384 195.08 158.148C194.588 157.912 194.187 157.52 193.939 157.034C193.691 156.548 193.61 155.994 193.707 155.458C193.804 154.921 194.075 154.431 194.478 154.063L194.478 154.062Z" fill="#FF5F00"/>
<path d="M211.552 197.937C211.882 197.634 212.289 197.427 212.728 197.337C240.673 191.563 271.232 163.601 279.458 136.277C279.649 135.645 280.083 135.115 280.665 134.803C281.246 134.491 281.928 134.423 282.56 134.613C283.192 134.803 283.723 135.236 284.036 135.817C284.348 136.399 284.418 137.08 284.229 137.713C275.539 166.578 243.257 196.117 213.736 202.216C213.201 202.327 212.646 202.259 212.154 202.022C211.662 201.786 211.261 201.395 211.013 200.909C210.765 200.423 210.683 199.869 210.781 199.332C210.878 198.795 211.149 198.305 211.552 197.937H211.552Z" fill="#FF5F00"/>
<path d="M729.909 0L687.63 23.132L769.547 77.386L808.734 51.535L729.909 0Z" fill="#3F3D56"/>
<path d="M831.582 73.4929L921.67 131.572L879.833 156.437L789.779 96.3179L831.582 73.4929Z" fill="#3F3D56"/>
<path d="M815 44.6675C819.801 47.0052 824.013 50.3955 827.322 54.5861C830.631 58.7767 832.952 63.6596 834.113 68.8715C834.572 70.7682 834.494 72.7553 833.886 74.6096C833.278 76.4639 832.165 78.112 830.672 79.3686L804.627 101.364C802.754 102.942 800.445 103.914 798.007 104.149C795.569 104.384 793.117 103.872 790.976 102.681C780.387 96.8087 763.382 84.4822 770.975 68.8715C771.824 67.1375 773.123 65.663 774.735 64.6015L803.761 45.4074C805.408 44.3149 807.311 43.6718 809.282 43.5421C811.254 43.4123 813.225 43.8002 815 44.6675V44.6675Z" fill="#D0CDE1"/>
<path d="M785.031 130.994C797.919 121.398 796.913 98.2344 782.782 79.2566C768.652 60.2787 746.75 52.6732 733.862 62.2692C720.973 71.8652 721.98 95.0289 736.11 114.007C750.24 132.985 772.143 140.59 785.031 130.994Z" fill="#3F3D56"/>
<path opacity="0.2" d="M772.708 130.507C767.427 134.441 754.868 126.685 743.578 112.928C742.578 111.712 741.59 110.449 740.613 109.139C739.897 108.177 739.208 107.216 738.544 106.254C728.076 91.1283 723.938 76.2917 729.345 72.2665C734.791 68.209 747.97 76.5779 759.523 91.1374C760.168 91.9531 760.807 92.7852 761.439 93.6337C763.626 96.5659 765.648 99.6171 767.497 102.773C774.943 115.555 777.363 127.038 772.708 130.507Z" fill="black"/>
<path d="M767.496 102.773L743.578 112.928L726.465 120.193L723.934 116.777L738.544 106.254L759.523 91.1375C760.168 91.9532 760.807 92.7852 761.439 93.6337C763.626 96.5659 765.648 99.6171 767.496 102.773V102.773Z" fill="#D0CDE1"/>
<path d="M721.826 126.019C724.698 126.019 727.025 123.692 727.025 120.82C727.025 117.949 724.698 115.621 721.826 115.621C718.955 115.621 716.627 117.949 716.627 120.82C716.627 123.692 718.955 126.019 721.826 126.019Z" fill="#D0CDE1"/>
<path d="M720.301 175.739C719.97 175.437 719.564 175.23 719.125 175.139C691.122 169.354 673.502 153.231 665.259 125.851C665.069 125.219 664.635 124.688 664.053 124.376C663.471 124.064 662.789 123.995 662.157 124.186C661.525 124.376 660.994 124.809 660.681 125.391C660.368 125.972 660.299 126.654 660.489 127.286C669.185 156.173 688.574 173.914 718.117 180.019C718.651 180.129 719.207 180.061 719.699 179.825C720.191 179.588 720.592 179.197 720.84 178.711C721.088 178.225 721.169 177.671 721.072 177.134C720.975 176.597 720.704 176.107 720.301 175.739H720.301Z" fill="#FF5F00"/>
<path d="M727.192 154.062C726.862 153.76 726.455 153.552 726.016 153.463C705.02 149.124 691.809 137.035 685.628 116.506C685.437 115.874 685.003 115.344 684.421 115.032C683.839 114.72 683.158 114.652 682.526 114.842C681.894 115.032 681.363 115.466 681.05 116.047C680.737 116.628 680.668 117.31 680.857 117.942C687.52 140.073 702.374 153.665 725.008 158.342C725.542 158.452 726.098 158.384 726.59 158.148C727.082 157.912 727.483 157.52 727.731 157.034C727.979 156.548 728.06 155.994 727.963 155.458C727.866 154.921 727.595 154.431 727.192 154.063V154.062Z" fill="#FF5F00"/>
<path d="M710.118 197.937C709.788 197.634 709.381 197.427 708.942 197.337C680.997 191.563 650.438 163.601 642.212 136.277C642.021 135.645 641.587 135.115 641.005 134.803C640.424 134.491 639.742 134.423 639.11 134.613C638.478 134.803 637.947 135.236 637.634 135.817C637.322 136.399 637.252 137.08 637.442 137.713C646.131 166.578 678.413 196.117 707.934 202.216C708.469 202.327 709.025 202.259 709.517 202.022C710.008 201.786 710.409 201.395 710.657 200.909C710.905 200.423 710.987 199.869 710.889 199.332C710.792 198.795 710.521 198.305 710.118 197.937V197.937Z" fill="#FF5F00"/>
</g>
<defs>
<clipPath id="clip0_24_522">
<rect width="921.67" height="831.295" fill="white"/>
</clipPath>
</defs>
</svg>
