<svg width="974" height="588" viewBox="0 0 974 588" fill="none" xmlns="http://www.w3.org/2000/svg">
<g clip-path="url(#clip0_24_51)">
<path d="M561.878 471.613C559.605 471.613 557.384 472.287 555.494 473.549C553.605 474.812 552.132 476.606 551.262 478.706C550.393 480.806 550.165 483.116 550.608 485.345C551.052 487.573 552.146 489.621 553.753 491.228C555.36 492.835 557.407 493.929 559.636 494.372C561.865 494.816 564.175 494.588 566.275 493.718C568.374 492.849 570.169 491.376 571.431 489.487C572.694 487.597 573.368 485.376 573.368 483.103C573.368 480.056 572.157 477.133 570.002 474.978C567.848 472.824 564.925 471.613 561.878 471.613ZM561.878 490.174C560.479 490.174 559.112 489.759 557.949 488.982C556.786 488.205 555.88 487.101 555.345 485.809C554.81 484.517 554.67 483.095 554.943 481.724C555.215 480.352 555.889 479.092 556.878 478.103C557.867 477.114 559.127 476.441 560.498 476.168C561.87 475.895 563.292 476.035 564.584 476.57C565.876 477.105 566.98 478.012 567.757 479.175C568.534 480.337 568.949 481.705 568.949 483.103V483.103C568.949 484.978 568.204 486.777 566.878 488.103C565.552 489.429 563.753 490.174 561.878 490.174V490.174Z" fill="#E4E4E4"/>
<path d="M517.685 462.774H561.878V506.513C561.878 508.04 561.271 509.504 560.191 510.584C559.112 511.663 557.647 512.27 556.121 512.27H523.442C521.915 512.27 520.45 511.663 519.371 510.584C518.291 509.504 517.685 508.04 517.685 506.513V462.774V462.774Z" fill="#E4E4E4"/>
<path d="M665.133 513.271H0.896286C0.649952 513.244 0.422266 513.127 0.256866 512.942C0.0914674 512.758 0 512.519 0 512.271C0 512.023 0.0914674 511.784 0.256866 511.6C0.422266 511.415 0.649952 511.298 0.896286 511.271H665.133C665.38 511.298 665.607 511.415 665.773 511.6C665.938 511.784 666.03 512.023 666.03 512.271C666.03 512.519 665.938 512.758 665.773 512.942C665.607 513.127 665.38 513.244 665.133 513.271V513.271Z" fill="#CACACA"/>
<path d="M89.4098 494.381L85.3018 514.694L161.695 540.208L167.759 510.228L89.4098 494.381Z" fill="#FFB6B6"/>
<path d="M97.0902 490.542L88.999 530.545L88.9987 530.546C87.6305 537.307 83.6329 543.248 77.8851 547.061C72.1372 550.875 65.1099 552.249 58.3489 550.882L57.5205 550.714L70.7683 485.218L97.0902 490.542Z" fill="#2F2E41"/>
<path d="M175.979 214.584C204.627 214.584 227.85 191.361 227.85 162.713C227.85 134.065 204.627 110.842 175.979 110.842C147.332 110.842 124.108 134.065 124.108 162.713C124.108 191.361 147.332 214.584 175.979 214.584Z" fill="#FEB8B8"/>
<path d="M224.427 117.963C216.672 105.37 204.533 96.0904 190.346 91.9109L183.978 96.5579V90.5239C180.571 90.0025 177.123 89.8016 173.678 89.9239L168.184 94.8949V90.3369C160.05 91.3477 152.213 94.033 145.168 98.2234C138.123 102.414 132.023 108.018 127.252 114.684C115.321 131.884 113.307 155.813 125.042 173.151C128.263 163.251 132.173 153.962 135.395 144.063C137.927 144.408 140.493 144.42 143.028 144.1L146.947 134.955L148.042 143.713C160.19 142.655 178.208 140.331 189.724 138.202L188.604 131.483L195.304 137.066C198.832 136.254 200.927 135.517 200.754 134.954C209.319 148.762 219.801 157.581 228.365 171.389C231.618 151.919 235.362 135.73 224.427 117.963Z" fill="#2F2E41"/>
<path d="M192.856 502.146C266.62 502.146 326.416 485.42 326.416 464.787C326.416 444.154 266.62 427.428 192.856 427.428C119.093 427.428 59.2964 444.154 59.2964 464.787C59.2964 485.42 119.093 502.146 192.856 502.146Z" fill="#2F2E41"/>
<path d="M287.539 296.101C285.755 285.37 283.916 274.433 278.928 264.766C275.65 258.434 270.447 252.4 263.433 251.148C262.051 251.025 260.694 250.711 259.398 250.214C257.343 249.224 229.725 233.458 225.335 230.712C221.566 228.355 215.617 223.99 212.617 223.99C209.599 223.923 198.026 226.617 152.856 223.086C145.259 226.136 137.901 229.753 130.846 233.908C130.701 233.812 83.9644 258.909 82.2085 258.843C78.8833 258.703 75.7925 260.832 73.8862 263.513C71.9805 266.194 71.0864 269.513 70.1504 272.722C80.3584 295.455 89.6982 318.217 99.9072 340.95C100.385 341.806 100.639 342.769 100.646 343.75C100.44 344.768 100.006 345.725 99.3755 346.55C94.3692 354.592 94.5283 364.707 95.0752 374.159C95.6226 383.611 96.2993 393.595 92.0752 402.067C90.9263 404.393 89.4321 406.522 88.3394 408.848C85.7803 414.116 84.8555 430.965 86.3501 436.625L273.617 441.99C269.59 430.922 287.539 296.101 287.539 296.101Z" fill="#FF5F00"/>
<path d="M53.9633 341.958C53.5897 344.661 53.552 347.4 53.8513 350.112L56.5353 388.658C56.7873 392.291 57.0353 395.915 57.3763 399.539C58.0203 406.572 58.9823 413.549 60.1763 420.516C60.2033 421.505 60.6216 422.443 61.3395 423.124C62.0573 423.805 63.0161 424.174 64.0053 424.149C75.8203 426.649 88.0273 426.549 100.085 425.868C118.485 424.841 165.559 422.898 168.435 419.162C171.311 415.426 169.635 409.383 165.885 406.362C162.135 403.341 100.014 395.976 100.014 395.976C100.621 391.166 102.452 386.636 104.189 382.069C107.309 373.969 110.223 365.603 110.279 356.926C110.335 348.249 107.066 339.126 99.9583 334.155C94.1113 330.074 86.5833 329.317 79.4583 329.485C74.2743 329.634 65.3173 328.392 60.5823 330.419C56.8353 332.069 54.6633 338.289 53.9633 341.958Z" fill="#FBBEBE"/>
<path d="M287.871 429.091C290.981 427.905 294.409 428.334 297.743 428.783C308.475 430.249 319.365 431.753 329.312 436.04C333.982 438.04 338.428 440.71 341.585 444.64C344.385 448.18 346.021 452.514 347.572 456.782L351.159 466.608C352.684 470.299 353.736 474.169 354.288 478.124C355.409 489.883 347.367 500.969 337.252 507.078C327.137 513.187 315.229 515.362 303.628 517.641C292.027 519.92 280.381 522.441 268.828 525.113C263.439 526.511 257.972 527.587 252.455 528.335C240.089 529.735 227.163 527.672 215.413 531.763C210.743 533.398 206.157 535.826 201.313 536.956C198.093 537.633 194.838 538.129 191.562 538.441L169.324 540.981C164.802 541.586 160.25 541.935 155.688 542.027C145.975 542.027 136.42 539.727 126.988 537.427C125.986 537.251 125.032 536.866 124.188 536.297C122.694 535.12 122.367 533.037 122.152 531.151C121.199 522.801 120.366 514.442 119.652 506.074C119.428 503.356 119.26 500.414 120.745 498.126C122.613 495.326 126.256 494.446 129.581 493.904C143.68 491.597 157.963 490.606 172.246 490.943C177.672 485.517 186.62 485.489 193.728 482.537C196.343 481.336 198.874 479.96 201.303 478.418C214.017 471 228.225 466.511 242.893 465.277C245.766 465.189 248.62 464.782 251.402 464.063C256.902 462.354 261.919 457.702 267.569 458.842C268.269 456.909 268.755 454.321 270.369 452.995C271.169 452.313 272.162 451.856 272.9 451.127C274.46 449.549 274.6 447.064 274.366 444.86C274.132 442.656 273.609 440.396 274.179 438.247C274.416 437.434 274.765 436.657 275.216 435.94C278.008 431.108 282.239 428.624 287.871 429.091Z" fill="#2F2E41"/>
<path d="M69.6103 273.414C68.7006 274.367 67.9951 275.495 67.5373 276.73C59.9876 293.745 55.5283 311.968 54.3682 330.546C54.3886 331.452 54.1798 332.348 53.7613 333.152C53.3485 333.687 52.889 334.184 52.3883 334.637C51.9517 335.155 51.6213 335.753 51.416 336.398C51.2107 337.044 51.1346 337.723 51.1918 338.398C51.2491 339.072 51.4386 339.729 51.7497 340.33C52.0608 340.932 52.4873 341.466 53.0049 341.903C53.0898 341.974 53.1769 342.043 53.2662 342.109C54.8072 339.209 58.4962 338.261 61.7752 338.009C77.4752 336.767 92.8113 344.071 108.558 343.52C107.447 339.681 105.849 335.992 104.943 332.107C100.936 314.856 110.93 296.074 104.803 279.458C103.579 276.133 101.534 272.864 98.3122 271.407C96.9781 270.869 95.5819 270.499 94.1562 270.307C90.1772 269.588 82.2562 266.515 78.4092 267.748C76.9892 268.206 76.4292 269.541 75.2522 270.348C73.4642 271.49 71.0923 271.91 69.6103 273.414Z" fill="#FF5F00"/>
<path d="M287.651 330.419C282.916 328.392 273.959 329.634 268.775 329.485C261.65 329.317 254.122 330.074 248.275 334.155C241.167 339.126 237.898 348.249 237.954 356.926C238.01 365.603 240.924 373.969 244.044 382.069C245.781 386.636 247.612 391.166 248.219 395.976C248.219 395.976 186.098 403.341 182.348 406.362C178.598 409.383 176.922 415.426 179.798 419.162C182.674 422.898 272.413 426.649 284.228 424.149C285.218 424.174 286.176 423.805 286.894 423.124C287.612 422.443 288.03 421.505 288.057 420.516C289.251 413.549 290.213 406.572 290.857 399.539C291.198 395.915 291.446 392.291 291.698 388.658L294.382 350.112C294.682 347.4 294.644 344.661 294.27 341.958C293.57 338.289 291.398 332.069 287.651 330.419Z" fill="#FBBEBE"/>
<path d="M272.981 270.348C271.804 269.541 271.244 268.206 269.824 267.748C265.977 266.515 258.056 269.588 254.077 270.307C252.652 270.499 251.255 270.869 249.921 271.407C246.699 272.864 244.654 276.133 243.43 279.458C237.303 296.074 247.297 314.856 243.29 332.107C242.384 335.992 240.786 339.681 239.675 343.52C255.422 344.071 270.758 336.767 286.458 338.009C289.737 338.261 293.426 339.209 294.967 342.109C295.057 342.043 295.144 341.974 295.229 341.903C295.746 341.466 296.173 340.932 296.484 340.33C296.795 339.729 296.984 339.072 297.042 338.398C297.099 337.723 297.023 337.044 296.818 336.398C296.612 335.753 296.282 335.155 295.845 334.637C295.345 334.184 294.885 333.687 294.472 333.152C294.054 332.348 293.845 331.452 293.865 330.546C292.705 311.968 288.246 293.745 280.696 276.73C280.238 275.495 279.533 274.367 278.623 273.414C277.141 271.91 274.769 271.49 272.981 270.348Z" fill="#FF5F00"/>
<path d="M299.243 523.378L296.513 543.921L215.975 543.166L220.005 512.846L299.243 523.378Z" fill="#FFB6B6"/>
<path d="M319.853 520.785L311.049 587.025L310.211 586.914C303.374 586.005 297.177 582.417 292.984 576.939C288.792 571.462 286.947 564.543 287.855 557.705L287.855 557.704L293.232 517.247L319.853 520.785Z" fill="#2F2E41"/>
<path d="M109.769 439.487C109.769 440.421 108.303 439.487 108.169 438.487C107.142 430.931 101.145 424.701 94.1593 421.675C87.1733 418.649 79.2153 418.49 71.6503 419.209C60.2093 420.292 47.3663 424.673 43.1823 435.367C42.1923 437.867 32.9183 460.127 33.8233 465.133C36.2613 478.489 45.3953 489.912 56.4633 497.823C67.5313 505.734 80.4633 510.46 93.3633 514.723C127.469 525.971 162.462 534.329 197.97 539.707C203.723 540.576 209.533 541.379 215.043 543.228C219.974 544.881 224.588 547.356 229.408 549.299C240.616 553.799 252.674 555.407 264.619 556.986C266.655 557.248 268.99 557.434 270.494 556.052C272.437 554.252 271.794 551.111 271.241 548.524C269.214 538.687 270.915 528.448 276.014 519.795C278.014 516.433 280.614 512.986 280.236 509.095C279.788 504.556 275.267 501.343 270.765 500.614C266.263 499.885 261.687 500.96 257.165 501.548C255.616 501.904 253.992 501.743 252.542 501.09C251.87 500.636 251.261 500.097 250.73 499.484C247.616 496.48 243.631 494.539 239.345 493.94C235.06 493.341 230.695 494.115 226.876 496.15C225.204 497.084 222.676 495.001 220.936 494.217L201.294 485.325C178.729 475.117 156.052 464.861 132.179 458.398C130.274 458.023 128.464 457.271 126.855 456.184C125.669 455.25 124.819 453.984 123.726 452.943C121.344 450.692 118.026 449.795 115.171 448.198C112.316 446.601 109.115 442.69 109.769 439.487Z" fill="#2F2E41"/>
<path d="M160.617 425.99C168.349 425.99 174.617 419.722 174.617 411.99C174.617 404.258 168.349 397.99 160.617 397.99C152.885 397.99 146.617 404.258 146.617 411.99C146.617 419.722 152.885 425.99 160.617 425.99Z" fill="#FBBEBE"/>
<path d="M191.617 425.99C199.349 425.99 205.617 419.722 205.617 411.99C205.617 404.258 199.349 397.99 191.617 397.99C183.885 397.99 177.617 404.258 177.617 411.99C177.617 419.722 183.885 425.99 191.617 425.99Z" fill="#FBBEBE"/>
<path d="M278.035 443.537H85.6963C83.4507 443.535 81.2978 442.641 79.7099 441.054C78.122 439.466 77.2287 437.313 77.2261 435.067V318.381C77.2287 316.135 78.122 313.982 79.7099 312.395C81.2978 310.807 83.4507 309.914 85.6963 309.911H278.035C280.281 309.914 282.434 310.807 284.022 312.395C285.609 313.982 286.503 316.135 286.505 318.381V435.067C286.503 437.313 285.609 439.466 284.022 441.054C282.434 442.641 280.281 443.535 278.035 443.537Z" fill="#3F3D56"/>
<path d="M181.399 382.328C184.494 382.328 187.003 379.819 187.003 376.724C187.003 373.629 184.494 371.12 181.399 371.12C178.304 371.12 175.795 373.629 175.795 376.724C175.795 379.819 178.304 382.328 181.399 382.328Z" fill="white"/>
<path d="M868.03 210.452H618.137C616.811 210.451 615.54 209.923 614.603 208.986C613.666 208.049 613.138 206.778 613.137 205.452V158.352H615.137V205.452C615.138 206.248 615.454 207.01 616.016 207.573C616.579 208.135 617.341 208.451 618.137 208.452H868.03C868.825 208.451 869.587 208.135 870.15 207.573C870.712 207.01 871.029 206.248 871.03 205.452V158.023H873.03V205.452C873.028 206.778 872.501 208.049 871.563 208.986C870.626 209.923 869.355 210.451 868.03 210.452V210.452Z" fill="#3F3D56"/>
<path d="M958.617 157.352H371.397V159.352H958.617V157.352Z" fill="#3F3D56"/>
<path d="M371.439 175.398C380.94 175.398 388.641 167.696 388.641 158.196C388.641 148.695 380.94 140.994 371.439 140.994C361.939 140.994 354.237 148.695 354.237 158.196C354.237 167.696 361.939 175.398 371.439 175.398Z" fill="#FF5F00"/>
<path d="M546.244 175.398C555.745 175.398 563.446 167.696 563.446 158.196C563.446 148.695 555.745 140.994 546.244 140.994C536.744 140.994 529.042 148.695 529.042 158.196C529.042 167.696 536.744 175.398 546.244 175.398Z" fill="#FF5F00"/>
<path d="M664.876 225.959C674.377 225.959 682.078 218.257 682.078 208.757C682.078 199.257 674.377 191.555 664.876 191.555C655.376 191.555 647.674 199.257 647.674 208.757C647.674 218.257 655.376 225.959 664.876 225.959Z" fill="#3F3D56"/>
<path d="M755.063 225.959C764.564 225.959 772.265 218.257 772.265 208.757C772.265 199.257 764.564 191.555 755.063 191.555C745.563 191.555 737.861 199.257 737.861 208.757C737.861 218.257 745.563 225.959 755.063 225.959Z" fill="#CCCCCC"/>
<path d="M711.36 175.398C720.861 175.398 728.562 167.696 728.562 158.196C728.562 148.695 720.861 140.994 711.36 140.994C701.86 140.994 694.158 148.695 694.158 158.196C694.158 167.696 701.86 175.398 711.36 175.398Z" fill="#FF5F00"/>
<path d="M956.26 175.398C965.76 175.398 973.462 167.696 973.462 158.196C973.462 148.695 965.76 140.994 956.26 140.994C946.759 140.994 939.058 148.695 939.058 158.196C939.058 167.696 946.759 175.398 956.26 175.398Z" fill="#FF5F00"/>
<path d="M872.029 175.398C881.53 175.398 889.231 167.696 889.231 158.196C889.231 148.695 881.53 140.994 872.029 140.994C862.529 140.994 854.827 148.695 854.827 158.196C854.827 167.696 862.529 175.398 872.029 175.398Z" fill="#FF5F00"/>
<path d="M680.446 0H648.54V21.9898H680.446V0Z" fill="#3F3D56"/>
<path d="M387.519 0H355.612V21.9898H387.519V0Z" fill="#FF5F00"/>
<path d="M495.591 0H463.685V21.9898H495.591V0Z" fill="#CCCCCC"/>
<path d="M424.782 159.352C424.517 159.352 424.263 159.247 424.075 159.059C423.888 158.872 423.782 158.617 423.782 158.352V108.99C423.784 107.664 424.311 106.393 425.248 105.456C426.186 104.519 427.457 103.991 428.782 103.99H477.457C477.722 103.99 477.977 104.095 478.164 104.283C478.352 104.47 478.457 104.725 478.457 104.99C478.457 105.255 478.352 105.509 478.164 105.697C477.977 105.884 477.722 105.99 477.457 105.99H428.782C427.987 105.991 427.224 106.307 426.662 106.869C426.099 107.432 425.783 108.194 425.782 108.99V158.352C425.782 158.617 425.677 158.872 425.489 159.059C425.302 159.247 425.047 159.352 424.782 159.352V159.352Z" fill="#3F3D56"/>
<path d="M479.744 121.818C489.245 121.818 496.946 114.116 496.946 104.616C496.946 95.1157 489.245 87.4141 479.744 87.4141C470.244 87.4141 462.542 95.1157 462.542 104.616C462.542 114.116 470.244 121.818 479.744 121.818Z" fill="#E6E6E6"/>
<path d="M809.782 158.352H807.782V108.99C807.784 107.664 808.311 106.393 809.248 105.456C810.186 104.519 811.457 103.991 812.782 103.99H861.457V105.99H812.782C811.987 105.991 811.224 106.307 810.662 106.869C810.099 107.432 809.783 108.194 809.782 108.99V158.352Z" fill="#3F3D56"/>
<path d="M863.744 121.818C873.245 121.818 880.946 114.116 880.946 104.616C880.946 95.1157 873.245 87.4141 863.744 87.4141C854.244 87.4141 846.542 95.1157 846.542 104.616C846.542 114.116 854.244 121.818 863.744 121.818Z" fill="#E6E6E6"/>
</g>
<defs>
<clipPath id="clip0_24_51">
<rect width="973.461" height="587.025" fill="white"/>
</clipPath>
</defs>
</svg>
