<?xml version="1.0" standalone="no"?>
<svg xmlns:xlink="http://www.w3.org/1999/xlink" id="wave" style="transform:rotate(0deg); transition: 0.3s" viewBox="0 0 1440 280" version="1.1" xmlns="http://www.w3.org/2000/svg">

	<path fill="white" d="M0,196L60,182C120,168,240,140,360,121.3C480,103,600,93,720,116.7C840,140,960,196,1080,196C1200,196,1320,140,1440,130.7C1560,121,1680,159,1800,158.7C1920,159,2040,121,2160,88.7C2280,56,2400,28,2520,56C2640,84,2760,168,2880,177.3C3000,187,3120,121,3240,84C3360,47,3480,37,3600,56C3720,75,3840,121,3960,130.7C4080,140,4200,112,4320,84C4440,56,4560,28,4680,23.3C4800,19,4920,37,5040,65.3C5160,93,5280,131,5400,149.3C5520,168,5640,168,5760,163.3C5880,159,6000,149,6120,154C6240,159,6360,177,6480,168C6600,159,6720,121,6840,98C6960,75,7080,65,7200,65.3C7320,65,7440,75,7560,88.7C7680,103,7800,121,7920,135.3C8040,149,8160,159,8280,168C8400,177,8520,187,8580,191.3L8640,196L8640,280L8580,280C8520,280,8400,280,8280,280C8160,280,8040,280,7920,280C7800,280,7680,280,7560,280C7440,280,7320,280,7200,280C7080,280,6960,280,6840,280C6720,280,6600,280,6480,280C6360,280,6240,280,6120,280C6000,280,5880,280,5760,280C5640,280,5520,280,5400,280C5280,280,5160,280,5040,280C4920,280,4800,280,4680,280C4560,280,4440,280,4320,280C4200,280,4080,280,3960,280C3840,280,3720,280,3600,280C3480,280,3360,280,3240,280C3120,280,3000,280,2880,280C2760,280,2640,280,2520,280C2400,280,2280,280,2160,280C2040,280,1920,280,1800,280C1680,280,1560,280,1440,280C1320,280,1200,280,1080,280C960,280,840,280,720,280C600,280,480,280,360,280C240,280,120,280,60,280L0,280Z" />
</svg>