<?xml version="1.0" encoding="UTF-8"?>
<svg id="Camada_2" data-name="Camada 2" xmlns="http://www.w3.org/2000/svg" xmlns:xlink="http://www.w3.org/1999/xlink" viewBox="0 0 465.03 500">
  <defs>
    <style>
      .cls-1 {
        fill: #7cc6d3;
      }

      .cls-2 {
        stroke-width: 3.17px;
      }

      .cls-2, .cls-3, .cls-4, .cls-5, .cls-6, .cls-7, .cls-8, .cls-9, .cls-10, .cls-11, .cls-12 {
        fill: none;
      }

      .cls-2, .cls-4, .cls-5, .cls-12 {
        stroke: #fff;
      }

      .cls-2, .cls-5, .cls-6, .cls-8, .cls-9, .cls-10, .cls-12 {
        stroke-linecap: round;
        stroke-linejoin: round;
      }

      .cls-13 {
        fill: #865b49;
      }

      .cls-14 {
        fill: #fff;
      }

      .cls-15 {
        fill: #539da5;
      }

      .cls-3 {
        opacity: .37;
      }

      .cls-16 {
        fill: #a4755f;
      }

      .cls-17 {
        fill: #eac096;
      }

      .cls-18 {
        fill: #2d2429;
      }

      .cls-19 {
        fill: #ebbf54;
      }

      .cls-20 {
        fill: #070707;
      }

      .cls-20, .cls-21 {
        opacity: .07;
      }

      .cls-22 {
        fill: #b0bdfc;
      }

      .cls-4 {
        stroke-miterlimit: 10;
      }

      .cls-4, .cls-12 {
        stroke-width: 1.5px;
      }

      .cls-23 {
        fill: #364968;
      }

      .cls-24 {
        fill: #97c697;
      }

      .cls-25 {
        fill: #4c9393;
      }

      .cls-26 {
        fill: #364e70;
      }

      .cls-27 {
        fill: #e59a53;
        opacity: .32;
      }

      .cls-28 {
        opacity: .05;
      }

      .cls-28, .cls-21 {
        fill: #0d0d0d;
      }

      .cls-29 {
        fill: #f6f6fc;
      }

      .cls-5 {
        stroke-width: 1.98px;
      }

      .cls-30 {
        fill: #f7f5ec;
      }

      .cls-31 {
        fill: #d78a49;
      }

      .cls-32 {
        fill: #d3675e;
      }

      .cls-33 {
        fill: #abdbac;
      }

      .cls-34 {
        fill: #6bb7bf;
      }

      .cls-35 {
        fill: #efd97a;
      }

      .cls-36 {
        fill: #f6b684;
      }

      .cls-37 {
        fill: #ebc397;
      }

      .cls-6 {
        stroke-dasharray: 0 0 6 9.99;
      }

      .cls-6, .cls-9 {
        stroke: #b0bdfc;
        stroke-width: 3px;
      }

      .cls-38 {
        fill: #443b41;
      }

      .cls-7 {
        clip-path: url(#clippath);
      }

      .cls-8 {
        stroke: #7cc6d3;
      }

      .cls-39 {
        fill: #88d9e2;
      }

      .cls-10 {
        stroke: #c9d2f9;
        stroke-width: 6.46px;
      }

      .cls-11 {
        clip-path: url(#clippath-1);
      }

      .cls-40 {
        fill: #74cace;
      }

      .cls-41 {
        fill: #465c85;
      }

      .cls-42 {
        fill: #4e4449;
      }
    </style>
    <clipPath id="clippath">
      <rect class="cls-10" x="276.78" y="29.09" width="160.39" height="116.44"/>
    </clipPath>
    <clipPath id="clippath-1">
      <rect class="cls-10" x="12.18" y="65.57" width="160.39" height="116.44"/>
    </clipPath>
  </defs>
  <g id="OBJECTS">
    <g>
      <path class="cls-29" d="m42.16,466.5s-30.25-40.65-25.84-93.22c3.1-36.98,33.17-53.43,45.12-88.07,11.96-34.64-22.31-95.98-5.77-127.15,32.06-60.43,93.47-70.47,134.43-46.82,40.96,23.65,47.76,53.2,70.41,40.12,22.65-13.07,47.41-44.6,105.53-26.6,46.09,14.27,83.97,58.12,75,120.2-6.55,45.28-66.7,86.38-35.88,133.67,30.82,47.29-13.27,87.88-13.27,87.88H42.16Z"/>
      <g>
        <path class="cls-9" d="m98.19,330.57s-.71-.79-1.94-2.28"/>
        <path class="cls-6" d="m90.18,320.36c-12.28-17.09-34.06-53.88-31.46-96.86,2.39-39.46,17.5-107.29,74.5-127.75,35.23-12.65,79.1,12.22,122.13,3.54,43.03-8.67,92.27-17.72,115.61-7.03,29.8,13.65,83.08,87.73,21.11,156.64"/>
        <path class="cls-9" d="m388.67,252.57c-.69.71-1.39,1.43-2.1,2.14"/>
      </g>
      <g>
        <rect class="cls-14" x="276.78" y="29.09" width="160.39" height="116.44"/>
        <g>
          <g class="cls-7">
            <g>
              <path class="cls-36" d="m325.8,133c-4.36,5.26-14.68,35.72-14.68,35.72l8.97-3.29s22.66-37.11,18.45-38.41c-4.21-1.29-8.38.7-12.74,5.97Z"/>
              <path class="cls-36" d="m376.44,153.67c.87,8.75-39.66.41-39.43-6.94.21-6.92,2.21-19.31,3.55-23.99,3.78-13.24,13.91-2.11,23.59-3.41,2.57,8.05,7.42,12.74,12.3,34.34Z"/>
              <path class="cls-41" d="m386.62,129.99c-.66-1.24-20.55-5.86-20.55-5.86,0,0-14.16,7.77-25.9.26,0,0,.52-1.24-8.81,3.62-4.52,2.35-8.22,28.61-8.6,33.66-.39,5.2-7.35,48.97-6.96,66.61,8.98,5.1,67.37-2.4,67.37-2.4,0,0,.6-44.83-3.26-73.92-.05-.41,1.85-.24,2.16-.75,2.19-3.56,5.87-18.1,4.55-21.22Z"/>
              <path class="cls-41" d="m322.68,136.07s-4.01,6.88-5.3,10.9l-1.29,4.01,11.04,2.15,5.59-25.66s-5.16,1.86-10.04,8.6Z"/>
              <polygon class="cls-20" points="324.4 141.13 322.83 152.29 323.92 152.29 324.4 141.13"/>
              <g>
                <g>
                  <g>
                    <g>
                      <path class="cls-36" d="m359.32,59.31s6.02,1.23,12.41,4.69c6.55,3.54,13.48,9.43,14.68,18.73.69,5.36.4,10.56-.87,15.37-3.09,11.68-11.95,20.96-26.4,24.17-10.2,2.26-21.36,1.21-29.82-4.6-8.46-5.8-13.83-18.53-12.12-29.32,1.71-10.8,6.46-16.65,13.92-21.86,7.46-5.21,17.23-7.61,28.2-7.16Z"/>
                      <path class="cls-14" d="m348.58,102.3c-3.5,0-5.95-.03-7.51-.41-1.29-.31-2.24-.45-2.1.49.35,2.32,2.41,4.08,4.79,4.41,2.73.38,4.63-.69,6.19-2.77.84-1.11.1-1.72-1.37-1.72h0Z"/>
                      <path class="cls-31" d="m344.16,98.65s-.04,0-.06,0c-.1,0-.97-.06-1.54-.2-1.37-.35-1.88-1.05-2.06-1.58-.19-.55-.23-1.45.69-2.66.81-1.07.89-3.18.86-3.91-.02-.38.27-.71.66-.73,0,0,.01,0,.02,0,.38-.01.69.28.72.66,0,.13.15,3.13-1.14,4.83-.42.55-.6,1.04-.49,1.36.1.29.49.54,1.09.69.37.09,1.05.15,1.27.16.38.02.68.35.66.73-.02.36-.31.64-.67.66Z"/>
                      <path class="cls-27" d="m319.23,105.15c.98.45,2.08.69,3.24.65,3.95-.13,7.05-3.44,6.92-7.39-.13-3.95-3.44-7.05-7.39-6.92-1.48.05-2.84.54-3.96,1.35"/>
                    </g>
                    <path class="cls-38" d="m329.02,90.5c-.05,1.47.75,2.69,1.78,2.73,1.04.04,1.93-1.12,1.98-2.59.05-1.47-.75-2.69-1.79-2.73-1.04-.04-1.93,1.12-1.98,2.59Z"/>
                  </g>
                  <path class="cls-27" d="m378.84,99.65c.14,4.22-3.17,7.74-7.38,7.88-4.21.14-7.74-3.17-7.88-7.38-.14-4.21,3.17-7.74,7.38-7.88,4.21-.14,7.74,3.17,7.88,7.38Z"/>
                  <g>
                    <path class="cls-36" d="m378.55,105.3c.4.1,1.29.2,1.72.19,2.58-.08,4.6-2.24,4.52-4.82-.08-2.58-2.24-4.6-4.82-4.52-.65.02-1.52-.19-2.07.07,0,0,.8,2.77.72,5.93l-.07,3.16Z"/>
                    <g class="cls-3">
                      <path class="cls-31" d="m382.46,101.72c-.34.01-.64-.22-.71-.56-.38-1.93-2.19-2.14-2.27-2.15-.38-.04-.67-.38-.63-.76.04-.38.38-.66.76-.63,1.01.09,3.05.89,3.52,3.27.07.38-.17.75-.55.82-.04,0-.08.01-.11.01Z"/>
                    </g>
                  </g>
                  <path class="cls-35" d="m392.82,119.1c9.84-2.33,16.31-11.83,12.91-19.17-3.4-7.34-5.61-22.2-15.53-38.12-7.05-11.31-27.56-15.96-42.49-13.35-14.25,2.49-25.6,5.28-32.83,32.01-7.22,26.73-7.5,23.53-9.76,26.97-2.26,3.43,6.82,13.79,26.71,11.77l-3.02-1.9s-7.17-4.26-9.26-17.85c-2.09-13.59,6-28.41,6-28.41,0,0,22.84,14.91,40.49,17.01,9.63,1.15,11,13.68,7.8,17.64-6.07,7.52,3.07,17.16,18.98,13.4Z"/>
                </g>
                <path class="cls-20" d="m340.67,122.47s15.97,1.51,20.94-.79c0,0-5.61,4.12-21.32,2.36l.38-1.57Z"/>
                <path class="cls-38" d="m362.78,95.1c-.09,0-.18-.02-.26-.07l-3.77-2.02c-.18-.1-.3-.29-.29-.5,0-.21.12-.39.31-.49l3.77-1.87c.27-.14.61-.03.74.25.14.27.02.61-.25.74l-2.81,1.39,2.82,1.51c.27.14.37.48.23.75-.1.19-.29.29-.49.29Z"/>
              </g>
              <g>
                <path class="cls-23" d="m384.23,132.02s1.98-2.96,2.44-1.92c.46,1.04.43,1.87.43,1.87l-2.87.05Z"/>
                <path class="cls-23" d="m380.46,148.29s1.83.09,3.05.31c0,0-.24,1.65-.7,2.11-1.99,1.99-2.24-.79-2.35-2.42Z"/>
                <path class="cls-36" d="m412.73,82c-.65-.17-1.14.22-1.36.73-.78,1.82-1.63,5.18-2,6.73l-.06-.2c.2-1.7.56-5.04.41-6.07-.14-.9-1.54-1.07-1.86.15-.36,1.39-1.08,4.45-1.67,6.85-.19.41-.38.84-.58,1.29-.12-.01-.27-.1-.44-.29-.85-.89-2.47-2.3-3.26-1.41-.49,1.27.76,1.59,1.93,4.16.12.25.13.72.09,1.29-1.15,6.47-8.29,37.47-8.29,37.47-7.21-.98-6.51-.68-11.41-.68,0,0-3.78,7.4-3.76,16.3,2.99.53,19,1.35,24.88-3.09,3.66-2.76,6.56-37.71,6.68-44.81.47-1.58,1.33-3.65,2.01-4.58.35-.48,2.76-4.96,3.58-7.59.36-1.15-.16-1.9-1.2-1.35-.81.42-2.76,4.69-2.76,4.69,0,0,1.48-5.29,1.63-6.13.14-.84-.01-1.8-.63-2-.94-.09-2.1,3.18-2.75,5.32.43-1.54,1.02-3.76,1.36-5.45.13-.66-.16-1.15-.54-1.32Z"/>
              </g>
            </g>
          </g>
          <rect class="cls-10" x="276.78" y="29.09" width="160.39" height="116.44"/>
        </g>
        <g>
          <rect class="cls-18" x="280.12" y="32.43" width="153.72" height="5.59"/>
          <g>
            <path class="cls-32" d="m285.66,35.11c0,.92-.75,1.67-1.67,1.67s-1.67-.75-1.67-1.67.75-1.67,1.67-1.67,1.67.75,1.67,1.67Z"/>
            <path class="cls-19" d="m290.93,35.11c0,.92-.75,1.67-1.67,1.67s-1.67-.75-1.67-1.67.75-1.67,1.67-1.67,1.67.75,1.67,1.67Z"/>
            <path class="cls-33" d="m296.21,35.11c0,.92-.75,1.67-1.67,1.67s-1.67-.75-1.67-1.67.75-1.67,1.67-1.67,1.67.75,1.67,1.67Z"/>
          </g>
        </g>
      </g>
      <g>
        <g>
          <g>
            <path class="cls-36" d="m312.51,312.63s-.55,7.43.27,10.96c.82,3.53-3.09,10.38-24.14,5.01-21.05-5.38-15.83-5.01-15.83-5.01,0,0,2.17-5.76,2.17-8.23s37.53-2.73,37.53-2.73Z"/>
            <path class="cls-36" d="m216.22,333.72l-38.53-54.68c-2.94-5.43-4.74-11.81-4.6-12.4,1.4-5.96,2.12-9.57.2-10.85-2.14-1.2-5.34,7.34-5.61,7.46-.65-.74-.89-1.44-1.49-2.36-2.39-4.32-5.38-9.88-6.81-12.37-1.26-2.18-4.27-.83-4.16,1.06.13,2.16,2.46,8.52,3.69,11.75l-.05.45c-1.53-2.81-4.93-8.87-7.48-11.91-.71-.85-1.97-1.27-3.32-.46-.75.61-1.17,1.81-.58,3.01,1.52,3.11,3.84,7.08,5.49,9.82-2.43-3.77-6.47-9.41-8.49-8.55-1.28.84-1.17,2.85-.47,4.42.7,1.57,6.4,10.99,6.4,10.99,0,0-6.25-7.06-8.23-7.31-2.54-.33-3.34,1.53-2.02,3.55,3.02,4.62,10.37,11.77,11.36,12.46,1.93,1.35,4.77,4.83,6.53,7.62,0,0,34.23,62.96,37.92,67.34,5.42,6.43,42.64,12.21,42.64,12.21l2.91-30.49-25.29-.75Z"/>
            <g>
              <path class="cls-1" d="m343.22,458.97l2.48-79.07s13.74-18.65-2.09-39.43c-12.68-16.63-31.47-17.99-31.47-17.99,0,0-13.44,4.44-23,3.97-14.06-.7-15.92-4.01-15.92-4.01,0,0-21.65,2.12-42.79,9.57-2.22,9.86-2.22,35.25-2.22,35.25l20.99,6.87-11.99,84.52"/>
              <path class="cls-28" d="m322.5,458.47c13.53-14.85,21.92-39.83,23.2-78.57l-2.6,79.07"/>
              <polygon class="cls-21" points="251.56 351.66 246.47 373.23 249.19 374.12 251.56 351.66"/>
            </g>
            <g>
              <path class="cls-37" d="m249.15,428.76c.87-.16,1.64-.3,2.17-.34"/>
              <path class="cls-36" d="m248.86,429.85c9.69-.55,33.17-8.5,40.25-12.72,8.33-4.97,19.49-37.6,23.03-43.74,20.85,0,26.81,12.66,26.81,12.66-5.74,12.62-21.02,37.54-38.37,46.25-15.15,7.6-35.82,9.32-48.48,10.04-.96.05-1.96.07-2.95.17"/>
            </g>
            <path class="cls-36" d="m249.95,442.66c4.22-.89,2.84-10.69,1.44-12.38-1.4-1.69-10.76-2.32-14.45-.93-3.69,1.4-9.08,2.78-14.64,8.34-5.56,5.56,0,7.22,0,7.22,0,0,23.42-1.37,27.64-2.26"/>
            <path class="cls-34" d="m273.21,322.44s1.87,3.31,15.92,4.01c9.56.48,23-3.97,23-3.97,0,0,4.64.76,5.86,1.1,0,0-8.25,9.08-24.01,9.19-12.41.09-20.16-2.72-23.51-6.06-2.58-2.58-2.9-3.5-2.9-3.5,1.45-.26,5.63-.78,5.63-.78Z"/>
            <polygon class="cls-21" points="313.92 357.22 309.59 371.92 312.14 373.39 310.89 375.56 306.54 373.05 313.92 357.22"/>
            <polygon class="cls-21" points="345.7 379.9 340.74 388.26 338.52 386.98 337.41 389.27 340.99 391.38 345.7 379.9"/>
            <g>
              <g>
                <path class="cls-36" d="m310.17,196.38s11.74,2.79,24.05,9.98c12.62,7.37,25.84,19.36,27.62,37.68,1.02,10.55.12,20.75-2.68,30.1-6.8,22.72-24.76,40.38-53.33,45.75-20.16,3.79-41.99,1.01-58.22-10.91-16.23-11.93-25.95-37.23-21.92-58.31,4.03-21.08,13.72-32.26,28.69-42.01,14.97-9.75,34.3-13.84,55.79-12.27Z"/>
                <path class="cls-31" d="m277.92,272.62s-.08,0-.12,0c-.19-.02-1.9-.17-3.01-.49-2.67-.77-3.62-2.18-3.95-3.23-.34-1.09-.35-2.87,1.53-5.18,1.67-2.05,1.96-6.19,1.93-7.62-.02-.75.58-1.38,1.34-1.39.76-.01,1.38.58,1.39,1.33,0,.25.11,6.15-2.54,9.4-.86,1.05-1.23,2.01-1.04,2.63.18.58.93,1.09,2.1,1.42.72.21,2.04.36,2.49.39.75.07,1.31.73,1.24,1.48-.06.71-.66,1.25-1.36,1.25Z"/>
                <path class="cls-42" d="m222.04,224.69s-4.59-8.19,0-16.25c5.31-5.31,12.81-2.51,11.4-5-2.26-3.97-1.12-11.69.91-14.16,4.66-5.65,11.94-4.46,16.98-4.46,0-4.26-.27-8.94,6.16-11.35,6.05-2.28,12.22,1.71,15.89,5.38,0-6.92,13.16-19.09,24.42-2.2,2.56-4.53,23.33-15.99,32.92,7.05,4.24-2.1,20.04-4.98,29.78,7.56,3.46,4.46,3.91,8.05,4.26,13.68,10.03,0,21.28,18.05,13.26,28.72-3.5,4.65-2.37.56,2.61,9.6,3.26,5.91-.52,16.04-5.44,19.69,2.73,9.23-3.45,20.11-12.78,22.49,1.64,2.98.38,6.96-2.22,9.15-2.6,2.19-6.19,2.86-9.58,2.73-2.35-.09-4.82-.59-6.58-2.16-3.51-3.14-2.63-8.8-1.08-13.25-2.68-1.07-4.39-3.87-4.79-6.73-.39-2.86.35-5.76,1.41-8.45.58-1.46,4.68-3.2-1.61-6.93-3.07-1.82-3.63-6.45-2.42-9.81.52-1.44,1.44-2.7,2.6-3.71-.34-.15-.61-.27-.75-.35-1.2-.63-2.63-.48-3.98-.58-4.86-.37-9.09-4.73-9.32-9.59-.06-1.31.09-2.76-.72-3.78-.89-1.12-2.54-1.57-3.94-1.31-11.8,2.18-19.46.55-24.34-9.99-1.32,4.91-11,8.29-16.04,7.65-5.04-.64-10.75-7.66-10.79-12.74-2.58,4.65-7.74,17.51-21.21,7.45-11.68,15.65-23.28,34.05-14.77,67.31-7.7-6.84-17.01-24.3-14.87-34.81-10.98-20.58,4.68-30.86,4.68-30.86Z"/>
                <path class="cls-14" d="m288.98,279.56s-12,2.82-21.73-1c-1.48-.58-3.17.25-3.57,1.79-.06.22-.1.46-.12.72-.17,2.36,3.18,6.94,7.98,8.46,4.79,1.52,13.19,1.04,16.87-2.14,3.67-3.18,3.55-8.36.56-7.84Z"/>
                <circle class="cls-27" cx="321.31" cy="278.38" r="11.56" transform="translate(-23.72 526.74) rotate(-76.65)"/>
                <path class="cls-27" d="m229.34,266.49c2.12-2.57,5.33-4.2,8.92-4.2,6.39,0,11.56,5.18,11.56,11.56s-5.18,11.56-11.56,11.56c-2.83,0-5.43-1.02-7.44-2.71"/>
                <g>
                  <path class="cls-38" d="m307.29,260.37c-.24,2.9,1.23,5.38,3.28,5.55,2.05.17,3.9-2.04,4.14-4.94.24-2.9-1.23-5.38-3.28-5.55-2.05-.17-3.9,2.04-4.14,4.94Z"/>
                  <path class="cls-38" d="m247.91,255.77c-.24,2.9,1.23,5.38,3.28,5.55,2.05.17,3.9-2.04,4.14-4.94.24-2.9-1.23-5.38-3.28-5.55-2.05-.17-3.9,2.04-4.14,4.94Z"/>
                </g>
              </g>
              <path class="cls-21" d="m273.95,320.09s14.03,3.35,30.34-.37c-1.86,1.07-12.66,6.47-30.95,2.37l.61-2.01Z"/>
            </g>
          </g>
          <g>
            <path class="cls-41" d="m193.14,336.88l27.33,113.79h-120.33c-5.19,0-9.7-3.58-10.88-8.63l-22.49-96.1c-1.05-4.51,2.37-8.82,7-8.82l119.38-.24Z"/>
            <path class="cls-26" d="m304.27,450.67h-83.9c-1.97,0-3.69-1.33-4.18-3.24l-27.17-105.16c-.6-2.31.79-4.66,3.1-5.26,2.31-.59,4.66.79,5.26,3.1l26.33,101.92h80.56c2.38,0,4.32,1.93,4.32,4.32s-1.93,4.31-4.32,4.31Z"/>
            <path class="cls-26" d="m144.26,389.87c3.39,4.12,3.45,9.67.14,12.39s-8.74,1.59-12.13-2.54c-3.39-4.12-3.45-9.67-.14-12.39s8.74-1.59,12.13,2.54Z"/>
          </g>
        </g>
        <rect class="cls-22" x="0" y="451.04" width="465.03" height="48.96" rx="23.58" ry="23.58" transform="translate(465.03 951.04) rotate(-180)"/>
        <g>
          <path class="cls-35" d="m437.15,451.1h-37.63c-1.57,0-2.91-1.13-3.18-2.67l-6.33-36.11h56.65l-6.33,36.11c-.27,1.54-1.61,2.67-3.18,2.67Z"/>
          <path class="cls-35" d="m444.13,421.72h-52.06c-1.19,0-2.21-.86-2.41-2.03l-1.19-6.94c-.19-1.1.66-2.11,1.78-2.11h55.7c1.12,0,1.97,1.01,1.78,2.11l-1.19,6.94c-.2,1.17-1.22,2.03-2.41,2.03Z"/>
          <polygon class="cls-21" points="444.64 423.86 392.04 423.86 391.66 421.72 445.01 421.72 444.64 423.86"/>
          <path class="cls-25" d="m394.91,410.64s-20.89-21.17-11.22-44.65c9.67-23.47,34.61-19.27,44.38-2.36,9.76,16.91-5.12,47.01-5.12,47.01h-28.03Z"/>
          <path class="cls-15" d="m420.08,410.65s-7.36-25.24,6.78-34.91c14.18-9.7,24.54.11,25.84,7.79,2.45,14.53-11.16,27.11-11.16,27.11h-21.46Z"/>
          <line class="cls-8" x1="379.53" y1="385.43" x2="383.13" y2="383.36"/>
          <line class="cls-8" x1="389.23" y1="372.69" x2="393.2" y2="373.93"/>
          <line class="cls-8" x1="417.14" y1="366.21" x2="420.52" y2="363.81"/>
          <line class="cls-8" x1="406.15" y1="372.47" x2="409.76" y2="370.42"/>
          <line class="cls-8" x1="416" y1="355.15" x2="418.28" y2="351.68"/>
          <line class="cls-8" x1="428.03" y1="369.19" x2="431.39" y2="366.74"/>
          <line class="cls-8" x1="436.68" y1="373.49" x2="437.33" y2="369.39"/>
          <line class="cls-8" x1="420.37" y1="391.17" x2="416.31" y2="390.3"/>
          <line class="cls-8" x1="426.19" y1="379.2" x2="423.27" y2="376.24"/>
          <line class="cls-8" x1="434.9" y1="387.83" x2="431.98" y2="384.87"/>
          <line class="cls-8" x1="446.46" y1="397.57" x2="442.36" y2="396.96"/>
          <line class="cls-8" x1="426.7" y1="397.43" x2="429.36" y2="394.23"/>
          <line class="cls-8" x1="442.66" y1="382.54" x2="446.16" y2="380.31"/>
          <line class="cls-8" x1="450.47" y1="385.78" x2="454.47" y2="386.92"/>
          <line class="cls-8" x1="445.46" y1="375.04" x2="448.96" y2="372.82"/>
          <line class="cls-8" x1="437.33" y1="399.48" x2="439.94" y2="402.71"/>
          <line class="cls-8" x1="430.08" y1="404.1" x2="432.69" y2="407.33"/>
          <line class="cls-8" x1="422.42" y1="404.87" x2="418.63" y2="406.56"/>
          <line class="cls-8" x1="446.66" y1="388.54" x2="450.23" y2="390.66"/>
          <line class="cls-8" x1="412.38" y1="377.72" x2="415.71" y2="380.2"/>
          <line class="cls-8" x1="392.58" y1="395.88" x2="389.49" y2="398.66"/>
          <line class="cls-8" x1="410.35" y1="397.27" x2="414.41" y2="398.12"/>
          <line class="cls-8" x1="400.82" y1="385.85" x2="399.03" y2="389.6"/>
          <line class="cls-8" x1="402.02" y1="401.09" x2="401.84" y2="405.24"/>
          <line class="cls-8" x1="399.7" y1="355.01" x2="401.93" y2="358.52"/>
          <line class="cls-8" x1="403.2" y1="347.58" x2="403.81" y2="351.69"/>
          <line class="cls-8" x1="384.57" y1="359.1" x2="387.99" y2="361.45"/>
        </g>
      </g>
      <g>
        <rect class="cls-14" x="12.18" y="65.57" width="160.39" height="116.44"/>
        <g>
          <g class="cls-11">
            <g>
              <path class="cls-17" d="m131.01,169.07c4.36,5.26,14.68,35.72,14.68,35.72l-8.97-3.29s-22.66-37.11-18.45-38.41c4.21-1.29,8.38.7,12.74,5.97Z"/>
              <path class="cls-39" d="m70.19,166.05c.66-1.24,23.85-3.42,23.85-3.42,0,0,9.13,5.56,20.86-1.95,0,0,1.21-1.47,10.54,3.38,4.52,2.35,8.22,28.61,8.6,33.66.39,5.2,7.35,48.97,6.96,66.61-8.98,5.1-67.37-2.4-67.37-2.4,0,0-.6-44.83,3.26-73.92.05-.41-1.85-.24-2.16-.75-2.19-3.56-5.87-18.1-4.55-21.22Z"/>
              <path class="cls-39" d="m134.12,172.13s4.01,6.88,5.3,10.9l1.29,4.01-11.04,2.15-5.59-25.66s5.16,1.86,10.04,8.6Z"/>
              <polygon class="cls-20" points="132.4 177.2 133.98 188.35 132.89 188.35 132.4 177.2"/>
              <g>
                <path class="cls-16" d="m44.07,118.06c.65-.17,1.14.22,1.36.73.78,1.82,1.63,5.18,2,6.73l.06-.2c-.2-1.7-.56-5.04-.41-6.07.14-.9,1.54-1.07,1.86.15.36,1.39,1.08,4.45,1.67,6.85.19.41.38.84.58,1.29.12-.01.27-.1.44-.29.85-.89,2.47-2.3,3.26-1.41.49,1.27-.76,1.59-1.93,4.16-.12.25-.13.72-.09,1.29,1.15,6.47,8.29,37.47,8.29,37.47,7.21-.98,6.51-.68,11.41-.68,0,0,3.78,7.4,3.76,16.3-2.99.53-19,1.35-24.88-3.09-3.66-2.76-6.56-37.71-6.68-44.81-.47-1.58-1.33-3.65-2.01-4.58-.35-.48-2.76-4.96-3.58-7.59-.36-1.15.16-1.9,1.2-1.35.81.42,2.76,4.69,2.76,4.69,0,0-1.48-5.29-1.63-6.13-.14-.84.01-1.8.63-2,.94-.09,2.1,3.18,2.75,5.32-.43-1.54-1.02-3.76-1.36-5.45-.13-.66.16-1.15.54-1.32Z"/>
                <path class="cls-40" d="m72.58,168.08s-1.98-2.96-2.44-1.92c-.46,1.04-.43,1.87-.43,1.87l2.87.05Z"/>
                <path class="cls-24" d="m76.35,184.36s-1.83.09-3.05.31c0,0,.24,1.65.7,2.11,1.99,1.99,2.24-.79,2.35-2.42Z"/>
              </g>
              <g>
                <path class="cls-16" d="m96.06,156.88s-1.11,3.4-2.02,5.75c0,0,11.13,6.39,20.86-1.95,0,0-1-.86-1.44-3.47l-17.41-.34Z"/>
                <g>
                  <path class="cls-16" d="m96.59,98.97s-5.68,1.32-11.64,4.75c-6.12,3.52-12.53,9.27-13.45,18.12-.52,5.09-.12,10.02,1.21,14.54,3.22,10.99,11.85,19.57,25.63,22.24,9.72,1.89,20.27.61,28.15-5.11,7.87-5.71,12.64-17.91,10.75-28.1-1.89-10.19-6.54-15.62-13.74-20.37-7.2-4.75-16.53-6.78-26.91-6.08Z"/>
                  <path class="cls-13" d="m111.95,135.88c-.34,0-.62-.26-.65-.61-.03-.36.24-.68.6-.71.22-.02.86-.09,1.2-.18.57-.16.93-.4,1.02-.68.1-.3-.08-.76-.49-1.27-1.27-1.58-1.2-4.43-1.2-4.55,0-.36.31-.65.68-.64.36,0,.65.31.64.68-.02.69.11,2.69.91,3.68.9,1.12.89,1.98.72,2.5-.16.51-.63,1.19-1.92,1.55-.53.15-1.36.22-1.45.23-.02,0-.04,0-.06,0Z"/>
                  <path class="cls-42" d="m139.07,112.88s2.24-3.94.05-7.85c-2.55-2.58-6.18-1.25-5.49-2.44,1.1-1.91.57-5.64-.4-6.84-2.23-2.74-5.75-2.19-8.19-2.2.01-2.06.16-4.32-2.94-5.5-2.92-1.12-5.91.79-7.69,2.55.02-3.34-6.3-9.26-11.79-1.13-1.22-2.2-11.22-7.79-15.92,3.31-2.04-1.03-9.66-2.46-14.4,3.57-1.68,2.14-1.91,3.88-2.09,6.59-4.84-.03-10.33,8.66-6.48,13.83,1.68,2.26,1.14.28-1.29,4.63-1.59,2.85.21,7.75,2.57,9.53-1.35,4.45,1.61,9.72,6.11,10.89-.8,1.43-.2,3.36,1.05,4.42,1.25,1.06,2.98,1.4,4.62,1.34,1.14-.04,2.33-.27,3.18-1.02,1.7-1.51,1.29-4.24.56-6.39,1.3-.51,2.13-1.86,2.33-3.24.2-1.38-.15-2.78-.66-4.08-.27-.71-2.25-1.56.8-3.34,1.49-.87,1.77-3.1,1.2-4.73-.25-.7-.69-1.31-1.24-1.8.17-.07.29-.13.36-.17.58-.3,1.27-.22,1.92-.27,2.35-.17,4.4-2.26,4.53-4.61.03-.63-.04-1.33.36-1.82.43-.54,1.23-.75,1.91-.62,5.69,1.09,9.4.32,11.78-4.76.62,2.37,5.29,4.03,7.72,3.74,2.44-.29,5.21-3.67,5.25-6.12,1.23,2.25,3.69,8.48,10.22,3.66,5.6,7.59,11.15,16.51,6.95,32.55,3.74-3.28,8.28-11.69,7.28-16.77,5.36-9.91-2.17-14.92-2.17-14.92Z"/>
                  <path class="cls-21" d="m85.65,139.44c-.02,3.83,3.07,6.95,6.9,6.98,3.83.02,6.95-3.07,6.98-6.9.02-3.83-3.07-6.95-6.9-6.98-3.83-.02-6.95,3.07-6.98,6.9Z"/>
                  <path class="cls-21" d="m134.4,142.76c-.09.37-.54.27-.93.27-3.83-.02-6.92-3.15-6.9-6.98.02-3.83,3.15-6.92,6.98-6.9.56,0,1.03.08,1.56.21,0,0,1.11,6.15-.7,13.39Z"/>
                  <g>
                    <path class="cls-38" d="m99.35,130.31c.11,1.4-.61,2.59-1.6,2.67-.99.08-1.88-1-1.99-2.4-.11-1.4.61-2.6,1.6-2.67.99-.08,1.88,1,1.99,2.4Z"/>
                    <path class="cls-38" d="m126.49,127.82c.11,1.4-.61,2.6-1.6,2.67-.99.08-1.88-1-1.99-2.4-.11-1.4.61-2.59,1.6-2.67.99-.08,1.88,1,1.99,2.4Z"/>
                  </g>
                  <path class="cls-21" d="m113.85,158.79s-6.9,1.6-14.77-.24c.89.52,4.61,2.52,15.04.94l-.27-.7Z"/>
                  <path class="cls-30" d="m108.47,138.54c.18.44,2.94,1.54,3.99,1.67,2.06.25,4-.26,4.65-1.37,0,0,.72,4.35-2.22,5.6-2.3.97-4.4-.06-5.42-1.32-1.51-1.86-1-4.58-1-4.58Z"/>
                  <path class="cls-42" d="m74.56,89.82s-.78-6.63-8.32-5.94c-6.21.57-7.04,6.2-5.18,8.83,0,0-8.67-2.7-11.06,5.93-1.91,6.88,5.57,8.08,5.57,8.08,0,0-8.29,2.17-5.97,9.28,3.41,10.41,13.05,3.3,13.05,3.3,0,0-2,9.13,7.39,6.89,9.39-2.24,17.66-24.12,17.66-24.12l-1.01-9.28s-5.95-10.94-12.14-2.97Z"/>
                  <path class="cls-39" d="m61.95,121.04c.47,0,.86-.36.89-.84.05-.88,1.55-21.68,24.05-26.55.48-.1.78-.58.68-1.06-.1-.48-.58-.79-1.06-.68-23.84,5.16-25.44,27.95-25.45,28.18-.03.49.35.91.84.94.02,0,.04,0,.05,0Z"/>
                </g>
                <g>
                  <path class="cls-4" d="m105.69,129.6c-.54,5.32-5.29,9.2-10.62,8.66-5.32-.54-9.2-5.29-8.66-10.62.54-5.32,5.29-9.2,10.62-8.66,5.32.54,9.2,5.29,8.66,10.62Z"/>
                  <path class="cls-4" d="m135.97,126.82c-.54,5.32-5.29,9.2-10.62,8.66-5.32-.54-9.2-5.29-8.66-10.62.54-5.32,5.29-9.2,10.62-8.66,5.32.54,9.2,5.29,8.66,10.62Z"/>
                  <path class="cls-4" d="m105.69,129.6s4.29-8.49,11.11-2"/>
                  <line class="cls-12" x1="85.94" y1="129.97" x2="78.23" y2="131.54"/>
                </g>
              </g>
            </g>
          </g>
          <rect class="cls-10" x="12.18" y="65.57" width="160.39" height="116.44"/>
        </g>
        <g>
          <rect class="cls-18" x="15.51" y="68.91" width="153.72" height="5.59"/>
          <g>
            <path class="cls-32" d="m21.06,71.59c0,.92-.75,1.67-1.67,1.67s-1.67-.75-1.67-1.67.75-1.67,1.67-1.67,1.67.75,1.67,1.67Z"/>
            <path class="cls-19" d="m26.33,71.59c0,.92-.75,1.67-1.67,1.67s-1.67-.75-1.67-1.67.75-1.67,1.67-1.67,1.67.75,1.67,1.67Z"/>
            <path class="cls-33" d="m31.6,71.59c0,.92-.75,1.67-1.67,1.67s-1.67-.75-1.67-1.67.75-1.67,1.67-1.67,1.67.75,1.67,1.67Z"/>
          </g>
        </g>
      </g>
      <g>
        <path class="cls-39" d="m202.76,39.84c3.58-4.3,5.55-9.61,5.55-15.04,0-6.65-2.84-12.89-7.99-17.58-5.12-4.66-11.91-7.22-19.13-7.22s-14.01,2.57-19.13,7.22c-5.15,4.69-7.99,10.93-7.99,17.58s2.84,12.89,7.99,17.58c5.12,4.66,11.91,7.22,19.13,7.22,4.51,0,8.96-1.03,12.91-2.99l9.45,3.54c.15.06.3.08.46.08.32,0,.64-.12.88-.35.36-.33.5-.84.37-1.31l-2.5-8.75Zm-8.96,3.16c-.33-.12-.69-.1-1.01.06-3.51,1.83-7.52,2.8-11.6,2.8-12.82,0-23.26-9.45-23.26-21.07s10.43-21.07,23.26-21.07,23.26,9.45,23.26,21.07c0,4.83-1.76,9.38-5.09,13.15-.28.32-.38.75-.26,1.16l1.88,6.58-7.18-2.69Z"/>
        <path class="cls-41" d="m214.11,63.82c-.1.36,0,.75.28,1.01.19.17.43.26.68.26.12,0,.24-.02.35-.06l7.23-2.71c3.02,1.5,6.42,2.28,9.87,2.28,5.52,0,10.72-1.96,14.63-5.53,3.94-3.59,6.11-8.36,6.11-13.45s-2.17-9.86-6.11-13.45c-3.91-3.56-9.11-5.53-14.63-5.53s-10.72,1.96-14.63,5.53c-3.94,3.59-6.11,8.36-6.11,13.45,0,4.15,1.5,8.21,4.24,11.5l-1.91,6.69Z"/>
      </g>
      <g>
        <g>
          <path class="cls-22" d="m219.09,152.99h-60.43c-2.6,0-4.7,2.11-4.7,4.7v36.53c0,2.6,2.11,4.7,4.7,4.7h.29v7.52l10.78-7.4-.62-.12h49.97c2.6,0,4.7-2.11,4.7-4.7v-36.53c0-2.6-2.11-4.7-4.7-4.7Z"/>
          <g>
            <line class="cls-5" x1="167.32" y1="163.59" x2="210.44" y2="163.59"/>
            <line class="cls-5" x1="167.32" y1="169.83" x2="210.44" y2="169.83"/>
            <line class="cls-5" x1="167.32" y1="176.07" x2="210.44" y2="176.07"/>
            <line class="cls-5" x1="167.32" y1="182.32" x2="210.44" y2="182.32"/>
            <line class="cls-5" x1="167.32" y1="188.56" x2="192.64" y2="188.56"/>
          </g>
        </g>
        <g>
          <path class="cls-35" d="m31.55,228.39h82.82c4.16,0,7.53,3.37,7.53,7.53v45.22c0,4.16-3.37,7.53-7.53,7.53h-.47v12.04l-17.26-11.85.99-.19H31.55c-4.16,0-7.53-3.37-7.53-7.53v-45.22c0-4.16,3.37-7.53,7.53-7.53Z"/>
          <g>
            <line class="cls-2" x1="44.69" y1="242.83" x2="101.23" y2="242.83"/>
            <line class="cls-2" x1="44.69" y1="252.82" x2="101.23" y2="252.82"/>
            <line class="cls-2" x1="44.69" y1="262.8" x2="101.23" y2="262.8"/>
            <line class="cls-2" x1="44.69" y1="272.79" x2="72.75" y2="272.79"/>
          </g>
        </g>
      </g>
    </g>
  </g>
</svg>